G04*
G04 #@! TF.GenerationSoftware,Altium Limited,Altium Designer,24.5.2 (23)*
G04*
G04 Layer_Physical_Order=7*
G04 Layer_Color=6736896*
%FSLAX44Y44*%
%MOMM*%
G71*
G04*
G04 #@! TF.SameCoordinates,592061D7-B9A1-4A66-9416-76F5012AC85A*
G04*
G04*
G04 #@! TF.FilePolarity,Positive*
G04*
G01*
G75*
%ADD85C,1.4001*%
%ADD86C,0.2339*%
%ADD87C,0.2000*%
%ADD88C,0.5000*%
D85*
X639050Y45800D02*
D03*
X651750Y33100D02*
D03*
Y58500D02*
D03*
X626350D02*
D03*
Y33100D02*
D03*
D86*
X188750Y68000D02*
D03*
X192250D02*
D03*
X195750D02*
D03*
Y64500D02*
D03*
X192250D02*
D03*
X188750D02*
D03*
D87*
X223920Y99205D02*
D03*
D88*
X441000Y59500D02*
D03*
Y67500D02*
D03*
X18500Y115500D02*
D03*
X4500Y87750D02*
D03*
X47250Y115500D02*
D03*
X98400D02*
D03*
X74250Y115250D02*
D03*
X98400Y93250D02*
D03*
X31750Y115500D02*
D03*
X18750Y87750D02*
D03*
X34500Y97500D02*
D03*
X72500Y109500D02*
D03*
X47000Y102500D02*
D03*
X4500Y115500D02*
D03*
X29250Y92000D02*
D03*
X49500Y96750D02*
D03*
X4500Y18000D02*
D03*
X113250Y4500D02*
D03*
X91250D02*
D03*
X28500Y18250D02*
D03*
X47750Y4750D02*
D03*
X4500Y4500D02*
D03*
X98250Y32250D02*
D03*
X76250Y33750D02*
D03*
X85000Y26750D02*
D03*
X61000Y31250D02*
D03*
X135500Y57500D02*
D03*
X115500Y59500D02*
D03*
X66500Y57500D02*
D03*
X73500D02*
D03*
X135500Y4500D02*
D03*
X94000Y21500D02*
D03*
X135500Y18250D02*
D03*
Y32000D02*
D03*
Y48250D02*
D03*
Y73750D02*
D03*
X119750Y89250D02*
D03*
X135500Y89750D02*
D03*
Y115500D02*
D03*
X119750D02*
D03*
X72500Y4250D02*
D03*
X98400Y85400D02*
D03*
X106068Y63556D02*
D03*
X115250Y42500D02*
D03*
X73500Y62500D02*
D03*
X66500D02*
D03*
X4500Y63000D02*
D03*
X41250Y51250D02*
D03*
X41000Y59500D02*
D03*
X35000Y4250D02*
D03*
X4500Y40000D02*
D03*
X27750Y10250D02*
D03*
X126844Y30850D02*
D03*
X101250Y15714D02*
D03*
X31750Y59750D02*
D03*
X22250Y18000D02*
D03*
X23500Y40000D02*
D03*
X4500Y51250D02*
D03*
X30000Y40000D02*
D03*
X110750Y68000D02*
D03*
M02*
