G04*
G04 #@! TF.GenerationSoftware,Altium Limited,Altium Designer,24.5.2 (23)*
G04*
G04 Layer_Physical_Order=6*
G04 Layer_Color=16711680*
%FSLAX44Y44*%
%MOMM*%
G71*
G04*
G04 #@! TF.SameCoordinates,341C2CF7-429B-42C7-B8C7-4B7D01239ABD*
G04*
G04*
G04 #@! TF.FilePolarity,Positive*
G04*
G01*
G75*
%ADD11C,0.1500*%
%ADD12C,0.2000*%
%ADD14C,0.1524*%
%ADD20R,0.2700X0.3000*%
%ADD28R,0.2000X0.3500*%
%ADD32R,0.7500X0.8000*%
%ADD63C,0.1016*%
%ADD64C,1.0000*%
%ADD65C,0.2000*%
%ADD66C,0.1050*%
%ADD69C,0.2032*%
%ADD70C,0.2500*%
%ADD72C,0.4000*%
%ADD74C,1.0200*%
%ADD75C,4.5000*%
%ADD76C,0.2524*%
%ADD77C,0.5000*%
%ADD78C,0.2520*%
%ADD79R,2.0300X0.7600*%
%ADD80R,0.3500X0.5500*%
%ADD81R,1.5000X1.1000*%
%ADD82R,0.3500X2.1000*%
%ADD83C,1.5000*%
%ADD84R,0.8000X0.7500*%
%ADD85R,1.8000X1.2000*%
%ADD86R,1.5500X0.6000*%
%ADD87R,0.7501X0.7501*%
G04:AMPARAMS|DCode=88|XSize=0.12mm|YSize=0.22mm|CornerRadius=0.03mm|HoleSize=0mm|Usage=FLASHONLY|Rotation=180.000|XOffset=0mm|YOffset=0mm|HoleType=Round|Shape=RoundedRectangle|*
%AMROUNDEDRECTD88*
21,1,0.1200,0.1600,0,0,180.0*
21,1,0.0600,0.2200,0,0,180.0*
1,1,0.0600,-0.0300,0.0800*
1,1,0.0600,0.0300,0.0800*
1,1,0.0600,0.0300,-0.0800*
1,1,0.0600,-0.0300,-0.0800*
%
%ADD88ROUNDEDRECTD88*%
%ADD89R,1.1300X1.8200*%
%ADD90C,0.1930*%
%ADD91R,0.5000X0.6500*%
%ADD92C,0.1270*%
%ADD93R,0.5588X0.1524*%
%ADD94R,1.2500X1.7250*%
G36*
X206791Y375483D02*
X211282Y374024D01*
X215490Y371880D01*
X219310Y369104D01*
X222649Y365765D01*
X225424Y361945D01*
X227568Y357737D01*
X229028Y353246D01*
X229766Y348582D01*
Y346221D01*
Y326221D01*
X229766D01*
X229814Y325241D01*
X230197Y323318D01*
X230947Y321507D01*
X232036Y319877D01*
X233422Y318491D01*
X235052Y317402D01*
X236863Y316652D01*
X238786Y316269D01*
X239766Y316221D01*
X389782Y316221D01*
Y316261D01*
X390767D01*
X392699Y315877D01*
X394519Y315123D01*
X396157Y314029D01*
X397550Y312636D01*
X398644Y310998D01*
X398803Y310615D01*
X398238Y309770D01*
X378730D01*
Y295230D01*
X399270D01*
X399782Y294426D01*
Y274574D01*
X399270Y273770D01*
X398766Y273770D01*
X378730D01*
Y259230D01*
X398766D01*
X399270Y259230D01*
X399782Y258426D01*
Y204177D01*
X399520Y203270D01*
X398766Y203270D01*
X378980D01*
Y188730D01*
X398766D01*
X399520Y188730D01*
X399782Y187823D01*
Y168177D01*
X399520Y167270D01*
X398766Y167270D01*
X378980D01*
Y152730D01*
X398766D01*
X399520Y152730D01*
X399782Y151823D01*
Y125700D01*
X377140Y125700D01*
X377140Y125700D01*
X376164Y125604D01*
X374362Y124858D01*
X372982Y123478D01*
X372236Y121676D01*
X372140Y120700D01*
X372140Y104700D01*
X372236Y103725D01*
X372983Y101922D01*
X374362Y100543D01*
X376165Y99796D01*
X377140Y99700D01*
X399064D01*
X399782Y98982D01*
X399782Y76261D01*
X399782D01*
Y75276D01*
X399398Y73344D01*
X398644Y71525D01*
X397550Y69887D01*
X396157Y68494D01*
X394519Y67399D01*
X392699Y66646D01*
X390767Y66261D01*
X389782Y66261D01*
X239782D01*
Y66261D01*
X238802Y66213D01*
X236879Y65831D01*
X235068Y65080D01*
X233438Y63991D01*
X232052Y62605D01*
X230963Y60975D01*
X230213Y59164D01*
X229830Y57242D01*
X229782Y56261D01*
X229782Y36261D01*
Y33900D01*
X229044Y29236D01*
X227584Y24745D01*
X225441Y20538D01*
X222665Y16718D01*
X219326Y13379D01*
X215506Y10603D01*
X211298Y8459D01*
X206807Y7000D01*
X202143Y6261D01*
X197421D01*
X192757Y7000D01*
X188266Y8459D01*
X184059Y10603D01*
X180239Y13379D01*
X176900Y16718D01*
X174124Y20538D01*
X171980Y24745D01*
X170521Y29236D01*
X169782Y33900D01*
Y36261D01*
Y56261D01*
X169782D01*
X169734Y57242D01*
X169352Y59164D01*
X168601Y60975D01*
X167512Y62605D01*
X166126Y63991D01*
X164496Y65080D01*
X162685Y65831D01*
X160762Y66213D01*
X159782Y66261D01*
X68100Y66261D01*
Y132650D01*
X-218D01*
Y258296D01*
X-20Y259230D01*
X798Y259230D01*
X20520D01*
Y273770D01*
X-20Y273770D01*
X-218Y274704D01*
Y294296D01*
X-20Y295230D01*
X20520D01*
Y309770D01*
X1326D01*
X762Y310615D01*
X921Y310998D01*
X2015Y312636D01*
X3408Y314029D01*
X5046Y315123D01*
X6866Y315877D01*
X8797Y316261D01*
X9782D01*
Y316221D01*
X159766D01*
Y316221D01*
X160746Y316269D01*
X162669Y316652D01*
X164480Y317402D01*
X166110Y318491D01*
X167496Y319877D01*
X168585Y321507D01*
X169336Y323318D01*
X169718Y325241D01*
X169766Y326221D01*
X169766Y346221D01*
Y348582D01*
X170505Y353246D01*
X171964Y357737D01*
X174108Y361945D01*
X176884Y365765D01*
X180222Y369104D01*
X184043Y371880D01*
X188250Y374024D01*
X192741Y375483D01*
X197405Y376221D01*
X202127D01*
X206791Y375483D01*
D02*
G37*
%LPC*%
G36*
X202195Y370761D02*
X201052D01*
Y347531D01*
X224282D01*
Y348674D01*
X223341Y353408D01*
X221494Y357867D01*
X218813Y361879D01*
X215400Y365292D01*
X211387Y367973D01*
X206929Y369820D01*
X202195Y370761D01*
D02*
G37*
G36*
X198512D02*
X197369D01*
X192636Y369820D01*
X188177Y367973D01*
X184164Y365292D01*
X180752Y361879D01*
X178071Y357867D01*
X176224Y353408D01*
X175282Y348674D01*
Y347531D01*
X198512D01*
Y370761D01*
D02*
G37*
G36*
X224282Y344991D02*
X201052D01*
Y321761D01*
X202195D01*
X206929Y322703D01*
X211387Y324550D01*
X215400Y327231D01*
X218813Y330644D01*
X221494Y334656D01*
X223341Y339115D01*
X224282Y343848D01*
Y344991D01*
D02*
G37*
G36*
X198512D02*
X175282D01*
Y343848D01*
X176224Y339115D01*
X178071Y334656D01*
X180752Y330644D01*
X184164Y327231D01*
X188177Y324550D01*
X192636Y322703D01*
X197369Y321761D01*
X198512D01*
Y344991D01*
D02*
G37*
G36*
X337450Y300750D02*
X335370D01*
Y298520D01*
X337450D01*
Y300750D01*
D02*
G37*
G36*
Y295980D02*
X335370D01*
Y293750D01*
X337450D01*
Y295980D01*
D02*
G37*
G36*
X70020Y293168D02*
Y291520D01*
X71302D01*
X71217Y291947D01*
X70708Y292708D01*
X70020Y293168D01*
D02*
G37*
G36*
X360000Y294500D02*
X351520D01*
Y290770D01*
X360000D01*
Y294500D01*
D02*
G37*
G36*
X348980D02*
X340500D01*
Y290770D01*
X348980D01*
Y294500D01*
D02*
G37*
G36*
X58020Y293770D02*
X39980D01*
Y285230D01*
X58020D01*
Y287936D01*
X62435D01*
Y285922D01*
X62612Y285036D01*
X63113Y284285D01*
X64285Y283113D01*
X65036Y282612D01*
X65325Y282554D01*
X65858Y281487D01*
X65856Y281447D01*
X65768Y281296D01*
X65662Y281279D01*
X65050Y281401D01*
X64450D01*
X64016Y281315D01*
X58020D01*
Y283770D01*
X39980D01*
Y275230D01*
X58020D01*
Y276686D01*
X62435D01*
Y260972D01*
X62612Y260086D01*
X63113Y259335D01*
X72341Y250108D01*
Y249094D01*
X72359Y249004D01*
X71516Y248032D01*
X71246D01*
X70316Y247647D01*
X69982Y247313D01*
X69779D01*
X61560Y255532D01*
X60972Y255925D01*
X60278Y256063D01*
X14768D01*
X14434Y256397D01*
X13504Y256782D01*
X12496D01*
X11566Y256397D01*
X10854Y255684D01*
X10468Y254754D01*
Y253746D01*
X10854Y252816D01*
X11566Y252104D01*
X12496Y251718D01*
X13504D01*
X14434Y252104D01*
X14768Y252437D01*
X59528D01*
X67747Y244218D01*
X68335Y243825D01*
X69028Y243687D01*
X69060D01*
X69139Y243579D01*
X68625Y242563D01*
X66000D01*
X65306Y242425D01*
X64718Y242032D01*
X50565Y227879D01*
X50172Y227291D01*
X50034Y226597D01*
X50077Y226382D01*
X43722Y220028D01*
X43400Y219250D01*
Y204750D01*
X43722Y203972D01*
X50722Y196972D01*
X51500Y196650D01*
X65250D01*
X66028Y196972D01*
X68555Y199500D01*
X75750D01*
Y216750D01*
X66600D01*
Y218794D01*
X68706Y220900D01*
X83096D01*
X83218Y220718D01*
X86437Y217499D01*
Y212751D01*
X82468Y208782D01*
X82075Y208194D01*
X81937Y207500D01*
X82075Y206806D01*
X82468Y206218D01*
X82650Y206096D01*
Y204456D01*
X76045Y197850D01*
X69250D01*
X68472Y197528D01*
X63794Y192850D01*
X48653D01*
X48253Y193251D01*
X47602Y193520D01*
X46898D01*
X46247Y193251D01*
X45750Y192753D01*
X45480Y192102D01*
Y191398D01*
X45750Y190747D01*
X46247Y190250D01*
X46898Y189980D01*
X47602D01*
X48253Y190250D01*
X48653Y190650D01*
X64250D01*
X64575Y190785D01*
X65150Y189923D01*
X63113Y187887D01*
X62612Y187136D01*
X62435Y186250D01*
Y185065D01*
X59020D01*
Y187270D01*
X40980D01*
Y178730D01*
X59020D01*
Y180436D01*
X64016D01*
X64450Y180349D01*
X65050D01*
X65662Y180471D01*
X66792Y180292D01*
X67480Y179832D01*
Y182750D01*
X68750D01*
Y184020D01*
X71301D01*
X71217Y184447D01*
X70708Y185208D01*
X70018Y185669D01*
X70008Y185743D01*
X70615Y186686D01*
X88250D01*
X89136Y186862D01*
X89887Y187363D01*
X98420Y195896D01*
X99436Y195476D01*
Y183288D01*
X98784Y182637D01*
X98784Y182637D01*
X85957Y169810D01*
X71608D01*
X71065Y170826D01*
X71217Y171053D01*
X71302Y171480D01*
X68750D01*
Y172750D01*
X67480D01*
Y175668D01*
X66792Y175208D01*
X65663Y175029D01*
X65050Y175151D01*
X64450D01*
X64016Y175065D01*
X59020D01*
Y177270D01*
X40980D01*
Y168730D01*
X59020D01*
Y170436D01*
X62435D01*
Y169351D01*
X62612Y168465D01*
X63113Y167714D01*
X64896Y165931D01*
X64865Y165626D01*
X64552Y164915D01*
X43028D01*
X42694Y165249D01*
X41764Y165635D01*
X40756D01*
X39826Y165249D01*
X39114Y164537D01*
X38728Y163606D01*
Y162599D01*
X39114Y161668D01*
X39826Y160956D01*
X40756Y160571D01*
X41764D01*
X42694Y160956D01*
X43028Y161290D01*
X158353D01*
X159046Y161428D01*
X159635Y161821D01*
X165001Y167187D01*
X187940D01*
X188634Y167325D01*
X189222Y167718D01*
X194222Y172718D01*
X194694D01*
X195624Y173104D01*
X196336Y173816D01*
X196722Y174746D01*
Y175754D01*
X196336Y176684D01*
X195624Y177397D01*
X194694Y177782D01*
X193686D01*
X192756Y177397D01*
X192464Y177105D01*
X192140Y177428D01*
X191209Y177814D01*
X190737D01*
X188769Y179782D01*
X188181Y180175D01*
X187488Y180313D01*
X142001D01*
X99432Y222882D01*
X99853Y223898D01*
X116029D01*
X116248Y223369D01*
X116960Y222656D01*
X117891Y222271D01*
X118898D01*
X119829Y222656D01*
X120541Y223369D01*
X120927Y224299D01*
Y225307D01*
X120541Y226237D01*
X119829Y226950D01*
X118898Y227335D01*
X117891D01*
X117865Y227324D01*
X117773Y227385D01*
X117079Y227523D01*
X114732D01*
X114311Y228539D01*
X115032Y229260D01*
X115425Y229848D01*
X115563Y230542D01*
Y231732D01*
X115897Y232066D01*
X116282Y232996D01*
Y234004D01*
X115897Y234934D01*
X115184Y235646D01*
X114254Y236032D01*
X113246D01*
X112316Y235646D01*
X111603Y234934D01*
X111218Y234004D01*
Y232996D01*
X111495Y232329D01*
X111140Y231556D01*
X110920Y231313D01*
X108077D01*
X107875Y232329D01*
X107934Y232353D01*
X108646Y233066D01*
X109032Y233996D01*
Y235004D01*
X108646Y235934D01*
X107934Y236646D01*
X107004Y237032D01*
X105996D01*
X105066Y236646D01*
X104732Y236313D01*
X65563D01*
X65436Y236457D01*
X65079Y237265D01*
X66751Y238937D01*
X98982D01*
X99316Y238603D01*
X100246Y238218D01*
X101254D01*
X102184Y238603D01*
X102896Y239316D01*
X103282Y240246D01*
Y241254D01*
X102896Y242184D01*
X102184Y242896D01*
X101254Y243282D01*
X100246D01*
X99316Y242896D01*
X98982Y242563D01*
X82989D01*
X82532Y243246D01*
Y244254D01*
X82147Y245184D01*
X81434Y245896D01*
X80909Y246114D01*
X76970Y250053D01*
Y251066D01*
X76794Y251952D01*
X76292Y252703D01*
X67064Y261931D01*
Y275231D01*
X67480Y275516D01*
Y279000D01*
X68750D01*
Y280270D01*
X71383D01*
X72246Y280731D01*
X78214Y274763D01*
Y254482D01*
X77996Y253957D01*
Y252950D01*
X78382Y252019D01*
X79094Y251307D01*
X80024Y250921D01*
X81032D01*
X81962Y251307D01*
X82675Y252019D01*
X83060Y252950D01*
Y253957D01*
X82843Y254482D01*
Y275722D01*
X82666Y276608D01*
X82165Y277359D01*
X73137Y286387D01*
X72386Y286888D01*
X71500Y287064D01*
X71351D01*
X71274Y287151D01*
X70901Y288081D01*
X71217Y288553D01*
X71301Y288980D01*
X68750D01*
Y290250D01*
X67480D01*
Y293168D01*
X66792Y292708D01*
X65662Y292529D01*
X65050Y292651D01*
X64450D01*
X64016Y292565D01*
X58020D01*
Y293770D01*
D02*
G37*
G36*
X71301Y277730D02*
X70020D01*
Y276082D01*
X70708Y276542D01*
X71217Y277303D01*
X71301Y277730D01*
D02*
G37*
G36*
X201905Y306770D02*
X199595D01*
X197365Y306172D01*
X195365Y305018D01*
X193732Y303385D01*
X192578Y301385D01*
X191980Y299155D01*
Y296845D01*
X192578Y294615D01*
X193732Y292615D01*
X195365Y290982D01*
X197365Y289828D01*
X199595Y289230D01*
X201905D01*
X204135Y289828D01*
X206068Y290944D01*
X207073Y289939D01*
X208155Y289216D01*
X209431Y288962D01*
X209573D01*
X212166Y286369D01*
Y272750D01*
X212375Y271697D01*
Y245250D01*
X212778Y244278D01*
X213750Y243875D01*
X219166D01*
Y217750D01*
X219420Y216474D01*
X220142Y215392D01*
X230166Y205369D01*
Y132381D01*
X214595Y116810D01*
X212381D01*
X204584Y124607D01*
X203502Y125330D01*
X202226Y125584D01*
X147631D01*
X127044Y146171D01*
X127465Y147187D01*
X147749D01*
X155968Y138968D01*
X156556Y138575D01*
X157250Y138437D01*
X175952D01*
X176646Y138575D01*
X177234Y138968D01*
X179953Y141687D01*
X203250D01*
X203944Y141825D01*
X204532Y142218D01*
X221032Y158718D01*
X221425Y159306D01*
X221563Y160000D01*
Y181215D01*
X221425Y181909D01*
X221032Y182497D01*
X216842Y186687D01*
Y187159D01*
X216457Y188089D01*
X215744Y188802D01*
X215651Y189268D01*
X215897Y189513D01*
X216282Y190443D01*
Y191451D01*
X215897Y192381D01*
X215184Y193093D01*
X214254Y193479D01*
X213246D01*
X212316Y193093D01*
X211604Y192381D01*
X211218Y191451D01*
Y191387D01*
X209718Y189887D01*
X209325Y189299D01*
X209187Y188605D01*
Y183197D01*
X209325Y182503D01*
X209718Y181915D01*
X214437Y177196D01*
Y163501D01*
X200795Y149859D01*
X178424D01*
X177730Y149721D01*
X177142Y149328D01*
X174377Y146563D01*
X157876D01*
X150407Y154032D01*
X149819Y154425D01*
X149125Y154563D01*
X40084D01*
X35521Y159125D01*
Y181707D01*
X39032Y185218D01*
X39425Y185806D01*
X39563Y186500D01*
Y197500D01*
X39425Y198194D01*
X39032Y198782D01*
X37990Y199823D01*
X37402Y200216D01*
X36708Y200354D01*
X34326D01*
X33632Y200216D01*
X33044Y199823D01*
X32558Y199337D01*
X30403D01*
X29925Y199815D01*
X28995Y200201D01*
X27987D01*
X27057Y199815D01*
X26344Y199103D01*
X25959Y198173D01*
Y197165D01*
X26344Y196235D01*
X27057Y195522D01*
X27987Y195137D01*
X28995D01*
X29925Y195522D01*
X30114Y195712D01*
X33309D01*
X34003Y195850D01*
X34591Y196243D01*
X34921Y196573D01*
X35937Y196353D01*
Y187251D01*
X32427Y183740D01*
X32329Y183594D01*
X31313Y183902D01*
Y188482D01*
X31646Y188816D01*
X32032Y189746D01*
Y190754D01*
X31646Y191684D01*
X30934Y192397D01*
X30004Y192782D01*
X28996D01*
X28066Y192397D01*
X27353Y191684D01*
X26968Y190754D01*
Y189746D01*
X27353Y188816D01*
X27687Y188482D01*
Y175032D01*
X27325Y174490D01*
X27187Y173796D01*
Y158250D01*
X27325Y157556D01*
X27718Y156968D01*
X31914Y152772D01*
X31364Y151984D01*
X29978Y152558D01*
X28478D01*
X27093Y151984D01*
X26032Y150924D01*
X25458Y149538D01*
Y148038D01*
X26032Y146653D01*
X27093Y145592D01*
X28145Y145156D01*
X31409Y141892D01*
X32490Y141170D01*
X33766Y140916D01*
X122869D01*
X143892Y119893D01*
X144974Y119170D01*
X146250Y118916D01*
X200845D01*
X208643Y111118D01*
X209724Y110396D01*
X211000Y110142D01*
X215976D01*
X217252Y110396D01*
X218334Y111118D01*
X235858Y128643D01*
X236580Y129724D01*
X236834Y131000D01*
Y206750D01*
X236580Y208026D01*
X235858Y209107D01*
X225834Y219131D01*
Y243980D01*
X226270D01*
Y244997D01*
X226375Y245250D01*
Y254000D01*
X226270Y254253D01*
Y254520D01*
X226159D01*
X225972Y254972D01*
X225875Y255012D01*
Y257750D01*
X226980D01*
Y262500D01*
X229520D01*
Y257750D01*
X232000D01*
Y258480D01*
X236770D01*
Y260935D01*
X240250D01*
X240474Y260980D01*
X244020D01*
Y284520D01*
X237980D01*
Y281363D01*
X237259Y280459D01*
X236770Y280519D01*
Y287020D01*
X236064D01*
Y288331D01*
X243169Y295436D01*
X245791D01*
X246078Y294365D01*
X247232Y292365D01*
X248865Y290732D01*
X250865Y289578D01*
X251936Y289291D01*
Y284520D01*
X249230D01*
Y274480D01*
X257026D01*
X257250Y274436D01*
X257474Y274480D01*
X259770D01*
Y284520D01*
X256565D01*
Y289291D01*
X257635Y289578D01*
X259635Y290732D01*
X261268Y292365D01*
X262422Y294365D01*
X263020Y296595D01*
Y298905D01*
X262422Y301135D01*
X261268Y303135D01*
X259635Y304768D01*
X257635Y305922D01*
X255405Y306520D01*
X253095D01*
X250865Y305922D01*
X248865Y304768D01*
X247232Y303135D01*
X246078Y301135D01*
X245791Y300065D01*
X242210D01*
X241324Y299888D01*
X240573Y299387D01*
X236970Y295783D01*
X235952Y296000D01*
X235838Y296089D01*
X235424Y296708D01*
X235532Y297250D01*
X235318Y298327D01*
X235314Y298501D01*
X235258Y298627D01*
X235227Y298785D01*
X235234Y298932D01*
X235152Y299162D01*
X235029Y299777D01*
X233598Y301920D01*
X232999Y302320D01*
X232966Y302352D01*
X232930Y302366D01*
X232788Y302461D01*
X232739Y302530D01*
X231864Y303078D01*
X231455Y303351D01*
X230691Y303503D01*
X230486Y303567D01*
X230384Y303557D01*
X230034Y303627D01*
X229646Y303550D01*
X229625Y303551D01*
X229588Y303539D01*
X229241Y303469D01*
X228973Y303290D01*
X227948Y303025D01*
X227531Y303288D01*
X227259Y303469D01*
X227124Y303496D01*
X227096Y303529D01*
X226867Y303547D01*
X226700Y303581D01*
X226452Y303679D01*
X226258Y303595D01*
X226047Y303612D01*
X225561Y303454D01*
X225045Y303351D01*
X224653Y303090D01*
X224528Y303065D01*
X223883Y302637D01*
X223807Y302524D01*
X223790Y302513D01*
X223671Y302464D01*
X223580Y302373D01*
X222902Y301920D01*
X222211Y300886D01*
X222189Y300869D01*
X222105Y300727D01*
X221471Y299777D01*
X221346Y299150D01*
X221192Y298632D01*
X221209Y298464D01*
X221183Y298333D01*
X221135Y298209D01*
X221138Y298104D01*
X220968Y297250D01*
X221182Y296173D01*
X221186Y295999D01*
X221242Y295873D01*
X221273Y295715D01*
X221266Y295568D01*
X221348Y295338D01*
X221471Y294723D01*
X222557Y293096D01*
Y292078D01*
X221406Y290927D01*
X220904Y290176D01*
X220728Y289290D01*
Y287063D01*
X219730Y287020D01*
X218834Y287310D01*
Y287750D01*
X218580Y289026D01*
X217857Y290107D01*
X213312Y294654D01*
X212230Y295376D01*
X210954Y295630D01*
X210812D01*
X209520Y296922D01*
Y299155D01*
X208922Y301385D01*
X207768Y303385D01*
X206135Y305018D01*
X204135Y306172D01*
X201905Y306770D01*
D02*
G37*
G36*
X146895Y306520D02*
X144585D01*
X142355Y305922D01*
X140355Y304768D01*
X138722Y303135D01*
X137568Y301135D01*
X136970Y298905D01*
Y296595D01*
X137568Y294365D01*
X138722Y292365D01*
X140355Y290732D01*
X142355Y289578D01*
X144585Y288980D01*
X146895D01*
X149125Y289578D01*
X151125Y290732D01*
X152704Y292311D01*
X155464D01*
X157156Y290619D01*
Y271500D01*
X157365Y270447D01*
Y265375D01*
X129000D01*
X128028Y264972D01*
X127625Y264000D01*
Y244750D01*
X128028Y243778D01*
X129000Y243375D01*
X170240D01*
X170493Y243480D01*
X171510D01*
Y244497D01*
X171615Y244750D01*
Y252750D01*
X171510Y253003D01*
Y254020D01*
X170865D01*
Y256500D01*
X171970D01*
Y261250D01*
X174510D01*
Y256500D01*
X176990D01*
Y257230D01*
X181760D01*
Y259685D01*
X185240D01*
X185464Y259730D01*
X189010D01*
Y283270D01*
X182970D01*
Y280113D01*
X182249Y279209D01*
X181760Y279269D01*
Y285770D01*
X182451Y286500D01*
X187717D01*
X194220Y279997D01*
Y273230D01*
X204760D01*
Y275935D01*
X207250D01*
X208136Y276112D01*
X208887Y276613D01*
X208909Y276636D01*
X209434Y276854D01*
X210147Y277566D01*
X210532Y278496D01*
Y279504D01*
X210147Y280434D01*
X209434Y281147D01*
X208504Y281532D01*
X207496D01*
X206566Y281147D01*
X205984Y280564D01*
X204760D01*
Y283270D01*
X197493D01*
X190312Y290451D01*
X189562Y290952D01*
X188676Y291129D01*
X181054D01*
Y295878D01*
X180878Y296764D01*
X180414Y297458D01*
X180522Y298000D01*
X180308Y299077D01*
X180304Y299251D01*
X180248Y299377D01*
X180217Y299535D01*
X180224Y299682D01*
X180142Y299912D01*
X180019Y300527D01*
X178588Y302670D01*
X177989Y303070D01*
X177956Y303102D01*
X177920Y303116D01*
X177778Y303211D01*
X177729Y303280D01*
X176854Y303828D01*
X176445Y304101D01*
X175681Y304253D01*
X175476Y304317D01*
X175374Y304307D01*
X175024Y304377D01*
X174636Y304300D01*
X174615Y304301D01*
X174578Y304289D01*
X174231Y304219D01*
X173963Y304040D01*
X172939Y303775D01*
X172521Y304038D01*
X172249Y304219D01*
X172114Y304246D01*
X172086Y304279D01*
X171857Y304298D01*
X171689Y304331D01*
X171442Y304429D01*
X171248Y304345D01*
X171037Y304362D01*
X170551Y304204D01*
X170035Y304101D01*
X169643Y303840D01*
X169518Y303815D01*
X168873Y303387D01*
X168797Y303274D01*
X168780Y303263D01*
X168661Y303214D01*
X168570Y303123D01*
X167892Y302670D01*
X167202Y301636D01*
X167179Y301619D01*
X167095Y301477D01*
X166461Y300527D01*
X166336Y299900D01*
X166182Y299382D01*
X166199Y299214D01*
X166173Y299083D01*
X166125Y298959D01*
X166128Y298854D01*
X165958Y298000D01*
X166172Y296923D01*
X166176Y296749D01*
X166232Y296623D01*
X166263Y296465D01*
X166256Y296318D01*
X166338Y296088D01*
X166461Y295473D01*
X167547Y293846D01*
Y292828D01*
X166103Y291384D01*
X165602Y290633D01*
X165426Y289748D01*
Y286494D01*
X165243Y286307D01*
X164840Y286096D01*
X163824Y286634D01*
Y292000D01*
X163570Y293276D01*
X162847Y294358D01*
X159202Y298003D01*
X158121Y298725D01*
X156845Y298979D01*
X154490D01*
X153912Y301135D01*
X152758Y303135D01*
X151125Y304768D01*
X149125Y305922D01*
X146895Y306520D01*
D02*
G37*
G36*
X337700Y270480D02*
X335620D01*
Y268250D01*
X337700D01*
Y270480D01*
D02*
G37*
G36*
X260500Y271750D02*
X255770D01*
Y267270D01*
X260500D01*
Y271750D01*
D02*
G37*
G36*
X253230D02*
X248500D01*
Y267270D01*
X253230D01*
Y271750D01*
D02*
G37*
G36*
X205490Y270500D02*
X200760D01*
Y266020D01*
X205490D01*
Y270500D01*
D02*
G37*
G36*
X198220D02*
X193490D01*
Y266020D01*
X198220D01*
Y270500D01*
D02*
G37*
G36*
X260500Y264730D02*
X255770D01*
Y260250D01*
X260500D01*
Y264730D01*
D02*
G37*
G36*
X253230D02*
X248500D01*
Y260250D01*
X253230D01*
Y264730D01*
D02*
G37*
G36*
X205490Y263480D02*
X200760D01*
Y259000D01*
X205490D01*
Y263480D01*
D02*
G37*
G36*
X198220D02*
X193490D01*
Y259000D01*
X198220D01*
Y263480D01*
D02*
G37*
G36*
X365500Y257662D02*
X361020D01*
Y252932D01*
X365500D01*
Y257662D01*
D02*
G37*
G36*
X358480D02*
X354000D01*
Y252932D01*
X358480D01*
Y257662D01*
D02*
G37*
G36*
X240500Y255250D02*
X236020D01*
Y250520D01*
X240500D01*
Y255250D01*
D02*
G37*
G36*
X233480D02*
X229000D01*
Y250520D01*
X233480D01*
Y255250D01*
D02*
G37*
G36*
X185740Y254750D02*
X181260D01*
Y250020D01*
X185740D01*
Y254750D01*
D02*
G37*
G36*
X178720D02*
X174240D01*
Y250020D01*
X178720D01*
Y254750D01*
D02*
G37*
G36*
X365500Y250392D02*
X361020D01*
Y245662D01*
X365500D01*
Y250392D01*
D02*
G37*
G36*
X358480D02*
X354000D01*
Y245662D01*
X358480D01*
Y250392D01*
D02*
G37*
G36*
X240500Y247980D02*
X236020D01*
Y243250D01*
X240500D01*
Y247980D01*
D02*
G37*
G36*
X233480D02*
X229000D01*
Y243250D01*
X233480D01*
Y247980D01*
D02*
G37*
G36*
X185740Y247480D02*
X181260D01*
Y242750D01*
X185740D01*
Y247480D01*
D02*
G37*
G36*
X178720D02*
X174240D01*
Y242750D01*
X178720D01*
Y247480D01*
D02*
G37*
G36*
X37504Y248532D02*
X36496D01*
X35566Y248146D01*
X34853Y247434D01*
X34468Y246504D01*
Y245831D01*
X33418Y244781D01*
X33025Y244193D01*
X32887Y243500D01*
Y241721D01*
X29786D01*
X29680Y241722D01*
X28770D01*
X28664Y241721D01*
X19241Y241722D01*
X18550Y242452D01*
X18039Y242451D01*
X14070D01*
Y236701D01*
X12800D01*
Y235431D01*
X7050D01*
Y231565D01*
X7050Y230951D01*
X7050Y229935D01*
Y226069D01*
X12800D01*
Y224799D01*
X14070D01*
Y219049D01*
X18550D01*
X19241Y219778D01*
X21219Y219778D01*
X21937Y219060D01*
Y217768D01*
X21604Y217434D01*
X21218Y216504D01*
Y215496D01*
X21604Y214566D01*
X22316Y213853D01*
X23246Y213468D01*
X24254D01*
X25184Y213853D01*
X25896Y214566D01*
X26282Y215496D01*
Y216504D01*
X25896Y217434D01*
X25563Y217768D01*
Y219778D01*
X28664D01*
X28770Y219778D01*
X29680D01*
X29786Y219778D01*
X34030D01*
X34257Y219516D01*
X33793Y218500D01*
X32820D01*
Y215000D01*
X31550D01*
Y213730D01*
X28200D01*
Y211500D01*
X28200D01*
X28870Y210484D01*
X28594Y209815D01*
Y208316D01*
X29167Y206930D01*
X30228Y205869D01*
X31614Y205296D01*
X33114D01*
X33161Y205315D01*
X33363Y205113D01*
X34113Y204612D01*
X34999Y204436D01*
X37250D01*
X38136Y204612D01*
X38887Y205113D01*
X39388Y205864D01*
X39564Y206750D01*
Y212230D01*
X39870D01*
Y217770D01*
X39564D01*
Y219778D01*
X39720D01*
Y229819D01*
X29786D01*
X29680Y229819D01*
X28770D01*
X28664Y229819D01*
X19241Y229819D01*
X18550Y230549D01*
Y230951D01*
X19241Y231681D01*
X19566Y231681D01*
X28664D01*
X28770Y231681D01*
X29680D01*
X29786Y231681D01*
X39720D01*
Y241721D01*
X36513D01*
Y242749D01*
X37232Y243468D01*
X37504D01*
X38434Y243853D01*
X39146Y244566D01*
X39532Y245496D01*
Y246504D01*
X39146Y247434D01*
X38434Y248146D01*
X37504Y248532D01*
D02*
G37*
G36*
X303655Y306520D02*
X301345D01*
X299115Y305922D01*
X297115Y304768D01*
X295482Y303135D01*
X294328Y301135D01*
X293730Y298905D01*
Y296595D01*
X294328Y294365D01*
X295482Y292365D01*
X297115Y290732D01*
X299115Y289578D01*
X301345Y288980D01*
X303655D01*
X305885Y289578D01*
X307885Y290732D01*
X309518Y292365D01*
X310672Y294365D01*
X310959Y295436D01*
X325062D01*
X325253Y295244D01*
X325261Y294046D01*
X324996Y293770D01*
X324480D01*
Y291565D01*
X322710D01*
X321824Y291388D01*
X321073Y290887D01*
X317113Y286927D01*
X316612Y286176D01*
X316436Y285290D01*
Y281000D01*
X316612Y280114D01*
X317113Y279363D01*
X319685Y276791D01*
Y265500D01*
X319862Y264614D01*
X320363Y263863D01*
X321114Y263362D01*
X322000Y263186D01*
X329041D01*
X340614Y251613D01*
X341230Y251201D01*
Y249897D01*
X341082D01*
X340196Y249720D01*
X339445Y249219D01*
X330481Y240254D01*
X329465Y240675D01*
Y241401D01*
X329014Y242491D01*
X328180Y243325D01*
X327770Y243495D01*
Y240811D01*
X325230D01*
Y243495D01*
X324821Y243325D01*
X324699Y243203D01*
X323766Y242706D01*
X322945Y243046D01*
X322055D01*
X321830Y242953D01*
X320815Y243614D01*
Y248730D01*
X326270D01*
Y259270D01*
X316814D01*
Y271828D01*
X316638Y272714D01*
X316137Y273465D01*
X314965Y274637D01*
X314214Y275138D01*
X313328Y275315D01*
X312520D01*
Y282870D01*
X298680D01*
Y262130D01*
X312185D01*
Y260212D01*
X311503Y259395D01*
X299003D01*
X298031Y258993D01*
X297628Y258020D01*
Y258005D01*
X296998Y257250D01*
X290732D01*
X290189Y258266D01*
X290324Y258467D01*
X290577Y259743D01*
Y262130D01*
X294820D01*
Y282870D01*
X291084D01*
Y288250D01*
X290830Y289526D01*
X290107Y290607D01*
X286396Y294319D01*
X286422Y294365D01*
X287020Y296595D01*
Y298905D01*
X286422Y301135D01*
X285268Y303135D01*
X283635Y304768D01*
X281635Y305922D01*
X279405Y306520D01*
X277095D01*
X274865Y305922D01*
X272865Y304768D01*
X271232Y303135D01*
X270078Y301135D01*
X269480Y298905D01*
Y296595D01*
X270078Y294365D01*
X271232Y292365D01*
X272865Y290732D01*
X274865Y289578D01*
X277095Y288980D01*
X279405D01*
X281635Y289578D01*
X281681Y289604D01*
X284416Y286869D01*
Y282870D01*
X280980D01*
Y262130D01*
X283885D01*
X283899Y261114D01*
X283377Y260592D01*
X282655Y259511D01*
X282401Y258235D01*
Y248552D01*
X281985Y247625D01*
X281985Y247625D01*
X268250D01*
X267278Y247222D01*
X267278Y247222D01*
X255528Y235472D01*
X255125Y234500D01*
X255125Y234500D01*
Y158250D01*
X255528Y157278D01*
X255528Y157278D01*
X268121Y144685D01*
X269093Y144283D01*
X269093Y144283D01*
X278558D01*
X278919Y144432D01*
X279000Y144416D01*
X286118D01*
X286770Y143670D01*
X286770Y143400D01*
Y140062D01*
X278982D01*
X278666Y140378D01*
X277735Y140763D01*
X276728D01*
X275797Y140378D01*
X275085Y139666D01*
X274699Y138735D01*
Y137728D01*
X275085Y136797D01*
X275797Y136085D01*
X276728Y135699D01*
X277735D01*
X278666Y136085D01*
X278982Y136401D01*
X286770D01*
Y133530D01*
X309610D01*
Y143400D01*
X309610Y143670D01*
X310262Y144416D01*
X316618D01*
X317270Y143670D01*
Y133530D01*
X340110D01*
Y143375D01*
X358250D01*
X359222Y143778D01*
X359625Y144750D01*
Y170000D01*
X359625Y170000D01*
X359625Y170000D01*
Y176000D01*
X359520Y176253D01*
X359520Y177270D01*
X360210Y178000D01*
X360250D01*
Y181730D01*
X350500D01*
X340750D01*
Y178824D01*
X339734Y178403D01*
X337279Y180859D01*
X336306Y181261D01*
X336306Y181261D01*
X336251D01*
X336251Y181261D01*
X336251Y181261D01*
X332020D01*
Y181270D01*
X329003D01*
X328750Y181375D01*
X328555Y181517D01*
X327887Y182285D01*
X328388Y183036D01*
X328526Y183730D01*
X332020D01*
Y184436D01*
X332750D01*
X333636Y184612D01*
X334387Y185113D01*
X336387Y187113D01*
X336888Y187864D01*
X337065Y188750D01*
Y196750D01*
X336888Y197636D01*
X336387Y198387D01*
X333887Y200887D01*
X333136Y201388D01*
X332417Y201531D01*
X331700Y202250D01*
Y204480D01*
X328350D01*
Y205750D01*
X327080D01*
Y209250D01*
X325000D01*
Y208520D01*
X321668D01*
X321504Y209468D01*
X322434Y209853D01*
X323147Y210566D01*
X323532Y211496D01*
Y212504D01*
X323341Y212964D01*
X323928Y213980D01*
X325000D01*
Y213250D01*
X327080D01*
Y216750D01*
X329620D01*
Y213250D01*
X331700D01*
Y215011D01*
X332639Y215399D01*
X340053Y207985D01*
X340804Y207484D01*
X341689Y207307D01*
X351596D01*
X352114Y206962D01*
X352131Y206939D01*
X352273Y206855D01*
X353223Y206221D01*
X353851Y206096D01*
X354368Y205942D01*
X354536Y205959D01*
X354667Y205933D01*
X354791Y205885D01*
X354896Y205888D01*
X355750Y205718D01*
X356827Y205932D01*
X357001Y205936D01*
X357127Y205992D01*
X357285Y206023D01*
X357432Y206016D01*
X357662Y206098D01*
X358277Y206221D01*
X359904Y207307D01*
X366122D01*
X367007Y207484D01*
X367758Y207985D01*
X378137Y218363D01*
X378638Y219114D01*
X378815Y220000D01*
Y222541D01*
X379885Y222828D01*
X381885Y223982D01*
X383518Y225615D01*
X384672Y227615D01*
X385270Y229845D01*
Y232155D01*
X384672Y234385D01*
X383518Y236385D01*
X381885Y238018D01*
X379885Y239172D01*
X377655Y239770D01*
X375345D01*
X373115Y239172D01*
X371115Y238018D01*
X369482Y236385D01*
X368328Y234385D01*
X367730Y232155D01*
Y229845D01*
X368328Y227615D01*
X369482Y225615D01*
X371115Y223982D01*
X373115Y222828D01*
X374186Y222541D01*
Y220959D01*
X365163Y211936D01*
X361984D01*
X361969Y212009D01*
X361790Y212277D01*
X361601Y213006D01*
X361775Y213698D01*
X361788Y213719D01*
X361969Y213991D01*
X361996Y214126D01*
X362029Y214154D01*
X362048Y214383D01*
X362081Y214550D01*
X362179Y214798D01*
X362095Y214992D01*
X362112Y215203D01*
X361954Y215689D01*
X361851Y216206D01*
X361590Y216597D01*
X361565Y216722D01*
X361137Y217367D01*
X361025Y217443D01*
X361013Y217460D01*
X360964Y217579D01*
X360873Y217670D01*
X360420Y218348D01*
X359842Y218734D01*
X360150Y219750D01*
X361950D01*
Y221980D01*
X358600D01*
Y224520D01*
X361950D01*
Y226750D01*
X362863Y227000D01*
X365500D01*
Y231730D01*
X359750D01*
X354000D01*
Y227036D01*
X354000Y227000D01*
X353913Y226020D01*
X350280D01*
Y226020D01*
X350142Y225928D01*
X349536Y226178D01*
X338315D01*
X334935Y229558D01*
X335324Y230497D01*
X341230D01*
Y227730D01*
X351270D01*
Y238270D01*
X348564D01*
Y240041D01*
X348659Y240136D01*
X349184Y240354D01*
X349897Y241066D01*
X350282Y241996D01*
Y243004D01*
X349897Y243934D01*
X349184Y244646D01*
X348254Y245032D01*
X347246D01*
X346316Y244646D01*
X345603Y243934D01*
X345386Y243409D01*
X344613Y242637D01*
X344112Y241886D01*
X343936Y241000D01*
Y238270D01*
X341230D01*
Y235126D01*
X333336D01*
X332915Y236142D01*
X342041Y245268D01*
X342420D01*
X343305Y245444D01*
X344056Y245945D01*
X344503Y246392D01*
X351270D01*
Y256932D01*
X341841D01*
X331830Y266943D01*
X331695Y267908D01*
X331799Y268250D01*
X331852Y268250D01*
X333080D01*
Y271750D01*
X334350D01*
Y273020D01*
X337700D01*
Y275250D01*
X337700D01*
X337941Y276166D01*
X341230D01*
Y275230D01*
X359270D01*
Y283484D01*
X359270Y283770D01*
X359961Y284500D01*
X360000D01*
Y288230D01*
X350250D01*
X340500D01*
Y284500D01*
X340500D01*
X341139Y283732D01*
X341127Y283641D01*
X340483Y282834D01*
X332738D01*
X332020Y283552D01*
Y284270D01*
X332020Y285286D01*
Y293750D01*
X332830D01*
Y297250D01*
Y300750D01*
X330750D01*
Y300020D01*
X328274D01*
X328050Y300065D01*
X310959D01*
X310672Y301135D01*
X309518Y303135D01*
X307885Y304768D01*
X305885Y305922D01*
X303655Y306520D01*
D02*
G37*
G36*
X11530Y242451D02*
X7050D01*
Y237971D01*
X11530D01*
Y242451D01*
D02*
G37*
G36*
X365500Y239000D02*
X361020D01*
Y234270D01*
X365500D01*
Y239000D01*
D02*
G37*
G36*
X358480D02*
X354000D01*
Y234270D01*
X358480D01*
Y239000D01*
D02*
G37*
G36*
X11530Y223529D02*
X7050D01*
Y219049D01*
X11530D01*
Y223529D01*
D02*
G37*
G36*
X30280Y218500D02*
X28200D01*
Y216270D01*
X30280D01*
Y218500D01*
D02*
G37*
G36*
X331700Y209250D02*
X329620D01*
Y207020D01*
X331700D01*
Y209250D01*
D02*
G37*
G36*
X21520Y203270D02*
X980D01*
Y188730D01*
X21520D01*
Y203270D01*
D02*
G37*
G36*
X360250Y188000D02*
X351770D01*
Y184270D01*
X360250D01*
Y188000D01*
D02*
G37*
G36*
X349230D02*
X340750D01*
Y184270D01*
X349230D01*
Y188000D01*
D02*
G37*
G36*
X71301Y181480D02*
X70020D01*
Y179832D01*
X70708Y180292D01*
X71217Y181053D01*
X71301Y181480D01*
D02*
G37*
G36*
X70020Y175668D02*
Y174020D01*
X71302D01*
X71217Y174447D01*
X70708Y175208D01*
X70020Y175668D01*
D02*
G37*
G36*
X21520Y167270D02*
X980D01*
Y152730D01*
X21520D01*
Y167270D01*
D02*
G37*
G36*
X309610Y130970D02*
X286770D01*
Y127730D01*
X278299D01*
X278015Y127674D01*
X277754Y127782D01*
X276746D01*
X275816Y127396D01*
X275103Y126684D01*
X274718Y125754D01*
Y124746D01*
X275103Y123816D01*
X275816Y123104D01*
X276746Y122718D01*
X277754D01*
X278684Y123104D01*
X279396Y123816D01*
X279502Y124070D01*
X286770D01*
Y120830D01*
X309610D01*
Y130970D01*
D02*
G37*
G36*
X340840Y131700D02*
X329960D01*
Y127170D01*
X340840D01*
Y131700D01*
D02*
G37*
G36*
X327420D02*
X316540D01*
Y127170D01*
X327420D01*
Y131700D01*
D02*
G37*
G36*
X357907Y138620D02*
X355373D01*
X353032Y137650D01*
X351240Y135858D01*
X350270Y133517D01*
Y130983D01*
X351240Y128642D01*
X353032Y126850D01*
X355373Y125880D01*
X357907D01*
X360248Y126850D01*
X362040Y128642D01*
X363010Y130983D01*
Y133517D01*
X362040Y135858D01*
X360248Y137650D01*
X357907Y138620D01*
D02*
G37*
G36*
X340840Y124630D02*
X329960D01*
Y120100D01*
X340840D01*
Y124630D01*
D02*
G37*
G36*
X327420D02*
X316540D01*
Y120100D01*
X327420D01*
Y124630D01*
D02*
G37*
G36*
X340840Y119000D02*
X329960D01*
Y114470D01*
X340840D01*
Y119000D01*
D02*
G37*
G36*
X327420D02*
X316540D01*
Y114470D01*
X327420D01*
Y119000D01*
D02*
G37*
G36*
X309610Y118270D02*
X286770D01*
Y115514D01*
X279092D01*
X278206Y115338D01*
X277455Y114837D01*
X276333Y113714D01*
X275566Y113397D01*
X274853Y112684D01*
X274468Y111754D01*
Y110746D01*
X274853Y109816D01*
X275566Y109103D01*
X276496Y108718D01*
X277504D01*
X278434Y109103D01*
X279146Y109816D01*
X279264Y110099D01*
X280050Y110885D01*
X286770D01*
Y108130D01*
X309610D01*
Y118270D01*
D02*
G37*
G36*
X340840Y111930D02*
X329960D01*
Y107400D01*
X340840D01*
Y111930D01*
D02*
G37*
G36*
X327420D02*
X316540D01*
Y107400D01*
X327420D01*
Y111930D01*
D02*
G37*
G36*
X340110Y105570D02*
X317270D01*
Y95430D01*
X340110D01*
Y105570D01*
D02*
G37*
G36*
X309610D02*
X286770D01*
Y95430D01*
X309610D01*
Y105570D01*
D02*
G37*
G36*
Y92870D02*
X286770D01*
Y89580D01*
X279001D01*
X278684Y89896D01*
X277754Y90282D01*
X276746D01*
X275816Y89896D01*
X275103Y89184D01*
X274718Y88254D01*
Y87246D01*
X275103Y86316D01*
X275816Y85604D01*
X276746Y85218D01*
X277754D01*
X278684Y85604D01*
X279001Y85920D01*
X286770D01*
Y82730D01*
X309610D01*
Y92870D01*
D02*
G37*
G36*
X340840Y93600D02*
X329960D01*
Y89070D01*
X340840D01*
Y93600D01*
D02*
G37*
G36*
X327420D02*
X316540D01*
Y89070D01*
X327420D01*
Y93600D01*
D02*
G37*
G36*
X357907Y100520D02*
X355373D01*
X353032Y99550D01*
X351240Y97758D01*
X350270Y95417D01*
Y92883D01*
X351240Y90542D01*
X353032Y88750D01*
X355373Y87780D01*
X357907D01*
X360248Y88750D01*
X362040Y90542D01*
X363010Y92883D01*
Y95417D01*
X362040Y97758D01*
X360248Y99550D01*
X357907Y100520D01*
D02*
G37*
G36*
X340840Y86530D02*
X329960D01*
Y82000D01*
X340840D01*
Y86530D01*
D02*
G37*
G36*
X327420D02*
X316540D01*
Y82000D01*
X327420D01*
Y86530D01*
D02*
G37*
G36*
X202195Y60761D02*
X201052D01*
Y37531D01*
X224282D01*
Y38674D01*
X223341Y43408D01*
X221494Y47867D01*
X218813Y51879D01*
X215400Y55292D01*
X211387Y57973D01*
X206929Y59820D01*
X202195Y60761D01*
D02*
G37*
G36*
X198512D02*
X197369D01*
X192636Y59820D01*
X188177Y57973D01*
X184164Y55292D01*
X180752Y51879D01*
X178071Y47867D01*
X176224Y43408D01*
X175282Y38674D01*
Y37531D01*
X198512D01*
Y60761D01*
D02*
G37*
G36*
X224282Y34991D02*
X201052D01*
Y11761D01*
X202195D01*
X206929Y12703D01*
X211387Y14550D01*
X215400Y17231D01*
X218813Y20643D01*
X221494Y24656D01*
X223341Y29115D01*
X224282Y33848D01*
Y34991D01*
D02*
G37*
G36*
X198512D02*
X175282D01*
Y33848D01*
X176224Y29115D01*
X178071Y24656D01*
X180752Y20643D01*
X184164Y17231D01*
X188177Y14550D01*
X192636Y12703D01*
X197369Y11761D01*
X198512D01*
Y34991D01*
D02*
G37*
%LPD*%
G36*
X139968Y177218D02*
X140556Y176825D01*
X141250Y176687D01*
X186737D01*
X188174Y175250D01*
Y174778D01*
X188559Y173848D01*
X189271Y173135D01*
X189311Y172935D01*
X187189Y170813D01*
X164250D01*
X163556Y170675D01*
X162968Y170282D01*
X157602Y164915D01*
X88969D01*
X88656Y165626D01*
X88625Y165931D01*
X102057Y179363D01*
X102057Y179363D01*
X103387Y180693D01*
X103888Y181444D01*
X104065Y182330D01*
Y207188D01*
X103888Y208074D01*
X103387Y208825D01*
X102047Y210165D01*
X101296Y210666D01*
X100410Y210842D01*
X93278D01*
X92392Y210666D01*
X91641Y210165D01*
X88091Y206614D01*
X87566Y206397D01*
X86854Y205684D01*
X86468Y204754D01*
Y203746D01*
X86854Y202816D01*
X87566Y202104D01*
X88496Y201718D01*
X89504D01*
X90434Y202104D01*
X91146Y202816D01*
X91364Y203341D01*
X94001Y205977D01*
X95122Y205898D01*
X95218Y205754D01*
Y204746D01*
X95435Y204221D01*
Y199459D01*
X87291Y191315D01*
X67500D01*
X66614Y191138D01*
X66015Y191960D01*
X69706Y195650D01*
X76500D01*
X77278Y195972D01*
X84528Y203222D01*
X84850Y204000D01*
Y206096D01*
X85032Y206218D01*
X89532Y210718D01*
X89925Y211306D01*
X90063Y212000D01*
Y218250D01*
X89925Y218944D01*
X89773Y219171D01*
X90241Y220187D01*
X96999D01*
X139968Y177218D01*
D02*
G37*
G36*
X227228Y301570D02*
X227228Y292950D01*
X226929Y292424D01*
X226421Y292246D01*
X225408Y292560D01*
X224491Y293135D01*
X223653Y293948D01*
X222814Y295320D01*
X222560Y296031D01*
X222510Y298241D01*
X222789Y299180D01*
X223373Y300171D01*
X223907Y300755D01*
X224643Y301492D01*
X225288Y301920D01*
X226472Y302305D01*
X227228Y301570D01*
D02*
G37*
G36*
X231092Y301940D02*
X232009Y301365D01*
X232847Y300552D01*
X233686Y299180D01*
X233940Y298469D01*
X233990Y296259D01*
X233711Y295320D01*
X233127Y294329D01*
X232593Y293745D01*
X231857Y293008D01*
X231212Y292580D01*
X230028Y292195D01*
X229272Y292930D01*
X229272Y301550D01*
X229571Y302076D01*
X230079Y302254D01*
X231092Y301940D01*
D02*
G37*
G36*
X217250Y265250D02*
X224500D01*
Y254000D01*
X225000D01*
Y245250D01*
X213750D01*
Y283250D01*
X217250D01*
Y265250D01*
D02*
G37*
G36*
X172218Y302320D02*
X172218Y293700D01*
X171919Y293174D01*
X171411Y292996D01*
X170398Y293310D01*
X169481Y293885D01*
X168643Y294698D01*
X167804Y296070D01*
X167550Y296781D01*
X167500Y298991D01*
X167779Y299930D01*
X168363Y300921D01*
X168897Y301505D01*
X169633Y302242D01*
X170278Y302670D01*
X171462Y303055D01*
X172218Y302320D01*
D02*
G37*
G36*
X176082Y302690D02*
X176999Y302115D01*
X177837Y301302D01*
X178676Y299930D01*
X178930Y299219D01*
X178980Y297009D01*
X178701Y296070D01*
X178117Y295079D01*
X177583Y294495D01*
X176847Y293758D01*
X176202Y293330D01*
X175018Y292945D01*
X174262Y293680D01*
X174262Y302300D01*
X174561Y302826D01*
X175069Y303004D01*
X176082Y302690D01*
D02*
G37*
G36*
X162240Y264000D02*
X169490D01*
Y252750D01*
X170240D01*
Y244750D01*
X129000D01*
Y264000D01*
X158740D01*
Y282000D01*
X162240D01*
Y264000D01*
D02*
G37*
G36*
X285369Y235061D02*
X285565Y234078D01*
X286122Y233244D01*
X286956Y232687D01*
X287939Y232492D01*
X304500D01*
X305483Y232687D01*
X306317Y233244D01*
X306551Y233479D01*
X307535Y233026D01*
Y232222D01*
X307666Y231905D01*
X307897Y231055D01*
X307237Y230489D01*
X307175Y230448D01*
X301041Y224314D01*
X284750D01*
X283864Y224138D01*
X283113Y223637D01*
X280793Y221317D01*
X280292Y220566D01*
X280116Y219680D01*
Y218264D01*
X279903Y218221D01*
X277877Y216868D01*
X277869Y216863D01*
X277760Y216790D01*
X277360Y216191D01*
X277328Y216158D01*
X277314Y216122D01*
X277219Y215980D01*
X277150Y215931D01*
X276914Y215554D01*
X275800Y215234D01*
X275543Y215291D01*
X275375Y215412D01*
Y234245D01*
X278004Y236875D01*
X281985D01*
X282238Y236980D01*
X285369D01*
Y235061D01*
D02*
G37*
G36*
X357680Y218461D02*
X358671Y217877D01*
X359255Y217343D01*
X359992Y216607D01*
X360420Y215962D01*
X360805Y214778D01*
X360070Y214022D01*
X351450Y214022D01*
X350924Y214321D01*
X350746Y214829D01*
X351060Y215842D01*
X351635Y216759D01*
X352448Y217597D01*
X353820Y218436D01*
X354531Y218690D01*
X356741Y218740D01*
X357680Y218461D01*
D02*
G37*
G36*
X298790Y217331D02*
X299781Y216747D01*
X300365Y216214D01*
X301102Y215477D01*
X301530Y214832D01*
X301915Y213648D01*
X301180Y212892D01*
X292560Y212892D01*
X292034Y213191D01*
X291856Y213699D01*
X292170Y214712D01*
X292745Y215629D01*
X293558Y216468D01*
X294930Y217306D01*
X295641Y217560D01*
X297851Y217611D01*
X298790Y217331D01*
D02*
G37*
G36*
X284360Y216903D02*
X285351Y216319D01*
X285935Y215785D01*
X286672Y215049D01*
X287100Y214404D01*
X287485Y213220D01*
X286750Y212464D01*
X278130Y212464D01*
X277604Y212763D01*
X277426Y213271D01*
X277740Y214284D01*
X278315Y215201D01*
X279128Y216039D01*
X280500Y216878D01*
X281211Y217132D01*
X283421Y217182D01*
X284360Y216903D01*
D02*
G37*
G36*
X337680Y224804D02*
X349536D01*
Y212046D01*
X349446Y211956D01*
X342413D01*
X337274Y217095D01*
Y224849D01*
X337680Y224804D01*
D02*
G37*
G36*
X360576Y211679D02*
X360754Y211171D01*
X360440Y210159D01*
X359865Y209241D01*
X359052Y208403D01*
X357680Y207564D01*
X356969Y207310D01*
X354759Y207260D01*
X353820Y207539D01*
X352829Y208123D01*
X352245Y208657D01*
X351508Y209393D01*
X351080Y210038D01*
X350695Y211222D01*
X351430Y211978D01*
X360050Y211978D01*
X360576Y211679D01*
D02*
G37*
G36*
X286730Y210928D02*
X287256Y210629D01*
X287434Y210121D01*
X287120Y209108D01*
X286545Y208191D01*
X285732Y207353D01*
X284360Y206514D01*
X283649Y206260D01*
X281439Y206210D01*
X280500Y206489D01*
X279509Y207073D01*
X278925Y207607D01*
X278188Y208343D01*
X277760Y208988D01*
X277375Y210172D01*
X278110Y210928D01*
X286730Y210928D01*
D02*
G37*
G36*
X301686Y210549D02*
X301864Y210041D01*
X301550Y209029D01*
X300975Y208111D01*
X300162Y207273D01*
X300133Y207255D01*
X306249Y207251D01*
X307750Y205750D01*
Y203250D01*
X306089Y201589D01*
X300157D01*
X300435Y201335D01*
X301172Y200599D01*
X301600Y199954D01*
X301985Y198770D01*
X301250Y198014D01*
X292630Y198014D01*
X292104Y198313D01*
X291926Y198821D01*
X292240Y199834D01*
X292815Y200751D01*
X293628Y201589D01*
Y207241D01*
X293647Y207260D01*
X293355Y207527D01*
X292618Y208263D01*
X292190Y208909D01*
X291805Y210092D01*
X292540Y210849D01*
X301160Y210849D01*
X301686Y210549D01*
D02*
G37*
G36*
X284430Y201957D02*
X285421Y201373D01*
X286005Y200839D01*
X286742Y200103D01*
X287170Y199458D01*
X287555Y198274D01*
X286820Y197518D01*
X278200Y197518D01*
X277674Y197817D01*
X277496Y198325D01*
X277810Y199338D01*
X278385Y200255D01*
X279198Y201093D01*
X280570Y201932D01*
X281281Y202186D01*
X283491Y202236D01*
X284430Y201957D01*
D02*
G37*
G36*
X286800Y195982D02*
X287326Y195683D01*
X287504Y195175D01*
X287190Y194162D01*
X286615Y193245D01*
X285802Y192407D01*
X284430Y191568D01*
X283719Y191314D01*
X281509Y191264D01*
X280570Y191543D01*
X279579Y192127D01*
X278995Y192661D01*
X278258Y193397D01*
X277830Y194042D01*
X277445Y195226D01*
X278180Y195982D01*
X286800Y195982D01*
D02*
G37*
G36*
X301756Y195671D02*
X301934Y195163D01*
X301620Y194150D01*
X301045Y193233D01*
X300232Y192395D01*
X298860Y191556D01*
X298149Y191302D01*
X295939Y191252D01*
X295000Y191531D01*
X294009Y192115D01*
X293425Y192649D01*
X292688Y193385D01*
X292260Y194030D01*
X291875Y195214D01*
X292610Y195970D01*
X301230Y195970D01*
X301756Y195671D01*
D02*
G37*
G36*
X319300Y196250D02*
Y194020D01*
X322650D01*
Y191480D01*
X319300D01*
Y189250D01*
X319750D01*
Y188020D01*
X322750D01*
Y185480D01*
X319750D01*
Y185065D01*
X317414D01*
X316528Y184888D01*
X315778Y184387D01*
X310706Y179314D01*
X298000D01*
X297114Y179138D01*
X296364Y178637D01*
X284484Y166758D01*
X283247Y167270D01*
X280753D01*
X278448Y166315D01*
X276685Y164552D01*
X276391Y163842D01*
X275375Y164044D01*
Y175456D01*
X276391Y175658D01*
X276685Y174948D01*
X278448Y173185D01*
X280753Y172230D01*
X283247D01*
X285552Y173185D01*
X287316Y174948D01*
X288270Y177253D01*
Y179747D01*
X287758Y180984D01*
X291209Y184436D01*
X304500D01*
X305386Y184612D01*
X306137Y185113D01*
X317959Y196936D01*
X318568D01*
X319300Y196250D01*
D02*
G37*
G36*
X281985Y238250D02*
X277435D01*
X274185Y235000D01*
X274000D01*
Y155462D01*
X278558Y150904D01*
Y145657D01*
X269093D01*
X256500Y158250D01*
Y234500D01*
X268250Y246250D01*
X281985D01*
X281985Y246250D01*
Y238250D01*
D02*
G37*
G36*
X328807Y179943D02*
X328863Y179887D01*
X336306D01*
X340193Y176000D01*
X358250D01*
Y170000D01*
X358250Y170000D01*
Y144750D01*
X326846D01*
X326750Y144654D01*
Y150000D01*
X324000Y152750D01*
X310250D01*
Y160610D01*
X309286D01*
Y165135D01*
X309233Y165188D01*
X309552Y165508D01*
X310250D01*
Y166747D01*
X310501Y166998D01*
X323926D01*
X326528Y169601D01*
Y173380D01*
X326641Y173493D01*
X328750D01*
Y179887D01*
Y180000D01*
X328807Y179943D01*
D02*
G37*
D11*
X318500Y232811D02*
X322500D01*
D12*
X317414Y182750D02*
X325078D01*
X311664Y177000D02*
X317414Y182750D01*
X332964Y178250D02*
X334294Y176920D01*
Y172000D02*
Y176920D01*
X329750Y178250D02*
X332964D01*
X346250Y241000D02*
X347750Y242500D01*
X346250Y233000D02*
Y241000D01*
X342420Y247582D02*
X346250Y251412D01*
X341082Y247582D02*
X342420D01*
X346250Y251412D02*
Y251662D01*
X330311Y236811D02*
X341082Y247582D01*
X326500Y232811D02*
X346061D01*
X346250Y233000D01*
X326500Y236811D02*
X330311D01*
X207250Y278250D02*
X208000Y279000D01*
X199490Y278250D02*
X207250D01*
X282000Y178500D02*
X290250Y186750D01*
X223043Y289290D02*
X224872Y291119D01*
X222750Y283000D02*
X223043Y283293D01*
X224872Y291119D02*
Y297250D01*
X223043Y283293D02*
Y289290D01*
X277142Y111250D02*
X279092Y113200D01*
X277000Y111250D02*
X277142D01*
X279092Y113200D02*
X295440D01*
X300174Y204476D02*
X305903D01*
X296930Y203952D02*
X299650D01*
X300174Y204476D01*
X296930Y200370D02*
Y203952D01*
X296816D02*
X296930D01*
X296816Y204910D02*
Y208448D01*
X296860Y208492D01*
X86916Y167496D02*
X100420Y181000D01*
X66605Y167496D02*
X86916D01*
X50250Y172750D02*
X64750D01*
Y169351D02*
X66605Y167496D01*
X64750Y169351D02*
Y172750D01*
X32590Y209159D02*
X34999Y206750D01*
X32448Y209159D02*
X32590D01*
X34999Y206750D02*
X37250D01*
Y215000D01*
X64750Y260972D02*
X74656Y251066D01*
X64750Y260972D02*
Y279000D01*
X74656Y249094D02*
Y251066D01*
Y249094D02*
X80000Y243750D01*
X100410Y208528D02*
X101750Y207188D01*
X93278Y208528D02*
X100410D01*
X89000Y204250D02*
X93278Y208528D01*
X101750Y182330D02*
Y207188D01*
X88250Y189000D02*
X97750Y198500D01*
Y205250D01*
X67500Y189000D02*
X88250D01*
X277144Y204188D02*
X280297Y201035D01*
X277144Y204188D02*
X280317Y207361D01*
X277013Y204205D02*
X277030Y204188D01*
X277144D01*
X280297Y201035D02*
X281457Y199874D01*
X282500D01*
X280317Y207361D02*
X281527Y208572D01*
X282430D01*
X254500Y279500D02*
X257250Y276750D01*
X311750Y119250D02*
X312940D01*
X319590Y125900D02*
X325940D01*
X318750Y285290D02*
X322710Y289250D01*
X328250D01*
X318750Y281000D02*
Y285290D01*
Y281000D02*
X322000Y277750D01*
Y265500D02*
Y277750D01*
Y265500D02*
X330000D01*
X342250Y253250D01*
X328325Y289325D02*
Y297175D01*
X328250Y289250D02*
X328325Y289325D01*
Y297175D02*
X328400Y297250D01*
X328050Y297750D02*
X328400Y297400D01*
Y297250D02*
Y297400D01*
X302500Y297750D02*
X328050D01*
X178740Y288814D02*
Y295878D01*
Y281750D02*
Y288814D01*
X199240Y278250D02*
X199490D01*
X188676Y288814D02*
X199240Y278250D01*
X178740Y288814D02*
X188676D01*
X233750Y289290D02*
Y295128D01*
Y283000D02*
Y289290D01*
X242210Y297750D02*
X254250D01*
X233750Y289290D02*
X242210Y297750D01*
X254250Y279750D02*
Y297750D01*
Y279750D02*
X254500Y279500D01*
X231628Y297250D02*
X233750Y295128D01*
X167740Y289748D02*
X169862Y291869D01*
X167740Y281750D02*
Y289748D01*
X176618Y298000D02*
X178740Y295878D01*
X169862Y291869D02*
Y298000D01*
X179490Y262000D02*
X185240D01*
X185990Y262750D01*
X178740Y261250D02*
X179490Y262000D01*
X185990Y262750D02*
Y271500D01*
X240250Y263250D02*
X241000Y264000D01*
X233750Y262500D02*
X234500Y263250D01*
X241000Y264000D02*
Y272750D01*
X234500Y263250D02*
X240250D01*
X326500Y240811D02*
Y241250D01*
X330500Y245250D01*
X71500Y284750D02*
X80528Y275722D01*
Y253453D02*
Y275722D01*
X321000Y212000D02*
Y212142D01*
X318500Y214642D02*
Y224811D01*
Y214642D02*
X321000Y212142D01*
X100420Y181000D02*
X100420D01*
X101750Y182330D01*
X64750Y186250D02*
X67500Y189000D01*
X64750Y182750D02*
Y186250D01*
X282500Y193626D02*
X282512Y193614D01*
X286022D01*
X282000Y161000D02*
X298000Y177000D01*
X311664D01*
X290250Y186750D02*
X304500D01*
X317000Y199250D01*
X296930Y193614D02*
X304864D01*
X286022D02*
X296930D01*
X304864D02*
X310500Y199250D01*
X282430Y214820D02*
Y216565D01*
X296860Y215248D02*
Y216860D01*
X282430Y216565D02*
Y219680D01*
X296860Y216860D02*
X302000Y222000D01*
X282430Y219680D02*
X284750Y222000D01*
X302000D01*
X286250Y228500D02*
X286561Y228811D01*
X303250D01*
X307250Y232811D01*
X310500Y199250D02*
Y224811D01*
X314000Y209500D02*
Y219750D01*
X314500Y220250D01*
Y224811D01*
X302000Y222000D02*
X308811Y228811D01*
X310500D01*
X314500Y228811D02*
X318500D01*
X314500D02*
Y232811D01*
X307250D02*
X310500D01*
X314500D01*
Y236811D01*
X318500D01*
X322750Y178250D02*
X326250D01*
X322650Y172000D02*
X322750Y172100D01*
X325078Y182750D02*
X326250Y183922D01*
X322750Y172100D02*
Y178250D01*
X326250Y183922D02*
Y186750D01*
X329750D02*
X332750D01*
X334750Y188750D01*
X326250Y186750D02*
Y190650D01*
X327422Y191822D01*
X327572D01*
X328350Y192600D01*
Y192750D01*
X334750Y188750D02*
Y196750D01*
X317000Y199250D02*
X322650D01*
X328350D02*
X332250D01*
X322650Y199250D02*
X322650Y199250D01*
X322650Y199250D02*
Y205750D01*
X322500Y216900D02*
X322650Y216750D01*
X322500Y216900D02*
Y224811D01*
X326500D02*
X341689Y209622D01*
X328717Y228811D02*
X328967Y228561D01*
X322500Y228811D02*
X326500D01*
X328717D01*
X322500Y232811D02*
X326500D01*
X322500Y236811D02*
X326500D01*
X332250Y199250D02*
X334750Y196750D01*
X341689Y209622D02*
X355750D01*
X366122D01*
X376500Y220000D01*
X352900Y219228D02*
X355750Y216378D01*
X352900Y219228D02*
Y223250D01*
X376500Y220000D02*
Y231000D01*
X300750Y240811D02*
X310500D01*
X314500D02*
Y271828D01*
X313328Y273000D02*
X314500Y271828D01*
X305600Y272500D02*
X306100Y273000D01*
X313328D01*
X318500Y240811D02*
Y251250D01*
X321250Y254000D01*
X328250Y271750D02*
X328650D01*
X328250D02*
Y279500D01*
Y279750D01*
X34700Y224799D02*
X37250Y222249D01*
Y215000D02*
Y222249D01*
X50000Y183000D02*
X50250Y182750D01*
X50000Y173000D02*
X50250Y172750D01*
X50250Y182750D02*
X64750D01*
X12800Y224799D02*
Y236701D01*
X49000Y279500D02*
X49500Y279000D01*
X49000Y289500D02*
X49750Y290250D01*
X49500Y279000D02*
X64750D01*
X49750Y290250D02*
X64750D01*
Y285922D02*
Y290250D01*
Y285922D02*
X65922Y284750D01*
X71500D01*
D14*
X280297Y201035D02*
G03*
X278195Y198280I2203J-3860D01*
G01*
X280317Y207361D02*
G03*
X286735Y210166I2113J3911D01*
G01*
X286031Y199874D02*
G03*
X280297Y201035I-3531J-2700D01*
G01*
X278899Y208572D02*
G03*
X280317Y207361I3531J2700D01*
G01*
X175024Y293695D02*
G03*
X175024Y302305I-1105J4305D01*
G01*
X171456D02*
G03*
X171456Y293695I1105J-4305D01*
G01*
X230034Y292945D02*
G03*
X230034Y301555I-1105J4305D01*
G01*
X226466D02*
G03*
X226466Y292945I1105J-4305D01*
G01*
X279349Y215324D02*
G03*
X278125Y213226I3081J-3204D01*
G01*
X279353Y215328D02*
G03*
X279349Y215324I3077J-3208D01*
G01*
X285751Y215074D02*
G03*
X283024Y216525I-3322J-2954D01*
G01*
X278125Y210166D02*
G03*
X278899Y208572I4305J1105D01*
G01*
X285961Y214820D02*
G03*
X285751Y215074I-3531J-2700D01*
G01*
X283024Y216525D02*
G03*
X282430Y216565I-594J-4405D01*
G01*
D02*
G03*
X279353Y215328I0J-4445D01*
G01*
X278969Y193626D02*
G03*
X279179Y193372I3531J2700D01*
G01*
X282620Y191882D02*
G03*
X283988Y192137I-120J4443D01*
G01*
X279179Y193372D02*
G03*
X282620Y191882I3322J2954D01*
G01*
X278195Y195220D02*
G03*
X278969Y193626I4305J1105D01*
G01*
X286805Y198280D02*
G03*
X286031Y199874I-4305J-1105D01*
G01*
X283988Y192137D02*
G03*
X286022Y193614I-1488J4188D01*
G01*
D02*
G03*
X286805Y195220I-3522J2712D01*
G01*
X301165Y213654D02*
G03*
X292555Y213654I-4305J-1105D01*
G01*
Y210086D02*
G03*
X301165Y210086I4305J1105D01*
G01*
X292625Y195208D02*
G03*
X301235Y195208I4305J1105D01*
G01*
Y198776D02*
G03*
X292625Y198776I-4305J-1105D01*
G01*
X351445Y211216D02*
G03*
X360055Y211216I4305J1105D01*
G01*
Y214784D02*
G03*
X351445Y214784I-4305J-1105D01*
G01*
D20*
X37250Y215000D02*
D03*
X31550D02*
D03*
X328350Y205750D02*
D03*
X322650D02*
D03*
X322650Y216750D02*
D03*
X328350D02*
D03*
X322650Y172000D02*
D03*
X328350D02*
D03*
X322650Y192750D02*
D03*
X328350D02*
D03*
X322650Y199250D02*
D03*
X328350D02*
D03*
X358600Y223250D02*
D03*
X352900D02*
D03*
X334350Y271750D02*
D03*
X328650D02*
D03*
X334100Y297250D02*
D03*
X328400D02*
D03*
D28*
X322750Y178250D02*
D03*
X326250D02*
D03*
X329750D02*
D03*
X322750Y186750D02*
D03*
X326250D02*
D03*
X329750D02*
D03*
D32*
X166490Y248750D02*
D03*
X179990D02*
D03*
X221250Y249250D02*
D03*
X234750D02*
D03*
X299235Y242250D02*
D03*
X285735D02*
D03*
X321250Y254000D02*
D03*
X307750D02*
D03*
X346250Y233000D02*
D03*
X359750D02*
D03*
X346250Y251662D02*
D03*
X359750D02*
D03*
D63*
X211842Y189447D02*
X213342Y190947D01*
X211000Y188605D02*
X211842Y189447D01*
X211000Y183197D02*
Y188605D01*
X213342Y190947D02*
X213750D01*
X203250Y143500D02*
X219750Y160000D01*
X157250Y140250D02*
X175952D01*
X179202Y143500D02*
X203250D01*
X175952Y140250D02*
X179202Y143500D01*
X201546Y148046D02*
X216250Y162750D01*
X157125Y144750D02*
X175128D01*
X178424Y148046D02*
X201546D01*
X175128Y144750D02*
X178424Y148046D01*
X84500Y222000D02*
X97750D01*
X84500D02*
X88250Y218250D01*
X68250Y222000D02*
X84500D01*
X83750Y207500D02*
X88250Y212000D01*
Y218250D01*
X83750Y204000D02*
Y207500D01*
X76500Y196750D02*
X83750Y204000D01*
X64250Y191750D02*
X69250Y196750D01*
X76500D01*
X47250Y191750D02*
X64250D01*
X141250Y178500D02*
X187488D01*
X37750Y186500D02*
Y197500D01*
X33708Y158374D02*
Y182458D01*
X37750Y186500D01*
X187488Y178500D02*
X190706Y175282D01*
X97750Y222000D02*
X141250Y178500D01*
X28635Y197525D02*
X33309D01*
X28491Y197669D02*
X28635Y197525D01*
X33309D02*
X34326Y198542D01*
X36708D01*
X37750Y197500D01*
X29000Y173796D02*
X29500Y174296D01*
Y190250D01*
X29000Y158250D02*
Y173796D01*
Y158250D02*
X38250Y149000D01*
X34700Y236701D02*
Y243500D01*
X37000Y245800D02*
Y246000D01*
X34700Y243500D02*
X37000Y245800D01*
X38250Y149000D02*
X148500D01*
X39333Y152750D02*
X149125D01*
X33708Y158374D02*
X39333Y152750D01*
X148500Y149000D02*
X157250Y140250D01*
X149125Y152750D02*
X157125Y144750D01*
X69028Y245500D02*
X71750D01*
X13000Y254250D02*
X60278D01*
X69028Y245500D01*
X44500Y219250D02*
X51847Y226597D01*
X66000Y240750D01*
X100750D01*
X171030Y169000D02*
X187940D01*
X194190Y175250D01*
X211000Y183197D02*
X216250Y177947D01*
Y162750D02*
Y177947D01*
X214310Y186655D02*
X219750Y181215D01*
Y160000D02*
Y181215D01*
X41260Y163103D02*
X158353D01*
X164250Y169000D01*
X48750Y217750D02*
X59097Y228097D01*
X65500Y234500D01*
X106500D01*
X113750Y230542D02*
Y233500D01*
X64000Y229500D02*
X112708D01*
X113750Y230542D01*
X52236Y217736D02*
X64000Y229500D01*
X87045Y225710D02*
X117079D01*
X66711D02*
X87045D01*
X117987Y224803D02*
X118395D01*
X117079Y225710D02*
X117987Y224803D01*
X62000Y221000D02*
X66711Y225710D01*
X44500Y204750D02*
X51500Y197750D01*
X44500Y204750D02*
Y219250D01*
X51500Y197750D02*
X65250D01*
X69035Y201535D02*
Y206465D01*
X65250Y197750D02*
X69035Y201535D01*
X48750Y207500D02*
X54500Y201750D01*
X48750Y207500D02*
Y217750D01*
X64363Y201750D02*
X65405Y202792D01*
Y206334D01*
X54500Y201750D02*
X64363D01*
X65405Y206334D02*
X65535Y206465D01*
X52236Y208014D02*
X53750Y206500D01*
X52236Y208014D02*
Y217736D01*
X53750Y206500D02*
X62022D01*
X164250Y169000D02*
X171030D01*
X328350Y172000D02*
X329192Y172842D01*
Y174442D01*
X329750Y175000D01*
Y178250D01*
X291959Y253000D02*
X292000D01*
X292250Y253250D01*
X295000D01*
X23750Y216000D02*
Y224799D01*
X62000Y210000D02*
Y221000D01*
X65500Y210000D02*
Y219250D01*
Y210000D02*
X65535Y209965D01*
X65500Y219250D02*
X68250Y222000D01*
X69035Y209965D02*
Y215535D01*
X71000Y217500D01*
D64*
X282000Y161000D02*
D03*
Y178500D02*
D03*
D65*
X176618Y298000D02*
D03*
X169862D02*
D03*
X231628Y297250D02*
D03*
X224872D02*
D03*
X282430Y208572D02*
D03*
Y214820D02*
D03*
X282500Y199874D02*
D03*
Y193626D02*
D03*
X296860Y215248D02*
D03*
Y208492D02*
D03*
X296930Y193614D02*
D03*
Y200370D02*
D03*
X355750Y209622D02*
D03*
Y216378D02*
D03*
D66*
X277649Y125250D02*
X278299Y125900D01*
X277250Y125250D02*
X277649D01*
X277250Y87750D02*
X295390D01*
X295440Y87800D01*
X278299Y125900D02*
X295440D01*
X277231Y138231D02*
X295071D01*
X295440Y138600D01*
D69*
X169862Y298000D02*
X176618D01*
X224872Y297250D02*
X231628D01*
X296860Y208492D02*
Y215248D01*
X296930Y193614D02*
Y200370D01*
X355750Y209622D02*
Y216378D01*
D70*
X287939Y235061D02*
X304500D01*
X287939D02*
Y240046D01*
X304500Y235061D02*
X306250Y236811D01*
X310500Y236811D01*
X285735Y242250D02*
X287939Y240046D01*
D72*
X268423Y158327D02*
X279000Y147750D01*
X268423Y193997D02*
Y235423D01*
Y158327D02*
Y193646D01*
X268072D02*
X268423Y193997D01*
Y235423D02*
X275250Y242250D01*
X334294Y172000D02*
X349500D01*
X322250Y163000D02*
X328350Y169100D01*
X349500Y172000D02*
X350500Y173000D01*
X302500Y163000D02*
X322250D01*
X331217Y228561D02*
X338221Y221558D01*
Y221433D02*
Y221558D01*
X203727Y298000D02*
X209431Y292296D01*
X210954D01*
X200750Y298000D02*
X203727D01*
X210954Y292296D02*
X215500Y287750D01*
Y272750D02*
Y287750D01*
X146250Y122250D02*
X202226D01*
X211000Y113476D02*
X215976D01*
X202226Y122250D02*
X211000Y113476D01*
X215976D02*
X233500Y131000D01*
X124250Y144250D02*
X146250Y122250D01*
X233500Y131000D02*
Y206750D01*
X33766Y144250D02*
X124250D01*
X29228Y148788D02*
X33766Y144250D01*
X275250Y242250D02*
X285735D01*
X279000Y147750D02*
X320084D01*
X322000Y140400D02*
Y145835D01*
X320084Y147750D02*
X322000Y145835D01*
X323800Y138600D02*
X325940D01*
X322000Y140400D02*
X323800Y138600D01*
X278250Y297750D02*
X287750Y288250D01*
X222500Y217750D02*
Y256500D01*
Y217750D02*
X233500Y206750D01*
X147845Y295645D02*
X156845D01*
X145740Y297750D02*
X147845Y295645D01*
X156845D02*
X160490Y292000D01*
Y271500D02*
Y292000D01*
X287750Y272650D02*
X287900Y272500D01*
X287750Y272650D02*
Y288250D01*
X328967Y228561D02*
X331217D01*
X285735Y242250D02*
Y258235D01*
X287243Y259743D01*
Y271843D01*
X287900Y272500D01*
X328250Y279500D02*
X350250D01*
D74*
X356640Y94150D02*
D03*
Y132250D02*
D03*
D75*
X199782Y346261D02*
D03*
Y36261D02*
D03*
D76*
X394750Y84500D02*
D03*
X389750Y74500D02*
D03*
X384750Y84500D02*
D03*
X379750Y74500D02*
D03*
X374750Y84500D02*
D03*
X369750Y74500D02*
D03*
X364750Y84500D02*
D03*
X359750Y74500D02*
D03*
X354750Y84500D02*
D03*
X349750Y74500D02*
D03*
X344750Y84500D02*
D03*
X339750Y74500D02*
D03*
X334750Y84500D02*
D03*
X329750Y74500D02*
D03*
X324750Y84500D02*
D03*
X319750Y74500D02*
D03*
X314750Y84500D02*
D03*
X309750Y74500D02*
D03*
X299750D02*
D03*
X289750D02*
D03*
X279750D02*
D03*
X269750D02*
D03*
X259750D02*
D03*
X249750Y114500D02*
D03*
X254750Y104500D02*
D03*
X249750Y74500D02*
D03*
X239750Y114500D02*
D03*
Y94500D02*
D03*
X244750Y84500D02*
D03*
X239750Y74500D02*
D03*
X234750Y104500D02*
D03*
X229750Y94500D02*
D03*
X234750Y84500D02*
D03*
X229750Y74500D02*
D03*
X224750Y324500D02*
D03*
Y104500D02*
D03*
X219750Y94500D02*
D03*
X224750Y84500D02*
D03*
X219750Y74500D02*
D03*
X224750Y64500D02*
D03*
X219750Y54500D02*
D03*
X224750Y44500D02*
D03*
Y24500D02*
D03*
X214750Y324500D02*
D03*
Y104500D02*
D03*
X209750Y94500D02*
D03*
X214750Y84500D02*
D03*
X209750Y74500D02*
D03*
X214750Y64500D02*
D03*
X204750Y104500D02*
D03*
Y84500D02*
D03*
X199750Y74500D02*
D03*
X204750Y64500D02*
D03*
X194750Y164500D02*
D03*
X189750Y74500D02*
D03*
X194750Y64500D02*
D03*
X184750Y324500D02*
D03*
Y64500D02*
D03*
X179750Y54500D02*
D03*
X174750Y324500D02*
D03*
X169750Y314500D02*
D03*
Y274500D02*
D03*
Y234500D02*
D03*
X174750Y64500D02*
D03*
Y44500D02*
D03*
Y24500D02*
D03*
X159750Y234500D02*
D03*
X164750Y224500D02*
D03*
X149750Y234500D02*
D03*
X154750Y224500D02*
D03*
X144750D02*
D03*
X139750Y214500D02*
D03*
Y114500D02*
D03*
X134750Y124500D02*
D03*
X129750Y114500D02*
D03*
X134750Y104500D02*
D03*
X119750Y134500D02*
D03*
X124750Y124500D02*
D03*
X119750Y114500D02*
D03*
X124750Y104500D02*
D03*
X109750Y134500D02*
D03*
X114750Y124500D02*
D03*
X109750Y114500D02*
D03*
X114750Y104500D02*
D03*
X99750Y134500D02*
D03*
X104750Y124500D02*
D03*
X99750Y114500D02*
D03*
X104750Y104500D02*
D03*
X89750Y134500D02*
D03*
X94750Y124500D02*
D03*
X89750Y114500D02*
D03*
X94750Y104500D02*
D03*
X79750Y194500D02*
D03*
Y134500D02*
D03*
X84750Y124500D02*
D03*
X79750Y114500D02*
D03*
X84750Y104500D02*
D03*
X69750Y134500D02*
D03*
X74750Y124500D02*
D03*
Y104500D02*
D03*
X49750Y194500D02*
D03*
X9750Y214500D02*
D03*
X14750Y184500D02*
D03*
X317278Y211228D02*
D03*
X347750Y242500D02*
D03*
X208000Y279000D02*
D03*
X223750Y147250D02*
D03*
X282000Y161000D02*
D03*
X281500Y179250D02*
D03*
X83965Y213465D02*
D03*
X47250Y191750D02*
D03*
X263302Y130250D02*
D03*
X246698Y121553D02*
D03*
X277000Y111250D02*
D03*
X266500Y310500D02*
D03*
X28500Y139250D02*
D03*
X37814Y168511D02*
D03*
X34750Y189500D02*
D03*
X13209Y212246D02*
D03*
X5250Y246500D02*
D03*
X47750Y247500D02*
D03*
X115500Y242000D02*
D03*
X125250Y237000D02*
D03*
X109500Y249750D02*
D03*
X75000Y259750D02*
D03*
X89250Y251250D02*
D03*
X167440Y174250D02*
D03*
X172542Y157750D02*
D03*
X305903Y204476D02*
D03*
X375000Y289750D02*
D03*
X157500Y308000D02*
D03*
X87000Y295500D02*
D03*
X246750Y262500D02*
D03*
X279000Y262000D02*
D03*
X318000Y267750D02*
D03*
X303500Y78750D02*
D03*
X136000Y171500D02*
D03*
X117459Y166481D02*
D03*
X120500Y220250D02*
D03*
X142615Y211735D02*
D03*
X186250Y200500D02*
D03*
X220500Y192250D02*
D03*
X207500Y128750D02*
D03*
X28491Y197669D02*
D03*
X29500Y190250D02*
D03*
X80000Y243750D02*
D03*
X65577Y245012D02*
D03*
X37000Y246000D02*
D03*
X70000Y76750D02*
D03*
Y72956D02*
D03*
Y69162D02*
D03*
X2000Y135000D02*
D03*
X5530D02*
D03*
X9324D02*
D03*
X13118D02*
D03*
X16912D02*
D03*
X20706D02*
D03*
X24500D02*
D03*
X28530D02*
D03*
X32324D02*
D03*
X36118D02*
D03*
X39912D02*
D03*
X43706D02*
D03*
X47500D02*
D03*
X51280D02*
D03*
X55074D02*
D03*
X58868D02*
D03*
X62662D02*
D03*
X66456D02*
D03*
X70250D02*
D03*
Y131470D02*
D03*
Y127676D02*
D03*
Y123882D02*
D03*
Y120088D02*
D03*
Y116294D02*
D03*
Y112500D02*
D03*
Y108220D02*
D03*
Y104426D02*
D03*
Y100632D02*
D03*
Y96838D02*
D03*
Y93044D02*
D03*
Y89250D02*
D03*
X185952Y116243D02*
D03*
X185370Y112493D02*
D03*
X185173Y101117D02*
D03*
X184094Y97479D02*
D03*
X181411Y94796D02*
D03*
X178729Y92114D02*
D03*
X176046Y89431D02*
D03*
X172340Y88617D02*
D03*
X168546D02*
D03*
X164752D02*
D03*
X160958D02*
D03*
X157164D02*
D03*
X153370D02*
D03*
X149576D02*
D03*
X145782D02*
D03*
X141988D02*
D03*
X138194D02*
D03*
X134400D02*
D03*
X136506Y77882D02*
D03*
X140300D02*
D03*
X144094D02*
D03*
X147888D02*
D03*
X151682D02*
D03*
X155476D02*
D03*
X159270D02*
D03*
X163064D02*
D03*
X166858D02*
D03*
X170652D02*
D03*
X174445D02*
D03*
X178238Y77988D02*
D03*
X181580Y79784D02*
D03*
X184263Y82466D02*
D03*
X186945Y85149D02*
D03*
X189628Y87832D02*
D03*
X192311Y90515D02*
D03*
X194897Y93291D02*
D03*
X195907Y96948D02*
D03*
Y100742D02*
D03*
Y104536D02*
D03*
Y108330D02*
D03*
X195892Y112124D02*
D03*
X195178Y115850D02*
D03*
X101742Y88617D02*
D03*
X97948D02*
D03*
X94182Y88158D02*
D03*
X90389Y88121D02*
D03*
X86627Y88617D02*
D03*
X79039D02*
D03*
X75278Y88120D02*
D03*
X74579Y78755D02*
D03*
X78271Y77882D02*
D03*
X82065D02*
D03*
X85859D02*
D03*
X89647Y78109D02*
D03*
X93384Y78761D02*
D03*
X97075Y77882D02*
D03*
X100869D02*
D03*
X71750Y245500D02*
D03*
X277013Y204205D02*
D03*
X311750Y119250D02*
D03*
X330500Y245250D02*
D03*
X213750Y190947D02*
D03*
X97750Y205250D02*
D03*
X80528Y253453D02*
D03*
X100750Y240750D02*
D03*
X321000Y212000D02*
D03*
X214310Y186655D02*
D03*
X106500Y234500D02*
D03*
X113750Y233500D02*
D03*
X118395Y224803D02*
D03*
X190706Y175282D02*
D03*
X194190Y175250D02*
D03*
X164750Y148036D02*
D03*
X167750Y104435D02*
D03*
X153250Y132039D02*
D03*
X277250Y87750D02*
D03*
Y125250D02*
D03*
X277231Y138231D02*
D03*
X314000Y209500D02*
D03*
X286561Y228811D02*
D03*
X291959Y253000D02*
D03*
X13000Y254250D02*
D03*
X23750Y216000D02*
D03*
X41750Y226500D02*
D03*
X41260Y163103D02*
D03*
X62022Y206500D02*
D03*
X65535Y209965D02*
D03*
X65535Y206465D02*
D03*
X69035Y209965D02*
D03*
X62000Y210000D02*
D03*
X69035Y206465D02*
D03*
X89000Y204250D02*
D03*
D77*
X345250Y220000D02*
D03*
X345000Y153750D02*
D03*
X333750D02*
D03*
X32364Y209065D02*
D03*
X268572Y209750D02*
D03*
X268423Y193646D02*
D03*
X278250Y297750D02*
D03*
X146072Y249250D02*
D03*
X133572D02*
D03*
X29228Y148788D02*
D03*
X254250Y297750D02*
D03*
X352000Y162750D02*
D03*
X322250Y163000D02*
D03*
D03*
X200176Y159302D02*
D03*
X195208D02*
D03*
X195210Y166763D02*
D03*
X200178D02*
D03*
X234750Y91250D02*
D03*
X177240Y271500D02*
D03*
X169240D02*
D03*
X232250Y272750D02*
D03*
X224250D02*
D03*
D78*
X309750Y182750D02*
D03*
D79*
X328690Y87800D02*
D03*
X298190D02*
D03*
X328690Y100500D02*
D03*
X298190D02*
D03*
X328690Y113200D02*
D03*
X298190D02*
D03*
X328690Y125900D02*
D03*
X298190D02*
D03*
X328690Y138600D02*
D03*
X298190D02*
D03*
D80*
X173240Y261250D02*
D03*
X167740D02*
D03*
X178740D02*
D03*
X167740Y281750D02*
D03*
X178740D02*
D03*
X173240Y281750D02*
D03*
X228250Y262500D02*
D03*
X222750D02*
D03*
X233750D02*
D03*
X222750Y283000D02*
D03*
X233750D02*
D03*
X228250Y283000D02*
D03*
D81*
X173240Y271500D02*
D03*
X228250Y272750D02*
D03*
D82*
X160490Y271500D02*
D03*
X185990D02*
D03*
X215500Y272750D02*
D03*
X241000D02*
D03*
D83*
X145740Y297750D02*
D03*
X200750Y298000D02*
D03*
X278250Y297750D02*
D03*
X254250Y297750D02*
D03*
X302500Y163000D02*
D03*
Y297750D02*
D03*
X376500Y231000D02*
D03*
D84*
X199490Y278250D02*
D03*
Y264750D02*
D03*
X254500Y279500D02*
D03*
Y266000D02*
D03*
D85*
X11250Y196000D02*
D03*
Y160000D02*
D03*
X10250Y302500D02*
D03*
Y266500D02*
D03*
X389250Y196000D02*
D03*
Y160000D02*
D03*
X389000Y266500D02*
D03*
Y302500D02*
D03*
D86*
X50000Y183000D02*
D03*
Y173000D02*
D03*
X49000Y289500D02*
D03*
Y279500D02*
D03*
X350500Y183000D02*
D03*
Y173000D02*
D03*
X350250Y279500D02*
D03*
Y289500D02*
D03*
D87*
X34700Y224799D02*
D03*
X23750D02*
D03*
X12800D02*
D03*
Y236701D02*
D03*
X23750D02*
D03*
X34700D02*
D03*
D88*
X68750Y182750D02*
D03*
X64750D02*
D03*
X64750Y172750D02*
D03*
X68750D02*
D03*
X64750Y290250D02*
D03*
X68750D02*
D03*
Y279000D02*
D03*
X64750D02*
D03*
D89*
X287900Y272500D02*
D03*
X305600Y272500D02*
D03*
D90*
X326500Y224811D02*
D03*
X322500Y228811D02*
D03*
Y224811D02*
D03*
X326500Y228811D02*
D03*
Y232811D02*
D03*
X322500D02*
D03*
X318500Y224811D02*
D03*
Y228811D02*
D03*
X314500D02*
D03*
X318500Y236811D02*
D03*
Y232811D02*
D03*
X326500Y240811D02*
D03*
Y236811D02*
D03*
X322500D02*
D03*
Y240811D02*
D03*
X318500D02*
D03*
X314500Y232811D02*
D03*
X314500Y224811D02*
D03*
X310500Y228811D02*
D03*
Y224811D02*
D03*
Y236811D02*
D03*
Y232811D02*
D03*
X314500Y240811D02*
D03*
Y236811D02*
D03*
X310500Y240811D02*
D03*
D91*
X328250Y289250D02*
D03*
Y279750D02*
D03*
D92*
X299064Y253250D02*
D03*
X295000D02*
D03*
D93*
X297031Y253253D02*
D03*
D94*
X305253Y249396D02*
D03*
M02*
