M48
;Layer_Color=9474304
;FILE_FORMAT=4:4
METRIC,LZ
;TYPE=PLATED
T01F00S00C0.1000
T02F00S00C0.2500
T03F00S00C3.0000
;TYPE=NON_PLATED
T04F00S00C1.0200
%
T01
X00002Y00135
X0000553
X00009324
X00013118
X00016912
X00020706
X000245
X0002853
X00032324
X00036118
X00039912
X00043706
X000475
X0005128
X00055074
X00058868
X00062662
X00066456
X0006975Y001345
X0007025Y00135
Y0013147
Y00127676
Y00123882
Y00120088
Y00116294
Y001125
Y0010822
Y00104426
Y00100632
Y00096838
Y00093044
Y0008925
X00075278Y0008812
X00079039Y00088617
X00086627
X00090389Y00088121
X00094182Y00088158
X00097948Y00088617
X00101742
X00100869Y00077882
X00097075
X00093384Y00078761
X00089647Y00078109
X00085859Y00077882
X00082065
X00078271
X00074579Y00078755
X0007Y0007675
Y00072956
Y00069162
X0007475Y001045
X0008475
X0009475
X0010475
X0011475
X0012475
X0013475
X0012975Y001145
X0013975
X0013475Y001245
X0012475
X0011475
X0010475
X0009475
X0008475
X0007475
X0007975Y001345
X0008975
X0009975
X0010975
X0011975
Y001145
X0010975
X0009975
X0008975
X0007975
X000285Y0013925
X00037814Y00168511
X0003475Y001895
X0004975Y001945
X0007975
X00117459Y00166481
X00136Y001715
X0016744Y0017425
X00172542Y0015775
X0019475Y001645
X0018625Y002005
X0021375Y00190947
X002205Y0019225
X0022375Y0014725
X002075Y0012875
X00195178Y0011585
X00195892Y00112124
X00195907Y0010833
Y00104536
Y00100742
Y00096948
X00194897Y00093291
X00192311Y00090515
X00189628Y00087832
X00186945Y00085149
X00184263Y00082466
X0018158Y00079784
X00178238Y00077988
X00174445Y00077882
X00170652
X00166858
X00163064
X0015927
X00155476
X00151682
X00147888
X00144094
X001403
X00136506
X00138194Y00088617
X00141988
X00145782
X00149576
X0015337
X00157164
X00160958
X00164752
X00168546
X0017234
X00176046Y00089431
X00178729Y00092114
X00181411Y00094796
X00184094Y00097479
X00185173Y00101117
X0018537Y00112493
X00185952Y00116243
X0020475Y001045
X0021475
X0022475
X0023475
X0022975Y000945
X0023975
X0024475Y000845
X0023475
X0022475
X0021475
X0020475
X0019975Y000745
X0020975
X0021975
X0022975
X0023975
X0024975
X0025975
X0026975
X0027975
X0028975
X0029975
X003035Y0007875
X0030975Y000745
X0031975
X0032975
X0033975
X0034975
X0035475Y000845
X0034475
X0033475
X0032475
X0031475
X0025475Y001045
X0024975Y001145
X0023975
X0021975Y000945
X0020975
X0021475Y000645
X0022475
X0021975Y000545
X0022475Y000445
Y000245
X0017475
Y000445
X0017975Y000545
X0018475Y000645
X0019475
X0020475
X0018975Y000745
X0017475Y000645
X001344Y00088617
X0013975Y002145
X00142615Y00211735
X0014475Y002245
X0015475
X0016475
X001205Y0022025
X00013209Y00212246
X0000975Y002145
X0001475Y001845
X0030975Y0018275
X0031425Y0016975
X00305903Y00204476
X00317278Y00211228
X0036475Y000845
X0037475
X0038475
X0039475
X0038975Y000745
X0037975
X0036975
X0035975
X00375Y0028975
X00318Y0026775
X00279Y00262
X0024675Y002625
X002665Y003105
X0022475Y003245
X0021475
X0018475
X0017475
X0016975Y003145
X001575Y00308
X0016975Y002745
Y002345
X0015975
X0014975
X0012525Y00237
X001155Y00242
X001095Y0024975
X0008925Y0025125
X00075Y0025975
X0004775Y002475
X0000525Y002465
X00087Y002955
T02
X00029228Y00148788
X00032364Y00209065
X0019521Y00166763
X00200178
X00200176Y00159302
X00195208
X00268423Y00193646
X00268572Y0020975
X0034525Y0022
X0033675Y00171266
X0033375Y0015375
X00345
X00352Y0016275
X0023475Y0009125
X0023225Y0027275
X0022425
X0017724Y002715
X0016924
X00146072Y0024925
X00133572
X0025425Y0029775
X0027825Y0029775
T03
X00199782Y00036261
Y00346261
T04
X0035664Y0009415
Y0013225
M30
