M48
;Layer_Color=9474304
;FILE_FORMAT=4:4
METRIC,LZ
;TYPE=PLATED
T02F00S00C0.1500
T03F00S00C0.2500
T04F00S00C0.8999
%
T02
X0018875Y000645
Y00068
X0019225
X0019575
Y000645
X0019225
X0022392Y00099205
T03
X000045Y000045
Y00018
X0002225
X000285Y0001825
X0002775Y0001025
X00035Y0000425
X0004775Y0000475
X000725Y0000425
X0009125Y000045
X00094Y000215
X0010125Y00015714
X0009825Y0003225
X00085Y0002675
X0007625Y0003375
X00061Y0003125
X000665Y000575
Y000625
X000735
X000735Y000575
X00041Y000595
X0004125Y0005125
X0003175Y0005975
X0003Y0004
X000235Y0004
X000045
Y0005125
Y00063
Y0008775
X0001875
X0002925Y00092
X000345Y000975
X000495Y0009675
X00047Y001025
X0004725Y001155
X0003175
X000185
X000045
X0007425Y0011525
X000725Y001095
X000984Y001155
X0011975
X001355
Y0008975
Y0007375
Y000575
Y0004825
Y00032
X00126844Y0003085
X001355Y0001825
Y000045
X0011325
X0011525Y000425
X001155Y000595
X0011075Y00068
X00106068Y00063556
X000984Y000854
X000984Y0009325
X0011975Y0008925
X00441Y000675
Y000595
T04
X0062635Y000331
X0063905Y000458
X0065175Y000331
Y000585
X0062635
M30
