G04*
G04 #@! TF.GenerationSoftware,Altium Limited,Altium Designer,25.2.1 (25)*
G04*
G04 Layer_Physical_Order=5*
G04 Layer_Color=16737945*
%FSLAX44Y44*%
%MOMM*%
G71*
G04*
G04 #@! TF.SameCoordinates,854DBFE2-DFE7-4A3D-8861-6C5ED611F316*
G04*
G04*
G04 #@! TF.FilePolarity,Positive*
G04*
G01*
G75*
%ADD74C,1.0200*%
%ADD75C,4.5000*%
%ADD76C,0.2520*%
%ADD77C,0.5000*%
%ADD78C,0.2524*%
G36*
X206791Y375483D02*
X211282Y374024D01*
X215490Y371880D01*
X219310Y369104D01*
X222649Y365765D01*
X225424Y361945D01*
X227568Y357737D01*
X229028Y353246D01*
X229766Y348582D01*
Y346221D01*
Y326221D01*
X229766D01*
X229814Y325241D01*
X230197Y323318D01*
X230947Y321507D01*
X232036Y319877D01*
X233422Y318491D01*
X235052Y317402D01*
X236863Y316652D01*
X238786Y316269D01*
X239766Y316221D01*
X389782Y316221D01*
X389782Y316221D01*
Y316221D01*
X392248Y315967D01*
X392699Y315877D01*
X394519Y315123D01*
X396157Y314029D01*
X397550Y312636D01*
X398644Y310998D01*
X399398Y309178D01*
X399782Y307246D01*
Y306261D01*
Y125700D01*
X377140Y125700D01*
X377140Y125700D01*
X376164Y125604D01*
X374362Y124858D01*
X372982Y123478D01*
X372236Y121676D01*
X372140Y120700D01*
X372140Y104700D01*
X372236Y103725D01*
X372983Y101922D01*
X374362Y100543D01*
X376165Y99796D01*
X377140Y99700D01*
X397986D01*
X399782Y97904D01*
X399782Y76261D01*
X399782D01*
Y75276D01*
X399398Y73344D01*
X398644Y71525D01*
X397550Y69887D01*
X396157Y68494D01*
X394519Y67399D01*
X392699Y66646D01*
X390767Y66261D01*
X389782Y66261D01*
X239782D01*
Y66261D01*
X238802Y66213D01*
X236879Y65831D01*
X235068Y65080D01*
X233438Y63991D01*
X232052Y62605D01*
X230963Y60975D01*
X230213Y59164D01*
X229830Y57242D01*
X229782Y56261D01*
X229782Y36261D01*
Y33900D01*
X229044Y29236D01*
X227584Y24745D01*
X225441Y20538D01*
X222665Y16718D01*
X219326Y13379D01*
X215506Y10603D01*
X211298Y8459D01*
X206807Y7000D01*
X202143Y6261D01*
X197421D01*
X192757Y7000D01*
X188266Y8459D01*
X184059Y10603D01*
X180239Y13379D01*
X176900Y16718D01*
X174124Y20538D01*
X171980Y24745D01*
X170521Y29236D01*
X169782Y33900D01*
Y36261D01*
Y56261D01*
X169782D01*
X169734Y57242D01*
X169352Y59164D01*
X168601Y60975D01*
X167512Y62605D01*
X166126Y63991D01*
X164496Y65080D01*
X162685Y65831D01*
X160762Y66213D01*
X159782Y66261D01*
X68100Y66261D01*
Y132650D01*
X-218D01*
Y306261D01*
Y307246D01*
X167Y309178D01*
X921Y310998D01*
X2015Y312636D01*
X3408Y314029D01*
X5046Y315123D01*
X6866Y315877D01*
X7345Y315972D01*
X9782Y316221D01*
X9782Y316221D01*
X9782Y316221D01*
X159766D01*
Y316221D01*
X160746Y316269D01*
X162669Y316652D01*
X164480Y317402D01*
X166110Y318491D01*
X167496Y319877D01*
X168585Y321507D01*
X169336Y323318D01*
X169718Y325241D01*
X169766Y326221D01*
X169766Y346221D01*
Y348582D01*
X170505Y353246D01*
X171964Y357737D01*
X174108Y361945D01*
X176884Y365765D01*
X180222Y369104D01*
X184043Y371880D01*
X188250Y374024D01*
X192741Y375483D01*
X197405Y376221D01*
X202127D01*
X206791Y375483D01*
D02*
G37*
%LPC*%
G36*
X202195Y370761D02*
X201052D01*
Y347531D01*
X224282D01*
Y348674D01*
X223341Y353408D01*
X221494Y357867D01*
X218813Y361879D01*
X215400Y365292D01*
X211387Y367973D01*
X206929Y369820D01*
X202195Y370761D01*
D02*
G37*
G36*
X198512D02*
X197369D01*
X192636Y369820D01*
X188177Y367973D01*
X184164Y365292D01*
X180752Y361879D01*
X178071Y357867D01*
X176224Y353408D01*
X175282Y348674D01*
Y347531D01*
X198512D01*
Y370761D01*
D02*
G37*
G36*
X224282Y344991D02*
X201052D01*
Y321761D01*
X202195D01*
X206929Y322703D01*
X211387Y324550D01*
X215400Y327231D01*
X218813Y330644D01*
X221494Y334656D01*
X223341Y339115D01*
X224282Y343848D01*
Y344991D01*
D02*
G37*
G36*
X198512D02*
X175282D01*
Y343848D01*
X176224Y339115D01*
X178071Y334656D01*
X180752Y330644D01*
X184164Y327231D01*
X188177Y324550D01*
X192636Y322703D01*
X197369Y321761D01*
X198512D01*
Y344991D01*
D02*
G37*
G36*
X254949Y301266D02*
X253551D01*
X252258Y300731D01*
X251269Y299742D01*
X250734Y298449D01*
Y297051D01*
X251269Y295758D01*
X252258Y294769D01*
X253551Y294234D01*
X254949D01*
X256242Y294769D01*
X257231Y295758D01*
X257766Y297051D01*
Y298449D01*
X257231Y299742D01*
X256242Y300731D01*
X254949Y301266D01*
D02*
G37*
G36*
X278949Y301266D02*
X277551D01*
X276258Y300731D01*
X275269Y299742D01*
X274734Y298449D01*
Y297051D01*
X275269Y295758D01*
X276258Y294769D01*
X277551Y294234D01*
X278949D01*
X280242Y294769D01*
X281231Y295758D01*
X281766Y297051D01*
Y298449D01*
X281231Y299742D01*
X280242Y300731D01*
X278949Y301266D01*
D02*
G37*
G36*
X208453Y281278D02*
X207547D01*
X206710Y280931D01*
X206069Y280290D01*
X205722Y279453D01*
Y278547D01*
X206069Y277710D01*
X206710Y277069D01*
X207547Y276722D01*
X208453D01*
X209290Y277069D01*
X209931Y277710D01*
X210278Y278547D01*
Y279453D01*
X209931Y280290D01*
X209290Y280931D01*
X208453Y281278D01*
D02*
G37*
G36*
X13453Y256528D02*
X12547D01*
X11710Y256181D01*
X11069Y255540D01*
X10722Y254703D01*
Y253797D01*
X11069Y252960D01*
X11710Y252319D01*
X12547Y251972D01*
X13453D01*
X14290Y252319D01*
X14931Y252960D01*
X15278Y253797D01*
Y254703D01*
X14931Y255540D01*
X14290Y256181D01*
X13453Y256528D01*
D02*
G37*
G36*
X80981Y255731D02*
X80075D01*
X79238Y255384D01*
X78597Y254743D01*
X78250Y253906D01*
Y253000D01*
X78597Y252163D01*
X79238Y251522D01*
X80075Y251175D01*
X80981D01*
X81818Y251522D01*
X82459Y252163D01*
X82806Y253000D01*
Y253906D01*
X82459Y254743D01*
X81818Y255384D01*
X80981Y255731D01*
D02*
G37*
G36*
X146771Y252766D02*
X145372D01*
X144080Y252231D01*
X143091Y251242D01*
X142556Y249949D01*
Y248551D01*
X143091Y247258D01*
X144080Y246269D01*
X145372Y245734D01*
X146771D01*
X148063Y246269D01*
X149052Y247258D01*
X149588Y248551D01*
Y249949D01*
X149052Y251242D01*
X148063Y252231D01*
X146771Y252766D01*
D02*
G37*
G36*
X134271D02*
X132872D01*
X131580Y252231D01*
X130591Y251242D01*
X130056Y249949D01*
Y248551D01*
X130591Y247258D01*
X131580Y246269D01*
X132872Y245734D01*
X134271D01*
X135563Y246269D01*
X136552Y247258D01*
X137088Y248551D01*
Y249949D01*
X136552Y251242D01*
X135563Y252231D01*
X134271Y252766D01*
D02*
G37*
G36*
X37453Y248278D02*
X36547D01*
X35710Y247931D01*
X35069Y247290D01*
X34722Y246453D01*
Y245547D01*
X35069Y244710D01*
X35710Y244069D01*
X36547Y243722D01*
X37453D01*
X38290Y244069D01*
X38931Y244710D01*
X39278Y245547D01*
Y246453D01*
X38931Y247290D01*
X38290Y247931D01*
X37453Y248278D01*
D02*
G37*
G36*
X72203Y247778D02*
X71297D01*
X70460Y247431D01*
X69819Y246790D01*
X69472Y245953D01*
Y245047D01*
X69819Y244210D01*
X70460Y243569D01*
X71297Y243222D01*
X72203D01*
X73040Y243569D01*
X73681Y244210D01*
X74028Y245047D01*
Y245953D01*
X73681Y246790D01*
X73040Y247431D01*
X72203Y247778D01*
D02*
G37*
G36*
X80453Y246028D02*
X79547D01*
X78710Y245681D01*
X78069Y245040D01*
X77722Y244203D01*
Y243297D01*
X78069Y242460D01*
X78710Y241819D01*
X79547Y241472D01*
X80453D01*
X81290Y241819D01*
X81931Y242460D01*
X82278Y243297D01*
Y244203D01*
X81931Y245040D01*
X81290Y245681D01*
X80453Y246028D01*
D02*
G37*
G36*
X348203Y244778D02*
X347297D01*
X346460Y244431D01*
X345819Y243790D01*
X345472Y242953D01*
Y242047D01*
X345819Y241210D01*
X346460Y240569D01*
X347297Y240222D01*
X348203D01*
X349040Y240569D01*
X349681Y241210D01*
X350028Y242047D01*
Y242953D01*
X349681Y243790D01*
X349040Y244431D01*
X348203Y244778D01*
D02*
G37*
G36*
X101203Y243028D02*
X100297D01*
X99460Y242681D01*
X98819Y242040D01*
X98472Y241203D01*
Y240297D01*
X98819Y239460D01*
X99460Y238819D01*
X100297Y238472D01*
X101203D01*
X102040Y238819D01*
X102681Y239460D01*
X103028Y240297D01*
Y241203D01*
X102681Y242040D01*
X102040Y242681D01*
X101203Y243028D01*
D02*
G37*
G36*
X106953Y236778D02*
X106047D01*
X105210Y236431D01*
X104569Y235790D01*
X104222Y234953D01*
Y234047D01*
X104569Y233210D01*
X105210Y232569D01*
X106047Y232222D01*
X106953D01*
X107790Y232569D01*
X108431Y233210D01*
X108778Y234047D01*
Y234953D01*
X108431Y235790D01*
X107790Y236431D01*
X106953Y236778D01*
D02*
G37*
G36*
X114203Y235778D02*
X113297D01*
X112460Y235431D01*
X111819Y234790D01*
X111472Y233953D01*
Y233047D01*
X111819Y232210D01*
X112460Y231569D01*
X113297Y231222D01*
X114203D01*
X115040Y231569D01*
X115681Y232210D01*
X116028Y233047D01*
Y233953D01*
X115681Y234790D01*
X115040Y235431D01*
X114203Y235778D01*
D02*
G37*
G36*
X118848Y227081D02*
X117942D01*
X117104Y226734D01*
X116464Y226093D01*
X116117Y225256D01*
Y224350D01*
X116464Y223513D01*
X117104Y222872D01*
X117942Y222525D01*
X118848D01*
X119685Y222872D01*
X120326Y223513D01*
X120673Y224350D01*
Y225256D01*
X120326Y226093D01*
X119685Y226734D01*
X118848Y227081D01*
D02*
G37*
G36*
X345949Y223516D02*
X344551D01*
X343258Y222981D01*
X342269Y221992D01*
X341734Y220699D01*
Y219301D01*
X342269Y218008D01*
X343258Y217019D01*
X344551Y216484D01*
X345949D01*
X347242Y217019D01*
X348231Y218008D01*
X348766Y219301D01*
Y220699D01*
X348231Y221992D01*
X347242Y222981D01*
X345949Y223516D01*
D02*
G37*
G36*
X24203Y218278D02*
X23297D01*
X22460Y217931D01*
X21819Y217290D01*
X21472Y216453D01*
Y215547D01*
X21819Y214710D01*
X22460Y214069D01*
X23297Y213722D01*
X24203D01*
X25040Y214069D01*
X25681Y214710D01*
X26028Y215547D01*
Y216453D01*
X25681Y217290D01*
X25040Y217931D01*
X24203Y218278D01*
D02*
G37*
G36*
X321453Y214278D02*
X320547D01*
X319710Y213931D01*
X319069Y213290D01*
X318722Y212453D01*
Y211547D01*
X319069Y210710D01*
X319710Y210069D01*
X320547Y209722D01*
X321453D01*
X322290Y210069D01*
X322931Y210710D01*
X323278Y211547D01*
Y212453D01*
X322931Y213290D01*
X322290Y213931D01*
X321453Y214278D01*
D02*
G37*
G36*
X314453Y211778D02*
X313547D01*
X312710Y211431D01*
X312069Y210790D01*
X311722Y209953D01*
Y209047D01*
X312069Y208210D01*
X312710Y207569D01*
X313547Y207222D01*
X314453D01*
X315290Y207569D01*
X315931Y208210D01*
X316278Y209047D01*
Y209953D01*
X315931Y210790D01*
X315290Y211431D01*
X314453Y211778D01*
D02*
G37*
G36*
X269271Y213266D02*
X267872D01*
X266580Y212731D01*
X265591Y211742D01*
X265056Y210449D01*
Y209051D01*
X265591Y207758D01*
X266580Y206769D01*
X267872Y206234D01*
X269271D01*
X270563Y206769D01*
X271552Y207758D01*
X272088Y209051D01*
Y210449D01*
X271552Y211742D01*
X270563Y212731D01*
X269271Y213266D01*
D02*
G37*
G36*
X33063Y212582D02*
X31664D01*
X30372Y212046D01*
X29383Y211057D01*
X28848Y209765D01*
Y208366D01*
X29383Y207074D01*
X30372Y206085D01*
X31664Y205550D01*
X33063D01*
X34355Y206085D01*
X35344Y207074D01*
X35880Y208366D01*
Y209765D01*
X35344Y211057D01*
X34355Y212046D01*
X33063Y212582D01*
D02*
G37*
G36*
X98203Y207528D02*
X97297D01*
X96460Y207181D01*
X95819Y206540D01*
X95472Y205703D01*
Y204797D01*
X95819Y203960D01*
X96460Y203319D01*
X97297Y202972D01*
X98203D01*
X99040Y203319D01*
X99681Y203960D01*
X100028Y204797D01*
Y205703D01*
X99681Y206540D01*
X99040Y207181D01*
X98203Y207528D01*
D02*
G37*
G36*
X89453Y206528D02*
X88547D01*
X87710Y206181D01*
X87069Y205540D01*
X86722Y204703D01*
Y203797D01*
X87069Y202960D01*
X87710Y202319D01*
X88547Y201972D01*
X89453D01*
X90290Y202319D01*
X90931Y202960D01*
X91278Y203797D01*
Y204703D01*
X90931Y205540D01*
X90290Y206181D01*
X89453Y206528D01*
D02*
G37*
G36*
X277466Y206483D02*
X276560D01*
X275723Y206136D01*
X275082Y205495D01*
X274735Y204658D01*
Y203752D01*
X275082Y202915D01*
X275723Y202274D01*
X276560Y201927D01*
X277466D01*
X278304Y202274D01*
X278944Y202915D01*
X279291Y203752D01*
Y204658D01*
X278944Y205495D01*
X278304Y206136D01*
X277466Y206483D01*
D02*
G37*
G36*
X75750Y216750D02*
X55250D01*
Y199500D01*
X75750D01*
Y216750D01*
D02*
G37*
G36*
X28944Y199947D02*
X28038D01*
X27201Y199600D01*
X26560Y198959D01*
X26213Y198122D01*
Y197216D01*
X26560Y196379D01*
X27201Y195738D01*
X28038Y195391D01*
X28944D01*
X29781Y195738D01*
X30422Y196379D01*
X30769Y197216D01*
Y198122D01*
X30422Y198959D01*
X29781Y199600D01*
X28944Y199947D01*
D02*
G37*
G36*
X269122Y197162D02*
X267724D01*
X266431Y196626D01*
X265442Y195637D01*
X264907Y194345D01*
Y192946D01*
X265442Y191654D01*
X266431Y190665D01*
X267724Y190130D01*
X269122D01*
X270415Y190665D01*
X271404Y191654D01*
X271939Y192946D01*
Y194345D01*
X271404Y195637D01*
X270415Y196626D01*
X269122Y197162D01*
D02*
G37*
G36*
X47602Y193520D02*
X46898D01*
X46247Y193251D01*
X45750Y192753D01*
X45480Y192102D01*
Y191398D01*
X45750Y190747D01*
X46247Y190250D01*
X46898Y189980D01*
X47602D01*
X48253Y190250D01*
X48751Y190747D01*
X49020Y191398D01*
Y192102D01*
X48751Y192753D01*
X48253Y193251D01*
X47602Y193520D01*
D02*
G37*
G36*
X29953Y192528D02*
X29047D01*
X28210Y192181D01*
X27569Y191540D01*
X27222Y190703D01*
Y189797D01*
X27569Y188960D01*
X28210Y188319D01*
X29047Y187972D01*
X29953D01*
X30790Y188319D01*
X31431Y188960D01*
X31778Y189797D01*
Y190703D01*
X31431Y191540D01*
X30790Y192181D01*
X29953Y192528D01*
D02*
G37*
G36*
X214203Y193225D02*
X213297D01*
X212460Y192878D01*
X211819Y192237D01*
X211472Y191400D01*
Y190494D01*
X211819Y189657D01*
X212455Y189020D01*
X212460Y189016D01*
X212379Y187945D01*
X212032Y187108D01*
Y186202D01*
X212379Y185365D01*
X213020Y184724D01*
X213857Y184377D01*
X214763D01*
X215600Y184724D01*
X216241Y185365D01*
X216588Y186202D01*
Y187108D01*
X216241Y187945D01*
X215605Y188582D01*
X215600Y188586D01*
X215681Y189657D01*
X216028Y190494D01*
Y191400D01*
X215681Y192237D01*
X215040Y192878D01*
X214203Y193225D01*
D02*
G37*
G36*
X281953Y181528D02*
X281047D01*
X280210Y181181D01*
X279569Y180540D01*
X279222Y179703D01*
Y178797D01*
X279569Y177960D01*
X280210Y177319D01*
X281047Y176972D01*
X281953D01*
X282790Y177319D01*
X283431Y177960D01*
X283778Y178797D01*
Y179703D01*
X283431Y180540D01*
X282790Y181181D01*
X281953Y181528D01*
D02*
G37*
G36*
X191159Y177560D02*
X190253D01*
X189415Y177213D01*
X188775Y176572D01*
X188428Y175735D01*
Y174829D01*
X188775Y173992D01*
X189415Y173351D01*
X190253Y173004D01*
X191159D01*
X191996Y173351D01*
X192432Y173787D01*
X192899Y173319D01*
X193737Y172972D01*
X194643D01*
X195480Y173319D01*
X196121Y173960D01*
X196468Y174797D01*
Y175703D01*
X196121Y176540D01*
X195480Y177181D01*
X194643Y177528D01*
X193737D01*
X192899Y177181D01*
X192464Y176745D01*
X191996Y177213D01*
X191159Y177560D01*
D02*
G37*
G36*
X337449Y174782D02*
X336051D01*
X334758Y174247D01*
X333769Y173258D01*
X333234Y171965D01*
Y170567D01*
X333769Y169274D01*
X334758Y168285D01*
X336051Y167750D01*
X337449D01*
X338742Y168285D01*
X339731Y169274D01*
X340266Y170567D01*
Y171965D01*
X339731Y173258D01*
X338742Y174247D01*
X337449Y174782D01*
D02*
G37*
G36*
X41713Y165381D02*
X40807D01*
X39970Y165034D01*
X39329Y164393D01*
X38982Y163556D01*
Y162649D01*
X39329Y161812D01*
X39970Y161171D01*
X40807Y160825D01*
X41713D01*
X42550Y161171D01*
X43191Y161812D01*
X43538Y162649D01*
Y163556D01*
X43191Y164393D01*
X42550Y165034D01*
X41713Y165381D01*
D02*
G37*
G36*
X352699Y166266D02*
X351301D01*
X350008Y165731D01*
X349019Y164742D01*
X348484Y163449D01*
Y162051D01*
X349019Y160758D01*
X350008Y159769D01*
X351301Y159234D01*
X352699D01*
X353992Y159769D01*
X354981Y160758D01*
X355516Y162051D01*
Y163449D01*
X354981Y164742D01*
X353992Y165731D01*
X352699Y166266D01*
D02*
G37*
G36*
X282453Y163278D02*
X281547D01*
X280710Y162931D01*
X280069Y162290D01*
X279722Y161453D01*
Y160547D01*
X280069Y159710D01*
X280710Y159069D01*
X281547Y158722D01*
X282453D01*
X283290Y159069D01*
X283931Y159710D01*
X284278Y160547D01*
Y161453D01*
X283931Y162290D01*
X283290Y162931D01*
X282453Y163278D01*
D02*
G37*
G36*
X345699Y157266D02*
X344301D01*
X343008Y156731D01*
X342019Y155742D01*
X341484Y154449D01*
Y153051D01*
X342019Y151758D01*
X343008Y150769D01*
X344301Y150234D01*
X345699D01*
X346992Y150769D01*
X347981Y151758D01*
X348516Y153051D01*
Y154449D01*
X347981Y155742D01*
X346992Y156731D01*
X345699Y157266D01*
D02*
G37*
G36*
X334449D02*
X333051D01*
X331758Y156731D01*
X330769Y155742D01*
X330234Y154449D01*
Y153051D01*
X330769Y151758D01*
X331758Y150769D01*
X333051Y150234D01*
X334449D01*
X335742Y150769D01*
X336731Y151758D01*
X337266Y153051D01*
Y154449D01*
X336731Y155742D01*
X335742Y156731D01*
X334449Y157266D01*
D02*
G37*
G36*
X29927Y152304D02*
X28529D01*
X27236Y151769D01*
X26247Y150780D01*
X25712Y149487D01*
Y148089D01*
X26247Y146797D01*
X27236Y145807D01*
X28529Y145272D01*
X29927D01*
X31220Y145807D01*
X32209Y146797D01*
X32744Y148089D01*
Y149487D01*
X32209Y150780D01*
X31220Y151769D01*
X29927Y152304D01*
D02*
G37*
G36*
X277684Y140509D02*
X276778D01*
X275941Y140163D01*
X275300Y139522D01*
X274953Y138685D01*
Y137778D01*
X275300Y136941D01*
X275941Y136300D01*
X276778Y135953D01*
X277684D01*
X278522Y136300D01*
X279163Y136941D01*
X279509Y137778D01*
Y138685D01*
X279163Y139522D01*
X278522Y140163D01*
X277684Y140509D01*
D02*
G37*
G36*
X357856Y138366D02*
X355423D01*
X353176Y137435D01*
X351455Y135714D01*
X350524Y133467D01*
Y131033D01*
X351455Y128786D01*
X353176Y127065D01*
X355423Y126134D01*
X357856D01*
X360104Y127065D01*
X361825Y128786D01*
X362756Y131033D01*
Y133467D01*
X361825Y135714D01*
X360104Y137435D01*
X357856Y138366D01*
D02*
G37*
G36*
X277703Y127528D02*
X276797D01*
X275960Y127181D01*
X275319Y126540D01*
X274972Y125703D01*
Y124797D01*
X275319Y123960D01*
X275960Y123319D01*
X276797Y122972D01*
X277703D01*
X278540Y123319D01*
X279181Y123960D01*
X279528Y124797D01*
Y125703D01*
X279181Y126540D01*
X278540Y127181D01*
X277703Y127528D01*
D02*
G37*
G36*
X277453Y113528D02*
X276547D01*
X275710Y113181D01*
X275069Y112540D01*
X274722Y111703D01*
Y110797D01*
X275069Y109960D01*
X275710Y109319D01*
X276547Y108972D01*
X277453D01*
X278290Y109319D01*
X278931Y109960D01*
X279278Y110797D01*
Y111703D01*
X278931Y112540D01*
X278290Y113181D01*
X277453Y113528D01*
D02*
G37*
G36*
X357856Y100266D02*
X355423D01*
X353176Y99335D01*
X351455Y97614D01*
X350524Y95366D01*
Y92934D01*
X351455Y90686D01*
X353176Y88965D01*
X355423Y88034D01*
X357856D01*
X360104Y88965D01*
X361825Y90686D01*
X362756Y92934D01*
Y95366D01*
X361825Y97614D01*
X360104Y99335D01*
X357856Y100266D01*
D02*
G37*
G36*
X277703Y90028D02*
X276797D01*
X275960Y89681D01*
X275319Y89040D01*
X274972Y88203D01*
Y87297D01*
X275319Y86460D01*
X275960Y85819D01*
X276797Y85472D01*
X277703D01*
X278540Y85819D01*
X279181Y86460D01*
X279528Y87297D01*
Y88203D01*
X279181Y89040D01*
X278540Y89681D01*
X277703Y90028D01*
D02*
G37*
G36*
X202195Y60761D02*
X201052D01*
Y37531D01*
X224282D01*
Y38674D01*
X223341Y43408D01*
X221494Y47867D01*
X218813Y51879D01*
X215400Y55292D01*
X211387Y57973D01*
X206929Y59820D01*
X202195Y60761D01*
D02*
G37*
G36*
X198512D02*
X197369D01*
X192636Y59820D01*
X188177Y57973D01*
X184164Y55292D01*
X180752Y51879D01*
X178071Y47867D01*
X176224Y43408D01*
X175282Y38674D01*
Y37531D01*
X198512D01*
Y60761D01*
D02*
G37*
G36*
X224282Y34991D02*
X201052D01*
Y11761D01*
X202195D01*
X206929Y12703D01*
X211387Y14550D01*
X215400Y17231D01*
X218813Y20643D01*
X221494Y24656D01*
X223341Y29115D01*
X224282Y33848D01*
Y34991D01*
D02*
G37*
G36*
X198512D02*
X175282D01*
Y33848D01*
X176224Y29115D01*
X178071Y24656D01*
X180752Y20643D01*
X184164Y17231D01*
X188177Y14550D01*
X192636Y12703D01*
X197369Y11761D01*
X198512D01*
Y34991D01*
D02*
G37*
%LPD*%
D74*
X356640Y94150D02*
D03*
Y132250D02*
D03*
D75*
X199782Y346261D02*
D03*
Y36261D02*
D03*
D76*
X314250Y169750D02*
D03*
X309750Y182750D02*
D03*
D77*
X336750Y171266D02*
D03*
D03*
X345250Y220000D02*
D03*
X345000Y153750D02*
D03*
X333750D02*
D03*
X32364Y209065D02*
D03*
X268572Y209750D02*
D03*
X268423Y193646D02*
D03*
X278250Y297750D02*
D03*
X146072Y249250D02*
D03*
X133572D02*
D03*
X29228Y148788D02*
D03*
X254250Y297750D02*
D03*
X352000Y162750D02*
D03*
X200176Y159302D02*
D03*
X195208D02*
D03*
X195210Y166763D02*
D03*
X200178D02*
D03*
X234750Y91250D02*
D03*
X177240Y271500D02*
D03*
X169240D02*
D03*
X232250Y272750D02*
D03*
X224250D02*
D03*
D78*
X384750Y84500D02*
D03*
X379750Y74500D02*
D03*
X374750Y84500D02*
D03*
X394750D02*
D03*
X389750Y74500D02*
D03*
X369750D02*
D03*
X364750Y84500D02*
D03*
X359750Y74500D02*
D03*
X354750Y84500D02*
D03*
X349750Y74500D02*
D03*
X344750Y84500D02*
D03*
X339750Y74500D02*
D03*
X334750Y84500D02*
D03*
X329750Y74500D02*
D03*
X324750Y84500D02*
D03*
X319750Y74500D02*
D03*
X314750Y84500D02*
D03*
X309750Y74500D02*
D03*
X299750D02*
D03*
X289750D02*
D03*
X279750D02*
D03*
X269750D02*
D03*
X259750D02*
D03*
X249750Y114500D02*
D03*
X254750Y104500D02*
D03*
X249750Y74500D02*
D03*
X239750Y114500D02*
D03*
Y94500D02*
D03*
X244750Y84500D02*
D03*
X239750Y74500D02*
D03*
X234750Y104500D02*
D03*
X229750Y94500D02*
D03*
X234750Y84500D02*
D03*
X229750Y74500D02*
D03*
X224750Y324500D02*
D03*
Y104500D02*
D03*
X219750Y94500D02*
D03*
X224750Y84500D02*
D03*
X219750Y74500D02*
D03*
X224750Y64500D02*
D03*
X219750Y54500D02*
D03*
X224750Y44500D02*
D03*
Y24500D02*
D03*
X214750Y324500D02*
D03*
Y104500D02*
D03*
X209750Y94500D02*
D03*
X214750Y84500D02*
D03*
X209750Y74500D02*
D03*
X214750Y64500D02*
D03*
X204750Y104500D02*
D03*
Y84500D02*
D03*
X199750Y74500D02*
D03*
X204750Y64500D02*
D03*
X194750Y164500D02*
D03*
X189750Y74500D02*
D03*
X194750Y64500D02*
D03*
X184750Y324500D02*
D03*
Y64500D02*
D03*
X179750Y54500D02*
D03*
X174750Y324500D02*
D03*
X169750Y314500D02*
D03*
Y274500D02*
D03*
Y234500D02*
D03*
X174750Y64500D02*
D03*
Y44500D02*
D03*
Y24500D02*
D03*
X159750Y234500D02*
D03*
X164750Y224500D02*
D03*
X149750Y234500D02*
D03*
X154750Y224500D02*
D03*
X144750D02*
D03*
X139750Y214500D02*
D03*
Y114500D02*
D03*
X134750Y124500D02*
D03*
X129750Y114500D02*
D03*
X134750Y104500D02*
D03*
X119750Y134500D02*
D03*
X124750Y124500D02*
D03*
X119750Y114500D02*
D03*
X124750Y104500D02*
D03*
X109750Y134500D02*
D03*
X114750Y124500D02*
D03*
X109750Y114500D02*
D03*
X114750Y104500D02*
D03*
X99750Y134500D02*
D03*
X104750Y124500D02*
D03*
X99750Y114500D02*
D03*
X104750Y104500D02*
D03*
X89750Y134500D02*
D03*
X94750Y124500D02*
D03*
X89750Y114500D02*
D03*
X94750Y104500D02*
D03*
X79750Y194500D02*
D03*
Y134500D02*
D03*
X84750Y124500D02*
D03*
X79750Y114500D02*
D03*
X84750Y104500D02*
D03*
X69750Y134500D02*
D03*
X74750Y124500D02*
D03*
Y104500D02*
D03*
X49750Y194500D02*
D03*
X9750Y214500D02*
D03*
X14750Y184500D02*
D03*
X317278Y211228D02*
D03*
X347750Y242500D02*
D03*
D03*
X208000Y279000D02*
D03*
D03*
X223750Y147250D02*
D03*
X282000Y161000D02*
D03*
D03*
X281500Y179250D02*
D03*
D03*
X83965Y213465D02*
D03*
D03*
X47250Y191750D02*
D03*
D03*
X263302Y130250D02*
D03*
D03*
X246698Y121553D02*
D03*
D03*
X277000Y111250D02*
D03*
D03*
X32448Y209159D02*
D03*
X266500Y310500D02*
D03*
X28500Y139250D02*
D03*
X37814Y168511D02*
D03*
X34750Y189500D02*
D03*
X13209Y212246D02*
D03*
X5250Y246500D02*
D03*
X47750Y247500D02*
D03*
X115500Y242000D02*
D03*
X125250Y237000D02*
D03*
X109500Y249750D02*
D03*
X75000Y259750D02*
D03*
X89250Y251250D02*
D03*
X167440Y174250D02*
D03*
X172542Y157750D02*
D03*
X305903Y204476D02*
D03*
X375000Y289750D02*
D03*
X157500Y308000D02*
D03*
X87000Y295500D02*
D03*
X246750Y262500D02*
D03*
X279000Y262000D02*
D03*
X318000Y267750D02*
D03*
X303500Y78750D02*
D03*
X136000Y171500D02*
D03*
X117459Y166481D02*
D03*
X120500Y220250D02*
D03*
X142615Y211735D02*
D03*
X186250Y200500D02*
D03*
X220500Y192250D02*
D03*
X207500Y128750D02*
D03*
X28491Y197669D02*
D03*
D03*
X29500Y190250D02*
D03*
D03*
X80000Y243750D02*
D03*
D03*
X65577Y245012D02*
D03*
D03*
X37000Y246000D02*
D03*
D03*
X70000Y76750D02*
D03*
Y72956D02*
D03*
Y69162D02*
D03*
X2000Y135000D02*
D03*
X5530D02*
D03*
X9324D02*
D03*
X13118D02*
D03*
X16912D02*
D03*
X20706D02*
D03*
X24500D02*
D03*
X28530D02*
D03*
X32324D02*
D03*
X36118D02*
D03*
X39912D02*
D03*
X43706D02*
D03*
X47500D02*
D03*
X51280D02*
D03*
X55074D02*
D03*
X58868D02*
D03*
X62662D02*
D03*
X66456D02*
D03*
X70250D02*
D03*
Y131470D02*
D03*
Y127676D02*
D03*
Y123882D02*
D03*
Y120088D02*
D03*
Y116294D02*
D03*
Y112500D02*
D03*
Y108220D02*
D03*
Y104426D02*
D03*
Y100632D02*
D03*
Y96838D02*
D03*
Y93044D02*
D03*
Y89250D02*
D03*
X185952Y116243D02*
D03*
X185370Y112493D02*
D03*
X185173Y101117D02*
D03*
X184094Y97479D02*
D03*
X181411Y94796D02*
D03*
X178729Y92114D02*
D03*
X176046Y89431D02*
D03*
X172340Y88617D02*
D03*
X168546D02*
D03*
X164752D02*
D03*
X160958D02*
D03*
X157164D02*
D03*
X153370D02*
D03*
X149576D02*
D03*
X145782D02*
D03*
X141988D02*
D03*
X138194D02*
D03*
X134400D02*
D03*
X136506Y77882D02*
D03*
X140300D02*
D03*
X144094D02*
D03*
X147888D02*
D03*
X151682D02*
D03*
X155476D02*
D03*
X159270D02*
D03*
X163064D02*
D03*
X166858D02*
D03*
X170652D02*
D03*
X174445D02*
D03*
X178238Y77988D02*
D03*
X181580Y79784D02*
D03*
X184263Y82466D02*
D03*
X186945Y85149D02*
D03*
X189628Y87832D02*
D03*
X192311Y90515D02*
D03*
X194897Y93291D02*
D03*
X195907Y96948D02*
D03*
Y100742D02*
D03*
Y104536D02*
D03*
Y108330D02*
D03*
X195892Y112124D02*
D03*
X195178Y115850D02*
D03*
X101742Y88617D02*
D03*
X97948D02*
D03*
X94182Y88158D02*
D03*
X90389Y88121D02*
D03*
X86627Y88617D02*
D03*
X79039D02*
D03*
X75278Y88120D02*
D03*
X74579Y78755D02*
D03*
X78271Y77882D02*
D03*
X82065D02*
D03*
X85859D02*
D03*
X89647Y78109D02*
D03*
X93384Y78761D02*
D03*
X97075Y77882D02*
D03*
X100869D02*
D03*
X71750Y245500D02*
D03*
D03*
X277013Y204205D02*
D03*
D03*
X254250Y297750D02*
D03*
X311750Y119250D02*
D03*
D03*
X278752Y297750D02*
D03*
X330500Y245250D02*
D03*
D03*
X213750Y190947D02*
D03*
X97750Y205250D02*
D03*
D03*
X80528Y253453D02*
D03*
D03*
X100750Y240750D02*
D03*
D03*
X321000Y212000D02*
D03*
D03*
X214310Y186655D02*
D03*
D03*
X106500Y234500D02*
D03*
D03*
X113750Y233500D02*
D03*
D03*
X118395Y224803D02*
D03*
D03*
X190706Y175282D02*
D03*
D03*
X194190Y175250D02*
D03*
D03*
X164750Y148036D02*
D03*
D03*
X167750Y104435D02*
D03*
D03*
X153250Y132039D02*
D03*
D03*
X277250Y87750D02*
D03*
D03*
Y125250D02*
D03*
D03*
X277231Y138231D02*
D03*
D03*
X314000Y209500D02*
D03*
D03*
X286561Y228811D02*
D03*
D03*
X291959Y253000D02*
D03*
D03*
X13000Y254250D02*
D03*
D03*
X23750Y216000D02*
D03*
D03*
X41750Y226500D02*
D03*
D03*
X41260Y163103D02*
D03*
D03*
X62022Y206500D02*
D03*
D03*
X65535Y209965D02*
D03*
D03*
X65535Y206465D02*
D03*
D03*
X69035Y209965D02*
D03*
X69035Y206465D02*
D03*
X62000Y210000D02*
D03*
D03*
X69035Y209965D02*
D03*
X69035Y206465D02*
D03*
X89000Y204250D02*
D03*
D03*
M02*
