G04*
G04 #@! TF.GenerationSoftware,Altium Limited,Altium Designer,25.2.1 (25)*
G04*
G04 Layer_Physical_Order=1*
G04 Layer_Color=255*
%FSLAX44Y44*%
%MOMM*%
G71*
G04*
G04 #@! TF.SameCoordinates,FED8839F-E969-4304-A6C3-1DC976675259*
G04*
G04*
G04 #@! TF.FilePolarity,Positive*
G04*
G01*
G75*
%ADD10C,0.1500*%
%ADD11C,0.2000*%
%ADD13C,0.1250*%
%ADD14C,0.1524*%
G04:AMPARAMS|DCode=18|XSize=0.2339mm|YSize=0.2339mm|CornerRadius=0.117mm|HoleSize=0mm|Usage=FLASHONLY|Rotation=180.000|XOffset=0mm|YOffset=0mm|HoleType=Round|Shape=RoundedRectangle|*
%AMROUNDEDRECTD18*
21,1,0.2339,0.0000,0,0,180.0*
21,1,0.0000,0.2339,0,0,180.0*
1,1,0.2339,0.0000,0.0000*
1,1,0.2339,0.0000,0.0000*
1,1,0.2339,0.0000,0.0000*
1,1,0.2339,0.0000,0.0000*
%
%ADD18ROUNDEDRECTD18*%
%ADD19R,1.2000X0.9500*%
%ADD20R,0.2700X0.3000*%
%ADD21R,0.8000X1.8500*%
%ADD22R,0.3000X0.2700*%
%ADD23R,0.8000X0.7500*%
%ADD24R,0.5800X0.5000*%
%ADD25R,0.6000X0.5000*%
%ADD26R,0.6500X0.8500*%
%ADD27R,0.9500X0.8500*%
%ADD28R,0.2000X0.3500*%
%ADD29R,0.7620X0.8128*%
%ADD30C,0.1700*%
%ADD31R,0.5000X0.6000*%
%ADD32R,0.7500X0.8000*%
%ADD33R,0.7500X1.4000*%
%ADD34C,0.8000*%
%ADD35R,0.7112X0.2540*%
%ADD36R,0.3048X1.7018*%
%ADD37R,0.4750X0.2500*%
%ADD38R,0.2500X0.4750*%
%ADD63C,0.1016*%
%ADD64C,1.0000*%
%ADD65C,0.2000*%
%ADD66C,0.1050*%
%ADD67C,0.1700*%
%ADD68C,0.5465*%
%ADD69C,0.2032*%
%ADD70C,0.2500*%
%ADD71C,0.1580*%
%ADD72C,0.4000*%
%ADD73R,1.0000X1.2500*%
%ADD74C,1.0200*%
%ADD75C,4.5000*%
%ADD76C,0.2520*%
%ADD77C,0.2524*%
%ADD78C,0.5000*%
G36*
X206791Y375483D02*
X211282Y374024D01*
X215490Y371880D01*
X219310Y369104D01*
X222649Y365765D01*
X225424Y361945D01*
X227568Y357737D01*
X229028Y353246D01*
X229766Y348582D01*
Y346221D01*
Y326221D01*
X229766D01*
X229814Y325241D01*
X230197Y323318D01*
X230947Y321507D01*
X232036Y319877D01*
X233422Y318491D01*
X235052Y317402D01*
X236863Y316652D01*
X238786Y316269D01*
X239766Y316221D01*
X389782Y316221D01*
Y316261D01*
X390767D01*
X392699Y315877D01*
X394519Y315123D01*
X396157Y314029D01*
X397550Y312636D01*
X398644Y310998D01*
X399398Y309178D01*
X399782Y307246D01*
Y306261D01*
Y125700D01*
X377140Y125700D01*
X377140Y125700D01*
X376164Y125604D01*
X374362Y124858D01*
X372982Y123478D01*
X372236Y121676D01*
X372140Y120700D01*
X372140Y104700D01*
X372236Y103725D01*
X372983Y101922D01*
X374362Y100543D01*
X376165Y99796D01*
X377140Y99700D01*
X399064D01*
X399782Y98982D01*
X399782Y76261D01*
X399782D01*
Y75276D01*
X399398Y73344D01*
X398644Y71525D01*
X397550Y69887D01*
X396157Y68494D01*
X394519Y67399D01*
X392699Y66646D01*
X390767Y66261D01*
X389782Y66261D01*
X239782D01*
Y66261D01*
X238802Y66213D01*
X236879Y65831D01*
X235068Y65080D01*
X233438Y63991D01*
X232052Y62605D01*
X230963Y60975D01*
X230213Y59164D01*
X229830Y57242D01*
X229782Y56261D01*
X229782Y36261D01*
Y33900D01*
X229044Y29236D01*
X227584Y24745D01*
X225441Y20538D01*
X222665Y16718D01*
X219326Y13379D01*
X215506Y10603D01*
X211298Y8459D01*
X206807Y7000D01*
X202143Y6261D01*
X197421D01*
X192757Y7000D01*
X188266Y8459D01*
X184059Y10603D01*
X180239Y13379D01*
X176900Y16718D01*
X174124Y20538D01*
X171980Y24745D01*
X170521Y29236D01*
X169782Y33900D01*
Y36261D01*
Y56261D01*
X169782D01*
X169734Y57242D01*
X169352Y59164D01*
X168601Y60975D01*
X167512Y62605D01*
X166126Y63991D01*
X164496Y65080D01*
X162685Y65831D01*
X160762Y66213D01*
X159782Y66261D01*
X133316D01*
X133250Y67250D01*
X133250Y67277D01*
Y71730D01*
X127250D01*
X121250D01*
Y67277D01*
X121184Y66261D01*
X114316D01*
X114250Y67250D01*
X114250Y67277D01*
Y71730D01*
X108250D01*
X102250D01*
Y67277D01*
X102184Y66261D01*
X68100Y66261D01*
Y79428D01*
X69318D01*
X70781Y79719D01*
X72021Y80548D01*
X72145Y80734D01*
X72854D01*
X72902Y80734D01*
X73870D01*
X73918Y80734D01*
X74153D01*
X74252Y80693D01*
X74350Y80547D01*
X74568Y80401D01*
X74714Y80183D01*
X75617Y79579D01*
X75875Y79528D01*
X76093Y79382D01*
X77159Y79170D01*
X77292Y79196D01*
X77417Y79145D01*
X88251D01*
X88376Y79196D01*
X88509Y79170D01*
X89575Y79382D01*
X89793Y79528D01*
X90051Y79579D01*
X90936Y80171D01*
X90955Y80183D01*
X91236Y80377D01*
X91753Y80734D01*
X92721Y80734D01*
X93516Y80200D01*
X93528Y80183D01*
X94431Y79579D01*
X94689Y79528D01*
X94907Y79382D01*
X95973Y79170D01*
X96106Y79196D01*
X96231Y79145D01*
X101397D01*
X102250Y78750D01*
Y74270D01*
X108250D01*
X114250D01*
Y78750D01*
X112250D01*
Y87750D01*
X114250D01*
Y92230D01*
X108250D01*
X102250D01*
Y87750D01*
X101397Y87355D01*
X96231D01*
X96106Y87304D01*
X95973Y87330D01*
X94907Y87118D01*
X94689Y86972D01*
X94431Y86921D01*
X93542Y86327D01*
X93527Y86317D01*
X93243Y86123D01*
X92721Y85766D01*
X91753Y85766D01*
X90961Y86307D01*
X90955Y86317D01*
X90051Y86921D01*
X89793Y86972D01*
X89575Y87118D01*
X88509Y87330D01*
X88376Y87304D01*
X88251Y87355D01*
X86228D01*
Y89112D01*
X79228D01*
Y87355D01*
X77417D01*
X77292Y87304D01*
X77159Y87330D01*
X76093Y87118D01*
X75875Y86972D01*
X75617Y86921D01*
X74714Y86317D01*
X74568Y86099D01*
X74350Y85953D01*
X74252Y85807D01*
X74153Y85766D01*
X73918D01*
X73870Y85766D01*
X72902D01*
X72854Y85766D01*
X72146D01*
X72021Y85952D01*
X70781Y86781D01*
X69318Y87072D01*
X68100D01*
Y132650D01*
X-218D01*
Y306261D01*
Y307246D01*
X167Y309178D01*
X921Y310998D01*
X2015Y312636D01*
X3408Y314029D01*
X5046Y315123D01*
X6866Y315877D01*
X8797Y316261D01*
X9782D01*
Y316221D01*
X159766D01*
Y316221D01*
X160746Y316269D01*
X162669Y316652D01*
X164480Y317402D01*
X166110Y318491D01*
X167496Y319877D01*
X168585Y321507D01*
X169336Y323318D01*
X169718Y325241D01*
X169766Y326221D01*
X169766Y346221D01*
Y348582D01*
X170505Y353246D01*
X171964Y357737D01*
X174108Y361945D01*
X176884Y365765D01*
X180222Y369104D01*
X184043Y371880D01*
X188250Y374024D01*
X192741Y375483D01*
X197405Y376221D01*
X202127D01*
X206791Y375483D01*
D02*
G37*
%LPC*%
G36*
X202195Y370761D02*
X201052D01*
Y347531D01*
X224282D01*
Y348674D01*
X223341Y353408D01*
X221494Y357867D01*
X218813Y361879D01*
X215400Y365292D01*
X211387Y367973D01*
X206929Y369820D01*
X202195Y370761D01*
D02*
G37*
G36*
X198512D02*
X197369D01*
X192636Y369820D01*
X188177Y367973D01*
X184164Y365292D01*
X180752Y361879D01*
X178071Y357867D01*
X176224Y353408D01*
X175282Y348674D01*
Y347531D01*
X198512D01*
Y370761D01*
D02*
G37*
G36*
X224282Y344991D02*
X201052D01*
Y321761D01*
X202195D01*
X206929Y322703D01*
X211387Y324550D01*
X215400Y327231D01*
X218813Y330644D01*
X221494Y334656D01*
X223341Y339115D01*
X224282Y343848D01*
Y344991D01*
D02*
G37*
G36*
X198512D02*
X175282D01*
Y343848D01*
X176224Y339115D01*
X178071Y334656D01*
X180752Y330644D01*
X184164Y327231D01*
X188177Y324550D01*
X192636Y322703D01*
X197369Y321761D01*
X198512D01*
Y344991D01*
D02*
G37*
G36*
X16480Y305250D02*
X12750D01*
Y302020D01*
X16480D01*
Y305250D01*
D02*
G37*
G36*
X266630Y302000D02*
X264550D01*
Y299770D01*
X266630D01*
Y302000D01*
D02*
G37*
G36*
X369197Y304266D02*
X366803D01*
X364592Y303350D01*
X362900Y301658D01*
X362076Y299668D01*
X359941D01*
X356929Y302679D01*
X355750Y303168D01*
X332500D01*
X331321Y302679D01*
X326821Y298179D01*
X326332Y297000D01*
Y293271D01*
X325734D01*
Y291500D01*
X322640D01*
Y288250D01*
X321370D01*
Y286980D01*
X316995D01*
Y285000D01*
X317979D01*
Y281532D01*
X317979Y280984D01*
X317979Y279968D01*
X317979Y275320D01*
X316963Y274963D01*
X316203Y275278D01*
X315297D01*
X314460Y274931D01*
X313819Y274290D01*
X313472Y273453D01*
Y272547D01*
X313819Y271710D01*
X314460Y271069D01*
X315297Y270722D01*
X316203D01*
X316963Y271037D01*
X317979Y270984D01*
X317979Y270984D01*
X317979Y270984D01*
X324718D01*
X324761Y270984D01*
X325734Y270880D01*
Y268229D01*
X326425D01*
Y265016D01*
X325784D01*
Y264150D01*
X324240D01*
X324181Y264290D01*
X323540Y264931D01*
X322703Y265278D01*
X321797D01*
X320960Y264931D01*
X320319Y264290D01*
X319972Y263453D01*
Y262547D01*
X320319Y261710D01*
X320960Y261069D01*
X321797Y260722D01*
X322703D01*
X323013Y260850D01*
X325784D01*
Y259984D01*
X326500D01*
Y258766D01*
X325784D01*
Y253734D01*
X326500D01*
Y252516D01*
X325784D01*
Y247484D01*
X330468D01*
X330516Y247484D01*
X331484D01*
X331532Y247484D01*
X336216D01*
Y248457D01*
X340321D01*
X340460Y248319D01*
X341297Y247972D01*
X342203D01*
X343040Y248319D01*
X343681Y248960D01*
X344028Y249797D01*
Y250703D01*
X343681Y251540D01*
X343040Y252181D01*
X342203Y252528D01*
X341297D01*
X340460Y252181D01*
X340071Y251793D01*
X336216D01*
Y252516D01*
X331532D01*
X331484Y252516D01*
X330750D01*
X330362Y253125D01*
X330750Y253734D01*
X331484D01*
X331532Y253734D01*
X336216D01*
Y254600D01*
X340178D01*
X340460Y254319D01*
X341297Y253972D01*
X342203D01*
X343040Y254319D01*
X343681Y254960D01*
X344028Y255797D01*
Y256703D01*
X343681Y257540D01*
X343040Y258181D01*
X342203Y258528D01*
X341297D01*
X340460Y258181D01*
X340178Y257900D01*
X336934D01*
X336930Y257904D01*
X336908Y258078D01*
X337200Y259000D01*
X337200D01*
Y261230D01*
X333850D01*
Y262500D01*
X332580D01*
Y266000D01*
X331189D01*
X330449Y266993D01*
X330533Y267245D01*
X331730D01*
Y271620D01*
X334270D01*
Y267245D01*
X336730D01*
Y271620D01*
X339270D01*
Y267245D01*
X341250D01*
Y270984D01*
X348011D01*
Y271525D01*
X350419D01*
X351000Y270750D01*
Y268670D01*
X354500D01*
Y267400D01*
X355770D01*
Y264050D01*
X358000D01*
Y267842D01*
X358960Y268319D01*
X359797Y267972D01*
X360703D01*
X361540Y268319D01*
X362181Y268960D01*
X362528Y269797D01*
Y270703D01*
X362181Y271540D01*
X361540Y272181D01*
X360703Y272528D01*
X360055D01*
X358794Y273789D01*
X357627Y274272D01*
X357016D01*
Y275466D01*
X355124D01*
X354703Y276482D01*
X354931Y276710D01*
X355278Y277547D01*
Y278453D01*
X354931Y279290D01*
X354290Y279931D01*
X353453Y280278D01*
X352547D01*
X351710Y279931D01*
X351571Y279793D01*
X348729D01*
X348011Y280511D01*
X348011Y281532D01*
Y284968D01*
X348011Y285516D01*
X348011Y286532D01*
Y290516D01*
X341282D01*
X341229Y290516D01*
X340266Y290644D01*
Y293271D01*
X336293Y293271D01*
X335873Y293832D01*
X336215Y294582D01*
X351809D01*
X362705Y283687D01*
X361984Y281947D01*
Y279553D01*
X362900Y277342D01*
X364592Y275650D01*
X366803Y274734D01*
X369197D01*
X371408Y275650D01*
X373100Y277342D01*
X374016Y279553D01*
Y281947D01*
X373100Y284158D01*
X371408Y285850D01*
X369197Y286766D01*
X366803D01*
X365064Y286045D01*
X353680Y297429D01*
X352500Y297918D01*
X334977D01*
X333797Y297429D01*
X331821Y295453D01*
X331332Y294273D01*
Y293869D01*
X330734Y293271D01*
X330386D01*
X329668Y293990D01*
Y296309D01*
X333191Y299832D01*
X355059D01*
X358071Y296821D01*
X359250Y296332D01*
X362283D01*
X362900Y294842D01*
X364592Y293150D01*
X366803Y292234D01*
X369197D01*
X371408Y293150D01*
X373100Y294842D01*
X374016Y297053D01*
Y299447D01*
X373100Y301658D01*
X371408Y303350D01*
X369197Y304266D01*
D02*
G37*
G36*
X22750Y305250D02*
X19020D01*
Y300750D01*
Y296250D01*
X20900D01*
Y294268D01*
X24250D01*
Y292998D01*
X25520D01*
Y289498D01*
X27600D01*
Y290482D01*
X32316D01*
Y295514D01*
X31806D01*
Y298694D01*
X33721D01*
X33819Y298460D01*
X34460Y297819D01*
X35297Y297472D01*
X36203D01*
X37040Y297819D01*
X37681Y298460D01*
X38028Y299297D01*
Y300203D01*
X37681Y301040D01*
X37040Y301681D01*
X36503Y301904D01*
X36203Y302204D01*
X35537Y302649D01*
X34750Y302806D01*
X34750Y302806D01*
X31766D01*
Y304266D01*
X23734D01*
Y304266D01*
X22750Y304343D01*
Y305250D01*
D02*
G37*
G36*
X16480Y299480D02*
X12750D01*
Y296250D01*
X16480D01*
Y299480D01*
D02*
G37*
G36*
X266630Y297230D02*
X264550D01*
Y295000D01*
X266630D01*
Y297230D01*
D02*
G37*
G36*
X254949Y301266D02*
X253551D01*
X252258Y300731D01*
X251269Y299742D01*
X250734Y298449D01*
Y297051D01*
X251269Y295758D01*
X252258Y294769D01*
X253551Y294234D01*
X254949D01*
X256242Y294769D01*
X257231Y295758D01*
X257766Y297051D01*
Y298449D01*
X257231Y299742D01*
X256242Y300731D01*
X254949Y301266D01*
D02*
G37*
G36*
X143206Y305766D02*
X135174D01*
Y298734D01*
X143206D01*
Y300600D01*
X157725D01*
X158590Y299736D01*
X158574Y299697D01*
Y297303D01*
X159490Y295092D01*
X161182Y293400D01*
X163393Y292484D01*
X165786D01*
X167998Y293400D01*
X169690Y295092D01*
X170606Y297303D01*
Y299697D01*
X169690Y301908D01*
X167998Y303600D01*
X165786Y304516D01*
X163393D01*
X161182Y303600D01*
X160287Y302705D01*
X159575Y303416D01*
X158409Y303900D01*
X143206D01*
Y305766D01*
D02*
G37*
G36*
X75956Y306516D02*
X67924D01*
Y299484D01*
X75956D01*
Y301350D01*
X88935D01*
X90515Y299771D01*
X90484Y299697D01*
Y297303D01*
X91400Y295092D01*
X93092Y293400D01*
X95303Y292484D01*
X97697D01*
X99908Y293400D01*
X101600Y295092D01*
X102516Y297303D01*
Y299697D01*
X101600Y301908D01*
X99908Y303600D01*
X97697Y304516D01*
X95303D01*
X93092Y303600D01*
X92222Y302730D01*
X90785Y304166D01*
X89618Y304650D01*
X75956D01*
Y306516D01*
D02*
G37*
G36*
X123060Y295468D02*
Y290770D01*
X127758D01*
X126876Y292899D01*
X125189Y294587D01*
X123060Y295468D01*
D02*
G37*
G36*
X120520D02*
X118391Y294587D01*
X116703Y292899D01*
X115822Y290770D01*
X120520D01*
Y295468D01*
D02*
G37*
G36*
X55860Y295468D02*
Y290770D01*
X60558D01*
X59676Y292899D01*
X57989Y294587D01*
X55860Y295468D01*
D02*
G37*
G36*
X53320D02*
X51191Y294587D01*
X49503Y292899D01*
X48622Y290770D01*
X53320D01*
Y295468D01*
D02*
G37*
G36*
X320100Y291500D02*
X316995D01*
Y289520D01*
X320100D01*
Y291500D01*
D02*
G37*
G36*
X22980Y291728D02*
X20900D01*
Y289498D01*
X22980D01*
Y291728D01*
D02*
G37*
G36*
X60558Y288230D02*
X54590D01*
X48622D01*
X49503Y286101D01*
X49862Y285742D01*
X49473Y284804D01*
X36339D01*
X35802Y285026D01*
X34896D01*
X34359Y284804D01*
X31766D01*
Y286264D01*
X23734D01*
Y286264D01*
X22750Y286342D01*
Y287248D01*
X19020D01*
Y282748D01*
Y278248D01*
X20900D01*
Y276268D01*
X24250D01*
Y274998D01*
X25520D01*
Y271498D01*
X27600D01*
Y272482D01*
X32316D01*
Y277514D01*
X32005D01*
Y280693D01*
X34359D01*
X34896Y280470D01*
X35802D01*
X36339Y280693D01*
X68090D01*
X74499Y274284D01*
X74174Y273498D01*
Y271502D01*
X74499Y270716D01*
X67088Y263305D01*
X65466D01*
Y263766D01*
X60750D01*
Y264750D01*
X58670D01*
Y261250D01*
Y257750D01*
X60750D01*
Y258734D01*
X65466D01*
Y259195D01*
X67940D01*
X67940Y259195D01*
X68727Y259351D01*
X69393Y259797D01*
X77406Y267810D01*
X78192Y267484D01*
X80188D01*
X82031Y268248D01*
X83442Y269659D01*
X84206Y271502D01*
Y273167D01*
X88714Y277675D01*
X91262D01*
X91400Y277342D01*
X93092Y275650D01*
X95303Y274734D01*
X97697D01*
X99908Y275650D01*
X101600Y277342D01*
X102516Y279553D01*
Y281947D01*
X101600Y284158D01*
X99908Y285850D01*
X97697Y286766D01*
X95303D01*
X93092Y285850D01*
X91400Y284158D01*
X91262Y283825D01*
X87440D01*
X86263Y283591D01*
X85266Y282924D01*
X85265Y282924D01*
X79857Y277516D01*
X78192D01*
X77406Y277190D01*
X70395Y284202D01*
X69728Y284647D01*
X68941Y284804D01*
X68941Y284804D01*
X59707D01*
X59318Y285742D01*
X59676Y286101D01*
X60558Y288230D01*
D02*
G37*
G36*
X299637Y304266D02*
X297243D01*
X295032Y303350D01*
X293340Y301658D01*
X292424Y299447D01*
Y297053D01*
X293315Y294902D01*
X283145Y284732D01*
X282073Y284732D01*
X281551Y285254D01*
X281551Y286270D01*
Y290254D01*
X280401D01*
Y294929D01*
X281231Y295758D01*
X281766Y297051D01*
Y298449D01*
X281231Y299742D01*
X280242Y300731D01*
X278949Y301266D01*
X277551D01*
X276977Y301028D01*
X275966Y301016D01*
X275966Y301016D01*
X275966Y301016D01*
X271250D01*
Y302000D01*
X269170D01*
Y298500D01*
Y295000D01*
X271250D01*
Y295984D01*
X275176D01*
X275269Y295758D01*
X276258Y294769D01*
X277102Y294420D01*
Y290254D01*
X272407D01*
X272407Y285354D01*
X271689Y284636D01*
X271218D01*
X270038Y284147D01*
X266565Y280674D01*
X265549Y281020D01*
Y289993D01*
X260469D01*
Y281826D01*
X259453Y281406D01*
X256712Y284147D01*
X255532Y284636D01*
X254229D01*
X253611Y285254D01*
X253611Y286270D01*
Y290254D01*
X244467D01*
Y289652D01*
X242320D01*
X242040Y289931D01*
X241203Y290278D01*
X240831D01*
X235628Y295481D01*
X234449Y295970D01*
X234227Y296959D01*
X234266Y297053D01*
Y299447D01*
X233350Y301658D01*
X231658Y303350D01*
X229447Y304266D01*
X227053D01*
X224842Y303350D01*
X223150Y301658D01*
X222234Y299447D01*
Y297053D01*
X223150Y294842D01*
X224842Y293150D01*
X227053Y292234D01*
X229447D01*
X231658Y293150D01*
X232025Y293517D01*
X232421Y293122D01*
X233600Y292633D01*
X233758D01*
X238472Y287919D01*
Y287547D01*
X238819Y286710D01*
X239460Y286069D01*
X240297Y285722D01*
X241203D01*
X242040Y286069D01*
X242287Y286316D01*
X243833D01*
X244467Y285682D01*
Y285354D01*
X243749Y284636D01*
X242718D01*
X241538Y284147D01*
X239559Y282168D01*
X234071D01*
X233350Y283908D01*
X231658Y285600D01*
X229447Y286516D01*
X227053D01*
X224842Y285600D01*
X223150Y283908D01*
X222234Y281697D01*
Y279303D01*
X223150Y277092D01*
X224842Y275400D01*
X227053Y274484D01*
X229447D01*
X231658Y275400D01*
X233350Y277092D01*
X234071Y278832D01*
X240250D01*
X240739Y279035D01*
X241314Y278173D01*
X239571Y276429D01*
X239082Y275250D01*
Y264668D01*
X234071D01*
X233350Y266408D01*
X231658Y268100D01*
X229447Y269016D01*
X227053D01*
X224842Y268100D01*
X223150Y266408D01*
X222234Y264197D01*
Y261803D01*
X223150Y259592D01*
X224842Y257900D01*
X227053Y256984D01*
X229447D01*
X231658Y257900D01*
X233350Y259592D01*
X234071Y261332D01*
X240000D01*
X241179Y261821D01*
X241929Y262570D01*
X242418Y263750D01*
Y273638D01*
X242467Y273671D01*
X243483Y273128D01*
Y269698D01*
X247769D01*
Y272968D01*
X250309D01*
Y269698D01*
X254082D01*
Y265750D01*
X254571Y264571D01*
X255176Y263965D01*
X255093Y263304D01*
X254059Y262912D01*
X254040Y262931D01*
X253203Y263278D01*
X252297D01*
X251460Y262931D01*
X250819Y262290D01*
X250472Y261453D01*
Y260547D01*
X250819Y259710D01*
X251075Y259453D01*
Y250934D01*
X242696Y242555D01*
X242208Y241376D01*
Y185816D01*
X232244Y175852D01*
X218285D01*
X217106Y175364D01*
X217076Y175293D01*
X213848D01*
X213298Y176248D01*
X213304Y176334D01*
X214106Y177136D01*
X214175Y177302D01*
X214627Y177392D01*
X215752D01*
X216120Y177760D01*
X216222Y177802D01*
X216692Y178272D01*
X217314D01*
X217314Y178272D01*
X218277Y178671D01*
X221305Y181699D01*
X223474D01*
Y180984D01*
X228190D01*
Y180000D01*
X230270D01*
Y183500D01*
Y187000D01*
X228190D01*
X227489Y187726D01*
Y187907D01*
X228683Y189100D01*
X230428D01*
X230710Y188819D01*
X231547Y188472D01*
X232453D01*
X233290Y188819D01*
X233931Y189460D01*
X234278Y190297D01*
Y191203D01*
X233931Y192040D01*
X233290Y192681D01*
X232453Y193028D01*
X231547D01*
X230710Y192681D01*
X230428Y192400D01*
X228000D01*
X226834Y191916D01*
X224674Y189756D01*
X224190Y188590D01*
Y186016D01*
X223474D01*
Y185301D01*
X221180D01*
X220726Y185210D01*
X220326Y185266D01*
X219544Y185753D01*
X219440Y186003D01*
X218943Y186500D01*
X218292Y186770D01*
X217588D01*
X217096Y186566D01*
X216269Y186896D01*
X216080Y187007D01*
X215811Y187658D01*
X215402Y188066D01*
X215309Y188310D01*
X215289Y189265D01*
X215681Y189657D01*
X216028Y190494D01*
Y191400D01*
X215681Y192237D01*
X215040Y192878D01*
X214203Y193225D01*
X213297D01*
X213252Y193207D01*
X212677Y194068D01*
X215441Y196832D01*
X223474D01*
Y195984D01*
X228190D01*
Y195000D01*
X230270D01*
Y198500D01*
Y202000D01*
X229365D01*
X229163Y203016D01*
X229290Y203069D01*
X229931Y203710D01*
X230278Y204547D01*
Y205453D01*
X229931Y206290D01*
X229290Y206931D01*
X228453Y207278D01*
X227547D01*
X226710Y206931D01*
X226069Y206290D01*
X225722Y205453D01*
Y205055D01*
X224674Y204006D01*
X224190Y202840D01*
Y201016D01*
X223474D01*
Y200168D01*
X214750D01*
X213571Y199680D01*
X209816Y195925D01*
X208800Y196346D01*
Y196650D01*
X208453Y197487D01*
X207813Y198128D01*
X207653Y198932D01*
X209929Y201209D01*
X210218Y201906D01*
X211234Y201703D01*
Y201484D01*
X220766D01*
Y217516D01*
X211234D01*
Y211168D01*
X209802D01*
X208622Y210679D01*
X207571Y209628D01*
X207282Y208931D01*
X206266Y209133D01*
Y217516D01*
X196734D01*
Y201484D01*
X199832D01*
Y198751D01*
X196511Y195429D01*
X196315Y194958D01*
X195215D01*
X195181Y195040D01*
X194540Y195681D01*
X193703Y196028D01*
X192797D01*
X191960Y195681D01*
X191319Y195040D01*
X190972Y194203D01*
Y193297D01*
X191319Y192460D01*
X191864Y191914D01*
Y189658D01*
X192353Y188478D01*
X193011Y187820D01*
X193072Y187795D01*
Y185226D01*
X192056Y184769D01*
X191960Y184809D01*
Y182250D01*
X190690D01*
Y180980D01*
X188131D01*
X188138Y180964D01*
X187474Y180108D01*
X186627D01*
X186175Y180198D01*
X186106Y180364D01*
X185304Y181166D01*
X185138Y181235D01*
X185048Y181688D01*
Y182137D01*
X185095Y182250D01*
X185072Y182305D01*
Y186875D01*
X185368Y187318D01*
X185508Y188023D01*
X185368Y188728D01*
X184969Y189325D01*
X179274Y195020D01*
Y196818D01*
X179134Y197522D01*
X178734Y198120D01*
X178528Y198326D01*
Y198453D01*
X178181Y199290D01*
X177540Y199931D01*
X176703Y200278D01*
X175797D01*
X174960Y199931D01*
X174319Y199290D01*
X173972Y198453D01*
Y197547D01*
X174319Y196710D01*
X174960Y196069D01*
X175591Y195807D01*
Y194258D01*
X175731Y193553D01*
X176130Y192955D01*
X182262Y186824D01*
Y183535D01*
X181246Y183114D01*
X180752Y183608D01*
X179627D01*
X178832Y182812D01*
Y181688D01*
X179463Y181056D01*
X179560Y180500D01*
X179463Y179944D01*
X178832Y179312D01*
Y178188D01*
X179627Y177392D01*
X180752D01*
X181205Y177302D01*
X181274Y177136D01*
X181681Y176728D01*
X181978Y176260D01*
X181553Y175377D01*
X177964D01*
X177939Y175438D01*
X172358Y181019D01*
Y193500D01*
X171869Y194679D01*
X165619Y200929D01*
X164440Y201418D01*
X162456D01*
Y203266D01*
X159608D01*
Y204000D01*
X159119Y205179D01*
X158218Y206081D01*
Y206453D01*
X157871Y207290D01*
X157230Y207931D01*
X156393Y208278D01*
X155487D01*
X154649Y207931D01*
X154009Y207290D01*
X153662Y206453D01*
Y205547D01*
X153848Y205097D01*
X153141Y204250D01*
X149710D01*
Y199750D01*
X148440D01*
Y198480D01*
X143440D01*
Y195250D01*
X144358D01*
X145174Y194766D01*
X145174Y194234D01*
Y184734D01*
X145447D01*
Y183500D01*
X143960D01*
Y178500D01*
X141420D01*
Y183500D01*
X138190D01*
Y183162D01*
X137174Y182798D01*
X136790Y183181D01*
X135953Y183528D01*
X135047D01*
X134210Y183181D01*
X134165Y183137D01*
X132792D01*
X132691Y183382D01*
Y184241D01*
X131620D01*
X131317Y184366D01*
X131167D01*
X130864Y184241D01*
X128007D01*
X127959Y184241D01*
X126991D01*
X126943Y184241D01*
X122259D01*
X121805Y185068D01*
X121571Y185631D01*
X120931Y186272D01*
X120093Y186619D01*
X119187D01*
X118350Y186272D01*
X117709Y185631D01*
X117362Y184794D01*
Y183888D01*
X117709Y183050D01*
X118350Y182410D01*
X119187Y182063D01*
X119554D01*
X121058Y180558D01*
X122225Y180075D01*
X122259D01*
Y179209D01*
X126943D01*
X127278Y179170D01*
X127958Y178490D01*
X127958Y178193D01*
X127544Y177194D01*
Y175491D01*
X126278D01*
X124067Y174575D01*
X122375Y172882D01*
X121459Y170671D01*
Y168278D01*
X122375Y166067D01*
X124067Y164375D01*
X126278Y163459D01*
X128671D01*
X130883Y164375D01*
X132575Y166067D01*
X133491Y168278D01*
Y170671D01*
X132575Y172882D01*
X130883Y174575D01*
X130843Y174591D01*
Y176510D01*
X131666Y177334D01*
X132150Y178500D01*
Y179209D01*
X132691D01*
Y179799D01*
X133707Y179822D01*
X134210Y179319D01*
X135047Y178972D01*
X135953D01*
X136790Y179319D01*
X137174Y179702D01*
X138190Y179339D01*
Y173500D01*
X139097D01*
X139174Y172516D01*
X139174D01*
Y164484D01*
X140139D01*
Y161921D01*
X140009Y161790D01*
X139662Y160953D01*
Y160047D01*
X140009Y159210D01*
X140650Y158569D01*
X141487Y158222D01*
X142393D01*
X142908Y158435D01*
X143754Y158019D01*
X143924Y157840D01*
Y152234D01*
X147022D01*
Y150699D01*
X143312D01*
Y143667D01*
X149496D01*
X149783Y143548D01*
X151369Y141962D01*
X152548Y141474D01*
X160890D01*
Y141170D01*
X164240D01*
Y138630D01*
X160890D01*
Y137020D01*
X160038Y136004D01*
X146423D01*
X146423Y101842D01*
X177672Y101842D01*
X177672Y125050D01*
X180356D01*
Y120266D01*
X186585D01*
Y118699D01*
X186637Y118574D01*
X186611Y118442D01*
X186823Y117376D01*
X186968Y117157D01*
X187020Y116900D01*
X187624Y115996D01*
X187842Y115850D01*
X187973Y115654D01*
X187989Y115626D01*
X188050Y115358D01*
Y114776D01*
X187964Y114426D01*
X187928Y114403D01*
X187892Y114348D01*
X187837Y114311D01*
X187811Y114273D01*
X187728Y114239D01*
X187637Y114147D01*
X187585Y114022D01*
X187473Y113947D01*
X186869Y113043D01*
X186818Y112786D01*
X186672Y112568D01*
X186460Y111502D01*
X186486Y111369D01*
X186434Y111244D01*
Y109962D01*
X184837D01*
Y106462D01*
Y102962D01*
X186434D01*
Y98035D01*
X175755Y87355D01*
X134103D01*
X133250Y87750D01*
Y92230D01*
X127250D01*
X121250D01*
Y87750D01*
X123250D01*
Y78750D01*
X121250D01*
Y74270D01*
X127250D01*
X133250D01*
Y78750D01*
X134103Y79145D01*
X177456D01*
X177580Y79196D01*
X177713Y79170D01*
X178779Y79382D01*
X178997Y79528D01*
X179255Y79579D01*
X180159Y80183D01*
X180234Y80295D01*
X180359Y80347D01*
X193443Y93431D01*
X193495Y93556D01*
X193607Y93631D01*
X194211Y94535D01*
X194262Y94792D01*
X194408Y95011D01*
X194620Y96077D01*
X194594Y96209D01*
X194645Y96334D01*
Y106500D01*
Y110746D01*
X194711Y111078D01*
X194660Y111335D01*
X194711Y111593D01*
X194499Y112659D01*
X194353Y112877D01*
X194302Y113135D01*
X193698Y114038D01*
X193480Y114184D01*
X193349Y114380D01*
X193334Y114406D01*
X193358Y115608D01*
X193394Y115632D01*
X193540Y115850D01*
X193758Y115996D01*
X194362Y116900D01*
X194413Y117157D01*
X194559Y117376D01*
X194771Y118442D01*
X194744Y118574D01*
X194796Y118699D01*
Y120300D01*
X195170D01*
Y123650D01*
X197710D01*
Y120300D01*
X199940D01*
Y123331D01*
X200956Y124010D01*
X201047Y123972D01*
X201953D01*
X202790Y124319D01*
X203431Y124960D01*
X203778Y125797D01*
Y126703D01*
X203431Y127540D01*
X202790Y128181D01*
X202725Y128208D01*
X202628Y128456D01*
X202953Y129472D01*
X203790Y129819D01*
X204431Y130460D01*
X204778Y131297D01*
Y132203D01*
X204568Y132711D01*
X204651Y133054D01*
X205773Y133368D01*
X211582Y127559D01*
Y126554D01*
X211319Y126290D01*
X210972Y125453D01*
Y124547D01*
X211319Y123710D01*
X211960Y123069D01*
X212797Y122722D01*
X213703D01*
X214540Y123069D01*
X215181Y123710D01*
X215528Y124547D01*
Y125176D01*
X216352Y125647D01*
X216467Y125674D01*
X241571Y100571D01*
X242750Y100082D01*
X251309D01*
X252582Y98809D01*
Y97500D01*
X251895D01*
Y93750D01*
X250625D01*
Y92480D01*
X247625D01*
Y90016D01*
X247625Y90000D01*
Y89000D01*
X247625Y88984D01*
Y86520D01*
X250625D01*
Y85250D01*
X251895D01*
Y81500D01*
X252855D01*
Y85250D01*
X255395D01*
Y81500D01*
X257125D01*
Y82484D01*
X259641D01*
Y83582D01*
X263750D01*
X264768Y84004D01*
X265498Y83712D01*
X265784Y83532D01*
Y83234D01*
X270468D01*
X270516Y83234D01*
X271484D01*
X271532Y83234D01*
X276216D01*
Y84082D01*
X281815D01*
Y80670D01*
X291467D01*
Y90830D01*
X281815D01*
Y87418D01*
X276216D01*
Y88266D01*
X271532D01*
X271484Y88266D01*
X270516D01*
X270468Y88266D01*
X265784D01*
Y87512D01*
X264344D01*
X263165Y87023D01*
X263059Y86918D01*
X259641D01*
Y88016D01*
X257240D01*
X257129Y88964D01*
X257128Y88999D01*
X257211Y90000D01*
X260625D01*
Y92480D01*
X257625D01*
Y95020D01*
X260625D01*
Y96329D01*
X261641Y96750D01*
X264285Y94106D01*
X265464Y93618D01*
X265784D01*
Y92770D01*
X270500D01*
Y91786D01*
X272580D01*
Y95286D01*
Y98786D01*
X270500D01*
Y97802D01*
X265784D01*
X265784Y97802D01*
Y97802D01*
X264920Y98189D01*
X260429Y102679D01*
X259250Y103168D01*
X256250D01*
X255071Y102679D01*
X254250Y101859D01*
X253179Y102929D01*
X252000Y103418D01*
X243441D01*
X226341Y120518D01*
X226729Y121457D01*
X231684D01*
X236571Y116571D01*
X237750Y116082D01*
X252922D01*
X254101Y116571D01*
X254316Y116785D01*
X255332Y116365D01*
Y112250D01*
X255821Y111071D01*
X263321Y103571D01*
X264500Y103082D01*
X265784D01*
Y102305D01*
X270500D01*
Y101321D01*
X272580D01*
Y104821D01*
Y108321D01*
X270500D01*
Y107337D01*
X265784D01*
Y107262D01*
X264768Y106841D01*
X258668Y112941D01*
Y116536D01*
X259684Y116957D01*
X263571Y113071D01*
X264750Y112582D01*
X265784D01*
Y111841D01*
X270468D01*
X270516Y111841D01*
X271484D01*
X271532Y111841D01*
X276216D01*
X276216Y111841D01*
Y111841D01*
X277214Y111703D01*
X280834Y108084D01*
X281004Y108013D01*
X281815Y107517D01*
Y97358D01*
X291467D01*
Y107517D01*
X288291D01*
Y108609D01*
X287807Y109775D01*
X287166Y110416D01*
X286000Y110900D01*
X282683D01*
X278059Y115524D01*
X276893Y116007D01*
X276216D01*
Y116873D01*
X271532D01*
X271484Y116873D01*
X270516D01*
X270468Y116873D01*
X265784D01*
Y116873D01*
X264768Y116591D01*
X260516Y120843D01*
Y125832D01*
X261559D01*
X261832Y125559D01*
Y125250D01*
X262321Y124071D01*
X263678Y122713D01*
X264857Y122225D01*
X265784D01*
Y121377D01*
X270500D01*
Y120393D01*
X272580D01*
Y123893D01*
Y127393D01*
X270500D01*
Y126409D01*
X265784D01*
X264935Y126812D01*
X264679Y127429D01*
X263429Y128679D01*
X262250Y129168D01*
X261500D01*
Y131814D01*
X262439Y132203D01*
X262571Y132071D01*
X263750Y131582D01*
X265784D01*
Y130912D01*
X270516D01*
Y130912D01*
X271484D01*
Y130912D01*
X276216D01*
X276216Y130912D01*
Y130912D01*
X276903Y130238D01*
X280821Y126321D01*
X282000Y125832D01*
X284973D01*
Y124205D01*
X281815D01*
Y114045D01*
X291467D01*
Y124205D01*
X288309D01*
Y126885D01*
X287820Y128064D01*
X287205Y128679D01*
X286026Y129168D01*
X282921D01*
X282455Y129761D01*
X282887Y130732D01*
X291467D01*
Y140066D01*
X292483Y140589D01*
X292762Y140390D01*
Y136841D01*
X293251Y135662D01*
X294280Y134633D01*
X295459Y134144D01*
X295785D01*
Y130732D01*
X305437D01*
Y140892D01*
X296098D01*
Y141570D01*
X295609Y142749D01*
X294504Y143855D01*
X294443Y144036D01*
X294431Y144923D01*
X294489Y145130D01*
X295429Y146071D01*
X295918Y147250D01*
Y147420D01*
X305437D01*
Y157580D01*
X295811D01*
X295111Y158317D01*
X322453Y185659D01*
X322453Y185660D01*
X322899Y186326D01*
X323055Y187113D01*
X323055Y187113D01*
Y211010D01*
X323278Y211547D01*
Y212453D01*
X322931Y213290D01*
X322290Y213931D01*
X321453Y214278D01*
X320547D01*
X319710Y213931D01*
X319069Y213290D01*
X318722Y212453D01*
Y211547D01*
X318944Y211010D01*
Y187964D01*
X305428Y174448D01*
X304456Y174913D01*
Y176947D01*
X303540Y179158D01*
X301848Y180850D01*
X301055Y181178D01*
X301257Y182194D01*
X304000D01*
X304000Y182194D01*
X304787Y182351D01*
X305453Y182796D01*
X315453Y192796D01*
X315453Y192796D01*
X315899Y193463D01*
X316056Y194250D01*
Y208510D01*
X316278Y209047D01*
Y209953D01*
X315931Y210790D01*
X315290Y211431D01*
X314453Y211778D01*
X313547D01*
X312710Y211431D01*
X312069Y210790D01*
X311722Y209953D01*
Y209047D01*
X311945Y208510D01*
Y195101D01*
X303148Y186306D01*
X300050D01*
X299848Y187321D01*
X301848Y188150D01*
X303540Y189842D01*
X304456Y192053D01*
Y194447D01*
X303540Y196658D01*
X301848Y198350D01*
X299636Y199266D01*
X297243D01*
X295032Y198350D01*
X293340Y196658D01*
X292424Y194447D01*
Y192053D01*
X293340Y189842D01*
X295032Y188150D01*
X297032Y187321D01*
X296830Y186306D01*
X289750D01*
X288963Y186149D01*
X288297Y185704D01*
X259797Y157204D01*
X259351Y156537D01*
X259195Y155750D01*
X259195Y155750D01*
Y142750D01*
X259195Y142750D01*
X259351Y141963D01*
X259797Y141297D01*
X264533Y136560D01*
X264221Y135435D01*
X263984Y135375D01*
X262429Y136929D01*
X261250Y137418D01*
X252250D01*
X251071Y136929D01*
X250396Y136255D01*
X249907Y135075D01*
Y134516D01*
X249484D01*
Y129168D01*
X225191D01*
X217512Y136846D01*
X217302Y136933D01*
X217505Y137949D01*
X223474D01*
Y137234D01*
X224190D01*
Y135660D01*
X224674Y134494D01*
X225222Y133945D01*
Y133547D01*
X225569Y132710D01*
X226210Y132069D01*
X227047Y131722D01*
X227953D01*
X228790Y132069D01*
X229431Y132710D01*
X229778Y133547D01*
Y134453D01*
X229431Y135290D01*
X229908Y136250D01*
X230270D01*
Y139750D01*
Y143250D01*
X228190D01*
Y142266D01*
X223474D01*
Y141551D01*
X216174D01*
X215927Y142567D01*
X216548Y143188D01*
Y144312D01*
X215895Y144965D01*
X216100Y145980D01*
X216602D01*
X217253Y146250D01*
X217750Y146747D01*
X218020Y147398D01*
Y148102D01*
X217750Y148753D01*
X217738Y148765D01*
X218159Y149781D01*
X218231D01*
X219009Y150103D01*
X219146Y150240D01*
X219337Y150161D01*
X220042D01*
X220692Y150430D01*
X221190Y150928D01*
X221460Y151579D01*
Y152283D01*
X221190Y152934D01*
X220692Y153432D01*
X220042Y153701D01*
X219337D01*
X218687Y153432D01*
X218189Y152934D01*
X217920Y152283D01*
Y152124D01*
X217776Y151981D01*
X215880D01*
X215752Y152108D01*
X214627D01*
X213996Y151476D01*
X213440Y151380D01*
X212884Y151476D01*
X212416Y151944D01*
X212320Y152500D01*
X212416Y153056D01*
X213048Y153687D01*
Y154812D01*
X212416Y155444D01*
X212320Y156000D01*
X212416Y156556D01*
X212884Y157023D01*
X213440Y157120D01*
X213996Y157023D01*
X214223Y156796D01*
X214227Y156787D01*
X214236Y156784D01*
X214627Y156392D01*
X215181D01*
X215190Y156388D01*
X219755D01*
X222167Y153977D01*
X222751Y153587D01*
X223424Y153453D01*
Y151734D01*
X226350D01*
Y149572D01*
X226069Y149290D01*
X225722Y148453D01*
Y147547D01*
X226069Y146710D01*
X226710Y146069D01*
X227547Y145722D01*
X228453D01*
X229290Y146069D01*
X229931Y146710D01*
X230278Y147547D01*
Y148453D01*
X229931Y149290D01*
X229650Y149572D01*
Y151734D01*
X231424D01*
X231456Y151734D01*
X232440Y151657D01*
Y150750D01*
X236170D01*
Y155250D01*
Y159750D01*
X232440D01*
Y158843D01*
X231456Y158766D01*
X231424Y158766D01*
X223424D01*
Y158766D01*
X222750Y158487D01*
X222213Y159023D01*
X221629Y159413D01*
X220940Y159551D01*
X220251Y159413D01*
X219799Y159112D01*
X215190D01*
X215181Y159108D01*
X214906D01*
X214242Y159965D01*
X214540Y160683D01*
Y161382D01*
X217772D01*
X217773Y161379D01*
X218953Y160890D01*
X222753D01*
X222893Y160832D01*
X243500D01*
X244679Y161321D01*
X265562Y182203D01*
X266050Y183382D01*
Y189723D01*
X267066Y190402D01*
X267724Y190130D01*
X269122D01*
X270415Y190665D01*
X271404Y191654D01*
X271939Y192946D01*
Y194345D01*
X271404Y195637D01*
X270415Y196626D01*
X269122Y197162D01*
X267724D01*
X267066Y196889D01*
X266050Y197568D01*
Y205972D01*
X267066Y206568D01*
X267872Y206234D01*
X269271D01*
X270563Y206769D01*
X271552Y207758D01*
X272088Y209051D01*
Y210449D01*
X271552Y211742D01*
X270563Y212731D01*
X269271Y213266D01*
X267872D01*
X267066Y212932D01*
X266050Y213528D01*
Y227191D01*
X274429Y235571D01*
X274918Y236750D01*
Y256196D01*
X275181Y256460D01*
X275528Y257297D01*
Y258203D01*
X275181Y259040D01*
X274540Y259681D01*
X273703Y260028D01*
X272797D01*
X271960Y259681D01*
X271884Y259606D01*
X270868Y260026D01*
Y263259D01*
X271877Y264269D01*
X272366Y265448D01*
Y269683D01*
X272407Y270682D01*
X273864Y270682D01*
X274330Y270215D01*
X274330Y269052D01*
X274319Y269040D01*
X273972Y268203D01*
Y267297D01*
X274319Y266460D01*
X274960Y265819D01*
X275797Y265472D01*
X276703D01*
X277540Y265819D01*
X278181Y266460D01*
X278528Y267297D01*
Y268203D01*
X278181Y269040D01*
X277918Y269304D01*
Y270682D01*
X279192D01*
X284043Y265831D01*
X284748Y265539D01*
X288216Y262071D01*
X289396Y261582D01*
X292619D01*
X293340Y259842D01*
X295032Y258150D01*
X297243Y257234D01*
X299637D01*
X301848Y258150D01*
X303540Y259842D01*
X304456Y262053D01*
Y264447D01*
X303540Y266658D01*
X301848Y268350D01*
X299637Y269266D01*
X297243D01*
X295032Y268350D01*
X293340Y266658D01*
X292619Y264918D01*
X290087D01*
X286814Y268190D01*
X286110Y268482D01*
X281551Y273040D01*
X281551Y275581D01*
X282270Y276300D01*
X293236D01*
X294046Y276635D01*
X295032Y275650D01*
X297243Y274734D01*
X299637D01*
X301848Y275650D01*
X303540Y277342D01*
X304456Y279553D01*
Y281947D01*
X303540Y284158D01*
X301848Y285850D01*
X299637Y286766D01*
X297243D01*
X295032Y285850D01*
X293340Y284158D01*
X292424Y281947D01*
Y279636D01*
X282311D01*
X281551Y280254D01*
Y280284D01*
X282311Y281300D01*
X283740D01*
X284919Y281788D01*
X295915Y292784D01*
X297243Y292234D01*
X299637D01*
X301848Y293150D01*
X303540Y294842D01*
X304456Y297053D01*
Y299447D01*
X303540Y301658D01*
X301848Y303350D01*
X299637Y304266D01*
D02*
G37*
G36*
X133206Y305766D02*
X125174D01*
Y298734D01*
X127115D01*
Y297060D01*
X127115Y297060D01*
X127349Y295883D01*
X128015Y294886D01*
X134810Y288091D01*
X134810Y288091D01*
X135808Y287424D01*
X136985Y287190D01*
X136985Y287190D01*
X141917D01*
X142137Y286659D01*
X143549Y285248D01*
X145392Y284484D01*
X147388D01*
X149231Y285248D01*
X150642Y286659D01*
X151406Y288502D01*
Y290498D01*
X150642Y292341D01*
X149231Y293752D01*
X147388Y294516D01*
X145392D01*
X143549Y293752D01*
X143137Y293340D01*
X138258D01*
X133265Y298334D01*
Y301750D01*
X133265Y301750D01*
X133206Y302047D01*
Y305766D01*
D02*
G37*
G36*
X65956Y306516D02*
X57924D01*
Y299484D01*
X59865D01*
Y296810D01*
X59865Y296810D01*
X60099Y295633D01*
X60766Y294636D01*
X67310Y288091D01*
X67310Y288091D01*
X68308Y287424D01*
X69485Y287190D01*
X69485Y287190D01*
X74717D01*
X74938Y286659D01*
X76349Y285248D01*
X78192Y284484D01*
X80188D01*
X82031Y285248D01*
X83442Y286659D01*
X84206Y288502D01*
Y290498D01*
X83442Y292341D01*
X82031Y293752D01*
X80188Y294516D01*
X78192D01*
X76349Y293752D01*
X75937Y293340D01*
X70758D01*
X66015Y298084D01*
Y302500D01*
X66015Y302500D01*
X65956Y302797D01*
Y306516D01*
D02*
G37*
G36*
X16480Y287248D02*
X12750D01*
Y284018D01*
X16480D01*
Y287248D01*
D02*
G37*
G36*
X120520Y288230D02*
X115822D01*
X116703Y286101D01*
X118391Y284414D01*
X120520Y283532D01*
Y288230D01*
D02*
G37*
G36*
X127758D02*
X123060D01*
Y283532D01*
X125189Y284414D01*
X126876Y286101D01*
X127758Y288230D01*
D02*
G37*
G36*
X165786Y286766D02*
X163393D01*
X161182Y285850D01*
X159490Y284158D01*
X158917Y282775D01*
X153590D01*
X153590Y282775D01*
X152413Y282541D01*
X151416Y281874D01*
X151415Y281874D01*
X147057Y277516D01*
X145392D01*
X144606Y277190D01*
X142093Y279704D01*
X141426Y280149D01*
X140640Y280306D01*
X140640Y280306D01*
X131740D01*
X131203Y280528D01*
X130297D01*
X129460Y280181D01*
X128819Y279540D01*
X128472Y278703D01*
Y277797D01*
X128819Y276960D01*
X129460Y276319D01*
X130297Y275972D01*
X131203D01*
X131740Y276194D01*
X139789D01*
X141699Y274284D01*
X141374Y273498D01*
Y271502D01*
X141699Y270716D01*
X134289Y263305D01*
X132216D01*
Y263766D01*
X127500D01*
Y264750D01*
X125420D01*
Y261250D01*
Y257750D01*
X127500D01*
Y258734D01*
X132216D01*
Y259195D01*
X135140D01*
X135140Y259195D01*
X135927Y259351D01*
X136593Y259797D01*
X144606Y267810D01*
X145392Y267484D01*
X147388D01*
X149231Y268248D01*
X150642Y269659D01*
X151406Y271502D01*
Y273167D01*
X154864Y276625D01*
X160207D01*
X161182Y275650D01*
X163393Y274734D01*
X165786D01*
X167998Y275650D01*
X169690Y277342D01*
X170606Y279553D01*
Y281947D01*
X169690Y284158D01*
X167998Y285850D01*
X165786Y286766D01*
D02*
G37*
G36*
X16480Y281478D02*
X12750D01*
Y278248D01*
X16480D01*
Y281478D01*
D02*
G37*
G36*
X123060Y278468D02*
Y273770D01*
X127758D01*
X126876Y275899D01*
X125189Y277587D01*
X123060Y278468D01*
D02*
G37*
G36*
X120520D02*
X118391Y277587D01*
X116703Y275899D01*
X115822Y273770D01*
X120520D01*
Y278468D01*
D02*
G37*
G36*
X55860Y278468D02*
Y273770D01*
X60558D01*
X59676Y275899D01*
X57989Y277586D01*
X55860Y278468D01*
D02*
G37*
G36*
X53320D02*
X51191Y277586D01*
X49503Y275899D01*
X48622Y273770D01*
X53320D01*
Y278468D01*
D02*
G37*
G36*
X22980Y273728D02*
X20900D01*
Y271498D01*
X22980D01*
Y273728D01*
D02*
G37*
G36*
X120520Y271230D02*
X115822D01*
X116703Y269101D01*
X118391Y267414D01*
X120520Y266532D01*
Y271230D01*
D02*
G37*
G36*
X127758D02*
X123060D01*
Y266532D01*
X125189Y267414D01*
X126876Y269101D01*
X127758Y271230D01*
D02*
G37*
G36*
X60558Y271230D02*
X55860D01*
Y266532D01*
X57989Y267413D01*
X59676Y269101D01*
X60558Y271230D01*
D02*
G37*
G36*
X53320D02*
X48622D01*
X49503Y269101D01*
X51191Y267413D01*
X53320Y266532D01*
Y271230D01*
D02*
G37*
G36*
X16480Y269500D02*
X12750D01*
Y266270D01*
X16480D01*
Y269500D01*
D02*
G37*
G36*
X165860Y269907D02*
Y264270D01*
X171497D01*
X171113Y265702D01*
X170191Y267298D01*
X168888Y268601D01*
X167292Y269523D01*
X165860Y269907D01*
D02*
G37*
G36*
X97770D02*
Y264270D01*
X103407D01*
X103023Y265702D01*
X102101Y267298D01*
X100798Y268601D01*
X99202Y269523D01*
X97770Y269907D01*
D02*
G37*
G36*
X163320Y269907D02*
X161888Y269523D01*
X160292Y268601D01*
X158989Y267298D01*
X158067Y265702D01*
X157683Y264270D01*
X163320D01*
Y269907D01*
D02*
G37*
G36*
X95230D02*
X93798Y269523D01*
X92202Y268601D01*
X90899Y267298D01*
X89977Y265702D01*
X89593Y264270D01*
X95230D01*
Y269907D01*
D02*
G37*
G36*
X353230Y266130D02*
X351000D01*
Y264050D01*
X353230D01*
Y266130D01*
D02*
G37*
G36*
X335120Y266000D02*
Y263770D01*
X337200D01*
Y266000D01*
X335120D01*
D02*
G37*
G36*
X122880Y264750D02*
X120800D01*
Y262520D01*
X122880D01*
Y264750D01*
D02*
G37*
G36*
X56130D02*
X54050D01*
Y262520D01*
X56130D01*
Y264750D01*
D02*
G37*
G36*
X22750Y269500D02*
X19020D01*
Y265000D01*
X17750D01*
Y263730D01*
X12750D01*
Y260903D01*
X12594Y260677D01*
X12594D01*
X12594Y260677D01*
X11873Y260074D01*
X11790Y260100D01*
X11621Y260087D01*
X11466Y260154D01*
X11295Y260086D01*
X11090Y260045D01*
X10950Y260035D01*
X10933Y260014D01*
X10762Y259980D01*
X10174Y259587D01*
X9781Y258999D01*
X9696Y258573D01*
X9594Y258336D01*
X9597Y258328D01*
X9594Y258320D01*
Y256887D01*
X9158Y256707D01*
X9158Y251293D01*
X9594Y251113D01*
Y249700D01*
X9686Y249478D01*
X9717Y249322D01*
X9737Y249156D01*
X9756Y249123D01*
X9781Y249001D01*
X10174Y248413D01*
X10762Y248020D01*
X11456Y247882D01*
X11793Y247949D01*
X11826Y247946D01*
X11900Y247963D01*
X12778Y248138D01*
X12885Y248209D01*
X13745Y248784D01*
X14015Y248953D01*
X14030Y248975D01*
X14836Y249513D01*
X16212Y251572D01*
X16286Y251945D01*
X19314D01*
X19388Y251572D01*
X20763Y249513D01*
X21509Y249015D01*
X21544Y248981D01*
X21589Y248962D01*
X21668Y248909D01*
X21713Y248842D01*
X22359Y248414D01*
X22430Y248400D01*
X22822Y248138D01*
X23478Y248008D01*
X23810Y247899D01*
X23979Y247913D01*
X24134Y247846D01*
X24306Y247914D01*
X24510Y247955D01*
X24649Y247966D01*
X24667Y247986D01*
X24838Y248020D01*
X25362Y248370D01*
X25426Y248413D01*
X26430D01*
X27018Y248020D01*
X27712Y247882D01*
X28049Y247949D01*
X28082Y247946D01*
X28156Y247963D01*
X29035Y248138D01*
X29141Y248209D01*
X30002Y248784D01*
X30271Y248953D01*
X31282Y249117D01*
X35096Y245303D01*
X35194Y245066D01*
Y218000D01*
X35194Y218000D01*
X35351Y217213D01*
X35796Y216546D01*
X37445Y214898D01*
X37445Y214898D01*
X38112Y214452D01*
X38899Y214296D01*
X39273Y213635D01*
X44305D01*
Y213946D01*
X47749D01*
X48188Y214033D01*
X49534Y212687D01*
X49671Y212630D01*
X49469Y211614D01*
X42357D01*
X41790Y212181D01*
X40953Y212528D01*
X40047D01*
X39210Y212181D01*
X38569Y211540D01*
X38222Y210703D01*
Y209797D01*
X38569Y208960D01*
X39210Y208319D01*
X40047Y207972D01*
X40452D01*
X40873Y206956D01*
X35695Y201778D01*
X35297D01*
X34460Y201431D01*
X33819Y200790D01*
X33472Y199953D01*
Y199047D01*
X33819Y198210D01*
X34460Y197569D01*
X34630Y196713D01*
X33618Y195701D01*
X33301D01*
X32135Y195218D01*
X29445Y192528D01*
X29047D01*
X28210Y192181D01*
X27569Y191540D01*
X27222Y190703D01*
Y189797D01*
X27569Y188960D01*
X28210Y188319D01*
X29047Y187972D01*
X29953D01*
X30790Y188319D01*
X31431Y188960D01*
X31778Y189797D01*
Y190195D01*
X33984Y192402D01*
X34301D01*
X35468Y192885D01*
X37046Y194463D01*
X37908Y193888D01*
X37850Y193750D01*
Y185875D01*
X38334Y184709D01*
X44959Y178084D01*
X46125Y177600D01*
X47067D01*
X48350Y176317D01*
Y162754D01*
X47783Y162235D01*
X47219Y162344D01*
X47122Y162831D01*
X47051Y162937D01*
X46476Y163798D01*
X46307Y164068D01*
X46285Y164083D01*
X45746Y164889D01*
X43688Y166265D01*
X42964Y166409D01*
X42849Y166450D01*
X42776Y166446D01*
X42560Y166489D01*
X42505Y166513D01*
X42428Y166515D01*
X41260Y166747D01*
X40334Y166563D01*
X40295Y166564D01*
X40248Y166546D01*
X40058Y166508D01*
X39956Y166519D01*
X39643Y166426D01*
X38832Y166265D01*
X36774Y164889D01*
X36275Y164143D01*
X36241Y164109D01*
X36222Y164064D01*
X36169Y163984D01*
X36102Y163939D01*
X35674Y163294D01*
X35660Y163222D01*
X35398Y162831D01*
X35268Y162175D01*
X35159Y161842D01*
X35173Y161674D01*
X35106Y161518D01*
X35174Y161347D01*
X35215Y161142D01*
X35226Y161003D01*
X35246Y160986D01*
X35280Y160814D01*
X35337Y160728D01*
X35589Y159978D01*
X35337Y159228D01*
X35280Y159143D01*
X35142Y158449D01*
X35209Y158112D01*
X35206Y158078D01*
X35223Y158004D01*
X35398Y157126D01*
X35469Y157020D01*
X36044Y156159D01*
X36213Y155889D01*
X36235Y155874D01*
X36774Y155068D01*
X38832Y153692D01*
X39556Y153548D01*
X39671Y153507D01*
X39744Y153511D01*
X39960Y153468D01*
X40016Y153443D01*
X40092Y153442D01*
X40464Y153368D01*
X40768Y152271D01*
X40545Y152068D01*
X40535Y152065D01*
X40498Y152050D01*
X40307Y152012D01*
X40206Y152023D01*
X39893Y151930D01*
X39082Y151769D01*
X37023Y150393D01*
X36525Y149647D01*
X36491Y149613D01*
X36472Y149568D01*
X36419Y149488D01*
X36352Y149443D01*
X35924Y148798D01*
X35910Y148726D01*
X35648Y148335D01*
X35518Y147679D01*
X35410Y147346D01*
X35423Y147178D01*
X35356Y147022D01*
X35424Y146851D01*
X35465Y146646D01*
X35475Y146507D01*
X35496Y146490D01*
X35530Y146318D01*
X35879Y145795D01*
X35923Y145730D01*
Y144727D01*
X35530Y144138D01*
X35392Y143445D01*
X35459Y143108D01*
X35456Y143074D01*
X35473Y143000D01*
X35648Y142122D01*
X35719Y142016D01*
X36294Y141155D01*
X36463Y140885D01*
X36485Y140870D01*
X37023Y140064D01*
X39082Y138688D01*
X39806Y138544D01*
X39921Y138503D01*
X39994Y138507D01*
X40210Y138464D01*
X40265Y138439D01*
X40342Y138438D01*
X41510Y138205D01*
X42436Y138390D01*
X42475Y138389D01*
X42522Y138406D01*
X42712Y138444D01*
X42814Y138434D01*
X43127Y138527D01*
X43938Y138688D01*
X45594Y139795D01*
X53234D01*
Y139234D01*
X61766D01*
Y149766D01*
X53234D01*
Y143906D01*
X47548D01*
X47544Y143950D01*
X47524Y143967D01*
X47490Y144138D01*
X47140Y144662D01*
X47097Y144727D01*
Y145730D01*
X47490Y146318D01*
X47628Y147012D01*
X47561Y147349D01*
X47564Y147383D01*
X47547Y147457D01*
X47372Y148335D01*
X47301Y148441D01*
X47090Y148757D01*
X50021Y151688D01*
X50504Y152854D01*
Y155930D01*
X50622Y156124D01*
X50622Y156124D01*
X50629Y156142D01*
X51167Y156834D01*
X51234Y156997D01*
X52250Y156795D01*
Y153750D01*
X56230D01*
Y160000D01*
X57500D01*
Y161270D01*
X62750D01*
Y164466D01*
X63689Y164854D01*
X64444Y164098D01*
Y146500D01*
X64444Y146500D01*
X64601Y145713D01*
X65047Y145047D01*
X67297Y142796D01*
X67963Y142351D01*
X68750Y142194D01*
X68750Y142194D01*
X69734D01*
Y139234D01*
X78266D01*
Y149678D01*
X78266Y149766D01*
X78289Y149867D01*
X79404Y150189D01*
X82948Y146645D01*
X82948Y146645D01*
X83615Y146200D01*
X83696Y146184D01*
X83705Y146138D01*
X83715Y145999D01*
X83736Y145982D01*
X83770Y145810D01*
X84163Y145222D01*
X84751Y144829D01*
X85177Y144744D01*
X85414Y144642D01*
X85422Y144646D01*
X85430Y144642D01*
X86863D01*
X87043Y144207D01*
X92457Y144207D01*
X92637Y144642D01*
X94050D01*
X94272Y144734D01*
X94428Y144765D01*
X94594Y144786D01*
X94627Y144805D01*
X94749Y144829D01*
X95337Y145222D01*
X95730Y145810D01*
X95868Y146504D01*
X95801Y146841D01*
X95804Y146875D01*
X95787Y146948D01*
X95612Y147827D01*
X95541Y147933D01*
X95077Y148628D01*
X95318Y149084D01*
X95756Y149446D01*
X96297Y149222D01*
X97203D01*
X98040Y149569D01*
X98681Y150210D01*
X99028Y151047D01*
Y151953D01*
X98681Y152790D01*
X98040Y153431D01*
X97503Y153654D01*
X95063Y156094D01*
X95625Y156934D01*
X96851Y157144D01*
X97689Y156798D01*
X98534D01*
X99634Y156342D01*
X100884D01*
Y154484D01*
X105137D01*
X105704Y153504D01*
X105632Y153396D01*
X105475Y152609D01*
X105475Y152609D01*
Y151016D01*
X104803D01*
X102592Y150100D01*
X100900Y148408D01*
X99984Y146197D01*
Y143803D01*
X100900Y141592D01*
X102592Y139900D01*
X104803Y138984D01*
X107197D01*
X109408Y139900D01*
X111100Y141592D01*
X112016Y143803D01*
Y146197D01*
X111100Y148408D01*
X109586Y149922D01*
Y151758D01*
X110053Y152225D01*
X110053Y152225D01*
X110499Y152892D01*
X110655Y153679D01*
Y154484D01*
X111316D01*
Y155350D01*
X113067D01*
X115722Y152695D01*
Y152297D01*
X116069Y151460D01*
X116710Y150819D01*
X117547Y150472D01*
X118453D01*
X119290Y150819D01*
X119931Y151460D01*
X120278Y152297D01*
Y153203D01*
X119931Y154040D01*
X119290Y154681D01*
X118453Y155028D01*
X118055D01*
X114916Y158166D01*
X113750Y158650D01*
X111316D01*
Y159516D01*
X106632D01*
X106584Y159516D01*
X105616D01*
X105568Y159516D01*
X102711D01*
X102408Y159642D01*
X100373D01*
X100073Y160366D01*
X99432Y161007D01*
X98595Y161354D01*
X97689D01*
X97312Y161198D01*
X97239Y161197D01*
X97108Y161208D01*
X96460Y161483D01*
X96324Y161574D01*
X96169Y161740D01*
X96036Y162407D01*
X94661Y164465D01*
X93915Y164963D01*
X93880Y164998D01*
X93835Y165016D01*
X93756Y165070D01*
X93711Y165137D01*
X93066Y165565D01*
X92994Y165579D01*
X92602Y165840D01*
X91947Y165971D01*
X91614Y166079D01*
X91445Y166066D01*
X91290Y166133D01*
X91119Y166065D01*
X90914Y166024D01*
X90775Y166013D01*
X90758Y165993D01*
X90586Y165959D01*
X90500Y165901D01*
X89750Y165649D01*
X89000Y165901D01*
X88914Y165959D01*
X88220Y166097D01*
X87883Y166029D01*
X87850Y166033D01*
X87776Y166015D01*
X86898Y165840D01*
X86793Y165770D01*
X85931Y165194D01*
X85661Y165025D01*
X85646Y165004D01*
X84839Y164465D01*
X84705Y164452D01*
X75963Y173194D01*
Y183199D01*
X76274D01*
Y186956D01*
X77290Y187377D01*
X83084Y181584D01*
X84250Y181100D01*
X90178D01*
X90460Y180819D01*
X91297Y180472D01*
X92203D01*
X93040Y180819D01*
X93681Y181460D01*
X94028Y182297D01*
Y182702D01*
X95044Y183123D01*
X98334Y179834D01*
X99500Y179350D01*
X101034D01*
Y178484D01*
X105718D01*
X105766Y178484D01*
X106734D01*
X107044Y177577D01*
Y174866D01*
X106944Y174766D01*
X104803D01*
X102592Y173850D01*
X100900Y172158D01*
X99984Y169947D01*
Y167553D01*
X100900Y165342D01*
X102592Y163650D01*
X104803Y162734D01*
X107197D01*
X109408Y163650D01*
X111100Y165342D01*
X112016Y167553D01*
Y169175D01*
X112325Y169303D01*
X112808Y170469D01*
X112325Y171635D01*
X111375Y172029D01*
X110885Y173057D01*
X110999Y173228D01*
X111156Y174015D01*
Y178484D01*
X111466D01*
Y179225D01*
X112815D01*
X113945Y178095D01*
Y177958D01*
X113605Y177138D01*
Y176231D01*
X113952Y175394D01*
X114593Y174753D01*
X115430Y174407D01*
X116336D01*
X117174Y174753D01*
X117814Y175394D01*
X118161Y176231D01*
Y177138D01*
X117814Y177975D01*
X117244Y178545D01*
Y178778D01*
X116761Y179945D01*
X114664Y182041D01*
X113498Y182525D01*
X111466D01*
Y183516D01*
X106782D01*
X106734Y183516D01*
X105766D01*
X105718Y183516D01*
X102861D01*
X102558Y183642D01*
X102255Y183516D01*
X101034D01*
Y183048D01*
X100018Y182815D01*
X96127Y186706D01*
X96453Y187722D01*
X97290Y188069D01*
X97931Y188710D01*
X98278Y189547D01*
Y190453D01*
X97931Y191290D01*
X97650Y191572D01*
Y200367D01*
X100091Y202808D01*
X101034Y202984D01*
Y202984D01*
X105718D01*
X105766Y202984D01*
X106734D01*
X107044Y202077D01*
Y199266D01*
X105303D01*
X103092Y198350D01*
X101400Y196658D01*
X100484Y194447D01*
Y192053D01*
X101400Y189842D01*
X103092Y188150D01*
X105303Y187234D01*
X107697D01*
X109908Y188150D01*
X111600Y189842D01*
X112516Y192053D01*
Y194185D01*
X112548Y194206D01*
X113497Y194532D01*
X113960Y194069D01*
X114797Y193722D01*
X115703D01*
X116540Y194069D01*
X117181Y194710D01*
X117528Y195547D01*
Y196453D01*
X117181Y197290D01*
X116900Y197572D01*
Y203250D01*
X116416Y204416D01*
X114166Y206666D01*
X113000Y207150D01*
X111466D01*
Y208016D01*
X106782D01*
X106734Y208016D01*
X105766D01*
X105718Y208016D01*
X102861D01*
X102558Y208142D01*
X102408D01*
X102105Y208016D01*
X101034D01*
Y207157D01*
X100895Y206822D01*
X100123D01*
X98956Y206339D01*
X94834Y202216D01*
X94350Y201050D01*
Y191572D01*
X94069Y191290D01*
X93722Y190453D01*
X92793Y190178D01*
X92640Y190232D01*
X92423Y190695D01*
X92254Y191385D01*
X92528Y192047D01*
Y192953D01*
X92181Y193790D01*
X91900Y194072D01*
Y195500D01*
X91416Y196667D01*
X87042Y201041D01*
X87323Y202196D01*
X87500Y202252D01*
X87858Y202257D01*
X88547Y201972D01*
X89453D01*
X90290Y202319D01*
X90931Y202960D01*
X91278Y203797D01*
Y204703D01*
X91059Y205233D01*
X91457Y206056D01*
X91654Y206249D01*
X92324D01*
Y206559D01*
X93865D01*
X93865Y206559D01*
X94257Y206637D01*
X94657Y206472D01*
X95563D01*
X96400Y206819D01*
X97041Y207460D01*
X97388Y208297D01*
Y209203D01*
X97041Y210040D01*
X96400Y210681D01*
X95563Y211028D01*
X94657D01*
X94287Y210875D01*
X93762Y211114D01*
X93308Y211704D01*
Y213045D01*
X89808D01*
X86308D01*
Y211437D01*
X85292Y211016D01*
X85189Y211119D01*
X84035Y211597D01*
X82881Y211119D01*
X82858Y211065D01*
X79468D01*
X78916Y212081D01*
X78963Y212195D01*
X76058D01*
Y214735D01*
X78963D01*
X78745Y215260D01*
X77854Y216152D01*
X77851Y217203D01*
X80528Y219879D01*
X80850Y220657D01*
Y224907D01*
X81203Y225144D01*
X81454Y225394D01*
X81899Y226061D01*
X82056Y226847D01*
Y242760D01*
X82278Y243297D01*
Y244203D01*
X81931Y245040D01*
X81290Y245681D01*
X80453Y246028D01*
X79547D01*
X78710Y245681D01*
X78069Y245040D01*
X77722Y244203D01*
Y243297D01*
X77944Y242760D01*
Y238253D01*
X76929Y237646D01*
X76596Y237783D01*
X75690D01*
X74853Y237437D01*
X74766Y237349D01*
X73750Y237770D01*
Y242750D01*
X70020D01*
Y238250D01*
X67480D01*
Y242750D01*
X63750D01*
Y241843D01*
X62766Y241766D01*
Y241766D01*
X54734D01*
X53900Y242204D01*
Y245750D01*
X53416Y246916D01*
X49538Y250795D01*
X50266Y252553D01*
Y254947D01*
X49350Y257158D01*
X47658Y258850D01*
X45447Y259766D01*
X43053D01*
X40842Y258850D01*
X39150Y257158D01*
X38234Y254947D01*
Y252553D01*
X39150Y250342D01*
X40842Y248650D01*
X43053Y247734D01*
X45447D01*
X47205Y248462D01*
X50600Y245067D01*
Y234375D01*
X51084Y233209D01*
X51325Y232967D01*
X51083Y232356D01*
X50827Y232028D01*
X50047D01*
X49210Y231681D01*
X48569Y231040D01*
X48222Y230203D01*
Y229297D01*
X48569Y228460D01*
X49139Y227889D01*
Y227473D01*
X49622Y226306D01*
X50498Y225431D01*
X51664Y224948D01*
X51731Y224975D01*
X55555Y221151D01*
X55134Y220135D01*
X54427D01*
X53262Y219652D01*
X52370Y218761D01*
X52153Y218235D01*
X55057D01*
Y215695D01*
X52153D01*
X52200Y215581D01*
X51724Y214706D01*
X50710Y214622D01*
X49726Y215606D01*
X49804Y216001D01*
X49648Y216788D01*
X49202Y217455D01*
X48535Y217900D01*
X47749Y218057D01*
X46183D01*
X45289Y218351D01*
Y220431D01*
X41789D01*
Y221701D01*
X40519D01*
Y225051D01*
X39306D01*
Y245066D01*
X39528Y245603D01*
Y246509D01*
X39181Y247347D01*
X38540Y247988D01*
X38003Y248210D01*
X32829Y253384D01*
X32951Y254000D01*
X32767Y254926D01*
X32768Y254965D01*
X32750Y255012D01*
X32712Y255203D01*
X32723Y255304D01*
X32630Y255617D01*
X32468Y256428D01*
X31362Y258084D01*
Y261484D01*
X31766D01*
Y268516D01*
X23766D01*
X23734Y268516D01*
X22750Y268593D01*
Y269500D01*
D02*
G37*
G36*
X122880Y259980D02*
X120800D01*
Y257750D01*
X122880D01*
Y259980D01*
D02*
G37*
G36*
X56130D02*
X54050D01*
Y257750D01*
X56130D01*
Y259980D01*
D02*
G37*
G36*
X171497Y261730D02*
X165860D01*
Y256093D01*
X167292Y256477D01*
X168888Y257399D01*
X170191Y258702D01*
X171113Y260298D01*
X171497Y261730D01*
D02*
G37*
G36*
X103407D02*
X97770D01*
Y256093D01*
X99202Y256477D01*
X100798Y257399D01*
X102101Y258702D01*
X103023Y260298D01*
X103407Y261730D01*
D02*
G37*
G36*
X163320D02*
X157683D01*
X158067Y260298D01*
X158989Y258702D01*
X160292Y257399D01*
X161888Y256477D01*
X163320Y256093D01*
Y261730D01*
D02*
G37*
G36*
X95230D02*
X89593D01*
X89977Y260298D01*
X90899Y258702D01*
X92202Y257399D01*
X93798Y256477D01*
X95230Y256093D01*
Y261730D01*
D02*
G37*
G36*
X5124Y256552D02*
X5102Y256543D01*
X4258Y255699D01*
X4081Y255270D01*
X4508D01*
X4744Y255930D01*
X5124Y256552D01*
D02*
G37*
G36*
X4522Y252730D02*
X4081D01*
X4258Y252301D01*
X5049Y251510D01*
X4719Y252070D01*
X4522Y252730D01*
D02*
G37*
G36*
X77447Y259766D02*
X75053D01*
X72842Y258850D01*
X71150Y257158D01*
X70234Y254947D01*
Y252553D01*
X71150Y250342D01*
X72842Y248650D01*
X75053Y247734D01*
X77447D01*
X79658Y248650D01*
X81350Y250342D01*
X82266Y252553D01*
Y254947D01*
X81350Y257158D01*
X79658Y258850D01*
X77447Y259766D01*
D02*
G37*
G36*
X146771Y252766D02*
X145372D01*
X144080Y252231D01*
X143091Y251242D01*
X142556Y249949D01*
Y248551D01*
X143091Y247258D01*
X144080Y246269D01*
X145372Y245734D01*
X146771D01*
X148063Y246269D01*
X149052Y247258D01*
X149588Y248551D01*
Y249949D01*
X149052Y251242D01*
X148063Y252231D01*
X146771Y252766D01*
D02*
G37*
G36*
X134271D02*
X132872D01*
X131580Y252231D01*
X130591Y251242D01*
X130056Y249949D01*
Y248551D01*
X130591Y247258D01*
X131580Y246269D01*
X132872Y245734D01*
X134271D01*
X135563Y246269D01*
X136552Y247258D01*
X137088Y248551D01*
Y249949D01*
X136552Y251242D01*
X135563Y252231D01*
X134271Y252766D01*
D02*
G37*
G36*
X299636Y251766D02*
X297243D01*
X295032Y250850D01*
X293340Y249158D01*
X292424Y246947D01*
Y244553D01*
X293340Y242342D01*
X295032Y240650D01*
X297243Y239734D01*
X299636D01*
X301848Y240650D01*
X303540Y242342D01*
X304456Y244553D01*
Y246947D01*
X303540Y249158D01*
X301848Y250850D01*
X299636Y251766D01*
D02*
G37*
G36*
X127959Y232491D02*
X126991D01*
X126943Y232491D01*
X122259D01*
Y231512D01*
X120184D01*
X119903Y231793D01*
X119065Y232140D01*
X118159D01*
X117322Y231793D01*
X116681Y231153D01*
X116334Y230315D01*
Y229409D01*
X116681Y228572D01*
X117322Y227931D01*
X118159Y227584D01*
X119065D01*
X119903Y227931D01*
X120184Y228213D01*
X122259D01*
Y227459D01*
X126837D01*
X127179Y227113D01*
X127494Y226653D01*
X127486Y226638D01*
X127106Y226070D01*
X126950Y225283D01*
X126950Y225283D01*
Y223991D01*
X126278D01*
X124067Y223075D01*
X122375Y221383D01*
X121459Y219171D01*
Y216778D01*
X122375Y214567D01*
X124067Y212875D01*
X126278Y211959D01*
X128671D01*
X130883Y212875D01*
X132575Y214567D01*
X133491Y216778D01*
Y219171D01*
X132575Y221383D01*
X131061Y222896D01*
Y224432D01*
X131778Y225149D01*
X132224Y225816D01*
X132367Y226534D01*
X132691Y227459D01*
X133429Y228128D01*
X133707Y228183D01*
X134803Y227087D01*
Y213370D01*
X134521Y213088D01*
X134174Y212251D01*
Y211345D01*
X134521Y210507D01*
X135162Y209866D01*
X135999Y209520D01*
X136905D01*
X137743Y209866D01*
X138384Y210507D01*
X138730Y211345D01*
Y212251D01*
X138384Y213088D01*
X138102Y213370D01*
Y227770D01*
X137619Y228937D01*
X135414Y231141D01*
X134248Y231624D01*
X132691D01*
Y232491D01*
X128007D01*
X127959Y232491D01*
D02*
G37*
G36*
X45289Y225051D02*
X43059D01*
Y222971D01*
X45289D01*
Y225051D01*
D02*
G37*
G36*
X299636Y234266D02*
X297243D01*
X295032Y233350D01*
X293340Y231658D01*
X292424Y229447D01*
Y227053D01*
X293340Y224842D01*
X295032Y223150D01*
X297243Y222234D01*
X299636D01*
X301848Y223150D01*
X303540Y224842D01*
X304456Y227053D01*
Y229447D01*
X303540Y231658D01*
X301848Y233350D01*
X299636Y234266D01*
D02*
G37*
G36*
X384500Y225500D02*
X377770D01*
Y220020D01*
X384500D01*
Y225500D01*
D02*
G37*
G36*
X375230D02*
X368500D01*
Y220020D01*
X375230D01*
Y225500D01*
D02*
G37*
G36*
X333230D02*
X326500D01*
Y220020D01*
X333230D01*
Y225500D01*
D02*
G37*
G36*
X342500D02*
X335770D01*
Y218750D01*
Y212000D01*
X342500D01*
Y216450D01*
X343516Y216912D01*
X344551Y216484D01*
X345949D01*
X347242Y217019D01*
X348231Y218008D01*
X348766Y219301D01*
Y220699D01*
X348231Y221992D01*
X347242Y222981D01*
X345949Y223516D01*
X344551D01*
X343516Y223087D01*
X342500Y223550D01*
Y225500D01*
D02*
G37*
G36*
X93308Y217665D02*
X91078D01*
Y215585D01*
X93308D01*
Y217665D01*
D02*
G37*
G36*
X88538D02*
X86308D01*
Y215585D01*
X88538D01*
Y217665D01*
D02*
G37*
G36*
X97453Y232028D02*
X96547D01*
X95710Y231681D01*
X95069Y231040D01*
X94722Y230203D01*
Y229297D01*
X95069Y228460D01*
X95710Y227819D01*
X96547Y227472D01*
X97453D01*
X98065Y227725D01*
X101034D01*
Y226734D01*
X105718D01*
X105766Y226734D01*
X106734D01*
X107044Y225827D01*
Y223266D01*
X105053D01*
X102842Y222350D01*
X101150Y220658D01*
X100234Y218447D01*
Y216053D01*
X101150Y213842D01*
X102842Y212150D01*
X105053Y211234D01*
X107447D01*
X109658Y212150D01*
X111350Y213842D01*
X112067Y215573D01*
X112136Y215739D01*
X113205Y215719D01*
X113269Y215575D01*
X113304Y215491D01*
X113616Y214738D01*
X114256Y214097D01*
X115094Y213750D01*
X116000D01*
X116837Y214097D01*
X117478Y214738D01*
X117825Y215575D01*
Y216481D01*
X117478Y217318D01*
X117197Y217600D01*
Y219975D01*
X117650Y221069D01*
Y225248D01*
X117166Y226414D01*
X114156Y229424D01*
X112990Y229908D01*
X111466D01*
Y231766D01*
X106782D01*
X106734Y231766D01*
X105766D01*
X105718Y231766D01*
X101034D01*
Y231025D01*
X98938D01*
X98931Y231040D01*
X98290Y231681D01*
X97453Y232028D01*
D02*
G37*
G36*
X384500Y217480D02*
X377770D01*
Y212000D01*
X384500D01*
Y217480D01*
D02*
G37*
G36*
X375230D02*
X368500D01*
Y212000D01*
X375230D01*
Y217480D01*
D02*
G37*
G36*
X333230D02*
X326500D01*
Y212000D01*
X333230D01*
Y217480D01*
D02*
G37*
G36*
X18197Y223266D02*
X15803D01*
X13592Y222350D01*
X11900Y220658D01*
X10984Y218447D01*
Y216053D01*
X11900Y213842D01*
X13592Y212150D01*
X15803Y211234D01*
X18197D01*
X20408Y212150D01*
X22100Y213842D01*
X23016Y216053D01*
Y218447D01*
X22100Y220658D01*
X20408Y222350D01*
X18197Y223266D01*
D02*
G37*
G36*
X33063Y212582D02*
X31664D01*
X30372Y212046D01*
X29383Y211057D01*
X28848Y209765D01*
Y208366D01*
X29383Y207074D01*
X30372Y206085D01*
X31664Y205550D01*
X33063D01*
X34355Y206085D01*
X35344Y207074D01*
X35880Y208366D01*
Y209765D01*
X35344Y211057D01*
X34355Y212046D01*
X33063Y212582D01*
D02*
G37*
G36*
X299636Y216766D02*
X297243D01*
X295032Y215850D01*
X293340Y214158D01*
X292424Y211947D01*
Y209553D01*
X293340Y207342D01*
X295032Y205650D01*
X297243Y204734D01*
X299636D01*
X301848Y205650D01*
X303540Y207342D01*
X304456Y209553D01*
Y211947D01*
X303540Y214158D01*
X301848Y215850D01*
X299636Y216766D01*
D02*
G37*
G36*
X147170Y204250D02*
X143440D01*
Y201020D01*
X147170D01*
Y204250D01*
D02*
G37*
G36*
X234890Y202000D02*
X232810D01*
Y199770D01*
X234890D01*
Y202000D01*
D02*
G37*
G36*
X354953Y206528D02*
X354047D01*
X353210Y206181D01*
X352569Y205540D01*
X352346Y205003D01*
X348297Y200954D01*
X347851Y200287D01*
X347695Y199500D01*
X346699Y199305D01*
X341516D01*
Y203016D01*
X327484D01*
Y191484D01*
X341516D01*
Y195194D01*
X349750D01*
X350537Y195351D01*
X351203Y195797D01*
X351649Y196463D01*
X351805Y197250D01*
Y198649D01*
X354500Y201343D01*
X360047Y195797D01*
X360713Y195351D01*
X361500Y195194D01*
X369484D01*
Y191484D01*
X383516D01*
Y203016D01*
X369484D01*
Y199305D01*
X362351D01*
X356654Y205003D01*
X356431Y205540D01*
X355790Y206181D01*
X354953Y206528D01*
D02*
G37*
G36*
X28944Y199947D02*
X28038D01*
X27201Y199600D01*
X26560Y198959D01*
X26213Y198122D01*
Y197216D01*
X26560Y196379D01*
X27201Y195738D01*
X28038Y195391D01*
X28944D01*
X29781Y195738D01*
X30422Y196379D01*
X30769Y197216D01*
Y198122D01*
X30422Y198959D01*
X29781Y199600D01*
X28944Y199947D01*
D02*
G37*
G36*
X234890Y197230D02*
X232810D01*
Y195000D01*
X234890D01*
Y197230D01*
D02*
G37*
G36*
X118858Y209683D02*
X117952D01*
X117115Y209336D01*
X116474Y208695D01*
X116127Y207858D01*
Y206952D01*
X116474Y206115D01*
X117115Y205474D01*
X117952Y205127D01*
X118758D01*
X118827Y205058D01*
X119993Y204575D01*
X121813D01*
X122190Y203559D01*
X121865Y202856D01*
X121708Y202791D01*
X118808Y199891D01*
X118325Y198725D01*
X118808Y197558D01*
X119975Y197075D01*
X121141Y197558D01*
X121637Y198054D01*
X122375Y197383D01*
X121459Y195171D01*
Y192778D01*
X122375Y190567D01*
X124067Y188875D01*
X126278Y187959D01*
X128671D01*
X130883Y188875D01*
X132575Y190567D01*
X133491Y192778D01*
Y195171D01*
X132575Y197383D01*
X132036Y197922D01*
X132224Y198203D01*
X132380Y198990D01*
Y203709D01*
X132691D01*
Y203762D01*
X133707Y204183D01*
X135600Y202289D01*
Y197322D01*
X135319Y197040D01*
X134972Y196203D01*
Y195297D01*
X135319Y194460D01*
X135960Y193819D01*
X136797Y193472D01*
X137703D01*
X138540Y193819D01*
X139181Y194460D01*
X139528Y195297D01*
Y196203D01*
X139181Y197040D01*
X138900Y197322D01*
Y202973D01*
X138416Y204139D01*
X135164Y207391D01*
X133998Y207874D01*
X132691D01*
Y208741D01*
X128007D01*
X127959Y208741D01*
X126991D01*
X126943Y208741D01*
X122259D01*
Y207874D01*
X120677D01*
X120676Y207875D01*
X120336Y208695D01*
X119695Y209336D01*
X118858Y209683D01*
D02*
G37*
G36*
X232810Y187000D02*
Y184770D01*
X234890D01*
Y187000D01*
X232810D01*
D02*
G37*
G36*
X189420Y184809D02*
X189076Y184666D01*
X188274Y183864D01*
X188131Y183520D01*
X189420D01*
Y184809D01*
D02*
G37*
G36*
X18197Y199266D02*
X15803D01*
X13592Y198350D01*
X11900Y196658D01*
X10984Y194447D01*
Y192053D01*
X11900Y189842D01*
X12731Y189011D01*
X12372Y188652D01*
X11889Y187485D01*
Y187111D01*
X11319Y186540D01*
X10972Y185703D01*
Y184797D01*
X11319Y183960D01*
X11960Y183319D01*
X12797Y182972D01*
X13703D01*
X14540Y183319D01*
X15181Y183960D01*
X15528Y184797D01*
Y185703D01*
X15243Y186391D01*
X15791Y187215D01*
X15805Y187234D01*
X18197D01*
X20408Y188150D01*
X22100Y189842D01*
X23016Y192053D01*
Y194447D01*
X22100Y196658D01*
X20408Y198350D01*
X18197Y199266D01*
D02*
G37*
G36*
X234890Y182230D02*
X232810D01*
Y180000D01*
X234890D01*
Y182230D01*
D02*
G37*
G36*
X10730Y178000D02*
X7000D01*
Y174770D01*
X10730D01*
Y178000D01*
D02*
G37*
G36*
X17000D02*
X13270D01*
Y173500D01*
Y169000D01*
X17000D01*
Y169907D01*
X17984Y169984D01*
X18016Y169984D01*
X26016D01*
Y171850D01*
X28053D01*
X28319Y171210D01*
X28960Y170569D01*
X29797Y170222D01*
X30703D01*
X31540Y170569D01*
X32181Y171210D01*
X32528Y172047D01*
Y172953D01*
X32181Y173790D01*
X31540Y174431D01*
X30703Y174778D01*
X30147D01*
X29250Y175150D01*
X26016D01*
Y177016D01*
X18016D01*
X17984Y177016D01*
X17000Y177093D01*
Y178000D01*
D02*
G37*
G36*
X10730Y172230D02*
X7000D01*
Y169000D01*
X10730D01*
Y172230D01*
D02*
G37*
G36*
X385500Y169750D02*
X378770D01*
Y164270D01*
X385500D01*
Y169750D01*
D02*
G37*
G36*
X376230D02*
X369500D01*
Y164270D01*
X376230D01*
Y169750D01*
D02*
G37*
G36*
X337449Y174782D02*
X336051D01*
X334758Y174247D01*
X333769Y173258D01*
X333234Y171965D01*
Y170567D01*
X332688Y169750D01*
X327500D01*
Y164270D01*
X335500D01*
X343500D01*
Y169750D01*
X340812D01*
X340266Y170567D01*
Y171965D01*
X339731Y173258D01*
X338742Y174247D01*
X337449Y174782D01*
D02*
G37*
G36*
X10730Y166000D02*
X7000D01*
Y162770D01*
X10730D01*
Y166000D01*
D02*
G37*
G36*
X136313Y167332D02*
X135407D01*
X134570Y166986D01*
X133929Y166345D01*
X133582Y165508D01*
Y164601D01*
X133915Y163798D01*
X130358Y160241D01*
X128007D01*
X127959Y160241D01*
X126991D01*
X126943Y160241D01*
X122259D01*
X121528Y160929D01*
Y160953D01*
X121181Y161790D01*
X120540Y162431D01*
X119703Y162778D01*
X118797D01*
X117960Y162431D01*
X117319Y161790D01*
X116972Y160953D01*
Y160047D01*
X117319Y159210D01*
X117960Y158569D01*
X118797Y158222D01*
X119195D01*
X120796Y156621D01*
X121963Y156138D01*
X122259D01*
Y155209D01*
X126115D01*
X126536Y154193D01*
X126297Y153954D01*
X125851Y153287D01*
X125695Y152500D01*
X125695Y152500D01*
Y151499D01*
X124067Y150825D01*
X122375Y149132D01*
X121459Y146921D01*
Y144528D01*
X122375Y142317D01*
X124067Y140625D01*
X126278Y139709D01*
X128671D01*
X130883Y140625D01*
X132575Y142317D01*
X133491Y144528D01*
Y146921D01*
X132575Y149132D01*
X130883Y150825D01*
X130555Y150961D01*
X130316Y152159D01*
X131445Y153288D01*
X131445Y153288D01*
X131891Y153955D01*
X132047Y154741D01*
Y155209D01*
X132691D01*
Y157908D01*
X136738Y161955D01*
X137221Y163122D01*
Y163194D01*
X137792Y163764D01*
X138138Y164601D01*
Y165508D01*
X137792Y166345D01*
X137151Y166986D01*
X136313Y167332D01*
D02*
G37*
G36*
X352699Y166266D02*
X351301D01*
X350008Y165731D01*
X349019Y164742D01*
X348484Y163449D01*
Y162051D01*
X349019Y160758D01*
X350008Y159769D01*
X351301Y159234D01*
X352699D01*
X353992Y159769D01*
X354981Y160758D01*
X355516Y162051D01*
Y163449D01*
X354981Y164742D01*
X353992Y165731D01*
X352699Y166266D01*
D02*
G37*
G36*
X17000Y166000D02*
X13270D01*
Y161500D01*
Y157000D01*
X17000D01*
Y157907D01*
X17984Y157984D01*
X18016Y157984D01*
X26016D01*
Y159850D01*
X27222D01*
Y159797D01*
X27569Y158960D01*
X28210Y158319D01*
X29047Y157972D01*
X29953D01*
X30790Y158319D01*
X31431Y158960D01*
X31778Y159797D01*
Y160703D01*
X31431Y161540D01*
X30790Y162181D01*
X29953Y162528D01*
X29305D01*
X29166Y162666D01*
X28000Y163150D01*
X26016D01*
Y165016D01*
X18016D01*
X17984Y165016D01*
X17000Y165093D01*
Y166000D01*
D02*
G37*
G36*
X10730Y160230D02*
X7000D01*
Y157000D01*
X10730D01*
Y160230D01*
D02*
G37*
G36*
X242440Y159750D02*
X238710D01*
Y156520D01*
X242440D01*
Y159750D01*
D02*
G37*
G36*
X385500Y161730D02*
X378770D01*
Y156250D01*
X385500D01*
Y161730D01*
D02*
G37*
G36*
X376230D02*
X369500D01*
Y156250D01*
X376230D01*
Y161730D01*
D02*
G37*
G36*
X62750Y158730D02*
X58770D01*
Y153750D01*
X62750D01*
Y158730D01*
D02*
G37*
G36*
X242440Y153980D02*
X238710D01*
Y150750D01*
X242440D01*
Y153980D01*
D02*
G37*
G36*
X10730Y153750D02*
X7000D01*
Y150520D01*
X10730D01*
Y153750D01*
D02*
G37*
G36*
X343500Y161730D02*
X335500D01*
X327500D01*
Y156250D01*
X329950D01*
X330559Y155234D01*
X330234Y154449D01*
Y153051D01*
X330769Y151758D01*
X331758Y150769D01*
X333051Y150234D01*
X334449D01*
X335742Y150769D01*
X336731Y151758D01*
X337266Y153051D01*
Y154449D01*
X336941Y155234D01*
X337550Y156250D01*
X341200D01*
X341809Y155234D01*
X341484Y154449D01*
Y153051D01*
X342019Y151758D01*
X343008Y150769D01*
X344301Y150234D01*
X345699D01*
X346992Y150769D01*
X347981Y151758D01*
X348516Y153051D01*
Y154449D01*
X347981Y155742D01*
X346992Y156731D01*
X345699Y157266D01*
X344301D01*
X343500Y157801D01*
Y161730D01*
D02*
G37*
G36*
X362250Y148555D02*
X362250Y148555D01*
X351250D01*
X351250Y148555D01*
X350463Y148399D01*
X349796Y147954D01*
X345399Y143555D01*
X342516D01*
Y147266D01*
X328484D01*
Y143555D01*
X322000D01*
X321213Y143399D01*
X320547Y142954D01*
X320546Y142953D01*
X318147Y140554D01*
X317701Y139887D01*
X317545Y139100D01*
X317545Y139100D01*
Y135982D01*
X317222Y135203D01*
Y134297D01*
X317569Y133460D01*
X318210Y132819D01*
X319047Y132472D01*
X319953D01*
X320790Y132819D01*
X321431Y133460D01*
X321778Y134297D01*
Y135203D01*
X321656Y135498D01*
Y138249D01*
X322851Y139445D01*
X328484D01*
Y135734D01*
X342516D01*
Y139445D01*
X346250D01*
X346250Y139445D01*
X347037Y139601D01*
X347704Y140047D01*
X352101Y144445D01*
X361399D01*
X365797Y140047D01*
X366463Y139601D01*
X367250Y139445D01*
X367250Y139445D01*
X370484D01*
Y135734D01*
X384516D01*
Y147266D01*
X370484D01*
Y143555D01*
X368101D01*
X363703Y147954D01*
X363037Y148399D01*
X362906Y148425D01*
X362250Y148555D01*
D02*
G37*
G36*
X17000Y153750D02*
X13270D01*
Y149250D01*
Y144750D01*
X17000D01*
Y145657D01*
X17984Y145734D01*
X18016Y145734D01*
X20350D01*
Y143250D01*
X19420D01*
Y139750D01*
Y136250D01*
X21500D01*
Y137234D01*
X26216D01*
Y142266D01*
X23817D01*
X23650Y142433D01*
Y145734D01*
X26016D01*
X26016Y145734D01*
Y145734D01*
X27032Y146012D01*
X27236Y145807D01*
X28529Y145272D01*
X29927D01*
X31220Y145807D01*
X32209Y146797D01*
X32744Y148089D01*
Y149487D01*
X32209Y150780D01*
X31220Y151769D01*
X29927Y152304D01*
X28529D01*
X27236Y151769D01*
X27032Y151564D01*
X26016Y151985D01*
Y152766D01*
X18016D01*
X17984Y152766D01*
X17000Y152843D01*
Y153750D01*
D02*
G37*
G36*
X10730Y147980D02*
X7000D01*
Y144750D01*
X10730D01*
Y147980D01*
D02*
G37*
G36*
X16880Y143250D02*
X14800D01*
Y141020D01*
X16880D01*
Y143250D01*
D02*
G37*
G36*
X234890Y143250D02*
X232810D01*
Y141020D01*
X234890D01*
Y143250D01*
D02*
G37*
G36*
X92240Y140097D02*
X91680Y139767D01*
X91020Y139571D01*
Y139129D01*
X91449Y139307D01*
X92240Y140097D01*
D02*
G37*
G36*
X87198Y140173D02*
X87207Y140151D01*
X88051Y139307D01*
X88480Y139129D01*
Y139557D01*
X87820Y139793D01*
X87198Y140173D01*
D02*
G37*
G36*
X16880Y138480D02*
X14800D01*
Y136250D01*
X16880D01*
Y138480D01*
D02*
G37*
G36*
X234890Y138480D02*
X232810D01*
Y136250D01*
X234890D01*
Y138480D01*
D02*
G37*
G36*
X357856Y138366D02*
X355423D01*
X353176Y137435D01*
X351455Y135714D01*
X350524Y133467D01*
Y131033D01*
X351455Y128786D01*
X353176Y127065D01*
X355423Y126134D01*
X357856D01*
X360104Y127065D01*
X361825Y128786D01*
X362756Y131033D01*
Y133467D01*
X361825Y135714D01*
X360104Y137435D01*
X357856Y138366D01*
D02*
G37*
G36*
X277200Y127393D02*
X275120D01*
Y125163D01*
X277200D01*
Y127393D01*
D02*
G37*
G36*
Y122623D02*
X275120D01*
Y120393D01*
X277200D01*
Y122623D01*
D02*
G37*
G36*
X182297Y109962D02*
X180217D01*
Y107732D01*
X182297D01*
Y109962D01*
D02*
G37*
G36*
X277200Y108321D02*
X275120D01*
Y106091D01*
X277200D01*
Y108321D01*
D02*
G37*
G36*
X182297Y105192D02*
X180217D01*
Y102962D01*
X182297D01*
Y105192D01*
D02*
G37*
G36*
X277200Y103551D02*
X275120D01*
Y101321D01*
X277200D01*
Y103551D01*
D02*
G37*
G36*
X305437Y124205D02*
X295785D01*
Y114045D01*
X298555D01*
Y107517D01*
X295785D01*
Y97358D01*
X298555D01*
Y90830D01*
X295785D01*
Y80670D01*
X305437D01*
Y90830D01*
X302666D01*
Y97358D01*
X305437D01*
Y100382D01*
X310896D01*
X311210Y100069D01*
X312047Y99722D01*
X312953D01*
X313790Y100069D01*
X314431Y100710D01*
X314778Y101547D01*
Y102453D01*
X314431Y103290D01*
X313790Y103931D01*
X312953Y104278D01*
X312937D01*
X312849Y104337D01*
X312062Y104493D01*
X312062Y104493D01*
X305437D01*
Y107517D01*
X302666D01*
Y114045D01*
X305437D01*
Y124205D01*
D02*
G37*
G36*
X277200Y98786D02*
X275120D01*
Y96556D01*
X277200D01*
Y98786D01*
D02*
G37*
G36*
X249355Y97500D02*
X247625D01*
Y95020D01*
X249355D01*
Y97500D01*
D02*
G37*
G36*
X133250Y99250D02*
X128520D01*
Y94770D01*
X133250D01*
Y99250D01*
D02*
G37*
G36*
X114250D02*
X109520D01*
Y94770D01*
X114250D01*
Y99250D01*
D02*
G37*
G36*
X125980D02*
X121250D01*
Y94770D01*
X125980D01*
Y99250D01*
D02*
G37*
G36*
X106980D02*
X102250D01*
Y94770D01*
X106980D01*
Y99250D01*
D02*
G37*
G36*
X277200Y94016D02*
X275120D01*
Y91786D01*
X277200D01*
Y94016D01*
D02*
G37*
G36*
X86228Y93732D02*
X83998D01*
Y91652D01*
X86228D01*
Y93732D01*
D02*
G37*
G36*
X81458D02*
X79228D01*
Y91652D01*
X81458D01*
Y93732D01*
D02*
G37*
G36*
X357856Y100266D02*
X355423D01*
X353176Y99335D01*
X351455Y97614D01*
X350524Y95366D01*
Y92934D01*
X351455Y90686D01*
X353176Y88965D01*
X355423Y88034D01*
X357856D01*
X360104Y88965D01*
X361825Y90686D01*
X362756Y92934D01*
Y95366D01*
X361825Y97614D01*
X360104Y99335D01*
X357856Y100266D01*
D02*
G37*
G36*
X249355Y83980D02*
X247625D01*
Y81500D01*
X249355D01*
Y83980D01*
D02*
G37*
G36*
X202195Y60761D02*
X201052D01*
Y37531D01*
X224282D01*
Y38674D01*
X223341Y43408D01*
X221494Y47867D01*
X218813Y51879D01*
X215400Y55292D01*
X211387Y57973D01*
X206929Y59820D01*
X202195Y60761D01*
D02*
G37*
G36*
X198512D02*
X197369D01*
X192636Y59820D01*
X188177Y57973D01*
X184164Y55292D01*
X180752Y51879D01*
X178071Y47867D01*
X176224Y43408D01*
X175282Y38674D01*
Y37531D01*
X198512D01*
Y60761D01*
D02*
G37*
G36*
X224282Y34991D02*
X201052D01*
Y11761D01*
X202195D01*
X206929Y12703D01*
X211387Y14550D01*
X215400Y17231D01*
X218813Y20643D01*
X221494Y24656D01*
X223341Y29115D01*
X224282Y33848D01*
Y34991D01*
D02*
G37*
G36*
X198512D02*
X175282D01*
Y33848D01*
X176224Y29115D01*
X178071Y24656D01*
X180752Y20643D01*
X184164Y17231D01*
X188177Y14550D01*
X192636Y12703D01*
X197369Y11761D01*
X198512D01*
Y34991D01*
D02*
G37*
%LPD*%
G36*
X295825Y181178D02*
X295032Y180850D01*
X293340Y179158D01*
X292424Y176947D01*
Y174553D01*
X293340Y172342D01*
X295032Y170650D01*
X297243Y169734D01*
X299277D01*
X299742Y168762D01*
X288560Y157580D01*
X281815D01*
Y150121D01*
X281415Y149922D01*
X280799Y149810D01*
X277339Y153270D01*
X276216Y153735D01*
Y155016D01*
X271484D01*
Y155016D01*
X270516D01*
Y155016D01*
X265784D01*
Y149984D01*
X266094D01*
Y145480D01*
X265784D01*
Y142450D01*
X264845Y142062D01*
X263305Y143601D01*
Y154899D01*
X290601Y182194D01*
X295623D01*
X295825Y181178D01*
D02*
G37*
G36*
X28890Y258670D02*
X29535Y258242D01*
X30272Y257505D01*
X30805Y256921D01*
X31389Y255930D01*
X31669Y254991D01*
X31618Y252781D01*
X31364Y252070D01*
X30526Y250698D01*
X29687Y249885D01*
X28770Y249310D01*
X27757Y248996D01*
X27249Y249174D01*
X26950Y249700D01*
X26950Y258320D01*
X27706Y259055D01*
X28890Y258670D01*
D02*
G37*
G36*
X12633D02*
X13279Y258242D01*
X14015Y257505D01*
X14549Y256921D01*
X15133Y255930D01*
X15412Y254991D01*
X15361Y252781D01*
X15107Y252070D01*
X14269Y250698D01*
X13431Y249885D01*
X12513Y249310D01*
X11501Y248996D01*
X10993Y249174D01*
X10693Y249700D01*
X10693Y258320D01*
X11450Y259055D01*
X12633Y258670D01*
D02*
G37*
G36*
X24607Y258826D02*
X24907Y258300D01*
X24907Y249680D01*
X24150Y248945D01*
X22967Y249330D01*
X22321Y249758D01*
X21585Y250495D01*
X21051Y251079D01*
X20467Y252070D01*
X20188Y253009D01*
X20239Y255219D01*
X20493Y255930D01*
X21331Y257302D01*
X22169Y258115D01*
X23087Y258690D01*
X24099Y259004D01*
X24607Y258826D01*
D02*
G37*
G36*
X64028Y182215D02*
X66938D01*
Y185715D01*
X69478D01*
Y182215D01*
X71558D01*
X71852Y181321D01*
Y172342D01*
X71852Y172342D01*
X72009Y171556D01*
X72454Y170889D01*
X77138Y166205D01*
X76750Y165266D01*
X71160D01*
X70739Y166282D01*
X71203Y166747D01*
X71649Y167413D01*
X71652Y167431D01*
X71681Y167460D01*
X72028Y168297D01*
Y169203D01*
X71681Y170040D01*
X71040Y170681D01*
X70203Y171028D01*
X69297D01*
X68460Y170681D01*
X67819Y170040D01*
X67472Y169203D01*
Y168829D01*
X66500Y167857D01*
X65216Y169141D01*
Y171266D01*
X60500D01*
Y172250D01*
X58420D01*
Y168750D01*
X57150D01*
Y167480D01*
X53800D01*
Y166968D01*
X53193Y166362D01*
X52129Y166404D01*
X51650Y167017D01*
Y177000D01*
X51166Y178166D01*
X48916Y180416D01*
X47750Y180900D01*
X46808D01*
X45448Y182260D01*
X45837Y183199D01*
X48026D01*
X48074Y183199D01*
X49042D01*
X49090Y183199D01*
X53774D01*
Y183199D01*
X54692Y183199D01*
X54798Y182183D01*
X54319Y181703D01*
X53972Y180866D01*
Y179960D01*
X54319Y179123D01*
X54960Y178482D01*
X55797Y178135D01*
X56703D01*
X57540Y178482D01*
X58181Y179123D01*
X58528Y179960D01*
Y180866D01*
X58423Y181120D01*
X58634Y181630D01*
X59408Y182215D01*
X61488D01*
Y185715D01*
X64028D01*
Y182215D01*
D02*
G37*
G36*
X42479Y165414D02*
X43190Y165160D01*
X44562Y164322D01*
X45375Y163484D01*
X45950Y162566D01*
X46264Y161553D01*
X46086Y161045D01*
X45560Y160746D01*
X36940Y160746D01*
X36205Y161502D01*
X36590Y162686D01*
X37018Y163331D01*
X37755Y164068D01*
X38339Y164601D01*
X39330Y165185D01*
X40269Y165465D01*
X42479Y165414D01*
D02*
G37*
G36*
X92458Y164648D02*
X93103Y164220D01*
X93839Y163484D01*
X94373Y162899D01*
X94957Y161909D01*
X95236Y160969D01*
X95186Y158759D01*
X94932Y158048D01*
X94093Y156676D01*
X93255Y155864D01*
X92338Y155288D01*
X91325Y154975D01*
X90817Y155152D01*
X90518Y155678D01*
X90518Y164298D01*
X91274Y165033D01*
X92458Y164648D01*
D02*
G37*
G36*
X88683Y164804D02*
X88982Y164278D01*
X88982Y155658D01*
X88226Y154924D01*
X87042Y155308D01*
X86397Y155737D01*
X85661Y156473D01*
X85127Y157057D01*
X84543Y158048D01*
X84264Y158988D01*
X84314Y161198D01*
X84568Y161909D01*
X85407Y163280D01*
X86245Y164093D01*
X87162Y164668D01*
X88175Y164982D01*
X88683Y164804D01*
D02*
G37*
G36*
X46315Y158454D02*
X45930Y157271D01*
X45502Y156626D01*
X44765Y155889D01*
X44181Y155356D01*
X43190Y154771D01*
X42251Y154492D01*
X40041Y154543D01*
X39330Y154797D01*
X37958Y155635D01*
X37145Y156473D01*
X36570Y157391D01*
X36256Y158404D01*
X36434Y158912D01*
X36960Y159211D01*
X45580Y159211D01*
X46315Y158454D01*
D02*
G37*
G36*
X42729Y150918D02*
X43440Y150664D01*
X44812Y149826D01*
X45625Y148988D01*
X46200Y148070D01*
X46514Y147057D01*
X46336Y146549D01*
X45810Y146250D01*
X37190Y146250D01*
X36455Y147006D01*
X36840Y148190D01*
X37268Y148835D01*
X38005Y149572D01*
X38589Y150105D01*
X39580Y150689D01*
X40519Y150969D01*
X42729Y150918D01*
D02*
G37*
G36*
X90969Y150410D02*
X91680Y150156D01*
X93052Y149318D01*
X93865Y148480D01*
X94440Y147562D01*
X94754Y146549D01*
X94576Y146041D01*
X94050Y145742D01*
X85430Y145742D01*
X84695Y146498D01*
X85080Y147682D01*
X85508Y148327D01*
X86245Y149064D01*
X86829Y149597D01*
X87820Y150181D01*
X88759Y150461D01*
X90969Y150410D01*
D02*
G37*
G36*
X45830Y144207D02*
X46565Y143450D01*
X46180Y142267D01*
X45752Y141622D01*
X45015Y140885D01*
X44431Y140352D01*
X43440Y139767D01*
X42501Y139488D01*
X40291Y139539D01*
X39580Y139793D01*
X38208Y140631D01*
X37395Y141469D01*
X36820Y142387D01*
X36506Y143400D01*
X36684Y143908D01*
X37210Y144207D01*
X45830Y144207D01*
D02*
G37*
%LPC*%
G36*
X55880Y172250D02*
X53800D01*
Y170020D01*
X55880D01*
Y172250D01*
D02*
G37*
%LPD*%
D10*
X141940Y167500D02*
X142940Y168500D01*
X215690Y139750D02*
X225840D01*
X211690Y143750D02*
X215690Y139750D01*
X215190Y157750D02*
X220940D01*
X223440Y155250D02*
X227440D01*
X220940Y157750D02*
X223440Y155250D01*
X215205Y178765D02*
X215259D01*
X216128Y179634D01*
X217314D01*
X221180Y183500D01*
X225840D01*
X183690Y147250D02*
X187190D01*
X172542Y157750D02*
X180190D01*
X141940Y160500D02*
Y167500D01*
D11*
X54850Y141850D02*
G03*
X57500Y144500I0J2650D01*
G01*
X86272Y159978D02*
X86626D01*
X73908Y172342D02*
X86272Y159978D01*
X73908Y172342D02*
Y176227D01*
X354500Y204250D02*
X361500Y197250D01*
X349750Y199500D02*
X354500Y204250D01*
X349750Y197250D02*
Y199500D01*
X322000Y141500D02*
X335500D01*
X319600Y139100D02*
X322000Y141500D01*
X319500Y134750D02*
X319600Y134850D01*
Y139100D01*
X346250Y141500D02*
X351250Y146500D01*
X335500Y141500D02*
X346250D01*
X351250Y146500D02*
X362250D01*
X367250Y141500D01*
X377500D01*
X361500Y197250D02*
X376500D01*
X334500D02*
X349750D01*
X83965Y213465D02*
X84107D01*
X84957Y214315D02*
X87045D01*
X89808D01*
X84107Y213465D02*
X84957Y214315D01*
X6802Y257531D02*
Y262302D01*
Y254000D02*
Y257531D01*
X169672Y151725D02*
X170022Y152075D01*
X161940Y180000D02*
X163690Y178250D01*
X161690Y180000D02*
X161940D01*
X79750Y226597D02*
X80000Y226847D01*
Y243750D01*
X66750Y239750D02*
Y243697D01*
X68250Y238250D02*
X68750D01*
X65577Y244870D02*
Y245012D01*
X66750Y239750D02*
X68250Y238250D01*
X65577Y244870D02*
X66750Y243697D01*
X67708Y237208D02*
X68750Y238250D01*
X76058Y216965D02*
Y216978D01*
X41510Y141850D02*
X54850D01*
X27750Y300750D02*
X34750D01*
X35750Y299750D01*
X35349Y282748D02*
X68941D01*
X27750D02*
X35349D01*
X68941D02*
X79190Y272500D01*
X13250Y254000D02*
X14795D01*
X22550D01*
X13000Y254250D02*
X13250Y254000D01*
X300611Y102437D02*
X312062D01*
X312500Y102000D01*
X268150Y147732D02*
Y152500D01*
Y142964D02*
Y147732D01*
X272934D02*
X272952Y147750D01*
X268150Y147732D02*
X272934D01*
X300611Y102437D02*
Y119125D01*
Y85750D02*
Y102437D01*
X92874Y156447D02*
Y159978D01*
Y155376D02*
Y156447D01*
X82309Y158500D02*
X85134D01*
X92874Y155376D02*
X96750Y151500D01*
X85134Y158500D02*
X85147D01*
X82309Y158195D02*
Y158500D01*
X80979Y156724D02*
Y156866D01*
X82309Y158195D01*
X85147Y158500D02*
X86626Y159978D01*
X67708Y230465D02*
Y237208D01*
X37250Y218000D02*
Y246056D01*
Y218000D02*
X38899Y216351D01*
X76143Y235364D02*
Y235505D01*
X75750Y234920D02*
Y234970D01*
X73750Y232920D02*
X75750Y234920D01*
Y234970D02*
X76143Y235364D01*
X73750Y230807D02*
Y232920D01*
X73408Y230465D02*
X73750Y230807D01*
X94000Y208750D02*
X95110D01*
X93865Y208615D02*
X94000Y208750D01*
X89808Y208615D02*
X93865D01*
X66500Y164950D02*
X69750Y168200D01*
Y168750D01*
X321000Y187113D02*
Y212000D01*
X286641Y152754D02*
X321000Y187113D01*
X109100Y222265D02*
Y229100D01*
X130325Y205963D02*
X130455Y206094D01*
X129005Y225283D02*
X130325Y226603D01*
Y229975D01*
X129005Y219506D02*
Y225283D01*
X130325Y206225D02*
X130455Y206094D01*
X130325Y198990D02*
Y205963D01*
X127475Y196140D02*
X130325Y198990D01*
X127475Y193975D02*
Y196140D01*
X129992Y154741D02*
Y157392D01*
X127750Y146000D02*
Y152500D01*
X129992Y154741D01*
X127475Y145725D02*
X127750Y146000D01*
X109100Y174015D02*
Y181000D01*
X107750Y193000D02*
Y196665D01*
X109100Y198015D02*
Y205500D01*
X107750Y196665D02*
X109100Y198015D01*
X106250Y216250D02*
Y219415D01*
X109100Y222265D01*
X107531Y146531D02*
Y152609D01*
X106500Y168500D02*
Y171415D01*
X109100Y174015D01*
X108600Y156650D02*
X108950Y157000D01*
X107531Y152609D02*
X108600Y153679D01*
Y156650D01*
X66500Y146500D02*
X68750Y144250D01*
X73750D01*
X74000Y144500D01*
X75172Y152750D02*
X79750D01*
X84401Y148099D01*
X86219D01*
X62850Y168600D02*
Y168750D01*
Y168600D02*
X66500Y164950D01*
Y146500D02*
Y164950D01*
X74000Y153922D02*
Y160000D01*
Y153922D02*
X75172Y152750D01*
X86219Y148099D02*
X89750D01*
X160350Y139900D02*
X164240D01*
X153250Y124836D02*
X153638Y124448D01*
X153250Y124836D02*
Y132039D01*
X190690Y134850D02*
X190691Y134849D01*
X190690Y134850D02*
Y143750D01*
X261250Y142750D02*
X266500Y137500D01*
X167775Y112487D02*
X168040Y112223D01*
X167750Y112462D02*
X167775Y112487D01*
X167750Y104435D02*
Y112462D01*
X286641Y152500D02*
Y152754D01*
X261250Y142750D02*
Y155750D01*
X289750Y184250D01*
X237440Y155250D02*
X237440D01*
X62758Y185715D02*
X68208D01*
X57058Y185715D02*
X57058Y185715D01*
X51408Y185715D02*
X57058D01*
X57058Y185715D02*
X57408Y186065D01*
X68208Y185715D02*
Y188918D01*
X57408Y186065D02*
Y188918D01*
X73908Y176227D02*
Y185715D01*
X58535Y202965D02*
X58558D01*
X65535Y206465D02*
X65558D01*
X58535Y209965D02*
X58558D01*
X72535Y202965D02*
X72558D01*
X69035Y206465D02*
X69058D01*
X85385Y208615D02*
X89808D01*
X84035Y209965D02*
X85385Y208615D01*
X161690Y171636D02*
Y179000D01*
X163690Y178000D02*
X167440Y174250D01*
X163690Y178000D02*
Y178250D01*
X129850Y261250D02*
X135140D01*
X146390Y272500D01*
X140640Y278250D02*
X146390Y272500D01*
X130750Y278250D02*
X140640D01*
X67690Y230482D02*
X67708Y230465D01*
X67940Y261250D02*
X79190Y272500D01*
X289750Y184250D02*
X304000D01*
X314000Y194250D01*
Y209500D01*
X157328Y147183D02*
X158081Y147936D01*
X164750Y148036D02*
X164892D01*
X166063Y149208D01*
X166772D01*
Y150725D01*
X167772Y151725D01*
X169672D01*
X158081Y147936D02*
X164650D01*
X164750Y148036D01*
X161690Y171000D02*
Y171636D01*
X279509Y135813D02*
X286641D01*
X277822Y137500D02*
X279509Y135813D01*
X266500Y137500D02*
X277822D01*
X29950Y274998D02*
Y281049D01*
X41789Y216001D02*
X47749D01*
X41439Y216351D02*
X41789Y216001D01*
X38899Y216351D02*
X41439D01*
X41990Y221500D02*
X47250D01*
X41789Y221701D02*
X41990Y221500D01*
X41789Y221701D02*
Y226461D01*
X41750Y226500D02*
X41789Y226461D01*
X58535Y213465D02*
X58558D01*
X62035D02*
X62058D01*
X65493Y217030D02*
X65558Y216965D01*
X63118Y230482D02*
X67690D01*
X63100Y230500D02*
X63118Y230482D01*
X57400Y230500D02*
X57572Y230672D01*
X27750Y265000D02*
X27806D01*
X9500D02*
X17750D01*
X29306Y254000D02*
Y263500D01*
X6802Y262302D02*
X9500Y265000D01*
X27806D02*
X29306Y263500D01*
X57400Y230843D02*
X57572Y230672D01*
X29750Y293198D02*
Y299250D01*
X57400Y230843D02*
Y236900D01*
X58750Y238250D01*
X29306Y254000D02*
X37250Y246056D01*
X63100Y261250D02*
X67940D01*
X69035Y209965D02*
X69058D01*
X72535D02*
X72558D01*
X69058Y213442D02*
Y213465D01*
X72535D02*
X72558D01*
Y225992D02*
X73408Y226842D01*
X67750Y227500D02*
X69058Y226192D01*
X73408Y226842D02*
Y230465D01*
X67750Y227500D02*
Y230423D01*
X67708Y230465D02*
X67750Y230423D01*
D13*
X298500Y228000D02*
Y228250D01*
X187190Y171750D02*
X187190D01*
X204818Y158000D02*
X208068Y161250D01*
X208190D01*
X204818Y161500D02*
X208068Y164750D01*
X208190D01*
X204818Y165000D02*
X208068Y168250D01*
X208190D01*
X204818Y168500D02*
X208068Y171750D01*
X208190D01*
D14*
X8396Y258305D02*
G03*
X6802Y257531I1105J-4305D01*
G01*
D02*
G03*
X6548Y250679I2700J-3531D01*
G01*
X14795Y254000D02*
G03*
X13050Y257531I-4445J0D01*
G01*
X92874Y156447D02*
G03*
X92874Y163509I-2700J3531D01*
G01*
X91280Y155673D02*
G03*
X92874Y156447I-1105J4305D01*
G01*
X42365Y155249D02*
G03*
X44791Y156854I-1105J4305D01*
G01*
X36955Y158449D02*
G03*
X42365Y155249I4305J1105D01*
G01*
X44791Y156854D02*
G03*
X45565Y158449I-3531J2700D01*
G01*
X85134Y158500D02*
G03*
X85137Y158490I4192J1478D01*
G01*
X86626Y163509D02*
G03*
X85134Y158500I2700J-3531D01*
G01*
X45815Y147012D02*
G03*
X37205Y147012I-4305J-1105D01*
G01*
Y143445D02*
G03*
X45815Y143445I4305J1105D01*
G01*
X37938Y163357D02*
G03*
X36955Y161508I3322J-2954D01*
G01*
X45565D02*
G03*
X37938Y163357I-4305J-1105D01*
G01*
X86372Y156657D02*
G03*
X88220Y155673I2954J3322D01*
G01*
X92874Y163509D02*
G03*
X91280Y164284I-2700J-3531D01*
G01*
X85137Y158490D02*
G03*
X86372Y156657I4188J1488D01*
G01*
X88220Y164284D02*
G03*
X86626Y163509I1105J-4305D01*
G01*
X93071Y141596D02*
G03*
X94055Y143445I-3322J2954D01*
G01*
X85445D02*
G03*
X93071Y141596I4305J1105D01*
G01*
X86219Y148099D02*
G03*
X85445Y146504I3531J-2700D01*
G01*
X94055D02*
G03*
X86219Y148099I-4305J-1105D01*
G01*
X6548Y250679D02*
G03*
X8396Y249695I2954J3322D01*
G01*
X13050Y257531D02*
G03*
X11456Y258305I-2700J-3531D01*
G01*
Y249695D02*
G03*
X14795Y254000I-1105J4305D01*
G01*
X24144Y258305D02*
G03*
X24144Y249695I1105J-4305D01*
G01*
X27712D02*
G03*
X27712Y258305I-1105J4305D01*
G01*
D18*
X55057Y216965D02*
D03*
X58558D02*
D03*
X62058D02*
D03*
X65558D02*
D03*
X69058D02*
D03*
X72558D02*
D03*
X76058D02*
D03*
X55057Y213465D02*
D03*
X58558D02*
D03*
X62058D02*
D03*
X65558D02*
D03*
X69058D02*
D03*
X72558D02*
D03*
X76058D02*
D03*
X55057Y209965D02*
D03*
X58558D02*
D03*
X62058D02*
D03*
X65558D02*
D03*
X69058D02*
D03*
X72558D02*
D03*
X76058D02*
D03*
X55057Y206465D02*
D03*
X58558D02*
D03*
X62058D02*
D03*
X65558D02*
D03*
X69058D02*
D03*
X72558D02*
D03*
X76058D02*
D03*
X55057Y202965D02*
D03*
X58558D02*
D03*
X62058D02*
D03*
X65558D02*
D03*
X69058D02*
D03*
X72558D02*
D03*
X76058D02*
D03*
X55057Y199464D02*
D03*
X58558D02*
D03*
X62058D02*
D03*
X65558D02*
D03*
X69058D02*
D03*
X72558D02*
D03*
X76058D02*
D03*
D19*
X335500Y141500D02*
D03*
Y163000D02*
D03*
X377500Y141500D02*
D03*
Y163000D02*
D03*
X334500Y197250D02*
D03*
Y218750D02*
D03*
X376500Y197250D02*
D03*
Y218750D02*
D03*
D20*
X23850Y139750D02*
D03*
X18150D02*
D03*
X130325Y229975D02*
D03*
X124625D02*
D03*
X130325Y206225D02*
D03*
X124625D02*
D03*
X130325Y181725D02*
D03*
X124625D02*
D03*
X130325Y157725D02*
D03*
X124625D02*
D03*
X109100Y181000D02*
D03*
X103400D02*
D03*
X109100Y205500D02*
D03*
X103400D02*
D03*
X109100Y229250D02*
D03*
X103400D02*
D03*
X108950Y157000D02*
D03*
X103250D02*
D03*
X76236Y83250D02*
D03*
X70536D02*
D03*
X89387Y83250D02*
D03*
X95087D02*
D03*
X57150Y168750D02*
D03*
X62850D02*
D03*
X164240Y139900D02*
D03*
X169940D02*
D03*
X183567Y106462D02*
D03*
X189266D02*
D03*
X183706Y123766D02*
D03*
X189406D02*
D03*
X268150Y123893D02*
D03*
X273850D02*
D03*
X268150Y133428D02*
D03*
X273850D02*
D03*
X225840Y139750D02*
D03*
X231540D02*
D03*
X268150Y152500D02*
D03*
X273850D02*
D03*
X268150Y142964D02*
D03*
X273850D02*
D03*
X62758Y185715D02*
D03*
X57058D02*
D03*
X68208D02*
D03*
X73908D02*
D03*
X51408Y185715D02*
D03*
X45708D02*
D03*
X129850Y261250D02*
D03*
X124150D02*
D03*
X67708Y230465D02*
D03*
X73408D02*
D03*
X231540Y183500D02*
D03*
X225840D02*
D03*
X231540Y198500D02*
D03*
X225840D02*
D03*
X333850Y250000D02*
D03*
X328150D02*
D03*
X333850Y256250D02*
D03*
X328150D02*
D03*
X333850Y262500D02*
D03*
X328150D02*
D03*
X267900Y298500D02*
D03*
X273600D02*
D03*
X273850Y85750D02*
D03*
X268150D02*
D03*
X268150Y95286D02*
D03*
X273850D02*
D03*
Y104821D02*
D03*
X268150D02*
D03*
X273850Y114357D02*
D03*
X268150D02*
D03*
X24250Y274998D02*
D03*
X29950D02*
D03*
X24250Y292998D02*
D03*
X29950D02*
D03*
X63100Y230500D02*
D03*
X57400D02*
D03*
X63100Y261250D02*
D03*
X57400D02*
D03*
D21*
X14000Y83250D02*
D03*
X48000D02*
D03*
D22*
X82728Y84682D02*
D03*
Y90382D02*
D03*
X179190Y128400D02*
D03*
Y134100D02*
D03*
X190566Y117866D02*
D03*
X190566Y112166D02*
D03*
X196440Y123650D02*
D03*
Y129350D02*
D03*
X190691Y134849D02*
D03*
X190691Y129149D02*
D03*
X89808Y214315D02*
D03*
Y208615D02*
D03*
X354500Y267400D02*
D03*
Y273100D02*
D03*
X170245Y151806D02*
D03*
Y146106D02*
D03*
X41789Y221701D02*
D03*
Y216001D02*
D03*
D23*
X127250Y93500D02*
D03*
Y73000D02*
D03*
X108250D02*
D03*
Y93500D02*
D03*
D24*
X129350Y83250D02*
D03*
X106150D02*
D03*
D25*
X22000Y149250D02*
D03*
X12000D02*
D03*
X22000Y161500D02*
D03*
X12000D02*
D03*
X237440Y155250D02*
D03*
X227440D02*
D03*
X22000Y173500D02*
D03*
X12000D02*
D03*
X161690Y179750D02*
D03*
X151690D02*
D03*
X148440Y199750D02*
D03*
X158440D02*
D03*
X58750Y238250D02*
D03*
X68750D02*
D03*
X139190Y302250D02*
D03*
X129190D02*
D03*
X71940Y303000D02*
D03*
X61940D02*
D03*
X157328Y147183D02*
D03*
X147328D02*
D03*
X161690Y171636D02*
D03*
X151690D02*
D03*
X27750Y282748D02*
D03*
X17750D02*
D03*
X27750Y300750D02*
D03*
X17750D02*
D03*
X27750Y265000D02*
D03*
X17750D02*
D03*
D26*
X74000Y144500D02*
D03*
X57500D02*
D03*
Y160000D02*
D03*
X74000D02*
D03*
D27*
X153275Y112487D02*
D03*
Y123987D02*
D03*
X167775Y112487D02*
D03*
Y123987D02*
D03*
D28*
X258500Y123250D02*
D03*
X255000D02*
D03*
X251500D02*
D03*
X258500Y131750D02*
D03*
X255000D02*
D03*
X251500D02*
D03*
X250625Y93750D02*
D03*
X254125D02*
D03*
X257625D02*
D03*
X250625Y85250D02*
D03*
X254125D02*
D03*
X257625D02*
D03*
D29*
X300611Y152500D02*
D03*
X286641D02*
D03*
X300611Y85750D02*
D03*
X286641D02*
D03*
X300611Y102437D02*
D03*
X286641D02*
D03*
X300611Y119125D02*
D03*
X286641D02*
D03*
X300611Y135813D02*
D03*
X286641D02*
D03*
D30*
X208190Y178750D02*
D03*
Y171750D02*
D03*
Y168250D02*
D03*
Y164750D02*
D03*
Y161250D02*
D03*
Y157750D02*
D03*
Y154250D02*
D03*
Y150750D02*
D03*
Y147250D02*
D03*
X215190Y182250D02*
D03*
Y178750D02*
D03*
Y171750D02*
D03*
Y164750D02*
D03*
Y157750D02*
D03*
Y150750D02*
D03*
Y143750D02*
D03*
X211690Y178750D02*
D03*
Y175250D02*
D03*
Y171750D02*
D03*
Y168250D02*
D03*
Y164750D02*
D03*
Y161250D02*
D03*
Y157750D02*
D03*
Y154250D02*
D03*
Y150750D02*
D03*
Y147250D02*
D03*
Y143750D02*
D03*
X204690Y182250D02*
D03*
Y178750D02*
D03*
Y175250D02*
D03*
Y150750D02*
D03*
Y147250D02*
D03*
Y143750D02*
D03*
X201190Y178750D02*
D03*
Y175250D02*
D03*
Y168250D02*
D03*
Y164750D02*
D03*
Y161250D02*
D03*
Y157750D02*
D03*
Y150750D02*
D03*
Y147250D02*
D03*
X197690Y182250D02*
D03*
Y178750D02*
D03*
Y175250D02*
D03*
Y168250D02*
D03*
Y164750D02*
D03*
Y161250D02*
D03*
Y157750D02*
D03*
Y150750D02*
D03*
Y147250D02*
D03*
Y143750D02*
D03*
X194190Y178750D02*
D03*
Y175250D02*
D03*
Y168250D02*
D03*
Y164750D02*
D03*
Y161250D02*
D03*
Y157750D02*
D03*
Y150750D02*
D03*
Y147250D02*
D03*
X190690Y182250D02*
D03*
Y178750D02*
D03*
Y175250D02*
D03*
X194190Y154250D02*
D03*
X190690Y147250D02*
D03*
Y143750D02*
D03*
X187190Y178750D02*
D03*
Y175250D02*
D03*
Y171750D02*
D03*
Y168250D02*
D03*
Y164750D02*
D03*
Y161250D02*
D03*
Y157750D02*
D03*
Y154250D02*
D03*
Y147250D02*
D03*
X183690Y182250D02*
D03*
Y178750D02*
D03*
Y175250D02*
D03*
Y171750D02*
D03*
Y168250D02*
D03*
Y164750D02*
D03*
Y161250D02*
D03*
Y157750D02*
D03*
Y154250D02*
D03*
Y147250D02*
D03*
Y143750D02*
D03*
X180190Y182250D02*
D03*
Y178750D02*
D03*
Y171750D02*
D03*
Y164750D02*
D03*
Y157750D02*
D03*
Y150750D02*
D03*
Y147250D02*
D03*
Y143750D02*
D03*
X208190Y175250D02*
D03*
X211690Y182250D02*
D03*
D31*
X142690Y178500D02*
D03*
Y168500D02*
D03*
D32*
X163440Y189750D02*
D03*
X149940D02*
D03*
X162190Y157250D02*
D03*
X148690D02*
D03*
D33*
X201500Y209500D02*
D03*
X216000D02*
D03*
D34*
X146390Y289500D02*
D03*
X121790D02*
D03*
Y272500D02*
D03*
X146390D02*
D03*
X79190Y289500D02*
D03*
X54590D02*
D03*
Y272500D02*
D03*
X79190D02*
D03*
D35*
X249039Y287968D02*
D03*
Y282968D02*
D03*
Y277968D02*
D03*
Y272968D02*
D03*
X276979D02*
D03*
Y277968D02*
D03*
Y282968D02*
D03*
Y287968D02*
D03*
D36*
X263009Y280468D02*
D03*
D37*
X321370Y288250D02*
D03*
Y283250D02*
D03*
Y278250D02*
D03*
Y273250D02*
D03*
X344620D02*
D03*
Y278250D02*
D03*
Y283250D02*
D03*
Y288250D02*
D03*
D38*
X328000Y271620D02*
D03*
X333000D02*
D03*
X338000D02*
D03*
Y289880D02*
D03*
X333000D02*
D03*
X328000D02*
D03*
D63*
X49363Y157192D02*
G03*
X49211Y156979I1369J-1135D01*
G01*
X54000Y227750D02*
X58500Y223250D01*
X44250Y253750D02*
X52250Y245750D01*
Y242250D02*
Y245750D01*
X86261Y189239D02*
Y189261D01*
X76058Y199464D02*
X86261Y189261D01*
Y189239D02*
X87250Y188250D01*
X90250Y192500D02*
Y195500D01*
X82785Y202965D02*
X90250Y195500D01*
X92250Y188250D02*
X99500Y181000D01*
X87250Y188250D02*
X92250D01*
X17000Y190947D02*
Y193250D01*
X13539Y187485D02*
X17000Y190947D01*
X13539Y185539D02*
Y187485D01*
X13250Y185250D02*
X13539Y185539D01*
X69000Y203000D02*
X69035Y202965D01*
X69058D01*
X72500Y206500D02*
X72535Y206465D01*
X72558D01*
X65500Y213500D02*
X65535Y213465D01*
X65558D01*
X52250Y234375D02*
X54000Y232625D01*
Y227750D02*
Y232625D01*
X52250Y234375D02*
Y242250D01*
X50500Y229750D02*
X50788Y229461D01*
Y227473D02*
X51664Y226597D01*
X50788Y227473D02*
Y229461D01*
X51664Y226597D02*
X58558Y219704D01*
X58500Y223250D02*
X60250D01*
X62058Y221442D01*
Y216965D02*
Y221442D01*
X46125Y179250D02*
X47750D01*
X39500Y185875D02*
X46125Y179250D01*
X47750D02*
X50000Y177000D01*
X39500Y185875D02*
Y193750D01*
X187190Y171750D02*
X187220D01*
X190479Y168491D02*
X190509D01*
X187220Y171750D02*
X190479Y168491D01*
X187370Y168250D02*
X190474Y165146D01*
X190655D01*
X187190Y168250D02*
X187370D01*
X190401Y171945D02*
X190432Y171914D01*
X190401Y171945D02*
Y172539D01*
X128061Y169475D02*
X128647D01*
X130500Y181549D02*
X130562Y181487D01*
X129194Y170608D02*
Y177194D01*
X128061Y169475D02*
X129194Y170608D01*
Y177194D02*
X130500Y178500D01*
Y181549D01*
X130325Y181725D02*
X130500Y181549D01*
X214734Y147706D02*
X216206D01*
X211690Y150750D02*
X214734Y147706D01*
X216206D02*
X216250Y147750D01*
X219281Y151931D02*
X219690D01*
X215190Y150750D02*
X215321Y150881D01*
X218231D01*
X219281Y151931D01*
X76058Y213465D02*
X83965D01*
X45708Y190208D02*
X47250Y191750D01*
X45708Y185715D02*
Y190208D01*
X258500Y131000D02*
Y131750D01*
X263044Y130508D02*
X263302Y130250D01*
X258500Y131000D02*
X258992Y130508D01*
X263044D01*
X251500Y122500D02*
Y123250D01*
X251008Y122008D02*
X251500Y122500D01*
X250258Y122008D02*
X251008D01*
X250091Y121841D02*
X250258Y122008D01*
X246698Y121553D02*
X246987Y121841D01*
X250091D01*
X194250Y168000D02*
Y168250D01*
X181642Y118028D02*
X183706Y120091D01*
X181642Y116500D02*
Y118028D01*
X179990Y119510D02*
X181354Y118146D01*
X183706Y120091D02*
Y123766D01*
X179190Y121121D02*
X179990Y120321D01*
Y119510D02*
Y120321D01*
X179190Y121121D02*
Y128400D01*
X34301Y194051D02*
X43215Y202965D01*
X33301Y194051D02*
X34301D01*
X29500Y190250D02*
X33301Y194051D01*
X43215Y202965D02*
X55057D01*
X135572Y164766D02*
X135860Y165054D01*
X135572Y163122D02*
Y164766D01*
X129992Y157542D02*
X135572Y163122D01*
X98550Y159076D02*
X99634Y157992D01*
X102408D01*
X103250Y157150D01*
Y157000D02*
Y157150D01*
X98142Y159076D02*
X98550D01*
X79750Y220657D02*
Y226597D01*
X76058Y216965D02*
X79750Y220657D01*
X58558Y216965D02*
Y219704D01*
X40500Y210250D02*
X40785Y209965D01*
X55057D01*
X42715Y206465D02*
X55057D01*
X35750Y199500D02*
X42715Y206465D01*
X194190Y168250D02*
X194250D01*
X22000Y149250D02*
X22462Y148788D01*
X29228D01*
X158409Y302250D02*
X162409Y298250D01*
X139190Y302250D02*
X158409D01*
X162409Y298250D02*
X164250D01*
X94118Y298500D02*
X96500D01*
X89618Y303000D02*
X94118Y298500D01*
X71940Y303000D02*
X89618D01*
X29250Y173500D02*
X30250Y172500D01*
X22000Y173500D02*
X29250D01*
X29250Y160250D02*
X29500D01*
X28000Y161500D02*
X29250Y160250D01*
X22000Y161500D02*
X28000D01*
X22000Y141750D02*
Y149250D01*
Y141750D02*
X23850Y139900D01*
Y139750D02*
Y139900D01*
X50000Y158000D02*
Y177000D01*
X49363Y157192D02*
X49363Y157363D01*
X48924Y156506D02*
X49211Y156979D01*
X44607Y148607D02*
X48854Y152854D01*
Y156165D01*
X48924Y156506D01*
X49363Y157363D02*
X50000Y158000D01*
X48854Y156854D02*
X49277Y157277D01*
X44791Y156854D02*
X48854D01*
X41510Y148607D02*
X44607D01*
X41260Y156854D02*
X44791D01*
X56250Y180413D02*
Y181000D01*
X57058Y181808D02*
Y185715D01*
X56250Y181000D02*
X57058Y181808D01*
X354500Y273100D02*
X354977Y272623D01*
X354425Y273175D02*
X354500Y273100D01*
X278463Y298039D02*
X278752Y297750D01*
X273600Y298500D02*
X274062Y298039D01*
X278463D01*
X277990Y287968D02*
X278752Y288730D01*
Y297750D01*
X276979Y287968D02*
X277990D01*
X338000Y278745D02*
X343495Y273250D01*
X344620D01*
X338000Y278745D02*
Y289880D01*
X328150Y250000D02*
Y256250D01*
Y262500D02*
X328150Y262500D01*
X328150Y256250D02*
Y262500D01*
X333850Y256250D02*
X341750D01*
X322250Y263000D02*
X322750Y262500D01*
X328150D01*
X328075Y262575D02*
Y271545D01*
X328000Y271620D02*
X328075Y271545D01*
X360000Y270250D02*
X360250D01*
X354977Y272623D02*
X357627D01*
X360000Y270250D01*
X344620Y273250D02*
X344695Y273175D01*
X354425D01*
X55057Y206465D02*
X58558D01*
X227500Y134000D02*
X227500D01*
X225840Y135660D02*
Y139750D01*
Y135660D02*
X227500Y134000D01*
X228000Y148000D02*
Y154690D01*
X227440Y155250D02*
X228000Y154690D01*
X228000Y190750D02*
X232000D01*
X225840Y188590D02*
X228000Y190750D01*
X225840Y183500D02*
Y188590D01*
Y202840D02*
X228000Y205000D01*
X225840Y198500D02*
Y202840D01*
X169940Y135940D02*
Y139900D01*
X169000Y135000D02*
X169940Y135940D01*
X169000Y134598D02*
Y135000D01*
X115595Y176973D02*
Y178778D01*
Y176973D02*
X115883Y176685D01*
X109100Y181000D02*
X109817D01*
X109942Y180875D01*
X113498D02*
X115595Y178778D01*
X109942Y180875D02*
X113498D01*
X115547Y220616D02*
X116000Y221069D01*
X115547Y216028D02*
Y220616D01*
X116000Y221069D02*
Y225248D01*
X119993Y206225D02*
X124625D01*
X118813Y207405D02*
X119993Y206225D01*
X118405Y207405D02*
X118813D01*
X119640Y184309D02*
X122225Y181725D01*
X119640Y184309D02*
Y184341D01*
X121963Y157787D02*
X124562D01*
X119250Y160500D02*
X121963Y157787D01*
X124512Y229862D02*
X124625Y229975D01*
X118612Y229862D02*
X124512D01*
X96000Y201050D02*
X100123Y205173D01*
X103073D01*
X103400Y205500D01*
X96000Y190000D02*
Y201050D01*
X103400Y205500D02*
Y205650D01*
X84250Y182750D02*
X91750D01*
X72558Y194442D02*
X84250Y182750D01*
X99500Y181000D02*
X103400D01*
X109942Y228258D02*
X112990D01*
X109100Y229100D02*
Y229250D01*
Y229100D02*
X109942Y228258D01*
X112990D02*
X116000Y225248D01*
X113000Y205500D02*
X115250Y203250D01*
X109100Y205500D02*
X113000D01*
X115250Y196000D02*
Y203250D01*
X113750Y157000D02*
X118000Y152750D01*
X108950Y157000D02*
X113750D01*
X133998Y206225D02*
X137250Y202973D01*
X130325Y206225D02*
X133998D01*
X137250Y195750D02*
Y202973D01*
X130325Y229975D02*
X134248D01*
X136452Y227770D01*
Y211798D02*
Y227770D01*
X135263Y181487D02*
X135500Y181250D01*
X130562Y181487D02*
X135263D01*
X129992Y157392D02*
Y157542D01*
X124625Y202220D02*
Y206225D01*
X124030Y201625D02*
X124625Y202220D01*
X122875Y201625D02*
X124030D01*
X127475Y193975D02*
X128936Y192513D01*
X131167Y182717D02*
X131317D01*
X130325Y181725D02*
Y181875D01*
X131167Y182717D01*
X122225Y181725D02*
X124625D01*
X119975Y198725D02*
X122875Y201625D01*
X124562Y157787D02*
X124625Y157725D01*
X103400Y181000D02*
Y181150D01*
X107750Y192000D02*
Y193000D01*
X102558Y181992D02*
X103400Y181150D01*
X102558Y206492D02*
X103400Y205650D01*
X102408Y206492D02*
X102558D01*
X106250Y216250D02*
X107250D01*
X97625Y229375D02*
X103275D01*
X103400Y229250D01*
X106500Y168500D02*
X108469Y170469D01*
X111158D01*
X57408Y188918D02*
Y189268D01*
X68208Y188918D02*
Y191042D01*
X57408Y189268D02*
X62058Y193917D01*
X69058Y194192D02*
X73908Y189342D01*
X65558Y193692D02*
X68208Y191042D01*
X65558Y193692D02*
Y199464D01*
X39500Y193750D02*
X45215Y199464D01*
X62058Y193917D02*
Y199464D01*
X69058Y194192D02*
Y199464D01*
X72558Y194442D02*
Y199464D01*
X45215D02*
X55057D01*
X73908Y185715D02*
Y189342D01*
X76058Y202965D02*
X82785D01*
X85500Y204250D02*
X89000D01*
X83285Y206465D02*
X85500Y204250D01*
X76058Y206465D02*
X83285D01*
X76058Y209965D02*
X84035D01*
X189901Y172539D02*
X190401D01*
X187190Y175250D02*
X189901Y172539D01*
X197690Y172000D02*
X197815D01*
X201190D02*
X201315D01*
X194190D02*
X194315D01*
X197565Y175250D01*
X197815Y172000D02*
X201065Y175250D01*
X201315Y172000D02*
X204565Y175250D01*
X204690D01*
X197565D02*
X197690D01*
X201065D02*
X201190D01*
X208065D02*
X208190D01*
X204815Y172000D02*
X208065Y175250D01*
X215190Y182250D02*
X217940Y185000D01*
X298500Y192500D02*
Y193000D01*
X187315Y164750D02*
X190565Y161500D01*
X187190Y164750D02*
X187315D01*
X286641Y102437D02*
Y108609D01*
X286000Y109250D02*
X286641Y108609D01*
X282000Y109250D02*
X286000D01*
X276893Y114357D02*
X282000Y109250D01*
X273850Y114357D02*
X276893D01*
X50311Y213465D02*
X55057D01*
X47775Y216001D02*
X50311Y213465D01*
X47749Y216001D02*
X47775D01*
X51785Y216965D02*
X55057D01*
X47250Y221500D02*
X51785Y216965D01*
X65558D02*
Y223692D01*
X62411Y226839D02*
X65558Y223692D01*
X59008Y226839D02*
X62411D01*
X57750Y228097D02*
X59008Y226839D01*
X57750Y228097D02*
Y230150D01*
X57400Y230500D02*
X57750Y230150D01*
X72558Y216965D02*
Y225992D01*
X69058Y216965D02*
Y226192D01*
D64*
X76250Y253750D02*
D03*
X44250D02*
D03*
X106500Y193250D02*
D03*
X17000D02*
D03*
X106250Y217250D02*
D03*
X17000D02*
D03*
X127475Y217975D02*
D03*
Y193975D02*
D03*
Y169475D02*
D03*
Y145725D02*
D03*
X106000Y145000D02*
D03*
Y168750D02*
D03*
X164590Y263000D02*
D03*
Y280750D02*
D03*
X96500Y263000D02*
D03*
Y280750D02*
D03*
Y298500D02*
D03*
X164590D02*
D03*
X228250Y263000D02*
D03*
X298440Y228250D02*
D03*
Y193250D02*
D03*
Y175750D02*
D03*
Y210750D02*
D03*
Y245750D02*
D03*
X298440Y263250D02*
D03*
X228250Y280500D02*
D03*
Y298250D02*
D03*
X298440Y280750D02*
D03*
X368000D02*
D03*
X298440Y298250D02*
D03*
X368000D02*
D03*
D65*
X41510Y148607D02*
D03*
Y141850D02*
D03*
X41260Y163103D02*
D03*
Y156854D02*
D03*
X86626Y159978D02*
D03*
X92874D02*
D03*
X89750Y141850D02*
D03*
Y148099D02*
D03*
X6802Y254000D02*
D03*
X13050D02*
D03*
X22550D02*
D03*
X29306D02*
D03*
D66*
X206081Y195755D02*
X206343D01*
X202265Y191939D02*
X206081Y195755D01*
X204690Y188541D02*
X206149Y190000D01*
X181745Y136655D02*
Y138969D01*
X181847Y139071D01*
X180165Y135075D02*
X181745Y136655D01*
X148690Y146320D02*
Y157250D01*
X214147Y160160D02*
X232030D01*
X236940Y155250D02*
X237440D01*
X232030Y160160D02*
X236940Y155250D01*
X171030Y167738D02*
X171612Y167156D01*
X181299D01*
X179012Y164874D02*
X180066D01*
X171030Y165041D02*
X178845D01*
X157202D02*
X171030D01*
X180066Y164874D02*
X180190Y164750D01*
X150898Y171345D02*
X157202Y165041D01*
X178845D02*
X179012Y164874D01*
X172160Y169530D02*
X181470D01*
X167440Y174250D02*
X172160Y169530D01*
X170887Y167595D02*
X171030Y167738D01*
X181299Y167156D02*
X182269Y168126D01*
X156690Y168957D02*
X158052Y167595D01*
X182269Y168126D02*
X183566D01*
X183690Y168250D01*
X158052Y167595D02*
X170887D01*
X156690Y168957D02*
Y178250D01*
X202265Y139235D02*
X213250Y128250D01*
Y125000D02*
Y128250D01*
X196420Y129782D02*
X196570D01*
X197395Y128957D01*
X157940Y199750D02*
Y204000D01*
X142940Y168000D02*
Y168500D01*
X341625Y250125D02*
X341750Y250250D01*
X333850Y250000D02*
X333975Y250125D01*
X341625D01*
X214750Y198500D02*
X225840D01*
X209328Y193078D02*
X214750Y198500D01*
X193532Y189658D02*
X194190Y189000D01*
X193250Y193750D02*
X193532Y193468D01*
Y189658D02*
Y193468D01*
X202265Y179825D02*
Y191939D01*
X208750Y202388D02*
Y208449D01*
X200115Y193753D02*
X208750Y202388D01*
Y208449D02*
X209802Y209500D01*
X216000D01*
X200115Y181175D02*
Y189447D01*
Y193753D01*
X197690Y182250D02*
Y194250D01*
X201500Y198060D02*
Y209500D01*
X197690Y194250D02*
X201500Y198060D01*
X201246Y126504D02*
Y126932D01*
Y126504D02*
X201500Y126250D01*
X213750Y190548D02*
Y190947D01*
X211637Y187228D02*
Y188436D01*
X209807Y185398D02*
X211637Y187228D01*
Y188436D02*
X213750Y190548D01*
X209807Y180543D02*
Y185398D01*
X208190Y178750D02*
Y178926D01*
X209807Y180543D01*
X211690Y182250D02*
X214028Y184588D01*
Y186373D01*
X214310Y186655D01*
X209328Y189388D02*
Y193078D01*
X207115Y187175D02*
X209328Y189388D01*
X207115Y181175D02*
Y187175D01*
X197690Y164560D02*
X197750Y164500D01*
X197690Y164560D02*
Y164750D01*
X176115Y138015D02*
X180190Y142091D01*
X174015Y138885D02*
X177765Y142635D01*
X170040Y140000D02*
X170230Y140190D01*
X172350D02*
X175665Y143505D01*
X170230Y140190D02*
X172350D01*
X180190Y142091D02*
Y143750D01*
X169940Y126250D02*
X170440D01*
X171878Y127688D01*
Y127688D01*
Y127688D02*
X172665Y128475D01*
X171878Y127688D02*
X172665Y128475D01*
Y128475D02*
Y128475D01*
X176115Y131925D01*
X162115Y130675D02*
X171628D01*
X174015Y133062D01*
X200490Y127688D02*
X201246Y126932D01*
X198514Y127688D02*
X200490D01*
X197395Y128807D02*
X198514Y127688D01*
X197395Y128807D02*
Y128957D01*
X212583Y135667D02*
X225125Y123125D01*
X216333Y135667D02*
X224500Y127500D01*
X180165Y134925D02*
Y135075D01*
X176115Y131925D02*
Y132192D01*
Y133750D01*
X176115D02*
X176115D01*
X174015Y133062D02*
Y134500D01*
X179190Y134100D02*
X179340D01*
X174015Y134500D02*
X174015Y134500D01*
X179340Y134100D02*
X180165Y134925D01*
X176115Y133750D02*
Y138015D01*
X174015Y134500D02*
Y138885D01*
X196420Y129782D02*
Y134899D01*
X202500Y131750D02*
Y135667D01*
X194883Y136436D02*
X196420Y134899D01*
X202500Y135667D02*
Y135750D01*
X194679Y136436D02*
X194883D01*
X197733Y136832D02*
X198499Y136066D01*
X200115Y138135D02*
X202500Y135750D01*
X193143Y137972D02*
X194679Y136436D01*
X204690Y139810D02*
X208833Y135667D01*
X207115Y141135D02*
X212583Y135667D01*
X209265Y142735D02*
X216333Y135667D01*
X197733Y136832D02*
Y143707D01*
X181745Y140305D02*
X183690Y142250D01*
X193143Y137972D02*
Y144797D01*
X200115Y138135D02*
Y144825D01*
X204690Y139810D02*
Y143750D01*
X195438Y138923D02*
Y145826D01*
X202265Y139235D02*
Y146175D01*
X252000Y101750D02*
X254250Y99500D01*
X256250Y101500D02*
X259250D01*
X242750Y101750D02*
X252000D01*
X264500Y104750D02*
X267494D01*
X267641Y104896D01*
X257000Y112250D02*
X264500Y104750D01*
X264750Y114250D02*
X268043D01*
X257000Y112250D02*
Y117828D01*
X258500Y120500D02*
X264750Y114250D01*
X237750Y117750D02*
X252922D01*
X208833Y135667D02*
X242750Y101750D01*
X252922Y117750D02*
X255000Y119828D01*
X257000Y117828D01*
X232375Y123125D02*
X237750Y117750D01*
X255000Y119828D02*
Y123250D01*
X258500Y120500D02*
Y123250D01*
X225125Y123125D02*
X232375D01*
X258500Y123250D02*
X258500Y123250D01*
X264857Y123893D02*
X268150D01*
X263500Y125250D02*
X264857Y123893D01*
X263500Y125250D02*
Y126250D01*
X262250Y127500D02*
X263500Y126250D01*
X256500Y127500D02*
X262250D01*
X224500Y127500D02*
X253500D01*
X255000Y129000D02*
X256500Y127500D01*
X253500Y127500D02*
X255000Y129000D01*
Y131750D01*
X251500D02*
X251575Y131825D01*
X263750Y133250D02*
X267972D01*
X268150Y133428D01*
X251575Y131825D02*
Y135075D01*
X261250Y135750D02*
X263750Y133250D01*
X251575Y135075D02*
X252250Y135750D01*
X261250D01*
X153638Y112948D02*
X154138D01*
X160940Y119750D01*
Y129500D02*
X162115Y130675D01*
X160940Y119750D02*
Y129500D01*
X295750Y151750D02*
X297000D01*
X281250Y146000D02*
X293000D01*
X294250Y147250D01*
X279750Y147500D02*
X281250Y146000D01*
X279750Y147500D02*
Y148500D01*
X294250Y147250D02*
Y150250D01*
X276160Y152090D02*
X279750Y148500D01*
X294250Y150250D02*
X295750Y151750D01*
X274260Y152090D02*
X276160D01*
X273850Y152500D02*
X274260Y152090D01*
X213057Y161250D02*
X214147Y160160D01*
X211690Y161250D02*
X213057D01*
X222893Y162500D02*
X243500D01*
X214010D02*
X218895D01*
X222835Y162558D02*
X222893Y162500D01*
X218895D02*
X218953Y162558D01*
X222835D01*
X211760Y164750D02*
X214010Y162500D01*
X211690Y164750D02*
X211760D01*
X215190Y164750D02*
X241250D01*
X214077Y167160D02*
X239344D01*
X213111Y168126D02*
X214077Y167160D01*
X211814Y168126D02*
X213111D01*
X211690Y168250D02*
X211814Y168126D01*
X213985Y169455D02*
X236455D01*
X211690Y171750D02*
X213985Y169455D01*
X215190Y171750D02*
X234500D01*
X147115Y175128D02*
X150898Y171345D01*
X176759Y174259D02*
X182121D01*
X182987Y175126D01*
X183566D01*
X183690Y175250D01*
X166915Y180767D02*
X175932Y171750D01*
X177615Y176325D02*
X181265D01*
X176690Y177250D02*
X177615Y176325D01*
X170690Y180328D02*
X176759Y174259D01*
X181265Y176325D02*
X183690Y178750D01*
X155650Y179290D02*
X156690Y178250D01*
X151690Y179750D02*
X152150Y179290D01*
X155650D01*
X201190Y178750D02*
X202265Y179825D01*
X147115Y175128D02*
Y184925D01*
X150190Y188000D01*
X197690Y178750D02*
X200115Y181175D01*
X163690Y188000D02*
X166915Y184775D01*
Y180767D02*
Y184775D01*
X194190Y178750D02*
Y189000D01*
X204690Y182250D02*
Y188541D01*
X170690Y180328D02*
Y193500D01*
X164440Y199750D02*
X170690Y193500D01*
X158440Y199750D02*
X164440D01*
X155940Y206000D02*
X157940Y204000D01*
X204690Y178750D02*
X207115Y181175D01*
X211690Y175250D02*
X212765Y174175D01*
X211690Y178750D02*
X214115Y176325D01*
X212765Y174175D02*
X218276D01*
X218285Y174184D01*
X232934D01*
X241250Y164750D02*
X260332Y183832D01*
X239344Y167160D02*
X256650Y184466D01*
X214115Y176325D02*
X217408D01*
X236455Y169455D02*
X252232Y185232D01*
X217408Y176325D02*
X220533Y179450D01*
X234500Y171750D02*
X248182Y185432D01*
X220533Y179450D02*
X227640D01*
X232934Y174184D02*
X243876Y185126D01*
X227640Y179450D02*
X229190Y181000D01*
Y183150D01*
X229540Y183500D01*
X231540D01*
X248182Y185432D02*
Y239932D01*
X243876Y185126D02*
Y241376D01*
X252743Y250243D01*
X228250Y263000D02*
X240000D01*
X240750Y263750D01*
Y275250D01*
X243468Y277968D01*
X249039D02*
X249312Y277695D01*
X243468Y277968D02*
X249039D01*
X243500Y162500D02*
X264382Y183382D01*
X248182Y239932D02*
X257050Y248800D01*
X256650Y184466D02*
Y235150D01*
X260332Y231582D02*
X269200Y240450D01*
X264382Y227882D02*
X273250Y236750D01*
X260332Y183832D02*
Y231582D01*
X252232Y185232D02*
Y237482D01*
X264382Y183382D02*
Y227882D01*
X252232Y237482D02*
X261100Y246350D01*
X256650Y235150D02*
X265518Y244018D01*
X273250Y236750D02*
Y257750D01*
X269200Y240450D02*
Y263950D01*
X252743Y250243D02*
Y260993D01*
X265518Y244018D02*
Y268518D01*
X257050Y248800D02*
Y264450D01*
X261100Y246350D02*
Y268400D01*
X252743Y260993D02*
X252750Y261000D01*
X269200Y263950D02*
X270698Y265448D01*
X255750Y265750D02*
X257050Y264450D01*
X285635Y267011D02*
X289396Y263250D01*
X285222Y267011D02*
X285635D01*
X259116Y270384D02*
X261100Y268400D01*
X265518Y268518D02*
X267500Y270500D01*
X279265Y272968D02*
X285222Y267011D01*
X276250Y267750D02*
Y272238D01*
X255750Y265750D02*
Y275500D01*
X270698Y265448D02*
Y276006D01*
X276250Y272238D02*
X276979Y272968D01*
X279265D01*
X267500Y270500D02*
Y279250D01*
X259116Y270384D02*
Y279384D01*
X253555Y277695D02*
X255750Y275500D01*
X270698Y276006D02*
X272463Y277772D01*
X249312Y277695D02*
X253555D01*
X272463Y277772D02*
X276783D01*
X276979Y277968D01*
X293236D01*
X289396Y263250D02*
X298440D01*
X315750Y273000D02*
X316000Y273250D01*
X321370D01*
X352875Y278125D02*
X353000Y278000D01*
X344745Y278125D02*
X352875D01*
X293236Y277968D02*
X296018Y280750D01*
X228250Y280500D02*
X240250D01*
X296018Y280750D02*
X298440D01*
X267500Y279250D02*
X271218Y282968D01*
X255532D02*
X259116Y279384D01*
X240250Y280500D02*
X242718Y282968D01*
X276979D02*
X283740D01*
X242718D02*
X249039D01*
X255532D01*
X271218D02*
X276979D01*
X249023Y287984D02*
X249039Y287968D01*
X240766Y287984D02*
X249023D01*
X240750Y288000D02*
X240766Y287984D01*
X283740Y282968D02*
X298440Y297668D01*
X234449Y294301D02*
X240750Y288000D01*
X233600Y294301D02*
X234449D01*
X229651Y298250D02*
X233600Y294301D01*
X228250Y298250D02*
X229651D01*
X344620Y278250D02*
X344745Y278125D01*
X368000Y280750D02*
Y280750D01*
X352500Y296250D02*
X368000Y280750D01*
X333000Y289880D02*
Y294273D01*
X328000Y289880D02*
Y297000D01*
X333000Y294273D02*
X334977Y296250D01*
X352500D01*
X298440Y297668D02*
Y298250D01*
X359250Y298000D02*
X368000D01*
X328000Y297000D02*
X332500Y301500D01*
X355750D02*
X359250Y298000D01*
X332500Y301500D02*
X355750D01*
X173565Y144397D02*
Y147024D01*
X152548Y143141D02*
X172309D01*
X173565Y144397D01*
X150482Y145208D02*
X152548Y143141D01*
X149803Y145208D02*
X150482D01*
X148690Y146320D02*
X149803Y145208D01*
X170190Y146150D02*
X170340D01*
X171165Y146975D01*
Y147594D01*
X173817Y153123D02*
Y153123D01*
X173565Y147024D02*
X176168Y149627D01*
X171165Y147594D02*
X173365Y149794D01*
Y152670D01*
X173817Y153123D01*
X183690Y142250D02*
Y143750D01*
X177765Y142635D02*
Y144825D01*
X175665Y143505D02*
Y146154D01*
X177765Y144825D02*
X180190Y147250D01*
X175665Y146154D02*
X179185Y149675D01*
X179250D01*
X180190Y150615D01*
X176168Y149627D02*
Y151668D01*
X180190Y150615D02*
Y150750D01*
X176168Y151668D02*
X177675Y153175D01*
X179940D01*
X179940Y153175D01*
X182615D01*
X183690Y154250D01*
X173817Y153123D02*
X176020Y155325D01*
X181265D01*
X162190Y157250D02*
Y157500D01*
X165415Y160725D01*
X177666Y160875D02*
X178365Y160175D01*
X165415Y160725D02*
X165665D01*
X165815Y160875D01*
X177666D01*
X178535Y162975D02*
X179186Y162325D01*
X148465Y162975D02*
X178535D01*
X145415Y166025D02*
X148465Y162975D01*
X181265Y155325D02*
X183690Y157750D01*
X178365Y160175D02*
X182615D01*
X183690Y161250D01*
X179186Y162325D02*
X181265D01*
X183690Y164750D01*
X181470Y169530D02*
X183690Y171750D01*
X207115Y141135D02*
Y144825D01*
X197690Y143750D02*
X197733Y143707D01*
X209265Y142735D02*
Y146175D01*
X190690Y147250D02*
X193143Y144797D01*
X197690Y147250D02*
X200115Y144825D01*
X204690Y147250D02*
X207115Y144825D01*
X194190Y147074D02*
X195438Y145826D01*
X201190Y147250D02*
X202265Y146175D01*
X208190Y147250D02*
X209265Y146175D01*
X194190Y147074D02*
Y147250D01*
X175932Y171750D02*
X180190D01*
X144915Y166025D02*
X145415D01*
X142940Y168000D02*
X144915Y166025D01*
X257625Y85250D02*
X263750D01*
X264344Y85844D01*
X268056D01*
X254125Y93750D02*
X254250Y93875D01*
X265464Y95286D02*
X268150D01*
X254250Y93875D02*
Y99500D01*
X259250Y101500D02*
X265464Y95286D01*
X254250Y99500D02*
X256250Y101500D01*
X273850Y85750D02*
X286641D01*
X268056Y85844D02*
X268150Y85750D01*
X268043Y114250D02*
X268150Y114357D01*
X286641Y119125D02*
Y126885D01*
X286026Y127500D02*
X286641Y126885D01*
X282000Y127500D02*
X286026D01*
X276160Y133340D02*
X282000Y127500D01*
X273938Y133340D02*
X276160D01*
X273850Y133428D02*
X273938Y133340D01*
X295459Y135813D02*
X300611D01*
X294430Y136841D02*
X295459Y135813D01*
X294430Y136841D02*
Y141570D01*
X293036Y142964D02*
X294430Y141570D01*
X273850Y142964D02*
X293036D01*
D67*
X184840Y123750D02*
Y137650D01*
X187190Y140000D01*
Y147250D01*
Y149795D01*
X190690Y153295D01*
Y155205D01*
X193235Y157750D01*
X194190D01*
D68*
X48000Y83250D02*
X69318D01*
X190691Y118699D02*
Y128076D01*
X106150Y83250D02*
X107500D01*
X96231D02*
X106150D01*
X77417D02*
X88251D01*
X190540Y96334D02*
Y106500D01*
X177456Y83250D02*
X190540Y96334D01*
X129350Y83250D02*
X177456D01*
X190540Y106500D02*
Y111244D01*
X190631Y111335D01*
D69*
X41510Y141850D02*
Y148607D01*
X22550Y254000D02*
X29306D01*
D70*
X169940Y139900D02*
X170040Y140000D01*
D71*
X183667Y182273D02*
X183690Y182250D01*
X183667Y182273D02*
Y188023D01*
X177432Y194258D02*
X183667Y188023D01*
X177432Y194258D02*
Y196818D01*
X176250Y198000D02*
X177432Y196818D01*
D72*
X146390Y272500D02*
X153590Y279700D01*
X163540D01*
X164590Y280750D01*
X79190Y272500D02*
X87440Y280750D01*
X96500D01*
X78425Y290265D02*
X79190Y289500D01*
X69485Y290265D02*
X78425D01*
X129190Y302250D02*
X129690D01*
X145625Y290265D02*
X146390Y289500D01*
X136985Y290265D02*
X145625D01*
X130190Y297060D02*
X136985Y290265D01*
X130190Y297060D02*
Y301750D01*
X129690Y302250D02*
X130190Y301750D01*
X62940Y296810D02*
X69485Y290265D01*
X62940Y296810D02*
Y302500D01*
X62440Y303000D02*
X62940Y302500D01*
X61940Y303000D02*
X62440D01*
D73*
X197690Y163000D02*
D03*
D74*
X356640Y94150D02*
D03*
Y132250D02*
D03*
D75*
X199782Y346261D02*
D03*
Y36261D02*
D03*
D76*
X394750Y84500D02*
D03*
X389750Y74500D02*
D03*
X384750Y84500D02*
D03*
X379750Y74500D02*
D03*
X374750Y84500D02*
D03*
X369750Y74500D02*
D03*
X364750Y84500D02*
D03*
X359750Y74500D02*
D03*
X354750Y84500D02*
D03*
X349750Y74500D02*
D03*
X344750Y84500D02*
D03*
X339750Y74500D02*
D03*
X334750Y84500D02*
D03*
X329750Y74500D02*
D03*
X324750Y84500D02*
D03*
X319750Y74500D02*
D03*
X314750Y84500D02*
D03*
X309750Y74500D02*
D03*
X299750D02*
D03*
X289750D02*
D03*
X279750D02*
D03*
X269750D02*
D03*
X259750D02*
D03*
X249750Y114500D02*
D03*
X254750Y104500D02*
D03*
X249750Y74500D02*
D03*
X239750Y114500D02*
D03*
Y94500D02*
D03*
X244750Y84500D02*
D03*
X239750Y74500D02*
D03*
X234750Y104500D02*
D03*
X229750Y94500D02*
D03*
X234750Y84500D02*
D03*
X229750Y74500D02*
D03*
X224750Y324500D02*
D03*
Y104500D02*
D03*
X219750Y94500D02*
D03*
X224750Y84500D02*
D03*
X219750Y74500D02*
D03*
X224750Y64500D02*
D03*
X219750Y54500D02*
D03*
X224750Y44500D02*
D03*
Y24500D02*
D03*
X214750Y324500D02*
D03*
Y104500D02*
D03*
X209750Y94500D02*
D03*
X214750Y84500D02*
D03*
X209750Y74500D02*
D03*
X214750Y64500D02*
D03*
X204750Y104500D02*
D03*
Y84500D02*
D03*
X199750Y74500D02*
D03*
X204750Y64500D02*
D03*
X194750Y164500D02*
D03*
X189750Y74500D02*
D03*
X194750Y64500D02*
D03*
X184750Y324500D02*
D03*
Y64500D02*
D03*
X179750Y54500D02*
D03*
X174750Y324500D02*
D03*
X169750Y314500D02*
D03*
Y274500D02*
D03*
Y234500D02*
D03*
X174750Y64500D02*
D03*
Y44500D02*
D03*
Y24500D02*
D03*
X159750Y234500D02*
D03*
X164750Y224500D02*
D03*
X149750Y234500D02*
D03*
X154750Y224500D02*
D03*
X144750D02*
D03*
X139750Y214500D02*
D03*
Y114500D02*
D03*
X134750Y124500D02*
D03*
X129750Y114500D02*
D03*
X134750Y104500D02*
D03*
X119750Y134500D02*
D03*
X124750Y124500D02*
D03*
X119750Y114500D02*
D03*
X124750Y104500D02*
D03*
X109750Y134500D02*
D03*
X114750Y124500D02*
D03*
X109750Y114500D02*
D03*
X114750Y104500D02*
D03*
X99750Y134500D02*
D03*
X104750Y124500D02*
D03*
X99750Y114500D02*
D03*
X104750Y104500D02*
D03*
X89750Y134500D02*
D03*
X94750Y124500D02*
D03*
X89750Y114500D02*
D03*
X94750Y104500D02*
D03*
X79750Y134500D02*
D03*
X84750Y124500D02*
D03*
X79750Y114500D02*
D03*
X84750Y104500D02*
D03*
X69750Y134500D02*
D03*
X74750Y124500D02*
D03*
Y104500D02*
D03*
X49750Y194500D02*
D03*
X9750Y214500D02*
D03*
X314250Y169750D02*
D03*
X309750Y182750D02*
D03*
D77*
X76000Y253750D02*
D03*
X85000Y261500D02*
D03*
X100000Y245250D02*
D03*
X32250Y246000D02*
D03*
X105000Y243500D02*
D03*
X22750Y166750D02*
D03*
X16750Y217500D02*
D03*
X90250Y192500D02*
D03*
X13250Y185250D02*
D03*
X69000Y203000D02*
D03*
X72500Y206500D02*
D03*
X65500Y213500D02*
D03*
X50500Y229750D02*
D03*
X317278Y211228D02*
D03*
X206149Y190000D02*
D03*
X204818Y158000D02*
D03*
Y161500D02*
D03*
Y165000D02*
D03*
Y168500D02*
D03*
X204815Y172000D02*
D03*
X194190D02*
D03*
X190509Y168491D02*
D03*
X190655Y165146D02*
D03*
X190432Y171914D02*
D03*
X176168Y151668D02*
D03*
X181847Y139071D02*
D03*
X223750Y147250D02*
D03*
X216250Y147750D02*
D03*
X219690Y151931D02*
D03*
X83965Y213465D02*
D03*
X47250Y191750D02*
D03*
X263302Y130250D02*
D03*
X246698Y121553D02*
D03*
X266500Y310500D02*
D03*
X28500Y139250D02*
D03*
X34750Y189500D02*
D03*
X9500Y204500D02*
D03*
X5250Y246500D02*
D03*
X115500Y242000D02*
D03*
X125250Y237000D02*
D03*
X26000Y194250D02*
D03*
X29500Y167250D02*
D03*
Y154750D02*
D03*
X116000Y147500D02*
D03*
X98250Y164750D02*
D03*
X91500Y199750D02*
D03*
X93500Y178250D02*
D03*
X137750Y188250D02*
D03*
X114500Y189000D02*
D03*
X112500Y210500D02*
D03*
X181642Y116500D02*
D03*
X167440Y174250D02*
D03*
X172542Y157750D02*
D03*
X160350Y139900D02*
D03*
X149250Y138750D02*
D03*
X202750Y120500D02*
D03*
X237000Y146750D02*
D03*
X231540Y139750D02*
D03*
X289250Y165500D02*
D03*
X287750Y175250D02*
D03*
X308000Y261000D02*
D03*
X288500Y245500D02*
D03*
X308250Y227500D02*
D03*
X289250Y210500D02*
D03*
X289000Y192250D02*
D03*
X305903Y204476D02*
D03*
X375000Y289750D02*
D03*
X284250Y295000D02*
D03*
X283750Y301000D02*
D03*
X241750Y294000D02*
D03*
X235750Y286500D02*
D03*
X157500Y308000D02*
D03*
X87000Y295500D02*
D03*
X246750Y262500D02*
D03*
X279000Y262000D02*
D03*
X318000Y267750D02*
D03*
X303500Y78750D02*
D03*
X136000Y171500D02*
D03*
X117459Y166481D02*
D03*
X101250Y152500D02*
D03*
X62750Y179250D02*
D03*
X120500Y220250D02*
D03*
X142615Y211735D02*
D03*
X186250Y200500D02*
D03*
X220500Y192250D02*
D03*
X207500Y128750D02*
D03*
X213250Y125000D02*
D03*
X182250Y309499D02*
D03*
X179750Y304499D02*
D03*
X182250Y299499D02*
D03*
X179750Y294499D02*
D03*
X182250Y289499D02*
D03*
X179750Y284499D02*
D03*
X182250Y279499D02*
D03*
X179750Y274499D02*
D03*
X182250Y269499D02*
D03*
X179750Y264499D02*
D03*
X182250Y259499D02*
D03*
X179750Y254499D02*
D03*
X182250Y249499D02*
D03*
X177250Y309499D02*
D03*
Y299499D02*
D03*
Y289499D02*
D03*
Y279499D02*
D03*
Y269499D02*
D03*
Y259499D02*
D03*
X174750Y254499D02*
D03*
X177250Y249499D02*
D03*
X174750Y244499D02*
D03*
X172250Y249499D02*
D03*
X169750Y244499D02*
D03*
X172250Y239499D02*
D03*
X164750Y244499D02*
D03*
X167250Y239499D02*
D03*
X164750Y234499D02*
D03*
X162250Y239499D02*
D03*
X159750Y234499D02*
D03*
X157250Y239499D02*
D03*
X154750Y234499D02*
D03*
X152250Y239499D02*
D03*
X149750Y234499D02*
D03*
X147250Y239499D02*
D03*
X144750Y234499D02*
D03*
X142250Y239499D02*
D03*
X139750Y234499D02*
D03*
X137250Y239499D02*
D03*
X134750Y234499D02*
D03*
X132250Y239499D02*
D03*
X129750Y234499D02*
D03*
X127250Y239499D02*
D03*
X124750Y234499D02*
D03*
X122250Y239499D02*
D03*
X119750Y234499D02*
D03*
X117250Y239499D02*
D03*
X114750Y234499D02*
D03*
X112250Y239499D02*
D03*
X109750Y234499D02*
D03*
X107250Y239499D02*
D03*
X104750Y234499D02*
D03*
X102250Y239499D02*
D03*
X99750Y234499D02*
D03*
X97250Y239499D02*
D03*
X94750Y234499D02*
D03*
X92250Y239499D02*
D03*
X89750Y234499D02*
D03*
X87250Y239499D02*
D03*
X84750Y234499D02*
D03*
X47250Y239499D02*
D03*
X44750Y234499D02*
D03*
X42250Y239499D02*
D03*
X32250D02*
D03*
X29750Y234499D02*
D03*
X27250Y239499D02*
D03*
X24750Y234499D02*
D03*
X22250Y239499D02*
D03*
X19750Y234499D02*
D03*
X17250Y239499D02*
D03*
X14750Y234499D02*
D03*
X12250Y239499D02*
D03*
X9750Y234499D02*
D03*
X7250Y239499D02*
D03*
X4750Y234499D02*
D03*
X28491Y197669D02*
D03*
X29500Y190250D02*
D03*
X135860Y165054D02*
D03*
X98142Y159076D02*
D03*
X80000Y243750D02*
D03*
X65577Y245012D02*
D03*
X96500Y298500D02*
D03*
X70000Y76750D02*
D03*
Y72956D02*
D03*
Y69162D02*
D03*
X2000Y135000D02*
D03*
X5530D02*
D03*
X9324D02*
D03*
X13118D02*
D03*
X16912D02*
D03*
X20706D02*
D03*
X24500D02*
D03*
X28530D02*
D03*
X32324D02*
D03*
X36118D02*
D03*
X39912D02*
D03*
X43706D02*
D03*
X47500D02*
D03*
X51280D02*
D03*
X55074D02*
D03*
X58868D02*
D03*
X62662D02*
D03*
X66456D02*
D03*
X70250D02*
D03*
Y131470D02*
D03*
Y127676D02*
D03*
Y123882D02*
D03*
Y120088D02*
D03*
Y116294D02*
D03*
Y112500D02*
D03*
Y108220D02*
D03*
Y104426D02*
D03*
Y100632D02*
D03*
Y96838D02*
D03*
Y93044D02*
D03*
Y89250D02*
D03*
X185952Y116243D02*
D03*
X185370Y112493D02*
D03*
X185173Y101117D02*
D03*
X184094Y97479D02*
D03*
X181411Y94796D02*
D03*
X178729Y92114D02*
D03*
X176046Y89431D02*
D03*
X172340Y88617D02*
D03*
X168546D02*
D03*
X164752D02*
D03*
X160958D02*
D03*
X157164D02*
D03*
X153370D02*
D03*
X149576D02*
D03*
X145782D02*
D03*
X141988D02*
D03*
X138194D02*
D03*
X134400D02*
D03*
X136506Y77882D02*
D03*
X140300D02*
D03*
X144094D02*
D03*
X147888D02*
D03*
X151682D02*
D03*
X155476D02*
D03*
X159270D02*
D03*
X163064D02*
D03*
X166858D02*
D03*
X170652D02*
D03*
X174445D02*
D03*
X178238Y77988D02*
D03*
X181580Y79784D02*
D03*
X184263Y82466D02*
D03*
X186945Y85149D02*
D03*
X189628Y87832D02*
D03*
X192311Y90515D02*
D03*
X194897Y93291D02*
D03*
X195907Y96948D02*
D03*
Y100742D02*
D03*
Y104536D02*
D03*
Y108330D02*
D03*
X195892Y112124D02*
D03*
X195178Y115850D02*
D03*
X101742Y88617D02*
D03*
X97948D02*
D03*
X94182Y88158D02*
D03*
X90389Y88121D02*
D03*
X86627Y88617D02*
D03*
X79039D02*
D03*
X75278Y88120D02*
D03*
X74579Y78755D02*
D03*
X78271Y77882D02*
D03*
X82065D02*
D03*
X85859D02*
D03*
X89647Y78109D02*
D03*
X93384Y78761D02*
D03*
X97075Y77882D02*
D03*
X100869D02*
D03*
X35750Y299750D02*
D03*
X35349Y282748D02*
D03*
X40500Y210250D02*
D03*
X35750Y199500D02*
D03*
X130750Y278250D02*
D03*
X312500Y102000D02*
D03*
X272952Y147750D02*
D03*
X311750Y119250D02*
D03*
X30250Y172500D02*
D03*
X96750Y151500D02*
D03*
X29500Y160250D02*
D03*
X80979Y156724D02*
D03*
X56250Y180413D02*
D03*
X37250Y246056D02*
D03*
X76143Y235505D02*
D03*
X95110Y208750D02*
D03*
X278752Y297750D02*
D03*
X341750Y256250D02*
D03*
Y250250D02*
D03*
X330500Y245250D02*
D03*
X322250Y263000D02*
D03*
X360250Y270250D02*
D03*
X69750Y168750D02*
D03*
X227500Y134000D02*
D03*
X228000Y148000D02*
D03*
X232000Y190750D02*
D03*
X228000Y205000D02*
D03*
X193250Y193750D02*
D03*
X206522Y196196D02*
D03*
X141940Y160500D02*
D03*
X169000Y134598D02*
D03*
X201500Y126250D02*
D03*
X213750Y190947D02*
D03*
X321000Y212000D02*
D03*
X115883Y176685D02*
D03*
X119640Y184341D02*
D03*
X115547Y216028D02*
D03*
X214310Y186655D02*
D03*
X118612Y229862D02*
D03*
X118405Y207405D02*
D03*
X119250Y160500D02*
D03*
X96000Y190000D02*
D03*
X91750Y182750D02*
D03*
X97000Y229750D02*
D03*
X115250Y196000D02*
D03*
X118000Y152750D02*
D03*
X137250Y195750D02*
D03*
X136452Y211798D02*
D03*
X135500Y181250D02*
D03*
X197690Y172000D02*
D03*
X190565Y161500D02*
D03*
X201190Y172000D02*
D03*
X195438Y138923D02*
D03*
X198499Y136066D02*
D03*
X202500Y131750D02*
D03*
X176250Y198000D02*
D03*
X190706Y175282D02*
D03*
X194190Y175250D02*
D03*
X155940Y206000D02*
D03*
X164250Y298250D02*
D03*
X164750Y148036D02*
D03*
X167750Y104435D02*
D03*
X153250Y132039D02*
D03*
X217940Y185000D02*
D03*
X319500Y134750D02*
D03*
X298750Y175500D02*
D03*
X298500Y192500D02*
D03*
X354500Y204250D02*
D03*
X314000Y209500D02*
D03*
X298250Y210500D02*
D03*
X298500Y228000D02*
D03*
X286561Y228811D02*
D03*
X298440Y245750D02*
D03*
X291959Y253000D02*
D03*
X273250Y257750D02*
D03*
X252750Y261000D02*
D03*
X276250Y267750D02*
D03*
X315750Y273000D02*
D03*
X240750Y288000D02*
D03*
X353000Y278000D02*
D03*
X368000Y280750D02*
D03*
Y298000D02*
D03*
X13000Y254250D02*
D03*
X41750Y226500D02*
D03*
X41260Y163103D02*
D03*
X58535Y202965D02*
D03*
X62093Y203000D02*
D03*
X65535Y202965D02*
D03*
X72535D02*
D03*
X58535Y209965D02*
D03*
X62022Y206500D02*
D03*
X65535Y209965D02*
D03*
X65535Y206465D02*
D03*
X69035Y209965D02*
D03*
X69035Y206465D02*
D03*
X58535Y213465D02*
D03*
X62000Y210000D02*
D03*
X62035Y213465D02*
D03*
X69058Y213442D02*
D03*
X72535Y213465D02*
D03*
X72535Y209965D02*
D03*
X89000Y204250D02*
D03*
D78*
X336750Y171266D02*
D03*
D03*
X345250Y220000D02*
D03*
X345000Y153750D02*
D03*
X333750D02*
D03*
X32364Y209065D02*
D03*
X268572Y209750D02*
D03*
X268423Y193646D02*
D03*
X278250Y297750D02*
D03*
X146072Y249250D02*
D03*
X133572D02*
D03*
X29228Y148788D02*
D03*
X254250Y297750D02*
D03*
X352000Y162750D02*
D03*
X200176Y159302D02*
D03*
X195208D02*
D03*
X195210Y166763D02*
D03*
X200178D02*
D03*
X234750Y91250D02*
D03*
X177240Y271500D02*
D03*
X169240D02*
D03*
X232250Y272750D02*
D03*
X224250D02*
D03*
M02*
