M48
;Layer_Color=9474304
;FILE_FORMAT=4:4
METRIC,LZ
;TYPE=PLATED
T01F00S00C0.1000
;TYPE=NON_PLATED
%
T01
X0004126Y00163103
X0004725Y0019175
X000295Y0019025
X00028491Y00197669
X00032448Y00209159
X0002375Y00216
X0004175Y002265
X00062Y0021
X00062022Y002065
X00065535Y00206465
X00069035
X00069035Y00209965
X00065535
X00083965Y00213465
X00089Y0020425
X0009425Y0020675
X00118395Y00224803
X00190706Y00175282
X0019419Y0017525
X0021431Y00186655
X002815Y0017925
X00282Y00161
X00277231Y00138231
X0027725Y0012525
X00277Y0011125
X0027725Y0008775
X00263302Y0013025
X00246698Y00121553
X0031175Y0011925
X00314Y002095
X00321Y00212
X00286561Y00228811
X00277013Y00204205
X0016475Y00148036
X0015325Y00132039
X0016775Y00104435
X0011375Y002335
X001065Y002345
X0010075Y0024075
X0008Y0024375
X0007175Y002455
X00065577Y00245012
X00080528Y00253453
X00037Y00246
X00013Y0025425
X00208Y00279
X0025425Y0029775
X00278752Y0029775
X00291959Y00253
X003305Y0024525
X0034775Y002425
M30
