G04*
G04 #@! TF.GenerationSoftware,Altium Limited,Altium Designer,24.5.2 (23)*
G04*
G04 Layer_Physical_Order=5*
G04 Layer_Color=36540*
%FSLAX44Y44*%
%MOMM*%
G71*
G04*
G04 #@! TF.SameCoordinates,592061D7-B9A1-4A66-9416-76F5012AC85A*
G04*
G04*
G04 #@! TF.FilePolarity,Positive*
G04*
G01*
G75*
%ADD13C,0.1250*%
%ADD79C,0.0889*%
%ADD80C,0.1050*%
%ADD85C,1.4001*%
%ADD86C,0.2339*%
%ADD87C,0.2000*%
%ADD88C,0.5000*%
%ADD89C,0.2500*%
D13*
X61250Y67350D02*
Y71066D01*
X58941Y73375D02*
X61250Y71066D01*
X53603Y73375D02*
X58941D01*
X50478Y76500D02*
X53603Y73375D01*
X2434Y76500D02*
X50478D01*
X64750Y67350D02*
Y70748D01*
X59873Y75625D02*
X64750Y70748D01*
X54535Y75625D02*
X59873D01*
X51410Y78750D02*
X54535Y75625D01*
X2434Y78750D02*
X51410D01*
X68250Y67350D02*
Y70500D01*
X60875Y77875D02*
X68250Y70500D01*
X55467Y77875D02*
X60875D01*
X52342Y81000D02*
X55467Y77875D01*
X2434Y81000D02*
X52342D01*
X71750Y67350D02*
Y70182D01*
X61807Y80125D02*
X71750Y70182D01*
X56399Y80125D02*
X61807D01*
X53274Y83250D02*
X56399Y80125D01*
X2434Y83250D02*
X53274D01*
X78750Y55934D02*
Y56500D01*
X78750Y60000D02*
X82498D01*
X82250Y56500D02*
Y56570D01*
X41897Y31375D02*
X54897Y44375D01*
X44693Y24625D02*
X57693Y37625D01*
X42829Y29125D02*
X55829Y42125D01*
X45625Y22375D02*
X58625Y35375D01*
X43761Y26875D02*
X56761Y39875D01*
X61807D01*
X81059Y53625D02*
X83441D01*
X72704Y46954D02*
X75250Y49500D01*
X78750Y49162D02*
Y49500D01*
X74520Y44704D02*
X78125Y48309D01*
Y48537D01*
X78750Y49162D01*
X73000Y44704D02*
X74520D01*
X78375Y73873D02*
Y117500D01*
X80625Y72941D02*
Y117500D01*
X82875Y71125D02*
Y117500D01*
X82250Y70500D02*
X82875Y71125D01*
X75250Y70748D02*
X78375Y73873D01*
X75250Y67350D02*
Y70748D01*
X78750Y71066D02*
X80625Y72941D01*
X78750Y67350D02*
Y71066D01*
X78750Y63500D02*
X82816D01*
X82250Y67000D02*
X82816D01*
X2434Y24625D02*
X44693D01*
X2434Y31375D02*
X41897D01*
X2434Y35875D02*
X40033D01*
X2434Y72000D02*
X48614D01*
X2434Y69750D02*
X47682D01*
X2434Y67500D02*
X46750D01*
X2434Y74250D02*
X49546D01*
X83441Y53625D02*
X94125Y64309D01*
X78750Y55934D02*
X81059Y53625D01*
X82498Y60000D02*
X89625Y67127D01*
X82250Y56570D02*
X91875Y66195D01*
X55829Y42125D02*
X60875D01*
X40033Y35875D02*
X53658Y49500D01*
X47682Y69750D02*
X53932Y63500D01*
X49546Y74250D02*
X53296Y70500D01*
X53932Y63500D02*
X61250D01*
X48614Y72000D02*
X53614Y67000D01*
X54250Y60000D02*
X61250D01*
X53296Y70500D02*
X57750D01*
X53614Y67000D02*
X57750D01*
X46750Y67500D02*
X54250Y60000D01*
X53965Y46625D02*
X58941D01*
X53976Y53000D02*
X57750D01*
X53658Y49500D02*
X57750D01*
X54897Y44375D02*
X59873D01*
X54294Y56500D02*
X61250D01*
X89625Y67127D02*
Y117500D01*
X91875Y66195D02*
Y117500D01*
X87375Y68059D02*
Y117500D01*
X74932Y49818D02*
X75250Y50136D01*
X62739Y37625D02*
X72068Y46954D01*
X72704D01*
X58625Y35375D02*
X63671D01*
X57693Y37625D02*
X62739D01*
X63671Y35375D02*
X73000Y44704D01*
X61807Y39875D02*
X71750Y49818D01*
X59873Y44375D02*
X64750Y49252D01*
X61250Y48934D02*
Y52650D01*
X58941Y46625D02*
X61250Y48934D01*
X60875Y42125D02*
X68250Y49500D01*
X71750Y49818D02*
Y52650D01*
X68250Y49500D02*
Y52650D01*
X64750Y49252D02*
Y52650D01*
X2434Y33625D02*
X40965D01*
X2434Y22375D02*
X45625D01*
X45476Y44500D02*
X53976Y53000D01*
X44544Y46750D02*
X54294Y56500D01*
X2943Y44500D02*
X45476D01*
X2943Y46750D02*
X44544D01*
X2434Y26875D02*
X43761D01*
X2434Y29125D02*
X42829D01*
X40965Y33625D02*
X53965Y46625D01*
X94125Y64309D02*
Y117500D01*
X82816Y63500D02*
X87375Y68059D01*
X85125Y69309D02*
Y117500D01*
X82816Y67000D02*
X85125Y69309D01*
D79*
X185250Y71500D02*
Y81616D01*
X189611Y85978D01*
X188750Y79669D02*
X192131Y83050D01*
X188750Y71500D02*
Y79669D01*
X189611Y85978D02*
X193421D01*
X195092Y87649D01*
X195063Y97681D02*
X197886Y94859D01*
X171596Y97681D02*
X195063D01*
X195002Y94442D02*
X195092Y94352D01*
Y87649D02*
Y94352D01*
X194682Y100577D02*
X199664Y95595D01*
X170174Y100577D02*
X194682D01*
X168548Y102507D02*
X195266D01*
X155848Y89807D02*
X168548Y102507D01*
X163976Y90061D02*
X171596Y97681D01*
X160420Y89045D02*
X163976Y85489D01*
X160420Y90823D02*
X170174Y100577D01*
X160420Y89045D02*
Y90823D01*
X195266Y102507D02*
X201442Y96332D01*
X192131Y83050D02*
X195065D01*
X197886Y85871D01*
X199664Y84575D02*
Y95595D01*
X197886Y85871D02*
Y94859D01*
X222396Y76091D02*
X253039D01*
X199250Y71500D02*
Y75295D01*
X215462Y83026D02*
X222396Y76091D01*
X215461Y83026D02*
X215462D01*
X199250Y64500D02*
X202770D01*
X201442Y82569D02*
Y96332D01*
X195750Y71500D02*
Y76877D01*
X201442Y82569D01*
X192250Y71500D02*
Y77161D01*
X199664Y84575D01*
X212744Y79393D02*
Y85489D01*
X224317Y67820D02*
X238346D01*
X210966Y72696D02*
Y87011D01*
X212744Y79393D02*
X224317Y67820D01*
X199250Y75295D02*
X209188Y85233D01*
X210966Y87011D02*
X215961Y92006D01*
X209188Y89045D02*
X213252Y93109D01*
X215961Y92006D02*
Y95259D01*
X209188Y85233D02*
Y89045D01*
X202770Y64500D02*
X210966Y72696D01*
X212744Y85489D02*
X216046Y88791D01*
X213252Y93109D02*
Y97616D01*
X232672Y117036D01*
X153054Y62533D02*
X179566Y89045D01*
X192678D01*
X153054Y42563D02*
Y62533D01*
X169161Y38209D02*
X169679Y38727D01*
X157408Y38209D02*
X169161D01*
X169679Y38727D02*
X181732D01*
X153054Y42563D02*
X157408Y38209D01*
X202838Y19449D02*
Y57412D01*
X199250Y61000D02*
X202838Y57412D01*
X199250Y17703D02*
X202330Y14623D01*
X189630Y40944D02*
Y43579D01*
X199250Y17703D02*
Y49437D01*
X189630Y40944D02*
X190646Y39928D01*
X188920Y35959D02*
X190646Y37685D01*
Y39928D01*
X192424Y24275D02*
Y44325D01*
X189868Y46881D02*
X192424Y44325D01*
X189868Y46881D02*
Y47389D01*
X192250Y52831D02*
X195472Y49609D01*
X192250Y52831D02*
Y61000D01*
X195472Y22243D02*
Y49609D01*
X195750Y52937D02*
Y61000D01*
Y52937D02*
X199250Y49437D01*
X158160Y48151D02*
Y60826D01*
X165297Y67963D01*
X185213D02*
X185250Y68000D01*
X165297Y67963D02*
X185213D01*
D80*
X79100Y60000D02*
X79375Y59725D01*
X93687Y43938D02*
X96250D01*
X88250Y38500D02*
X93687Y43938D01*
X81500Y38500D02*
X88250D01*
D85*
X639050Y45800D02*
D03*
X651750Y33100D02*
D03*
Y58500D02*
D03*
X626350D02*
D03*
Y33100D02*
D03*
D86*
X185250Y71500D02*
D03*
X188750D02*
D03*
X192250D02*
D03*
X195750D02*
D03*
X199250D02*
D03*
Y68000D02*
D03*
Y64500D02*
D03*
Y61000D02*
D03*
X195750D02*
D03*
X192250D02*
D03*
X188750D02*
D03*
X185250D02*
D03*
Y68000D02*
D03*
X188750D02*
D03*
X192250D02*
D03*
X195750D02*
D03*
Y64500D02*
D03*
X192250D02*
D03*
X189630Y43579D02*
D03*
X188750Y64500D02*
D03*
X185250D02*
D03*
D87*
X238346Y67820D02*
D03*
X192678Y89045D02*
D03*
X195002Y94442D02*
D03*
X163976Y90061D02*
D03*
Y85489D02*
D03*
X155848Y89807D02*
D03*
X215961Y95259D02*
D03*
X223920Y99205D02*
D03*
X215461Y83026D02*
D03*
X216046Y88791D02*
D03*
X202838Y19449D02*
D03*
X202330Y14623D02*
D03*
X158160Y48151D02*
D03*
X181732Y38727D02*
D03*
X189868Y47389D02*
D03*
D88*
X441000Y59500D02*
D03*
Y67500D02*
D03*
X18500Y115500D02*
D03*
X4500Y87750D02*
D03*
X47250Y115500D02*
D03*
X98400D02*
D03*
X74250Y115250D02*
D03*
X98400Y93250D02*
D03*
X31750Y115500D02*
D03*
X18750Y87750D02*
D03*
X34500Y97500D02*
D03*
X72500Y109500D02*
D03*
X47000Y102500D02*
D03*
X4500Y115500D02*
D03*
X29250Y92000D02*
D03*
X49500Y96750D02*
D03*
X4500Y18000D02*
D03*
X113250Y4500D02*
D03*
X91250D02*
D03*
X28500Y18250D02*
D03*
X47750Y4750D02*
D03*
X4500Y4500D02*
D03*
X98250Y32250D02*
D03*
X76250Y33750D02*
D03*
X85000Y26750D02*
D03*
X61000Y31250D02*
D03*
X135500Y57500D02*
D03*
X115500Y59500D02*
D03*
X66500Y57500D02*
D03*
X73500D02*
D03*
X135500Y4500D02*
D03*
X94000Y21500D02*
D03*
X135500Y18250D02*
D03*
Y32000D02*
D03*
Y48250D02*
D03*
Y73750D02*
D03*
X119750Y89250D02*
D03*
X135500Y89750D02*
D03*
Y115500D02*
D03*
X119750D02*
D03*
X72500Y4250D02*
D03*
X98400Y85400D02*
D03*
X106068Y63556D02*
D03*
X115250Y42500D02*
D03*
X73500Y62500D02*
D03*
X66500D02*
D03*
X4500Y63000D02*
D03*
X41250Y51250D02*
D03*
X41000Y59500D02*
D03*
X35000Y4250D02*
D03*
X4500Y40000D02*
D03*
X27750Y10250D02*
D03*
X126844Y30850D02*
D03*
X101250Y15714D02*
D03*
X31750Y59750D02*
D03*
X22250Y18000D02*
D03*
X23500Y40000D02*
D03*
X4500Y51250D02*
D03*
X30000Y40000D02*
D03*
X110750Y68000D02*
D03*
D89*
X61250Y67350D02*
D03*
X64750D02*
D03*
X68250D02*
D03*
X71750D02*
D03*
X81500Y38500D02*
D03*
X71500Y86750D02*
D03*
X52750Y91000D02*
D03*
X96250Y43938D02*
D03*
X71750Y52650D02*
D03*
X78750Y56500D02*
D03*
X82250Y56500D02*
D03*
X75250Y49500D02*
D03*
X61250Y52650D02*
D03*
X64750D02*
D03*
X68250D02*
D03*
X78750Y49500D02*
D03*
X61250Y60000D02*
D03*
Y56500D02*
D03*
X72100Y73900D02*
D03*
X57750Y70500D02*
D03*
X82250D02*
D03*
Y67000D02*
D03*
X57750D02*
D03*
X78750Y60000D02*
D03*
Y63500D02*
D03*
X78750Y67350D02*
D03*
X75250D02*
D03*
X61250Y63500D02*
D03*
X57750Y49500D02*
D03*
Y53000D02*
D03*
M02*
