G04*
G04 #@! TF.GenerationSoftware,Altium Limited,Altium Designer,24.5.2 (23)*
G04*
G04 Layer_Color=65535*
%FSLAX44Y44*%
%MOMM*%
G71*
G04*
G04 #@! TF.SameCoordinates,592061D7-B9A1-4A66-9416-76F5012AC85A*
G04*
G04*
G04 #@! TF.FilePolarity,Positive*
G04*
G01*
G75*
%ADD10C,0.1999*%
%ADD11C,0.1001*%
%ADD12C,0.1500*%
%ADD13C,0.1250*%
%ADD14C,0.2500*%
%ADD15C,0.1524*%
%ADD16C,0.2032*%
%ADD17C,0.2000*%
%ADD18C,0.1270*%
%ADD19C,0.1000*%
%ADD20C,0.2540*%
D10*
X178082Y79669D02*
G03*
X178082Y79669I-1001J0D01*
G01*
D11*
X238346Y77071D02*
G03*
X238346Y76070I0J-500D01*
G01*
D02*
G03*
X238346Y77071I0J500D01*
G01*
D12*
X596370Y108000D02*
G03*
X596370Y108000I-7620J0D01*
G01*
X382300Y59200D02*
G03*
X382300Y59200I-500J0D01*
G01*
X522250Y69750D02*
X533001D01*
Y44750D02*
Y69750D01*
X488750Y25939D02*
X525750D01*
X481501Y44750D02*
Y69750D01*
X492252D01*
X305000Y25000D02*
X305000Y35000D01*
X263000Y46000D02*
X305000D01*
X263000Y25000D02*
Y35000D01*
Y14000D02*
X305000D01*
X674750Y32750D02*
X682750D01*
X674750D02*
Y34750D01*
X701250Y32750D02*
X709250D01*
Y34750D01*
Y63250D02*
Y65250D01*
X701250D02*
X709250D01*
X674750D02*
X682750D01*
X674750Y63250D02*
Y65250D01*
X451750Y71500D02*
Y73750D01*
Y53250D02*
Y55500D01*
X430250Y71500D02*
X430250Y73750D01*
Y53250D02*
Y55500D01*
D13*
X413500Y28250D02*
G03*
X413500Y28250I-500J0D01*
G01*
X346500Y95000D02*
G03*
X346500Y95000I-500J0D01*
G01*
X548550Y74800D02*
X552950D01*
X548550Y71650D02*
Y74800D01*
X552950Y71650D02*
Y74800D01*
X548550Y65000D02*
Y68150D01*
Y65000D02*
X552950D01*
Y68150D01*
X420800Y114150D02*
X425200D01*
Y111000D02*
Y114150D01*
X420800Y111000D02*
Y114150D01*
X425200Y104350D02*
Y107500D01*
X420800Y104350D02*
X425200D01*
X420800D02*
Y107500D01*
X411800Y114650D02*
X416200D01*
Y111500D02*
Y114650D01*
X411800Y111500D02*
Y114650D01*
X416200Y104850D02*
Y108000D01*
X411800Y104850D02*
X416200D01*
X411800D02*
Y108000D01*
X547650Y98800D02*
Y103200D01*
X544500Y98800D02*
X547650D01*
X544500Y103200D02*
X547650D01*
X537850Y98800D02*
X541000D01*
X537850D02*
Y103200D01*
X541000D01*
X396000Y16050D02*
Y20450D01*
X392850Y16050D02*
X396000D01*
X392850Y20450D02*
X396000D01*
X386200Y16050D02*
X389350D01*
X386200D02*
Y20450D01*
X389350D01*
X415000Y15750D02*
X423500D01*
X415000Y27250D02*
X423500D01*
X430050Y23550D02*
X434450D01*
Y20400D02*
Y23550D01*
X430050Y20400D02*
Y23550D01*
X434450Y13750D02*
Y16900D01*
X430050Y13750D02*
X434450D01*
X430050D02*
Y16900D01*
X396550Y25050D02*
Y29450D01*
X393400Y25050D02*
X396550D01*
X393400Y29450D02*
X396550D01*
X386750Y25050D02*
X389900D01*
X386750D02*
Y29450D01*
X389900D01*
X520094Y115159D02*
X524494D01*
X520094Y112009D02*
Y115159D01*
X524494Y112009D02*
Y115159D01*
X520094Y105359D02*
Y108509D01*
Y105359D02*
X524494D01*
Y108509D01*
X461591Y115159D02*
X465991D01*
X461591Y112009D02*
Y115159D01*
X465991Y112009D02*
Y115159D01*
X461591Y105359D02*
Y108509D01*
Y105359D02*
X465991D01*
Y108509D01*
X403338Y115159D02*
X407738D01*
X403338Y112009D02*
Y115159D01*
X407738Y112009D02*
Y115159D01*
X403338Y105359D02*
Y108509D01*
Y105359D02*
X407738D01*
Y108509D01*
X694550Y72100D02*
X698950D01*
Y75250D01*
X694550Y72100D02*
Y75250D01*
X698950Y78750D02*
Y81900D01*
X694550D02*
X698950D01*
X694550Y78750D02*
Y81900D01*
X674800Y72100D02*
X679200D01*
Y75250D01*
X674800Y72100D02*
Y75250D01*
X679200Y78750D02*
Y81900D01*
X674800D02*
X679200D01*
X674800Y78750D02*
Y81900D01*
X605900Y75050D02*
Y79450D01*
X602750D02*
X605900D01*
X602750Y75050D02*
X605900D01*
X596100Y79450D02*
X599250D01*
X596100Y75050D02*
Y79450D01*
Y75050D02*
X599250D01*
X348000Y94000D02*
X356500D01*
X348000Y82500D02*
X356500D01*
X394300Y99600D02*
X398700D01*
X394300Y109400D02*
X398700D01*
Y106250D02*
Y109400D01*
Y99600D02*
Y102750D01*
X394300Y106250D02*
Y109400D01*
Y99600D02*
Y102750D01*
X388300Y99600D02*
X392700D01*
X388300Y109400D02*
X392700D01*
Y106250D02*
Y109400D01*
Y99600D02*
Y102750D01*
X388300Y106250D02*
Y109400D01*
Y99600D02*
Y102750D01*
X371883Y84050D02*
X371883Y88450D01*
X381683Y84050D02*
Y88450D01*
X378533Y84050D02*
X381683D01*
X371883D02*
X375033D01*
X378533Y88450D02*
X381683D01*
X371883D02*
X375033D01*
X88900Y30300D02*
Y34700D01*
X85750D02*
X88900D01*
X85750Y30300D02*
X88900D01*
X79100Y34700D02*
X82250D01*
X79100Y30300D02*
Y34700D01*
Y30300D02*
X82250D01*
X91293Y39360D02*
Y79300D01*
X47393Y39360D02*
Y79300D01*
X91293D01*
X47393Y39360D02*
X91293D01*
X128450Y51750D02*
Y54900D01*
Y45100D02*
Y48250D01*
X124050Y51750D02*
Y54900D01*
Y45100D02*
Y48250D01*
Y45100D02*
X128450D01*
X124050Y54900D02*
X128450D01*
X32300Y84100D02*
Y87250D01*
Y90750D02*
Y93900D01*
X36700Y84100D02*
Y87250D01*
Y90750D02*
Y93900D01*
X32300D02*
X36700D01*
X32300Y84100D02*
X36700D01*
X95200Y31250D02*
Y34400D01*
Y24600D02*
Y27750D01*
X90800Y31250D02*
Y34400D01*
Y24600D02*
Y27750D01*
Y24600D02*
X95200D01*
X90800Y34400D02*
X95200D01*
X96850Y43700D02*
X100000D01*
X103500D02*
X106650D01*
X96850Y39300D02*
X100000D01*
X103500D02*
X106650D01*
Y43700D01*
X96850Y39300D02*
Y43700D01*
X111450Y51750D02*
Y54900D01*
Y45100D02*
Y48250D01*
X107050Y51750D02*
Y54900D01*
Y45100D02*
Y48250D01*
Y45100D02*
X111450D01*
X107050Y54900D02*
X111450D01*
X102501Y50801D02*
X105651D01*
X95851D02*
X99001D01*
X102501Y55201D02*
X105651D01*
X95851D02*
X99001D01*
X95851Y50801D02*
Y55201D01*
X105651Y50801D02*
Y55201D01*
X101350Y60950D02*
X104500D01*
X108000D02*
X111150D01*
X101350Y56550D02*
X104500D01*
X108000D02*
X111150D01*
Y60950D01*
X101350Y56550D02*
Y60950D01*
X122651Y50801D02*
Y55201D01*
X112851Y50801D02*
Y55201D01*
X116001D01*
X119501D02*
X122651D01*
X112851Y50801D02*
X116001D01*
X119501D02*
X122651D01*
X47300Y83350D02*
Y86500D01*
Y90000D02*
Y93150D01*
X51700Y83350D02*
Y86500D01*
Y90000D02*
Y93150D01*
X47300D02*
X51700D01*
X47300Y83350D02*
X51700D01*
X90800D02*
Y86500D01*
Y90000D02*
Y93150D01*
X95200Y83350D02*
Y86500D01*
Y90000D02*
Y93150D01*
X90800D02*
X95200D01*
X90800Y83350D02*
X95200D01*
X432000Y80498D02*
Y76333D01*
X432833Y75500D01*
X434499D01*
X435332Y76333D01*
Y80498D01*
X436998Y79665D02*
X437831Y80498D01*
X439497D01*
X440331Y79665D01*
Y78832D01*
X439497Y77999D01*
X438665D01*
X439497D01*
X440331Y77166D01*
Y76333D01*
X439497Y75500D01*
X437831D01*
X436998Y76333D01*
X360835Y87499D02*
Y83334D01*
X361668Y82501D01*
X363334D01*
X364167Y83334D01*
Y87499D01*
X368332Y82501D02*
Y87499D01*
X365833Y85000D01*
X369165D01*
X29833Y91333D02*
X30499Y91999D01*
Y93332D01*
X29833Y93998D01*
X27167D01*
X26501Y93332D01*
Y91999D01*
X27167Y91333D01*
X26501Y90000D02*
Y88667D01*
Y89333D01*
X30499D01*
X29833Y90000D01*
X26501Y84002D02*
Y86667D01*
X29166Y84002D01*
X29833D01*
X30499Y84668D01*
Y86001D01*
X29833Y86667D01*
X81083Y99083D02*
X81749Y99749D01*
Y101082D01*
X81083Y101749D01*
X78417D01*
X77750Y101082D01*
Y99749D01*
X78417Y99083D01*
X77750Y97750D02*
Y96417D01*
Y97084D01*
X81749D01*
X81083Y97750D01*
Y94418D02*
X81749Y93751D01*
Y92418D01*
X81083Y91752D01*
X78417D01*
X77750Y92418D01*
Y93751D01*
X78417Y94418D01*
X81083D01*
X113667Y46500D02*
X113001Y45834D01*
Y44501D01*
X113667Y43834D01*
X116333D01*
X116999Y44501D01*
Y45834D01*
X116333Y46500D01*
X116999Y47833D02*
Y49166D01*
Y48499D01*
X113001D01*
X113667Y47833D01*
X74584Y5168D02*
X75251Y4501D01*
X76583D01*
X77250Y5168D01*
Y7833D01*
X76583Y8500D01*
X75251D01*
X74584Y7833D01*
X70585Y8500D02*
X73251D01*
X70585Y5834D01*
Y5168D01*
X71252Y4501D01*
X72585D01*
X73251Y5168D01*
X52668Y32166D02*
X52001Y31499D01*
Y30166D01*
X52668Y29500D01*
X55334D01*
X56000Y30166D01*
Y31499D01*
X55334Y32166D01*
X52001Y33499D02*
Y36165D01*
X52668D01*
X55334Y33499D01*
X56000D01*
X107166Y51667D02*
X107833Y51001D01*
X109166D01*
X109832Y51667D01*
Y54333D01*
X109166Y54999D01*
X107833D01*
X107166Y54333D01*
X105834Y51667D02*
X105167Y51001D01*
X103834D01*
X103168Y51667D01*
Y52333D01*
X103834Y53000D01*
X103168Y53666D01*
Y54333D01*
X103834Y54999D01*
X105167D01*
X105834Y54333D01*
Y53666D01*
X105167Y53000D01*
X105834Y52333D01*
Y51667D01*
X105167Y53000D02*
X103834D01*
X103167Y34417D02*
X103833Y33751D01*
X105166D01*
X105832Y34417D01*
Y37083D01*
X105166Y37749D01*
X103833D01*
X103167Y37083D01*
X99834Y37749D02*
Y33751D01*
X101834Y35750D01*
X99168D01*
X84084Y25918D02*
X84751Y25251D01*
X86083D01*
X86750Y25918D01*
Y28584D01*
X86083Y29250D01*
X84751D01*
X84084Y28584D01*
X80085Y25251D02*
X81418Y25918D01*
X82751Y27251D01*
Y28584D01*
X82085Y29250D01*
X80752D01*
X80085Y28584D01*
Y27917D01*
X80752Y27251D01*
X82751D01*
X91167Y14584D02*
X90501Y13917D01*
Y12584D01*
X91167Y11918D01*
X93833D01*
X94499Y12584D01*
Y13917D01*
X93833Y14584D01*
X91167Y15917D02*
X90501Y16583D01*
Y17916D01*
X91167Y18582D01*
X91833D01*
X92500Y17916D01*
Y17249D01*
Y17916D01*
X93166Y18582D01*
X93833D01*
X94499Y17916D01*
Y16583D01*
X93833Y15917D01*
X42501Y32500D02*
X46500D01*
Y35166D01*
Y38498D02*
X42501D01*
X44501Y36499D01*
Y39165D01*
X60668Y32166D02*
X60001Y31499D01*
Y30166D01*
X60668Y29500D01*
X63334D01*
X64000Y30166D01*
Y31499D01*
X63334Y32166D01*
X60001Y36165D02*
Y33499D01*
X62001D01*
X61334Y34832D01*
Y35498D01*
X62001Y36165D01*
X63334D01*
X64000Y35498D01*
Y34165D01*
X63334Y33499D01*
X34167Y28668D02*
X33501Y28001D01*
Y26668D01*
X34167Y26002D01*
X36833D01*
X37499Y26668D01*
Y28001D01*
X36833Y28668D01*
X37499Y30000D02*
Y31333D01*
Y30667D01*
X33501D01*
X34167Y30000D01*
X37499Y35332D02*
X33501D01*
X35500Y33333D01*
Y35998D01*
X72751Y31918D02*
X76749D01*
Y34584D01*
X73417Y35917D02*
X72751Y36583D01*
Y37916D01*
X73417Y38582D01*
X74083D01*
X74750Y37916D01*
Y37249D01*
Y37916D01*
X75416Y38582D01*
X76083D01*
X76749Y37916D01*
Y36583D01*
X76083Y35917D01*
X100083Y89166D02*
X100750Y89833D01*
Y91166D01*
X100083Y91832D01*
X97417D01*
X96751Y91166D01*
Y89833D01*
X97417Y89166D01*
Y87834D02*
X96751Y87167D01*
Y85834D01*
X97417Y85168D01*
X100083D01*
X100750Y85834D01*
Y87167D01*
X100083Y87834D01*
X99417D01*
X98750Y87167D01*
Y85168D01*
X88333Y31583D02*
X88999Y32249D01*
Y33582D01*
X88333Y34248D01*
X85667D01*
X85001Y33582D01*
Y32249D01*
X85667Y31583D01*
X85001Y30250D02*
Y28917D01*
Y29583D01*
X88999D01*
X88333Y30250D01*
Y26917D02*
X88999Y26251D01*
Y24918D01*
X88333Y24252D01*
X87667D01*
X87000Y24918D01*
Y25585D01*
Y24918D01*
X86334Y24252D01*
X85667D01*
X85001Y24918D01*
Y26251D01*
X85667Y26917D01*
X130917Y47667D02*
X130251Y47001D01*
Y45668D01*
X130917Y45002D01*
X133583D01*
X134249Y45668D01*
Y47001D01*
X133583Y47667D01*
X134249Y49000D02*
Y50333D01*
Y49667D01*
X130251D01*
X130917Y49000D01*
X133583Y52333D02*
X134249Y52999D01*
Y54332D01*
X133583Y54998D01*
X130917D01*
X130251Y54332D01*
Y52999D01*
X130917Y52333D01*
X131583D01*
X132250Y52999D01*
Y54998D01*
X120832Y45251D02*
Y49249D01*
X118167D01*
X114168D02*
X116834D01*
X114168Y46583D01*
Y45917D01*
X114834Y45251D01*
X116167D01*
X116834Y45917D01*
X44833Y89916D02*
X45499Y90583D01*
Y91916D01*
X44833Y92582D01*
X42167D01*
X41501Y91916D01*
Y90583D01*
X42167Y89916D01*
X41501Y88583D02*
Y87250D01*
Y87917D01*
X45499D01*
X44833Y88583D01*
X41501Y85251D02*
Y83918D01*
Y84585D01*
X45499D01*
X44833Y85251D01*
X107166Y45251D02*
Y49249D01*
X104500D01*
X103167D02*
X101834D01*
X102501D01*
Y45251D01*
X103167Y45917D01*
X77334Y85499D02*
Y82167D01*
X78001Y81501D01*
X79334D01*
X80000Y82167D01*
Y85499D01*
X81333Y81501D02*
X82666D01*
X81999D01*
Y85499D01*
X81333Y84833D01*
X33999Y72582D02*
X30001Y69917D01*
X33999D02*
X30001Y72582D01*
Y65918D02*
Y68584D01*
X32666Y65918D01*
X33333D01*
X33999Y66584D01*
Y67917D01*
X33333Y68584D01*
X125751Y20834D02*
X129749Y23500D01*
X125751D02*
X129749Y20834D01*
Y24833D02*
Y26166D01*
Y25499D01*
X125751D01*
X126417Y24833D01*
D14*
X669500Y64500D02*
G03*
X669500Y64500I-1250J0D01*
G01*
D15*
X566324Y66001D02*
G03*
X566324Y66001I-1016J0D01*
G01*
X579278Y70312D02*
X586407D01*
X579278Y46690D02*
X586407D01*
X590276Y70312D02*
X597405D01*
X590276Y46690D02*
X597405D01*
X421250Y61500D02*
Y70750D01*
Y47250D02*
Y56500D01*
X411250Y61500D02*
Y70750D01*
Y47250D02*
Y56500D01*
Y47250D02*
X421250D01*
X411250Y70750D02*
X421250D01*
X431000Y83000D02*
X440250Y83000D01*
X416750Y83000D02*
X426000D01*
X431000Y93000D02*
X440250D01*
X416750D02*
X426000D01*
X416750Y83000D02*
Y93000D01*
X440250Y83000D02*
Y93000D01*
X386033Y59250D02*
X395283Y59250D01*
X400283D02*
X409533Y59250D01*
X386033Y49250D02*
X395283D01*
X400283D02*
X409533D01*
Y59250D01*
X386033Y49250D02*
Y59250D01*
X368283Y44250D02*
X377533D01*
X354033D02*
X363283D01*
X368283Y54250D02*
X377533D01*
X354033D02*
X363283D01*
X354033Y44250D02*
X354033Y54250D01*
X377533D02*
X377533Y44250D01*
X386033Y70750D02*
X395283D01*
X400283D02*
X409533D01*
X386033Y60750D02*
X395283Y60750D01*
X400283D02*
X409533Y60750D01*
Y70750D01*
X386033Y60750D02*
Y70750D01*
X332283Y66000D02*
X341533Y66000D01*
X346533D02*
X355783D01*
X332283Y56000D02*
X341533D01*
X346533D02*
X355783D01*
Y66000D01*
X332283Y56000D02*
Y66000D01*
X50249Y10001D02*
Y16501D01*
Y21501D02*
Y28001D01*
Y10001D02*
X57249D01*
Y16501D01*
X50249Y28001D02*
X57249D01*
Y21501D02*
Y28001D01*
X70750Y6750D02*
X80750D01*
X70750Y30250D02*
X80750D01*
X70750Y6750D02*
Y16000D01*
Y21000D02*
Y30250D01*
X80750Y6750D02*
Y16000D01*
Y21000D02*
Y30250D01*
X31251Y24249D02*
X38251D01*
X31251Y6249D02*
X38251D01*
X31251D02*
Y12749D01*
Y17749D02*
Y24249D01*
X38251Y6249D02*
Y12749D01*
Y17749D02*
Y24249D01*
X58249Y10001D02*
X65249D01*
X58249Y28001D02*
X65249D01*
Y21501D02*
Y28001D01*
Y10001D02*
Y16501D01*
X58249Y21501D02*
Y28001D01*
Y10001D02*
Y16501D01*
X49250Y21750D02*
Y31000D01*
Y7500D02*
Y16750D01*
X39250Y21750D02*
Y31000D01*
Y7500D02*
Y16750D01*
Y31000D02*
X49250D01*
X39250Y7500D02*
X49250D01*
X68999Y88501D02*
X75999D01*
X68999Y106501D02*
X75999D01*
Y100001D02*
Y106501D01*
Y88501D02*
Y95001D01*
X68999Y100001D02*
Y106501D01*
Y88501D02*
Y95001D01*
X61999Y1749D02*
X68499D01*
X50499D02*
X56999D01*
X61999Y8749D02*
X68499D01*
X50499D02*
X56999D01*
X50499Y1749D02*
Y8749D01*
X68499Y1749D02*
Y8749D01*
X81749Y6001D02*
Y12501D01*
Y17501D02*
Y24001D01*
X88749Y6001D02*
Y12501D01*
Y17501D02*
Y24001D01*
X81749D02*
X88749D01*
X81749Y6001D02*
X88749D01*
X105502Y21598D02*
Y24798D01*
X113702Y12398D02*
X114902D01*
X123102Y21598D02*
X123102Y24798D01*
X113702Y33998D02*
X114902D01*
D16*
X459001Y54502D02*
G03*
X459001Y54502I-1000J0D01*
G01*
D17*
X93793Y37380D02*
G03*
X93793Y37380I-500J0D01*
G01*
X419250Y58000D02*
Y60000D01*
X413250Y58000D02*
Y60000D01*
X427500Y85000D02*
X429500D01*
X427500Y91000D02*
X429500Y91000D01*
X396783Y57250D02*
X398783D01*
X396783Y51250D02*
X398783D01*
X364783Y46250D02*
X366783D01*
X364783Y52250D02*
X366783Y52250D01*
X396783Y68750D02*
X398783D01*
X396783Y62750D02*
X398783D01*
X343033Y64000D02*
X345033D01*
X343033Y58000D02*
X345033Y58000D01*
X72750Y17500D02*
Y19500D01*
X78750Y17500D02*
Y19500D01*
X47250Y18250D02*
Y20250D01*
X41250Y18250D02*
Y20250D01*
X15000Y67100D02*
Y71900D01*
X27000Y67100D02*
Y71900D01*
D18*
X377675Y109580D02*
X386565D01*
Y99420D02*
Y109580D01*
X377675Y99420D02*
X386565D01*
X362435Y109580D02*
X371325D01*
X359895Y107040D02*
X362435Y109580D01*
X359895Y101960D02*
Y107040D01*
X362435Y99420D02*
X371325D01*
X362435D02*
Y109580D01*
X359895Y101960D02*
X362435Y99420D01*
X359645Y120540D02*
X362185Y123080D01*
X371075D01*
X359645Y115460D02*
X362185Y112920D01*
X371075D01*
X362185D02*
Y123080D01*
X359645Y115460D02*
Y120540D01*
X386315Y112920D02*
Y123080D01*
X377425D02*
X386315D01*
X377425Y112920D02*
X386315D01*
D19*
X380500Y60500D02*
Y80500D01*
X360500D02*
X380500D01*
X360500Y60500D02*
X380500D01*
X360500D02*
Y80500D01*
X336523Y19820D02*
X350493D01*
X336523D02*
Y42680D01*
X350493Y42680D01*
X355573Y42680D02*
X369543Y42680D01*
Y19820D02*
Y42680D01*
X355573Y19820D02*
X369543D01*
D20*
X202919Y63790D02*
X200380Y66329D01*
X195302D01*
X192763Y63790D01*
Y53633D01*
X195302Y51094D01*
X200380D01*
X202919Y53633D01*
X207998Y51094D02*
X213076D01*
X210537D01*
Y66329D01*
X207998Y63790D01*
X220694Y48554D02*
X230850D01*
X235929Y51094D02*
X241007D01*
X238468D01*
Y66329D01*
X235929Y63790D01*
X163549Y43977D02*
X161010Y46517D01*
X155931D01*
X153392Y43977D01*
Y33821D01*
X155931Y31282D01*
X161010D01*
X163549Y33821D01*
X178784Y31282D02*
X168627D01*
X178784Y41438D01*
Y43977D01*
X176245Y46517D01*
X171166D01*
X168627Y43977D01*
X183862Y28742D02*
X194019D01*
X199097Y31282D02*
X204176D01*
X201637D01*
Y46517D01*
X199097Y43977D01*
X190219Y63790D02*
X187680Y66329D01*
X182601D01*
X180062Y63790D01*
Y53633D01*
X182601Y51094D01*
X187680D01*
X190219Y53633D01*
X195297Y63790D02*
X197836Y66329D01*
X202915D01*
X205454Y63790D01*
Y61250D01*
X202915Y58711D01*
X200376D01*
X202915D01*
X205454Y56172D01*
Y53633D01*
X202915Y51094D01*
X197836D01*
X195297Y53633D01*
X210532Y48554D02*
X220689D01*
X225767Y51094D02*
X230846D01*
X228307D01*
Y66329D01*
X225767Y63790D01*
X163549Y57186D02*
X161010Y59725D01*
X155931D01*
X153392Y57186D01*
Y47029D01*
X155931Y44490D01*
X161010D01*
X163549Y47029D01*
X176245Y44490D02*
Y59725D01*
X168627Y52107D01*
X178784D01*
X183862Y41950D02*
X194019D01*
X199097Y44490D02*
X204176D01*
X201637D01*
Y59725D01*
X199097Y57186D01*
X178027Y63790D02*
X175488Y66329D01*
X170409D01*
X167870Y63790D01*
Y53633D01*
X170409Y51094D01*
X175488D01*
X178027Y53633D01*
X193262Y66329D02*
X183105D01*
Y58711D01*
X188184Y61250D01*
X190723D01*
X193262Y58711D01*
Y53633D01*
X190723Y51094D01*
X185644D01*
X183105Y53633D01*
X198340Y48554D02*
X208497D01*
X213575Y51094D02*
X218654D01*
X216115D01*
Y66329D01*
X213575Y63790D01*
X163549Y63535D02*
X161010Y66075D01*
X155931D01*
X153392Y63535D01*
Y53379D01*
X155931Y50840D01*
X161010D01*
X163549Y53379D01*
X178784Y66075D02*
X173706Y63535D01*
X168627Y58457D01*
Y53379D01*
X171166Y50840D01*
X176245D01*
X178784Y53379D01*
Y55918D01*
X176245Y58457D01*
X168627D01*
X183862Y48300D02*
X194019D01*
X199097Y50840D02*
X204176D01*
X201637D01*
Y66075D01*
X199097Y63535D01*
X216381Y63790D02*
X213842Y66329D01*
X208763D01*
X206224Y63790D01*
Y53633D01*
X208763Y51094D01*
X213842D01*
X216381Y53633D01*
X221459Y66329D02*
X231616D01*
Y63790D01*
X221459Y53633D01*
Y51094D01*
X236694Y48554D02*
X246851D01*
X251929Y51094D02*
X257008D01*
X254469D01*
Y66329D01*
X251929Y63790D01*
X163549Y50581D02*
X161010Y53121D01*
X155931D01*
X153392Y50581D01*
Y40425D01*
X155931Y37886D01*
X161010D01*
X163549Y40425D01*
X168627Y50581D02*
X171166Y53121D01*
X176245D01*
X178784Y50581D01*
Y48042D01*
X176245Y45503D01*
X178784Y42964D01*
Y40425D01*
X176245Y37886D01*
X171166D01*
X168627Y40425D01*
Y42964D01*
X171166Y45503D01*
X168627Y48042D01*
Y50581D01*
X171166Y45503D02*
X176245D01*
X183862Y35346D02*
X194019D01*
X199097Y37886D02*
X204176D01*
X201637D01*
Y53121D01*
X199097Y50581D01*
X250925Y92238D02*
X248386Y94777D01*
X243307D01*
X240768Y92238D01*
Y82081D01*
X243307Y79542D01*
X248386D01*
X250925Y82081D01*
X256003D02*
X258542Y79542D01*
X263621D01*
X266160Y82081D01*
Y92238D01*
X263621Y94777D01*
X258542D01*
X256003Y92238D01*
Y89698D01*
X258542Y87159D01*
X266160D01*
X271238Y77002D02*
X281395D01*
X286473Y79542D02*
X291552D01*
X289013D01*
Y94777D01*
X286473Y92238D01*
X242797D02*
X240258Y94777D01*
X235180D01*
X232641Y92238D01*
Y82081D01*
X235180Y79542D01*
X240258D01*
X242797Y82081D01*
X247876Y79542D02*
X252954D01*
X250415D01*
Y94777D01*
X247876Y92238D01*
X260572Y79542D02*
X265650D01*
X263111D01*
Y94777D01*
X260572Y92238D01*
X273267Y77002D02*
X283424D01*
X288503Y79542D02*
X293581D01*
X291042D01*
Y94777D01*
X288503Y92238D01*
X175740Y106207D02*
X180819D01*
X178279D01*
Y90972D01*
X175740D01*
X180819D01*
X198593Y103668D02*
X196054Y106207D01*
X190975D01*
X188436Y103668D01*
Y93511D01*
X190975Y90972D01*
X196054D01*
X198593Y93511D01*
X203671Y90972D02*
X208749D01*
X206210D01*
Y106207D01*
X203671Y103668D01*
X180745Y112159D02*
Y127394D01*
X188362D01*
X190901Y124854D01*
Y119776D01*
X188362Y117237D01*
X180745D01*
X185823D02*
X190901Y112159D01*
X195980D02*
X201058D01*
X198519D01*
Y127394D01*
X195980Y124854D01*
X208676Y109619D02*
X218832D01*
X223911Y112159D02*
X228989D01*
X226450D01*
Y127394D01*
X223911Y124854D01*
X175664Y112159D02*
Y127394D01*
X183282D01*
X185821Y124854D01*
Y119776D01*
X183282Y117237D01*
X175664D01*
X180743D02*
X185821Y112159D01*
X201056D02*
X190899D01*
X201056Y122315D01*
Y124854D01*
X198517Y127394D01*
X193438D01*
X190899Y124854D01*
X206134Y109619D02*
X216291D01*
X221369Y112159D02*
X226448D01*
X223909D01*
Y127394D01*
X221369Y124854D01*
X168806Y111905D02*
Y127140D01*
X176424D01*
X178963Y124600D01*
Y119522D01*
X176424Y116983D01*
X168806D01*
X173885D02*
X178963Y111905D01*
X184041Y124600D02*
X186581Y127140D01*
X191659D01*
X194198Y124600D01*
Y122061D01*
X191659Y119522D01*
X189120D01*
X191659D01*
X194198Y116983D01*
Y114444D01*
X191659Y111905D01*
X186581D01*
X184041Y114444D01*
X199276Y109365D02*
X209433D01*
X214512Y111905D02*
X219590D01*
X217051D01*
Y127140D01*
X214512Y124600D01*
X162456Y111905D02*
Y127140D01*
X170074D01*
X172613Y124600D01*
Y119522D01*
X170074Y116983D01*
X162456D01*
X167535D02*
X172613Y111905D01*
X185309D02*
Y127140D01*
X177691Y119522D01*
X187848D01*
X192926Y109365D02*
X203083D01*
X208162Y111905D02*
X213240D01*
X210701D01*
Y127140D01*
X208162Y124600D01*
X188364Y112159D02*
Y127394D01*
X195982D01*
X198521Y124854D01*
Y119776D01*
X195982Y117237D01*
X188364D01*
X193443D02*
X198521Y112159D01*
X203599D02*
X208678D01*
X206138D01*
Y127394D01*
X203599Y124854D01*
X216295D02*
X218834Y127394D01*
X223913D01*
X226452Y124854D01*
Y114698D01*
X223913Y112159D01*
X218834D01*
X216295Y114698D01*
Y124854D01*
X231530Y109619D02*
X241687D01*
X246765Y112159D02*
X251844D01*
X249305D01*
Y127394D01*
X246765Y124854D01*
X219682Y100365D02*
Y97826D01*
X224760Y92748D01*
X229839Y97826D01*
Y100365D01*
X224760Y92748D02*
Y85130D01*
X234917D02*
X239995D01*
X237456D01*
Y100365D01*
X234917Y97826D01*
X582930Y139187D02*
X593087D01*
X588008D01*
Y123952D01*
X598165D02*
Y139187D01*
X605783D01*
X608322Y136648D01*
Y131569D01*
X605783Y129030D01*
X598165D01*
X613400Y123952D02*
X618479D01*
X615939D01*
Y139187D01*
X613400Y136648D01*
X560575Y95754D02*
X558036Y98293D01*
X552957D01*
X550418Y95754D01*
Y85597D01*
X552957Y83058D01*
X558036D01*
X560575Y85597D01*
X565653Y95754D02*
X568192Y98293D01*
X573271D01*
X575810Y95754D01*
Y93215D01*
X573271Y90675D01*
X570731D01*
X573271D01*
X575810Y88136D01*
Y85597D01*
X573271Y83058D01*
X568192D01*
X565653Y85597D01*
X580888Y95754D02*
X583427Y98293D01*
X588506D01*
X591045Y95754D01*
Y93215D01*
X588506Y90675D01*
X591045Y88136D01*
Y85597D01*
X588506Y83058D01*
X583427D01*
X580888Y85597D01*
Y88136D01*
X583427Y90675D01*
X580888Y93215D01*
Y95754D01*
X583427Y90675D02*
X588506D01*
X422656Y122428D02*
Y137663D01*
X430274D01*
X432813Y135124D01*
Y130045D01*
X430274Y127506D01*
X422656D01*
X427734D02*
X432813Y122428D01*
X448048Y137663D02*
X437891D01*
Y130045D01*
X442969Y132585D01*
X445509D01*
X448048Y130045D01*
Y124967D01*
X445509Y122428D01*
X440430D01*
X437891Y124967D01*
X413766Y122936D02*
Y138171D01*
X421384D01*
X423923Y135632D01*
Y130554D01*
X421384Y128014D01*
X413766D01*
X418844D02*
X423923Y122936D01*
X436619D02*
Y138171D01*
X429001Y130554D01*
X439158D01*
X487169Y104135D02*
X482090D01*
X484630D01*
Y91439D01*
X482090Y88900D01*
X479551D01*
X477012Y91439D01*
X502404Y88900D02*
X492247D01*
X502404Y99057D01*
Y101596D01*
X499865Y104135D01*
X494786D01*
X492247Y101596D01*
X621535Y126741D02*
X616456D01*
X618996D01*
Y114045D01*
X616456Y111506D01*
X613917D01*
X611378Y114045D01*
X626613Y124202D02*
X629152Y126741D01*
X634231D01*
X636770Y124202D01*
Y121663D01*
X634231Y119123D01*
X631691D01*
X634231D01*
X636770Y116584D01*
Y114045D01*
X634231Y111506D01*
X629152D01*
X626613Y114045D01*
X268983Y67052D02*
X266444Y69591D01*
X261365D01*
X258826Y67052D01*
Y64513D01*
X261365Y61974D01*
X266444D01*
X268983Y59434D01*
Y56895D01*
X266444Y54356D01*
X261365D01*
X258826Y56895D01*
X274061Y69591D02*
Y54356D01*
X279139Y59434D01*
X284218Y54356D01*
Y69591D01*
X289296Y54356D02*
X294375D01*
X291835D01*
Y69591D01*
X289296Y67052D01*
X539750Y111506D02*
Y126741D01*
X547368D01*
X549907Y124202D01*
Y119123D01*
X547368Y116584D01*
X539750D01*
X544828D02*
X549907Y111506D01*
X554985Y126741D02*
X565142D01*
Y124202D01*
X554985Y114045D01*
Y111506D01*
X388112Y28702D02*
Y43937D01*
X395729D01*
X398269Y41398D01*
Y36319D01*
X395729Y33780D01*
X388112D01*
X393190D02*
X398269Y28702D01*
X413504Y43937D02*
X408425Y41398D01*
X403347Y36319D01*
Y31241D01*
X405886Y28702D01*
X410965D01*
X413504Y31241D01*
Y33780D01*
X410965Y36319D01*
X403347D01*
X422653Y39623D02*
Y49780D01*
X420113Y52319D01*
X415035D01*
X412496Y49780D01*
Y39623D01*
X415035Y37084D01*
X420113D01*
X417574Y42162D02*
X422653Y37084D01*
X420113D02*
X422653Y39623D01*
X437888Y37084D02*
X427731D01*
X437888Y47241D01*
Y49780D01*
X435349Y52319D01*
X430270D01*
X427731Y49780D01*
X432054Y31750D02*
Y46985D01*
X439672D01*
X442211Y44446D01*
Y39367D01*
X439672Y36828D01*
X432054D01*
X437132D02*
X442211Y31750D01*
X447289D02*
X452367D01*
X449828D01*
Y46985D01*
X447289Y44446D01*
X459985D02*
X462524Y46985D01*
X467603D01*
X470142Y44446D01*
Y34289D01*
X467603Y31750D01*
X462524D01*
X459985Y34289D01*
Y44446D01*
X388620Y37592D02*
Y52827D01*
X396237D01*
X398777Y50288D01*
Y45209D01*
X396237Y42670D01*
X388620D01*
X393698D02*
X398777Y37592D01*
X403855Y50288D02*
X406394Y52827D01*
X411473D01*
X414012Y50288D01*
Y47749D01*
X411473Y45209D01*
X414012Y42670D01*
Y40131D01*
X411473Y37592D01*
X406394D01*
X403855Y40131D01*
Y42670D01*
X406394Y45209D01*
X403855Y47749D01*
Y50288D01*
X406394Y45209D02*
X411473D01*
X532127Y136140D02*
X529588Y138679D01*
X524509D01*
X521970Y136140D01*
Y125983D01*
X524509Y123444D01*
X529588D01*
X532127Y125983D01*
X537205Y136140D02*
X539744Y138679D01*
X544823D01*
X547362Y136140D01*
Y133601D01*
X544823Y131061D01*
X542283D01*
X544823D01*
X547362Y128522D01*
Y125983D01*
X544823Y123444D01*
X539744D01*
X537205Y125983D01*
X562597Y138679D02*
X557519Y136140D01*
X552440Y131061D01*
Y125983D01*
X554979Y123444D01*
X560058D01*
X562597Y125983D01*
Y128522D01*
X560058Y131061D01*
X552440D01*
X473707Y136140D02*
X471167Y138679D01*
X466089D01*
X463550Y136140D01*
Y125983D01*
X466089Y123444D01*
X471167D01*
X473707Y125983D01*
X478785Y136140D02*
X481324Y138679D01*
X486403D01*
X488942Y136140D01*
Y133601D01*
X486403Y131061D01*
X483863D01*
X486403D01*
X488942Y128522D01*
Y125983D01*
X486403Y123444D01*
X481324D01*
X478785Y125983D01*
X504177Y138679D02*
X494020D01*
Y131061D01*
X499099Y133601D01*
X501638D01*
X504177Y131061D01*
Y125983D01*
X501638Y123444D01*
X496559D01*
X494020Y125983D01*
X415287Y136140D02*
X412747Y138679D01*
X407669D01*
X405130Y136140D01*
Y125983D01*
X407669Y123444D01*
X412747D01*
X415287Y125983D01*
X420365Y136140D02*
X422904Y138679D01*
X427983D01*
X430522Y136140D01*
Y133601D01*
X427983Y131061D01*
X425443D01*
X427983D01*
X430522Y128522D01*
Y125983D01*
X427983Y123444D01*
X422904D01*
X420365Y125983D01*
X435600Y138679D02*
X445757D01*
Y136140D01*
X435600Y125983D01*
Y123444D01*
X713304Y85868D02*
Y73172D01*
X715843Y70633D01*
X720922D01*
X723461Y73172D01*
Y85868D01*
X738696D02*
X733617Y83328D01*
X728539Y78250D01*
Y73172D01*
X731078Y70633D01*
X736157D01*
X738696Y73172D01*
Y75711D01*
X736157Y78250D01*
X728539D01*
X566166Y93975D02*
Y81279D01*
X568705Y78740D01*
X573783D01*
X576323Y81279D01*
Y93975D01*
X591558D02*
X581401D01*
Y86357D01*
X586479Y88897D01*
X589019D01*
X591558Y86357D01*
Y81279D01*
X589019Y78740D01*
X583940D01*
X581401Y81279D01*
M02*
