G04*
G04 #@! TF.GenerationSoftware,Altium Limited,Altium Designer,24.5.2 (23)*
G04*
G04 Layer_Physical_Order=1*
G04 Layer_Color=255*
%FSLAX44Y44*%
%MOMM*%
G71*
G04*
G04 #@! TF.SameCoordinates,592061D7-B9A1-4A66-9416-76F5012AC85A*
G04*
G04*
G04 #@! TF.FilePolarity,Positive*
G04*
G01*
G75*
%ADD12C,0.1500*%
%ADD13C,0.1250*%
%ADD14C,0.2500*%
%ADD17C,0.2000*%
%ADD20C,0.2540*%
%ADD22R,0.8000X0.7500*%
%ADD23R,0.2700X0.3000*%
%ADD24R,0.3000X0.2700*%
G04:AMPARAMS|DCode=25|XSize=0.2339mm|YSize=0.2339mm|CornerRadius=0.117mm|HoleSize=0mm|Usage=FLASHONLY|Rotation=0.000|XOffset=0mm|YOffset=0mm|HoleType=Round|Shape=RoundedRectangle|*
%AMROUNDEDRECTD25*
21,1,0.2339,0.0000,0,0,0.0*
21,1,0.0000,0.2339,0,0,0.0*
1,1,0.2339,0.0000,0.0000*
1,1,0.2339,0.0000,0.0000*
1,1,0.2339,0.0000,0.0000*
1,1,0.2339,0.0000,0.0000*
%
%ADD25ROUNDEDRECTD25*%
%ADD26R,0.6500X0.8499*%
%ADD27R,1.2000X1.8000*%
%ADD28R,0.6000X1.5500*%
%ADD29R,1.2000X0.9500*%
%ADD30R,0.3500X0.2000*%
%ADD31R,0.7620X0.8128*%
%ADD32R,0.3000X0.8000*%
%ADD33R,0.9250X0.3000*%
%ADD34R,0.7112X0.2540*%
%ADD35R,0.3048X1.7018*%
%ADD36C,0.1930*%
%ADD39C,0.1700*%
%ADD40R,0.7500X0.8000*%
%ADD41R,1.1300X1.8200*%
%ADD42R,0.5000X0.6000*%
%ADD43R,0.6000X0.5000*%
%ADD44R,1.4000X0.7500*%
%ADD45R,0.8500X0.9500*%
%ADD75C,1.0000*%
%ADD76R,0.5500X0.3500*%
%ADD77R,1.1000X1.5000*%
%ADD78R,2.1000X0.3500*%
%ADD79C,0.0889*%
%ADD80C,0.1050*%
%ADD81C,0.1700*%
%ADD82C,0.1650*%
%ADD83C,0.1580*%
%ADD84R,1.2500X1.0000*%
%ADD85C,1.4001*%
%ADD86C,0.2339*%
%ADD87C,0.2000*%
%ADD88C,0.5000*%
%ADD89C,0.2500*%
D12*
X45200Y87905D02*
X54235Y78869D01*
Y77515D02*
Y78869D01*
X72500Y92500D02*
Y93000D01*
Y92000D02*
Y92500D01*
X75000Y115250D02*
X76925Y113325D01*
Y96925D02*
Y113325D01*
X72500Y93000D02*
X74250Y94750D01*
X74750D01*
X93000Y85400D02*
X98400D01*
X93150Y77652D02*
Y85250D01*
X89536Y74038D02*
X93150Y77652D01*
X93000Y85400D02*
X93150Y85250D01*
X89288Y74038D02*
X89536D01*
X89250Y74000D02*
X89288Y74038D01*
X74750Y94750D02*
X76925Y96925D01*
X74250Y90250D02*
X74371D01*
X75250Y77500D02*
Y89372D01*
X74371Y90250D02*
X75250Y89372D01*
X72500Y92000D02*
X74250Y90250D01*
X45200Y87905D02*
Y100700D01*
X85750Y46000D02*
Y49500D01*
X65500Y4250D02*
X72500D01*
X75250Y34852D02*
Y42500D01*
X54235Y77515D02*
X54250Y77500D01*
X45200Y100700D02*
X47000Y102500D01*
D13*
X61250Y67350D02*
Y70500D01*
X64750Y67350D02*
Y70500D01*
X68250Y67350D02*
Y70500D01*
X71750Y67350D02*
Y70500D01*
X78750Y67350D02*
Y70500D01*
X75250Y67350D02*
Y70500D01*
X78750Y63500D02*
X82250D01*
X78750Y60000D02*
X82250D01*
X71750Y49500D02*
Y52650D01*
X61250Y49500D02*
Y52650D01*
X61250Y52650D02*
X61250Y52650D01*
X64750Y49500D02*
Y52650D01*
X64750Y52650D02*
X64750Y52650D01*
X68250Y49500D02*
Y52650D01*
X68250Y52650D02*
X68250Y52650D01*
X57750Y63500D02*
X61250D01*
X57750Y60000D02*
X61250D01*
X57750Y56500D02*
X61250D01*
D14*
X93000Y32350D02*
X93100Y32250D01*
X98250D01*
D17*
X81500Y30250D02*
X85000Y26750D01*
X120454Y30850D02*
X126844D01*
X120052Y30448D02*
X120454Y30850D01*
X101250Y15714D02*
X108318Y15714D01*
X108552Y15948D01*
X53750Y24000D02*
X55246Y25496D01*
Y28246D01*
X81500Y30250D02*
Y32150D01*
X55246Y28246D02*
X55750Y28750D01*
X61750Y24000D02*
X62000D01*
X54000D02*
X61750D01*
X63000D02*
X63250Y24250D01*
X81150Y32500D02*
X81500Y32150D01*
D20*
X187536Y62230D02*
X188766Y61000D01*
X187536Y62230D02*
Y62500D01*
D22*
X209776Y36595D02*
D03*
Y23094D02*
D03*
X195806Y36595D02*
D03*
Y23094D02*
D03*
X183614Y36595D02*
D03*
Y23094D02*
D03*
X221968Y36595D02*
D03*
Y23094D02*
D03*
X416250Y52250D02*
D03*
Y65750D02*
D03*
X75750Y11750D02*
D03*
Y25250D02*
D03*
X44250Y26000D02*
D03*
Y12500D02*
D03*
D23*
X171860Y19684D02*
D03*
X166160D02*
D03*
X171860Y32892D02*
D03*
X166160D02*
D03*
X171860Y39242D02*
D03*
X166160D02*
D03*
X171860Y26288D02*
D03*
X166160D02*
D03*
X545600Y101000D02*
D03*
X539900D02*
D03*
X393950Y18250D02*
D03*
X388250D02*
D03*
X394500Y27250D02*
D03*
X388800D02*
D03*
X603850Y77250D02*
D03*
X598150D02*
D03*
X379633Y86250D02*
D03*
X373933Y86250D02*
D03*
X86850Y32500D02*
D03*
X81150D02*
D03*
X98900Y41500D02*
D03*
X104600D02*
D03*
X103601Y53001D02*
D03*
X97901Y53001D02*
D03*
X103400Y58750D02*
D03*
X109100D02*
D03*
X114901Y53001D02*
D03*
X120601Y53001D02*
D03*
D24*
X253718Y68001D02*
D03*
Y62300D02*
D03*
X246860Y68001D02*
D03*
Y62300D02*
D03*
X195092Y100531D02*
D03*
Y94831D02*
D03*
X188614Y100531D02*
D03*
Y94831D02*
D03*
X181756Y100277D02*
D03*
Y94577D02*
D03*
X175406Y100277D02*
D03*
Y94577D02*
D03*
X201442Y94873D02*
D03*
Y100573D02*
D03*
X550750Y72750D02*
D03*
Y67050D02*
D03*
X423000Y112100D02*
D03*
Y106400D02*
D03*
X414000Y112600D02*
D03*
Y106900D02*
D03*
X432250Y21500D02*
D03*
Y15800D02*
D03*
X522294Y113109D02*
D03*
Y107409D02*
D03*
X463791Y113109D02*
D03*
Y107409D02*
D03*
X405538Y113109D02*
D03*
Y107409D02*
D03*
X696750Y74150D02*
D03*
Y79850D02*
D03*
X677000Y74150D02*
D03*
Y79850D02*
D03*
X396500Y107350D02*
D03*
X390500D02*
D03*
X396500Y101650D02*
D03*
X390500D02*
D03*
X126250Y52850D02*
D03*
Y47150D02*
D03*
X34500Y91850D02*
D03*
Y86150D02*
D03*
X93000Y32350D02*
D03*
Y26650D02*
D03*
X109250Y47150D02*
D03*
Y52850D02*
D03*
X49500Y91100D02*
D03*
Y85400D02*
D03*
X93000Y91100D02*
D03*
Y85400D02*
D03*
D25*
X181749Y75000D02*
D03*
X185250D02*
D03*
X188750D02*
D03*
X192250D02*
D03*
X195750D02*
D03*
X199250D02*
D03*
X202750D02*
D03*
X181749Y71500D02*
D03*
X185250D02*
D03*
X188750D02*
D03*
X192250D02*
D03*
X195750D02*
D03*
X199250D02*
D03*
X202750D02*
D03*
X181749Y68000D02*
D03*
X185250D02*
D03*
X188750D02*
D03*
X192250D02*
D03*
X195750D02*
D03*
X199250D02*
D03*
X202750D02*
D03*
X181749Y64500D02*
D03*
X185250D02*
D03*
X188750D02*
D03*
X192250D02*
D03*
X195750D02*
D03*
X199250D02*
D03*
X202750D02*
D03*
X181749Y61000D02*
D03*
X185250D02*
D03*
X188750D02*
D03*
X192250D02*
D03*
X195750D02*
D03*
X199250D02*
D03*
X202750D02*
D03*
X181749Y57500D02*
D03*
X185250D02*
D03*
X188750D02*
D03*
X192250D02*
D03*
X195750D02*
D03*
X199250D02*
D03*
X202750D02*
D03*
D26*
X238346Y52321D02*
D03*
X221846D02*
D03*
Y67820D02*
D03*
X238346D02*
D03*
D27*
X533250Y34000D02*
D03*
X481250D02*
D03*
D28*
X517250Y72750D02*
D03*
X507250D02*
D03*
X497250D02*
D03*
D29*
X305000Y40750D02*
D03*
Y19250D02*
D03*
X263000Y40750D02*
D03*
Y19250D02*
D03*
D30*
X415000Y18000D02*
D03*
Y21500D02*
D03*
Y25000D02*
D03*
X423500Y18000D02*
D03*
Y21500D02*
D03*
Y25000D02*
D03*
X356500Y84750D02*
D03*
X348000Y91750D02*
D03*
X356500D02*
D03*
Y88250D02*
D03*
X348000Y84750D02*
D03*
Y88250D02*
D03*
D31*
X381485Y104500D02*
D03*
X367515D02*
D03*
X367265Y118000D02*
D03*
X381235D02*
D03*
D32*
X687000Y61750D02*
D03*
X692000D02*
D03*
X697000D02*
D03*
Y36250D02*
D03*
X692000D02*
D03*
X687000D02*
D03*
D33*
X704875Y59000D02*
D03*
Y54000D02*
D03*
Y49000D02*
D03*
Y44000D02*
D03*
Y39000D02*
D03*
X679125D02*
D03*
Y44000D02*
D03*
Y49000D02*
D03*
Y54000D02*
D03*
Y59000D02*
D03*
D34*
X574371Y66001D02*
D03*
Y61001D02*
D03*
Y56001D02*
D03*
Y51001D02*
D03*
X602312D02*
D03*
Y56001D02*
D03*
Y61001D02*
D03*
Y66001D02*
D03*
D35*
X588341Y58501D02*
D03*
D36*
X378500Y78500D02*
D03*
X374500Y74500D02*
D03*
Y78500D02*
D03*
X378500Y74500D02*
D03*
Y70500D02*
D03*
X374500D02*
D03*
X370500Y78500D02*
D03*
Y74500D02*
D03*
X366500D02*
D03*
X370500Y66500D02*
D03*
Y70500D02*
D03*
X378500Y62500D02*
D03*
Y66500D02*
D03*
X374500D02*
D03*
Y62500D02*
D03*
X370500D02*
D03*
X366500Y70500D02*
D03*
X366500Y78500D02*
D03*
X362500Y74500D02*
D03*
Y78500D02*
D03*
Y66500D02*
D03*
Y70500D02*
D03*
X366500Y62500D02*
D03*
Y66500D02*
D03*
X362500Y62500D02*
D03*
D39*
X50750Y77500D02*
D03*
X61250Y70500D02*
D03*
X64750D02*
D03*
X68250D02*
D03*
X71750D02*
D03*
X57750Y74000D02*
D03*
X54250Y70500D02*
D03*
X75250D02*
D03*
X78750D02*
D03*
X82250D02*
D03*
X85750D02*
D03*
X54250Y77500D02*
D03*
X61250D02*
D03*
X68250D02*
D03*
X75250D02*
D03*
X82250D02*
D03*
X89250D02*
D03*
X54250Y74000D02*
D03*
X61250D02*
D03*
X64750D02*
D03*
X68250D02*
D03*
X71750D02*
D03*
X75250D02*
D03*
X78750D02*
D03*
X82250D02*
D03*
X85750D02*
D03*
X89250D02*
D03*
X50750Y67000D02*
D03*
X54250D02*
D03*
X57750D02*
D03*
X82250D02*
D03*
X85750D02*
D03*
X89250D02*
D03*
X54250Y63500D02*
D03*
X57750D02*
D03*
X64750D02*
D03*
X68250D02*
D03*
X71750D02*
D03*
X75250D02*
D03*
X82250D02*
D03*
X85750D02*
D03*
X50750Y60000D02*
D03*
X54250D02*
D03*
X57750D02*
D03*
X64750D02*
D03*
X68250D02*
D03*
X71750D02*
D03*
X75250D02*
D03*
X82250D02*
D03*
X85750D02*
D03*
X89250D02*
D03*
X54250Y56500D02*
D03*
X57750D02*
D03*
X64750D02*
D03*
X68250D02*
D03*
X71750D02*
D03*
X75250D02*
D03*
X82250D02*
D03*
X85750D02*
D03*
X50750Y53000D02*
D03*
X54250D02*
D03*
X57750D02*
D03*
X78750Y56500D02*
D03*
X85750Y53000D02*
D03*
X89250D02*
D03*
X54250Y49500D02*
D03*
X57750D02*
D03*
X61250D02*
D03*
X64750D02*
D03*
X68250D02*
D03*
X71750D02*
D03*
X75250D02*
D03*
X78750D02*
D03*
X85750D02*
D03*
X50750Y46000D02*
D03*
X54250D02*
D03*
X57750D02*
D03*
X61250D02*
D03*
X64750D02*
D03*
X68250D02*
D03*
X71750D02*
D03*
X75250D02*
D03*
X78750D02*
D03*
X85750D02*
D03*
X89250D02*
D03*
X50750Y42500D02*
D03*
X54250D02*
D03*
X61250D02*
D03*
X68250D02*
D03*
X75250D02*
D03*
X82250D02*
D03*
X85750D02*
D03*
X89250D02*
D03*
X57750Y70500D02*
D03*
X50750Y74000D02*
D03*
D40*
X421750Y88000D02*
D03*
X404533Y54250D02*
D03*
Y65750D02*
D03*
X359033Y49250D02*
D03*
X337283Y61000D02*
D03*
X435250Y88000D02*
D03*
X391033Y54250D02*
D03*
X372533Y49250D02*
D03*
X350783Y61000D02*
D03*
X391033Y65750D02*
D03*
D41*
X344183Y31250D02*
D03*
X361883Y31250D02*
D03*
D42*
X53750Y14000D02*
D03*
Y24000D02*
D03*
X34750Y10250D02*
D03*
Y20250D02*
D03*
X61750Y24000D02*
D03*
Y14000D02*
D03*
X72500Y102500D02*
D03*
Y92500D02*
D03*
X85250Y10000D02*
D03*
X85250Y20000D02*
D03*
D43*
X64500Y5250D02*
D03*
X54500D02*
D03*
D44*
X21000Y62250D02*
D03*
Y76750D02*
D03*
D45*
X120052Y15948D02*
D03*
X108552D02*
D03*
X108552Y30448D02*
D03*
X120052Y30448D02*
D03*
D75*
X588750Y108000D02*
D03*
D76*
X451250Y63500D02*
D03*
Y69000D02*
D03*
Y58000D02*
D03*
X430750Y69000D02*
D03*
Y58000D02*
D03*
X430750Y63500D02*
D03*
D77*
X441000D02*
D03*
D78*
Y76250D02*
D03*
Y50750D02*
D03*
D79*
X205886Y61000D02*
X209776Y57110D01*
X202750Y61000D02*
X205886D01*
X180486Y64500D02*
X181749D01*
Y75000D02*
Y94571D01*
X181756Y94577D01*
X181710Y71500D02*
X181749D01*
X188614Y89553D02*
Y94831D01*
X185250Y86188D02*
X188614Y89553D01*
X185250Y75000D02*
Y86188D01*
X177946Y75264D02*
Y92037D01*
Y75264D02*
X181710Y71500D01*
X175406Y94577D02*
X177946Y92037D01*
X246710Y62300D02*
X246860D01*
X238346Y66820D02*
X241151Y64015D01*
X238346Y66820D02*
Y67820D01*
X244995Y64015D02*
X246710Y62300D01*
X241151Y64015D02*
X244995D01*
X251162Y59158D02*
Y59894D01*
Y59158D02*
X251683Y58637D01*
X251162Y59894D02*
X253568Y62300D01*
X221846Y53320D02*
X224651Y56126D01*
X221846Y52321D02*
Y53320D01*
X224651Y56126D02*
X228593D01*
X231104Y58637D02*
X251683D01*
X228593Y56126D02*
X231104Y58637D01*
X231350Y44325D02*
X238346Y51321D01*
Y52321D01*
X171860Y39242D02*
X181116D01*
X185250Y55948D02*
Y57500D01*
X177378Y61392D02*
X180486Y64500D01*
X170326Y19684D02*
X171860D01*
X168843Y21167D02*
X170326Y19684D01*
X163477Y41295D02*
X164258Y42076D01*
X177378Y54911D02*
Y61392D01*
X163477Y24236D02*
Y41295D01*
X164543Y42076D02*
X177378Y54911D01*
X164258Y42076D02*
X164543D01*
X168843Y21167D02*
Y22934D01*
X164258Y23455D02*
X168323D01*
X163477Y24236D02*
X164258Y23455D01*
X168323D02*
X168843Y22934D01*
X221718Y36595D02*
X221968D01*
X188947Y31511D02*
X214328D01*
X215872Y33055D01*
X169010Y29288D02*
X171860Y26438D01*
Y26288D02*
Y26438D01*
X169010Y29288D02*
Y41128D01*
X176033Y48151D01*
X199250Y75040D02*
X202060Y77850D01*
X199250Y75000D02*
Y75040D01*
X188750Y75000D02*
Y85117D01*
X182250Y38209D02*
X188947Y31511D01*
X188750Y85117D02*
X192678Y89045D01*
X155848Y86505D02*
Y89807D01*
X155086Y76599D02*
X163976Y85489D01*
X153308Y79393D02*
X163976Y90061D01*
X150514Y81171D02*
X155848Y86505D01*
X155086Y47592D02*
Y76599D01*
X151864Y44370D02*
X155086Y47592D01*
X153308Y48328D02*
Y79393D01*
X150514Y48049D02*
Y81171D01*
X220823Y85088D02*
Y101950D01*
X202750Y71500D02*
X207236D01*
X202750Y64500D02*
X202790D01*
X220823Y101950D02*
X223158Y104285D01*
Y119324D01*
X215872Y42897D02*
X217300Y44325D01*
X231350D01*
X215872Y33055D02*
Y42897D01*
X223482Y60070D02*
X229013Y65601D01*
X237636Y74821D02*
X269386D01*
X229013Y65601D02*
Y67872D01*
X236218Y73403D02*
X237636Y74821D01*
X234543Y73403D02*
X236218D01*
X229013Y67872D02*
X234543Y73403D01*
X209776Y57110D02*
X212736Y60070D01*
X209776Y36595D02*
Y57110D01*
X212736Y60070D02*
X223482D01*
X150713Y86958D02*
Y90514D01*
X146848Y83093D02*
X150713Y86958D01*
Y90514D02*
X157793Y97594D01*
X198312D01*
X201292Y100573D02*
X201442D01*
X198312Y97594D02*
X201292Y100573D01*
X202060Y77850D02*
X205105D01*
X223920Y85630D02*
Y99205D01*
X202750Y75000D02*
X207436D01*
X215461Y83026D01*
X202790Y64500D02*
X223920Y85630D01*
X207236Y71500D02*
X220823Y85088D01*
X205105Y77850D02*
X216046Y88791D01*
X210647Y100573D02*
X215961Y95259D01*
X201442Y100573D02*
X210647D01*
X217650Y32527D02*
X221718Y36595D01*
X217650Y32318D02*
Y32527D01*
X214635Y29303D02*
X217650Y32318D01*
X177172Y26288D02*
X180187Y29303D01*
X214635D01*
X171860Y26288D02*
X177172D01*
X173628Y16909D02*
X200298D01*
X202838Y19449D01*
X176168Y14623D02*
X202330D01*
X181116Y39242D02*
X181682Y38677D01*
X182199Y38159D01*
X153642Y43633D02*
X158160Y48151D01*
X181682Y38677D02*
X181732Y38727D01*
X184301Y54911D02*
X185250Y55859D01*
X177378Y54911D02*
X184301D01*
X189630Y43579D02*
X196488D01*
X199250Y46341D01*
Y57500D01*
X195229Y47389D02*
X195750Y47910D01*
X189868Y47389D02*
X195229D01*
X176033Y48151D02*
X182941D01*
X192250Y57460D02*
Y57500D01*
X182941Y48151D02*
X192250Y57460D01*
X195750Y47910D02*
Y57500D01*
D80*
X50750Y77500D02*
Y79000D01*
X46750Y83000D02*
X50750Y79000D01*
X42875Y86942D02*
X46750Y83067D01*
Y83000D02*
Y83067D01*
X42875Y86942D02*
Y117500D01*
X57750Y74000D02*
X58825Y75075D01*
Y80538D01*
X55650Y83713D02*
X58825Y80538D01*
X55650Y83713D02*
Y117500D01*
X96250Y43938D02*
X97788D01*
X94062D02*
X96250D01*
X79825Y40434D02*
X81759Y38500D01*
X75750Y11000D02*
X86000D01*
X97788Y43938D02*
X98725Y43000D01*
X92000Y46000D02*
X94062Y43938D01*
X82285Y42535D02*
X86846Y37975D01*
X35000Y20250D02*
Y26835D01*
X103400Y58750D02*
Y60888D01*
X98325Y58750D02*
X103400D01*
X86250Y32500D02*
X86850D01*
X83075Y35675D02*
X86250Y32500D01*
X78750Y46000D02*
X79825Y44925D01*
X75250Y46000D02*
X77675Y43575D01*
X85976Y35875D02*
X88625D01*
X86846Y37975D02*
X89495D01*
X77675Y38330D02*
Y43575D01*
X85750Y42500D02*
X88175Y40075D01*
X80330Y35675D02*
X83075D01*
X88175Y40075D02*
X90365D01*
X83373Y38478D02*
X85976Y35875D01*
X64500Y5250D02*
Y7750D01*
X70025Y13275D01*
X71750Y74000D02*
X72825Y75075D01*
X68250Y88932D02*
X72825Y84357D01*
X53550Y82843D02*
Y117500D01*
X86825Y75075D02*
Y78505D01*
X84675Y76425D02*
Y79324D01*
X85725Y80374D01*
X85750Y70500D02*
X86825Y71575D01*
X82250Y74000D02*
X84675Y76425D01*
X85750Y74000D02*
X86825Y75075D01*
Y78505D02*
X87825Y79505D01*
X89250Y77676D02*
X89925Y78351D01*
X89250Y77500D02*
Y77676D01*
X91181Y69425D02*
X104850Y83094D01*
X88175Y69425D02*
X91181D01*
X90361Y71575D02*
X102750Y83964D01*
X86825Y71575D02*
X90361D01*
X115350Y78745D02*
Y117500D01*
X104850Y83094D02*
Y117500D01*
X106950Y82225D02*
Y117500D01*
X111150Y80485D02*
Y117500D01*
X109050Y81355D02*
Y117500D01*
X113250Y79615D02*
Y117500D01*
X102750Y83964D02*
Y117500D01*
X103400Y60888D02*
X106068Y63556D01*
X89250Y46000D02*
X92000D01*
X86825Y64575D02*
X92270D01*
X89250Y67000D02*
X91726D01*
X85750Y63500D02*
X86825Y64575D01*
X85750Y67000D02*
X88175Y69425D01*
X95000Y55425D02*
X98325Y58750D01*
X88175Y55425D02*
X95000D01*
X86825Y57575D02*
X94180D01*
X88175Y62425D02*
X93090D01*
X89250Y60000D02*
X93635D01*
X77675Y76425D02*
Y81234D01*
X79425Y82984D01*
X79825Y75075D02*
Y80414D01*
X81525Y82114D01*
X82250Y77500D02*
Y79869D01*
X83625Y81244D01*
X75250Y74000D02*
X77675Y76425D01*
X78750Y74000D02*
X79825Y75075D01*
X68250Y88932D02*
Y117500D01*
X68250Y74000D02*
Y74071D01*
X70675Y76495D02*
Y83537D01*
X68250Y74071D02*
X70675Y76495D01*
X72825Y75075D02*
Y84357D01*
X68250Y77500D02*
Y82992D01*
X94180Y57575D02*
X115350Y78745D01*
X93090Y62425D02*
X111150Y80485D01*
X92270Y64575D02*
X109050Y81355D01*
X93635Y60000D02*
X113250Y79615D01*
X91726Y67000D02*
X106950Y82225D01*
X21000Y62250D02*
X22986Y64236D01*
X100808Y38425D02*
X101075D01*
X99250D02*
X100808D01*
X101075D02*
X104525Y34975D01*
X99938Y36325D02*
X102325Y33938D01*
X58825Y38787D02*
Y44925D01*
X120052Y15948D02*
Y16448D01*
X22986Y64236D02*
X42236D01*
X34441Y75000D02*
X47016Y62425D01*
X24850Y90531D02*
X48381Y67000D01*
X48876Y69475D02*
X51825D01*
X34500Y83851D02*
X48876Y69475D01*
X51825Y62425D02*
X54250Y60000D01*
X47016Y62425D02*
X51825D01*
X46471Y60000D02*
X50750D01*
X56675Y39925D02*
Y43575D01*
X55750Y39000D02*
X56675Y39925D01*
X47836Y64575D02*
X49750D01*
X113250Y23250D02*
X120052Y16448D01*
X102325Y25243D02*
Y33938D01*
X104525Y34975D02*
X105312Y34188D01*
X104525Y34975D02*
X105312Y34188D01*
X106750Y32750D01*
X104525Y34975D02*
X104525D01*
X105312Y34188D02*
X105312D01*
X106750Y32250D02*
Y32750D01*
X22750Y89661D02*
X47836Y64575D01*
X22750Y89661D02*
Y117500D01*
X24850Y90531D02*
Y117500D01*
X98500Y36325D02*
X99938D01*
X90365Y40075D02*
X94115Y36325D01*
X89250Y42500D02*
X90910D01*
X94985Y38425D01*
X98500Y36325D02*
X98500Y36325D01*
X94115Y36325D02*
X98500D01*
X99250Y38425D02*
Y38425D01*
X94985Y38425D02*
X99250D01*
X22750Y75000D02*
X34441D01*
X21000Y76750D02*
X22750Y75000D01*
X104318Y23250D02*
X113250D01*
X102325Y25243D02*
X104318Y23250D01*
X79425Y82984D02*
Y117594D01*
X29250Y91400D02*
X34500Y86150D01*
X29250Y91400D02*
Y92000D01*
X38675Y85202D02*
Y117500D01*
X40775Y86072D02*
Y117500D01*
X89925Y78351D02*
Y117654D01*
X56675Y76425D02*
Y79718D01*
X57750Y84583D02*
Y117500D01*
Y84583D02*
X61250Y81083D01*
X59850Y85453D02*
Y117500D01*
Y85453D02*
X63675Y81627D01*
X61250Y77500D02*
Y81083D01*
X53550Y82843D02*
X56675Y79718D01*
X46225Y75096D02*
Y77585D01*
X44500Y82280D02*
X48325Y78455D01*
Y76425D02*
Y78455D01*
X42310Y81500D02*
X46225Y77585D01*
X42310Y81500D02*
Y81567D01*
X44500Y82280D02*
Y82347D01*
X42925Y57575D02*
X53175D01*
X54250Y56500D01*
X42236Y64236D02*
X46471Y60000D01*
X41000Y59500D02*
X42925Y57575D01*
X85750Y60000D02*
X88175Y62425D01*
X71750Y46000D02*
X72825Y44925D01*
X57750Y46000D02*
X58825Y44925D01*
X85750Y53000D02*
X88175Y55425D01*
X85750Y56500D02*
X86825Y57575D01*
X48075Y9425D02*
X57872D01*
X70025Y13275D02*
Y40845D01*
X65000Y5250D02*
X66975Y7225D01*
X72125Y28125D02*
Y39976D01*
X61000Y32000D02*
X63675Y34675D01*
X64477Y19000D02*
X65825Y20348D01*
X52233Y29225D02*
X61250Y38242D01*
X48225Y29225D02*
X52233D01*
X39665Y31500D02*
X51538D01*
X70675Y41496D02*
Y43575D01*
X61250Y46000D02*
X63675Y43575D01*
Y34675D02*
Y43575D01*
X67925Y41999D02*
X68250Y42324D01*
X70025Y40845D02*
X70675Y41496D01*
X51538Y31500D02*
X58825Y38787D01*
X61250Y38242D02*
Y42500D01*
X54250Y46000D02*
X56675Y43575D01*
X86000Y11000D02*
X89775Y14775D01*
X55725Y16475D02*
X58250Y19000D01*
X81759Y38500D02*
X82237D01*
X35000Y26835D02*
X39665Y31500D01*
X30940Y20250D02*
X34750D01*
X28940Y18250D02*
X30940Y20250D01*
X28500Y18250D02*
X28940D01*
X45000Y12500D02*
X48075Y9425D01*
X45000Y26000D02*
X48225Y29225D01*
X75500Y24500D02*
X75750D01*
X72275Y27725D02*
X75500Y24500D01*
X72275Y27725D02*
Y27975D01*
X72125Y28125D02*
X72275Y27975D01*
X79825Y40434D02*
Y42250D01*
X79825Y42250D02*
X79825Y42250D01*
X79825Y42250D02*
Y44925D01*
X65825Y20348D02*
Y44925D01*
X57872Y9425D02*
X67925Y19478D01*
Y41999D01*
X58250Y19000D02*
X64477D01*
X81522Y38478D02*
X82259D01*
X82237Y38500D02*
X82259Y38478D01*
X49750Y64575D02*
X49750Y64575D01*
X48325Y76425D02*
X50750Y74000D01*
X92810Y32540D02*
X93000Y32350D01*
X92810Y32540D02*
Y34660D01*
X89495Y37975D02*
X92810Y34660D01*
X88625Y35875D02*
X89775Y34725D01*
X82259Y38478D02*
X83373D01*
X81500Y38500D02*
X81522Y38478D01*
X77675Y38330D02*
X79877Y36127D01*
X72825Y40676D02*
Y44925D01*
X72125Y39976D02*
X72825Y40676D01*
X68250Y42324D02*
Y42500D01*
Y46000D02*
X70675Y43575D01*
X79877Y36127D02*
X79877D01*
X80330Y35675D01*
X89775Y14775D02*
Y34725D01*
X81525Y82114D02*
Y117594D01*
X83625Y81244D02*
Y117594D01*
X85725Y80374D02*
Y117594D01*
X87825Y79505D02*
Y117594D01*
X64750Y46000D02*
X65825Y44925D01*
X66150Y88062D02*
Y117500D01*
Y88062D02*
X70675Y83537D01*
X61950Y86322D02*
Y117500D01*
Y86322D02*
X65825Y82447D01*
Y75075D02*
Y82447D01*
X63675Y76425D02*
Y81627D01*
X64050Y87192D02*
X68250Y82992D01*
X64050Y87192D02*
Y117500D01*
X64750Y74000D02*
X65825Y75075D01*
X61250Y74000D02*
X63675Y76425D01*
X48381Y67000D02*
X50750D01*
X49745Y71575D02*
X53175D01*
X46225Y75096D02*
X49745Y71575D01*
X49750Y64575D02*
X53175D01*
X54250Y63500D01*
X53175Y71575D02*
X54250Y70500D01*
X51825Y69425D02*
X54250Y67000D01*
X54250Y74000D02*
X56675Y76425D01*
X34500Y83851D02*
Y86150D01*
X38675Y85202D02*
X42310Y81567D01*
X40775Y86072D02*
X44500Y82347D01*
D81*
X85750Y49500D02*
X93000D01*
X47750Y53000D02*
X50750D01*
X46000Y51250D02*
X47750Y53000D01*
X41250Y51250D02*
X46000D01*
X83205Y49500D02*
X85750D01*
X75250Y55545D02*
Y56500D01*
Y55545D02*
X77795Y53000D01*
X79705D01*
X83205Y49500D01*
X95350Y47150D02*
X109250D01*
X93000Y49500D02*
X95350Y47150D01*
D82*
X89250Y53000D02*
X97899D01*
X103599Y52999D02*
X114899D01*
X120417Y52887D02*
X137250D01*
D83*
X30000Y40000D02*
X33000Y43000D01*
X47250D01*
X50227Y45977D01*
X50727D01*
X50750Y46000D01*
D84*
X70000Y60000D02*
D03*
D85*
X639050Y45800D02*
D03*
X651750Y33100D02*
D03*
Y58500D02*
D03*
X626350D02*
D03*
Y33100D02*
D03*
D86*
X185250Y71500D02*
D03*
X188750D02*
D03*
X192250D02*
D03*
X195750D02*
D03*
X199250D02*
D03*
Y68000D02*
D03*
Y64500D02*
D03*
Y61000D02*
D03*
X195750D02*
D03*
X192250D02*
D03*
X188750D02*
D03*
X185250D02*
D03*
Y68000D02*
D03*
X188750D02*
D03*
X192250D02*
D03*
X195750D02*
D03*
Y64500D02*
D03*
X192250D02*
D03*
X189630Y43579D02*
D03*
X188750Y64500D02*
D03*
X185250D02*
D03*
D87*
X238346Y67820D02*
D03*
X192678Y89045D02*
D03*
X195002Y94442D02*
D03*
X163976Y90061D02*
D03*
Y85489D02*
D03*
X155848Y89807D02*
D03*
X215961Y95259D02*
D03*
X223920Y99205D02*
D03*
X215461Y83026D02*
D03*
X216046Y88791D02*
D03*
X202838Y19449D02*
D03*
X202330Y14623D02*
D03*
X158160Y48151D02*
D03*
X181732Y38727D02*
D03*
X189868Y47389D02*
D03*
D88*
X441000Y59500D02*
D03*
Y67500D02*
D03*
X18500Y115500D02*
D03*
X4500Y87750D02*
D03*
X47250Y115500D02*
D03*
X98400D02*
D03*
X74250Y115250D02*
D03*
X98400Y93250D02*
D03*
X31750Y115500D02*
D03*
X18750Y87750D02*
D03*
X34500Y97500D02*
D03*
X72500Y109500D02*
D03*
X47000Y102500D02*
D03*
X4500Y115500D02*
D03*
X29250Y92000D02*
D03*
X49500Y96750D02*
D03*
X4500Y18000D02*
D03*
X113250Y4500D02*
D03*
X91250D02*
D03*
X28500Y18250D02*
D03*
X47750Y4750D02*
D03*
X4500Y4500D02*
D03*
X98250Y32250D02*
D03*
X76250Y33750D02*
D03*
X85000Y26750D02*
D03*
X61000Y31250D02*
D03*
X135500Y57500D02*
D03*
X115500Y59500D02*
D03*
X66500Y57500D02*
D03*
X73500D02*
D03*
X135500Y4500D02*
D03*
X94000Y21500D02*
D03*
X135500Y18250D02*
D03*
Y32000D02*
D03*
Y48250D02*
D03*
Y73750D02*
D03*
X119750Y89250D02*
D03*
X135500Y89750D02*
D03*
Y115500D02*
D03*
X119750D02*
D03*
X72500Y4250D02*
D03*
X98400Y85400D02*
D03*
X106068Y63556D02*
D03*
X115250Y42500D02*
D03*
X73500Y62500D02*
D03*
X66500D02*
D03*
X4500Y63000D02*
D03*
X41250Y51250D02*
D03*
X41000Y59500D02*
D03*
X35000Y4250D02*
D03*
X4500Y40000D02*
D03*
X27750Y10250D02*
D03*
X126844Y30850D02*
D03*
X101250Y15714D02*
D03*
X31750Y59750D02*
D03*
X22250Y18000D02*
D03*
X23500Y40000D02*
D03*
X4500Y51250D02*
D03*
X30000Y40000D02*
D03*
X110750Y68000D02*
D03*
D89*
X61250Y67350D02*
D03*
X64750D02*
D03*
X68250D02*
D03*
X71750D02*
D03*
X81500Y38500D02*
D03*
X71500Y86750D02*
D03*
X52750Y91000D02*
D03*
X96250Y43938D02*
D03*
X71750Y52650D02*
D03*
X78750Y56500D02*
D03*
X82250Y56500D02*
D03*
X75250Y49500D02*
D03*
X61250Y52650D02*
D03*
X64750D02*
D03*
X68250D02*
D03*
X78750Y49500D02*
D03*
X61250Y60000D02*
D03*
Y56500D02*
D03*
X72100Y73900D02*
D03*
X57750Y70500D02*
D03*
X82250D02*
D03*
Y67000D02*
D03*
X57750D02*
D03*
X78750Y60000D02*
D03*
Y63500D02*
D03*
X78750Y67350D02*
D03*
X75250D02*
D03*
X61250Y63500D02*
D03*
X57750Y49500D02*
D03*
Y53000D02*
D03*
M02*
