G04*
G04 #@! TF.GenerationSoftware,Altium Limited,Altium Designer,24.5.2 (23)*
G04*
G04 Layer_Color=8421504*
%FSLAX44Y44*%
%MOMM*%
G71*
G04*
G04 #@! TF.SameCoordinates,341C2CF7-429B-42C7-B8C7-4B7D01239ABD*
G04*
G04*
G04 #@! TF.FilePolarity,Positive*
G04*
G01*
G75*
G04:AMPARAMS|DCode=18|XSize=0.2339mm|YSize=0.2339mm|CornerRadius=0.117mm|HoleSize=0mm|Usage=FLASHONLY|Rotation=180.000|XOffset=0mm|YOffset=0mm|HoleType=Round|Shape=RoundedRectangle|*
%AMROUNDEDRECTD18*
21,1,0.2339,0.0000,0,0,180.0*
21,1,0.0000,0.2339,0,0,180.0*
1,1,0.2339,0.0000,0.0000*
1,1,0.2339,0.0000,0.0000*
1,1,0.2339,0.0000,0.0000*
1,1,0.2339,0.0000,0.0000*
%
%ADD18ROUNDEDRECTD18*%
%ADD19R,1.2000X0.9500*%
%ADD20R,0.2700X0.3000*%
%ADD21R,0.8000X1.8500*%
%ADD22R,0.3000X0.2700*%
%ADD23R,0.8000X0.7500*%
%ADD24R,0.5800X0.5000*%
%ADD25R,0.6000X0.5000*%
%ADD26R,0.6500X0.8500*%
%ADD27R,0.9500X0.8500*%
%ADD28R,0.2000X0.3500*%
%ADD29R,0.7620X0.8128*%
%ADD30C,0.1700*%
%ADD31R,0.5000X0.6000*%
%ADD32R,0.7500X0.8000*%
%ADD33R,0.7500X1.4000*%
%ADD34C,0.8000*%
%ADD35R,0.7112X0.2540*%
%ADD36R,0.3048X1.7018*%
%ADD37R,0.4750X0.2500*%
%ADD38R,0.2500X0.4750*%
D18*
X55057Y216965D02*
D03*
X58558D02*
D03*
X62058D02*
D03*
X65558D02*
D03*
X69058D02*
D03*
X72558D02*
D03*
X76058D02*
D03*
X55057Y213465D02*
D03*
X58558D02*
D03*
X62058D02*
D03*
X65558D02*
D03*
X69058D02*
D03*
X72558D02*
D03*
X76058D02*
D03*
X55057Y209965D02*
D03*
X58558D02*
D03*
X62058D02*
D03*
X65558D02*
D03*
X69058D02*
D03*
X72558D02*
D03*
X76058D02*
D03*
X55057Y206465D02*
D03*
X58558D02*
D03*
X62058D02*
D03*
X65558D02*
D03*
X69058D02*
D03*
X72558D02*
D03*
X76058D02*
D03*
X55057Y202965D02*
D03*
X58558D02*
D03*
X62058D02*
D03*
X65558D02*
D03*
X69058D02*
D03*
X72558D02*
D03*
X76058D02*
D03*
X55057Y199464D02*
D03*
X58558D02*
D03*
X62058D02*
D03*
X65558D02*
D03*
X69058D02*
D03*
X72558D02*
D03*
X76058D02*
D03*
D19*
X335500Y141500D02*
D03*
Y163000D02*
D03*
X377500Y141500D02*
D03*
Y163000D02*
D03*
X334500Y197250D02*
D03*
Y218750D02*
D03*
X376500Y197250D02*
D03*
Y218750D02*
D03*
D20*
X23850Y139750D02*
D03*
X18150D02*
D03*
X130325Y229975D02*
D03*
X124625D02*
D03*
X130325Y206225D02*
D03*
X124625D02*
D03*
X130325Y181725D02*
D03*
X124625D02*
D03*
X130325Y157725D02*
D03*
X124625D02*
D03*
X109100Y181000D02*
D03*
X103400D02*
D03*
X109100Y205500D02*
D03*
X103400D02*
D03*
X109100Y229250D02*
D03*
X103400D02*
D03*
X108950Y157000D02*
D03*
X103250D02*
D03*
X76236Y83250D02*
D03*
X70536D02*
D03*
X89387Y83250D02*
D03*
X95087D02*
D03*
X57150Y168750D02*
D03*
X62850D02*
D03*
X164240Y139900D02*
D03*
X169940D02*
D03*
X183567Y106462D02*
D03*
X189266D02*
D03*
X183706Y123766D02*
D03*
X189406D02*
D03*
X268150Y123893D02*
D03*
X273850D02*
D03*
X268150Y133428D02*
D03*
X273850D02*
D03*
X225840Y139750D02*
D03*
X231540D02*
D03*
X268150Y152500D02*
D03*
X273850D02*
D03*
X268150Y142964D02*
D03*
X273850D02*
D03*
X62758Y185715D02*
D03*
X57058D02*
D03*
X68208D02*
D03*
X73908D02*
D03*
X51408Y185715D02*
D03*
X45708D02*
D03*
X129850Y261250D02*
D03*
X124150D02*
D03*
X67708Y230465D02*
D03*
X73408D02*
D03*
X231540Y183500D02*
D03*
X225840D02*
D03*
X231540Y198500D02*
D03*
X225840D02*
D03*
X333850Y250000D02*
D03*
X328150D02*
D03*
X333850Y256250D02*
D03*
X328150D02*
D03*
X333850Y262500D02*
D03*
X328150D02*
D03*
X267900Y298500D02*
D03*
X273600D02*
D03*
X273850Y85750D02*
D03*
X268150D02*
D03*
X268150Y95286D02*
D03*
X273850D02*
D03*
Y104821D02*
D03*
X268150D02*
D03*
X273850Y114357D02*
D03*
X268150D02*
D03*
X24250Y274998D02*
D03*
X29950D02*
D03*
X24250Y292998D02*
D03*
X29950D02*
D03*
X63100Y230500D02*
D03*
X57400D02*
D03*
X63100Y261250D02*
D03*
X57400D02*
D03*
D21*
X14000Y83250D02*
D03*
X48000D02*
D03*
D22*
X82728Y84682D02*
D03*
Y90382D02*
D03*
X179190Y128400D02*
D03*
Y134100D02*
D03*
X190566Y117866D02*
D03*
X190566Y112166D02*
D03*
X196440Y123650D02*
D03*
Y129350D02*
D03*
X190691Y134849D02*
D03*
X190691Y129149D02*
D03*
X89808Y214315D02*
D03*
Y208615D02*
D03*
X354500Y267400D02*
D03*
Y273100D02*
D03*
X170245Y151806D02*
D03*
Y146106D02*
D03*
X41789Y221701D02*
D03*
Y216001D02*
D03*
D23*
X127250Y93500D02*
D03*
Y73000D02*
D03*
X108250D02*
D03*
Y93500D02*
D03*
D24*
X129350Y83250D02*
D03*
X106150D02*
D03*
D25*
X22000Y149250D02*
D03*
X12000D02*
D03*
X22000Y161500D02*
D03*
X12000D02*
D03*
X237440Y155250D02*
D03*
X227440D02*
D03*
X22000Y173500D02*
D03*
X12000D02*
D03*
X161690Y179750D02*
D03*
X151690D02*
D03*
X148440Y199750D02*
D03*
X158440D02*
D03*
X58750Y238250D02*
D03*
X68750D02*
D03*
X139190Y302250D02*
D03*
X129190D02*
D03*
X71940Y303000D02*
D03*
X61940D02*
D03*
X157328Y147183D02*
D03*
X147328D02*
D03*
X161690Y171636D02*
D03*
X151690D02*
D03*
X27750Y282748D02*
D03*
X17750D02*
D03*
X27750Y300750D02*
D03*
X17750D02*
D03*
X27750Y265000D02*
D03*
X17750D02*
D03*
D26*
X74000Y144500D02*
D03*
X57500D02*
D03*
Y160000D02*
D03*
X74000D02*
D03*
D27*
X153275Y112487D02*
D03*
Y123987D02*
D03*
X167775Y112487D02*
D03*
Y123987D02*
D03*
D28*
X258500Y123250D02*
D03*
X255000D02*
D03*
X251500D02*
D03*
X258500Y131750D02*
D03*
X255000D02*
D03*
X251500D02*
D03*
X250625Y93750D02*
D03*
X254125D02*
D03*
X257625D02*
D03*
X250625Y85250D02*
D03*
X254125D02*
D03*
X257625D02*
D03*
D29*
X300611Y152500D02*
D03*
X286641D02*
D03*
X300611Y85750D02*
D03*
X286641D02*
D03*
X300611Y102437D02*
D03*
X286641D02*
D03*
X300611Y119125D02*
D03*
X286641D02*
D03*
X300611Y135813D02*
D03*
X286641D02*
D03*
D30*
X208190Y178750D02*
D03*
Y171750D02*
D03*
Y168250D02*
D03*
Y164750D02*
D03*
Y161250D02*
D03*
Y157750D02*
D03*
Y154250D02*
D03*
Y150750D02*
D03*
Y147250D02*
D03*
X215190Y182250D02*
D03*
Y178750D02*
D03*
Y171750D02*
D03*
Y164750D02*
D03*
Y157750D02*
D03*
Y150750D02*
D03*
Y143750D02*
D03*
X211690Y178750D02*
D03*
Y175250D02*
D03*
Y171750D02*
D03*
Y168250D02*
D03*
Y164750D02*
D03*
Y161250D02*
D03*
Y157750D02*
D03*
Y154250D02*
D03*
Y150750D02*
D03*
Y147250D02*
D03*
Y143750D02*
D03*
X204690Y182250D02*
D03*
Y178750D02*
D03*
Y175250D02*
D03*
Y150750D02*
D03*
Y147250D02*
D03*
Y143750D02*
D03*
X201190Y178750D02*
D03*
Y175250D02*
D03*
Y168250D02*
D03*
Y164750D02*
D03*
Y161250D02*
D03*
Y157750D02*
D03*
Y150750D02*
D03*
Y147250D02*
D03*
X197690Y182250D02*
D03*
Y178750D02*
D03*
Y175250D02*
D03*
Y168250D02*
D03*
Y164750D02*
D03*
Y161250D02*
D03*
Y157750D02*
D03*
Y150750D02*
D03*
Y147250D02*
D03*
Y143750D02*
D03*
X194190Y178750D02*
D03*
Y175250D02*
D03*
Y168250D02*
D03*
Y164750D02*
D03*
Y161250D02*
D03*
Y157750D02*
D03*
Y150750D02*
D03*
Y147250D02*
D03*
X190690Y182250D02*
D03*
Y178750D02*
D03*
Y175250D02*
D03*
X194190Y154250D02*
D03*
X190690Y147250D02*
D03*
Y143750D02*
D03*
X187190Y178750D02*
D03*
Y175250D02*
D03*
Y171750D02*
D03*
Y168250D02*
D03*
Y164750D02*
D03*
Y161250D02*
D03*
Y157750D02*
D03*
Y154250D02*
D03*
Y147250D02*
D03*
X183690Y182250D02*
D03*
Y178750D02*
D03*
Y175250D02*
D03*
Y171750D02*
D03*
Y168250D02*
D03*
Y164750D02*
D03*
Y161250D02*
D03*
Y157750D02*
D03*
Y154250D02*
D03*
Y147250D02*
D03*
Y143750D02*
D03*
X180190Y182250D02*
D03*
Y178750D02*
D03*
Y171750D02*
D03*
Y164750D02*
D03*
Y157750D02*
D03*
Y150750D02*
D03*
Y147250D02*
D03*
Y143750D02*
D03*
X208190Y175250D02*
D03*
X211690Y182250D02*
D03*
D31*
X142690Y178500D02*
D03*
Y168500D02*
D03*
D32*
X163440Y189750D02*
D03*
X149940D02*
D03*
X162190Y157250D02*
D03*
X148690D02*
D03*
D33*
X201500Y209500D02*
D03*
X216000D02*
D03*
D34*
X146390Y289500D02*
D03*
X121790D02*
D03*
Y272500D02*
D03*
X146390D02*
D03*
X79190Y289500D02*
D03*
X54590D02*
D03*
Y272500D02*
D03*
X79190D02*
D03*
D35*
X249039Y287968D02*
D03*
Y282968D02*
D03*
Y277968D02*
D03*
Y272968D02*
D03*
X276979D02*
D03*
Y277968D02*
D03*
Y282968D02*
D03*
Y287968D02*
D03*
D36*
X263009Y280468D02*
D03*
D37*
X321370Y288250D02*
D03*
Y283250D02*
D03*
Y278250D02*
D03*
Y273250D02*
D03*
X344620D02*
D03*
Y278250D02*
D03*
Y283250D02*
D03*
Y288250D02*
D03*
D38*
X328000Y271620D02*
D03*
X333000D02*
D03*
X338000D02*
D03*
Y289880D02*
D03*
X333000D02*
D03*
X328000D02*
D03*
M02*
