G04*
G04 #@! TF.GenerationSoftware,Altium Limited,Altium Designer,25.2.1 (25)*
G04*
G04 Layer_Color=16711935*
%FSLAX44Y44*%
%MOMM*%
G71*
G04*
G04 #@! TF.SameCoordinates,FED8839F-E969-4304-A6C3-1DC976675259*
G04*
G04*
G04 #@! TF.FilePolarity,Positive*
G04*
G01*
G75*
%ADD10C,0.1500*%
D10*
X377140Y125700D02*
G03*
X372140Y120700I0J-5000D01*
G01*
X372140Y104700D02*
G03*
X377140Y99700I5000J0D01*
G01*
X399782Y306261D02*
G03*
X389782Y316261I-10000J0D01*
G01*
Y66261D02*
G03*
X399782Y76261I0J10000D01*
G01*
X-218D02*
G03*
X9782Y66261I10000J0D01*
G01*
Y316261D02*
G03*
X-218Y306261I0J-10000D01*
G01*
X169782Y36261D02*
G03*
X229782Y36261I30000J0D01*
G01*
X239782Y66261D02*
G03*
X229782Y56261I0J-10000D01*
G01*
X169782D02*
G03*
X159782Y66261I-10000J0D01*
G01*
X229766Y326221D02*
G03*
X239766Y316221I10000J0D01*
G01*
X159766D02*
G03*
X169766Y326221I0J10000D01*
G01*
X229766Y346221D02*
G03*
X169766Y346221I-30000J0D01*
G01*
X399782Y125700D02*
Y306261D01*
Y125700D02*
X399782D01*
Y76261D02*
Y99700D01*
X372140Y120700D02*
X372140Y104700D01*
X377140Y125700D02*
X399782D01*
X377140Y99700D02*
X399782D01*
X389782Y66261D02*
Y66261D01*
X239782D02*
X389782D01*
X159782Y66261D02*
Y66261D01*
X9782Y66261D02*
X159782D01*
X9782Y316221D02*
Y316261D01*
Y316221D02*
X159766D01*
X389782D02*
Y316261D01*
X239766Y316221D02*
X389782D01*
X-218Y76261D02*
Y306261D01*
X229782Y36261D02*
Y56261D01*
X169782Y36261D02*
Y56261D01*
X229766Y326221D02*
Y346221D01*
X169766Y326221D02*
Y346221D01*
M02*
