M48
;Layer_Color=9474304
;FILE_FORMAT=4:4
METRIC,LZ
;TYPE=PLATED
T01F00S00C0.1000
;TYPE=NON_PLATED
%
T01
X000295Y0016025
X0003025Y001725
X000295Y0019025
X00028491Y00197669
X0003575Y001995
X000405Y0021025
X0004175Y002265
X000505Y0022975
X00058535Y00213465
X00062035
X000655Y002135
X00065535Y00209965
X00069035
X00072535
X000725Y002065
X00069035Y00206465
X00069Y00203
X00065535Y00202965
X00062093Y00203
X00062022Y002065
X00062Y0021
X00058535Y00209965
X00058535Y00202965
X00065535Y00206465
X00069058Y00213442
X00072535Y00213465
X00072535Y00202965
X00089Y0020425
X0009511Y0020875
X00083965Y00213465
X0009025Y001925
X00096Y0019
X0009175Y0018275
X0011964Y00184341
X00115883Y00176685
X0011925Y001605
X00118Y0015275
X0009675Y001515
X00098142Y00159076
X00080979Y00156724
X0006975Y0016875
X0005625Y00180413
X0004725Y0019175
X0004126Y00163103
X0001325Y0018525
X0001675Y002175
X00097Y0022975
X00118612Y00229862
X00115547Y00216028
X00118405Y00207405
X0011525Y00196
X0013725Y0019575
X001355Y0018125
X0013586Y00165054
X0014194Y001605
X0016475Y00148036
X00176168Y00151668
X00181847Y00139071
X00195438Y00138923
X00198499Y00136066
X002025Y0013175
X002015Y0012625
X0021325Y00125
X002275Y00134
X00228Y00148
X0021625Y0014775
X0021969Y00151931
X00204818Y00158
Y001615
Y00165
Y001685
X00204815Y00172
X0020119
X0019769
X0019419
Y0017525
X00190706Y00175282
X00190432Y00171914
X00190509Y00168491
X00190655Y00165146
X00190565Y001615
X0019325Y0019375
X00206522Y00196196
X00206149Y0019
X0021375Y00190947
X0021431Y00186655
X0021794Y00185
X00232Y0019075
X00228Y00205
X0017625Y00198
X0015594Y00206
X00136452Y00211798
X0015325Y00132039
X00169Y00134598
X0016775Y00104435
X00246698Y00121553
X00263302Y0013025
X00272952Y0014775
X0029875Y001755
X002985Y001925
X0029825Y002105
X00314Y002095
X00321Y00212
X002985Y00228
X00286561Y00228811
X003545Y0020425
X003195Y0013475
X0031175Y0011925
X003125Y00102
X0036025Y0027025
X00368Y0028075
Y00298
X00353Y00278
X0034175Y0025625
Y0025025
X003305Y0024525
X0032225Y00263
X0031575Y00273
X00291959Y00253
X0029844Y0024575
X0027325Y0025775
X0027625Y0026775
X0025275Y00261
X0024075Y00288
X00278752Y0029775
X0016425Y0029825
X0013075Y0027825
X000965Y002985
X0003575Y0029975
X00035349Y00282748
X0003725Y00246056
X00065577Y00245012
X0008Y0024375
X00076143Y00235505
X00076Y0025375
X00013Y0025425
M30
