G04*
G04 #@! TF.GenerationSoftware,Altium Limited,Altium Designer,25.2.1 (25)*
G04*
G04 Layer_Color=2752767*
%FSLAX44Y44*%
%MOMM*%
G71*
G04*
G04 #@! TF.SameCoordinates,FED8839F-E969-4304-A6C3-1DC976675259*
G04*
G04*
G04 #@! TF.FilePolarity,Positive*
G04*
G01*
G75*
%ADD16C,0.1270*%
D16*
X351560Y89070D02*
Y99230D01*
X361720D01*
Y89070D01*
X351560D01*
Y127170D02*
Y137330D01*
X361720D01*
Y127170D01*
X351560D01*
X199782Y341181D02*
X194702Y351341D01*
X204862D01*
X199782Y341181D01*
Y31181D02*
X194702Y41341D01*
X204862D01*
X199782Y31181D01*
X389670Y79420D02*
X392210Y84500D01*
X389670Y89580D01*
X394750Y87040D01*
X399830Y89580D01*
X397290Y84500D01*
X399830Y79420D01*
X394750Y81960D01*
X389670Y79420D01*
X384670Y69420D02*
X387210Y74500D01*
X384670Y79580D01*
X389750Y77040D01*
X394830Y79580D01*
X392290Y74500D01*
X394830Y69420D01*
X389750Y71960D01*
X384670Y69420D01*
X379670Y79420D02*
X382210Y84500D01*
X379670Y89580D01*
X384750Y87040D01*
X389830Y89580D01*
X387290Y84500D01*
X389830Y79420D01*
X384750Y81960D01*
X379670Y79420D01*
X374670Y69420D02*
X377210Y74500D01*
X374670Y79580D01*
X379750Y77040D01*
X384830Y79580D01*
X382290Y74500D01*
X384830Y69420D01*
X379750Y71960D01*
X374670Y69420D01*
X369670Y79420D02*
X372210Y84500D01*
X369670Y89580D01*
X374750Y87040D01*
X379830Y89580D01*
X377290Y84500D01*
X379830Y79420D01*
X374750Y81960D01*
X369670Y79420D01*
X364670Y69420D02*
X367210Y74500D01*
X364670Y79580D01*
X369750Y77040D01*
X374830Y79580D01*
X372290Y74500D01*
X374830Y69420D01*
X369750Y71960D01*
X364670Y69420D01*
X359670Y79420D02*
X362210Y84500D01*
X359670Y89580D01*
X364750Y87040D01*
X369830Y89580D01*
X367290Y84500D01*
X369830Y79420D01*
X364750Y81960D01*
X359670Y79420D01*
X354670Y69420D02*
X357210Y74500D01*
X354670Y79580D01*
X359750Y77040D01*
X364830Y79580D01*
X362290Y74500D01*
X364830Y69420D01*
X359750Y71960D01*
X354670Y69420D01*
X349670Y79420D02*
X352210Y84500D01*
X349670Y89580D01*
X354750Y87040D01*
X359830Y89580D01*
X357290Y84500D01*
X359830Y79420D01*
X354750Y81960D01*
X349670Y79420D01*
X344670Y69420D02*
X347210Y74500D01*
X344670Y79580D01*
X349750Y77040D01*
X354830Y79580D01*
X352290Y74500D01*
X354830Y69420D01*
X349750Y71960D01*
X344670Y69420D01*
X339670Y79420D02*
X342210Y84500D01*
X339670Y89580D01*
X344750Y87040D01*
X349830Y89580D01*
X347290Y84500D01*
X349830Y79420D01*
X344750Y81960D01*
X339670Y79420D01*
X334670Y69420D02*
X337210Y74500D01*
X334670Y79580D01*
X339750Y77040D01*
X344830Y79580D01*
X342290Y74500D01*
X344830Y69420D01*
X339750Y71960D01*
X334670Y69420D01*
X329670Y79420D02*
X332210Y84500D01*
X329670Y89580D01*
X334750Y87040D01*
X339830Y89580D01*
X337290Y84500D01*
X339830Y79420D01*
X334750Y81960D01*
X329670Y79420D01*
X324670Y69420D02*
X327210Y74500D01*
X324670Y79580D01*
X329750Y77040D01*
X334830Y79580D01*
X332290Y74500D01*
X334830Y69420D01*
X329750Y71960D01*
X324670Y69420D01*
X319670Y79420D02*
X322210Y84500D01*
X319670Y89580D01*
X324750Y87040D01*
X329830Y89580D01*
X327290Y84500D01*
X329830Y79420D01*
X324750Y81960D01*
X319670Y79420D01*
X314670Y69420D02*
X317210Y74500D01*
X314670Y79580D01*
X319750Y77040D01*
X324830Y79580D01*
X322290Y74500D01*
X324830Y69420D01*
X319750Y71960D01*
X314670Y69420D01*
X309670Y79420D02*
X312210Y84500D01*
X309670Y89580D01*
X314750Y87040D01*
X319830Y89580D01*
X317290Y84500D01*
X319830Y79420D01*
X314750Y81960D01*
X309670Y79420D01*
X304670Y69420D02*
X307210Y74500D01*
X304670Y79580D01*
X309750Y77040D01*
X314830Y79580D01*
X312290Y74500D01*
X314830Y69420D01*
X309750Y71960D01*
X304670Y69420D01*
X294670D02*
X297210Y74500D01*
X294670Y79580D01*
X299750Y77040D01*
X304830Y79580D01*
X302290Y74500D01*
X304830Y69420D01*
X299750Y71960D01*
X294670Y69420D01*
X284670D02*
X287210Y74500D01*
X284670Y79580D01*
X289750Y77040D01*
X294830Y79580D01*
X292290Y74500D01*
X294830Y69420D01*
X289750Y71960D01*
X284670Y69420D01*
X274670D02*
X277210Y74500D01*
X274670Y79580D01*
X279750Y77040D01*
X284830Y79580D01*
X282290Y74500D01*
X284830Y69420D01*
X279750Y71960D01*
X274670Y69420D01*
X264670D02*
X267210Y74500D01*
X264670Y79580D01*
X269750Y77040D01*
X274830Y79580D01*
X272290Y74500D01*
X274830Y69420D01*
X269750Y71960D01*
X264670Y69420D01*
X254670D02*
X257210Y74500D01*
X254670Y79580D01*
X259750Y77040D01*
X264830Y79580D01*
X262290Y74500D01*
X264830Y69420D01*
X259750Y71960D01*
X254670Y69420D01*
X244670Y109420D02*
X247210Y114500D01*
X244670Y119580D01*
X249750Y117040D01*
X254830Y119580D01*
X252290Y114500D01*
X254830Y109420D01*
X249750Y111960D01*
X244670Y109420D01*
X249670Y99420D02*
X252210Y104500D01*
X249670Y109580D01*
X254750Y107040D01*
X259830Y109580D01*
X257290Y104500D01*
X259830Y99420D01*
X254750Y101960D01*
X249670Y99420D01*
X244670Y69420D02*
X247210Y74500D01*
X244670Y79580D01*
X249750Y77040D01*
X254830Y79580D01*
X252290Y74500D01*
X254830Y69420D01*
X249750Y71960D01*
X244670Y69420D01*
X234670Y109420D02*
X237210Y114500D01*
X234670Y119580D01*
X239750Y117040D01*
X244830Y119580D01*
X242290Y114500D01*
X244830Y109420D01*
X239750Y111960D01*
X234670Y109420D01*
Y89420D02*
X237210Y94500D01*
X234670Y99580D01*
X239750Y97040D01*
X244830Y99580D01*
X242290Y94500D01*
X244830Y89420D01*
X239750Y91960D01*
X234670Y89420D01*
X239670Y79420D02*
X242210Y84500D01*
X239670Y89580D01*
X244750Y87040D01*
X249830Y89580D01*
X247290Y84500D01*
X249830Y79420D01*
X244750Y81960D01*
X239670Y79420D01*
X234670Y69420D02*
X237210Y74500D01*
X234670Y79580D01*
X239750Y77040D01*
X244830Y79580D01*
X242290Y74500D01*
X244830Y69420D01*
X239750Y71960D01*
X234670Y69420D01*
X229670Y99420D02*
X232210Y104500D01*
X229670Y109580D01*
X234750Y107040D01*
X239830Y109580D01*
X237290Y104500D01*
X239830Y99420D01*
X234750Y101960D01*
X229670Y99420D01*
X224670Y89420D02*
X227210Y94500D01*
X224670Y99580D01*
X229750Y97040D01*
X234830Y99580D01*
X232290Y94500D01*
X234830Y89420D01*
X229750Y91960D01*
X224670Y89420D01*
X229670Y79420D02*
X232210Y84500D01*
X229670Y89580D01*
X234750Y87040D01*
X239830Y89580D01*
X237290Y84500D01*
X239830Y79420D01*
X234750Y81960D01*
X229670Y79420D01*
X224670Y69420D02*
X227210Y74500D01*
X224670Y79580D01*
X229750Y77040D01*
X234830Y79580D01*
X232290Y74500D01*
X234830Y69420D01*
X229750Y71960D01*
X224670Y69420D01*
X219670Y319420D02*
X222210Y324500D01*
X219670Y329580D01*
X224750Y327040D01*
X229830Y329580D01*
X227290Y324500D01*
X229830Y319420D01*
X224750Y321960D01*
X219670Y319420D01*
Y99420D02*
X222210Y104500D01*
X219670Y109580D01*
X224750Y107040D01*
X229830Y109580D01*
X227290Y104500D01*
X229830Y99420D01*
X224750Y101960D01*
X219670Y99420D01*
X214670Y89420D02*
X217210Y94500D01*
X214670Y99580D01*
X219750Y97040D01*
X224830Y99580D01*
X222290Y94500D01*
X224830Y89420D01*
X219750Y91960D01*
X214670Y89420D01*
X219670Y79420D02*
X222210Y84500D01*
X219670Y89580D01*
X224750Y87040D01*
X229830Y89580D01*
X227290Y84500D01*
X229830Y79420D01*
X224750Y81960D01*
X219670Y79420D01*
X214670Y69420D02*
X217210Y74500D01*
X214670Y79580D01*
X219750Y77040D01*
X224830Y79580D01*
X222290Y74500D01*
X224830Y69420D01*
X219750Y71960D01*
X214670Y69420D01*
X219670Y59420D02*
X222210Y64500D01*
X219670Y69580D01*
X224750Y67040D01*
X229830Y69580D01*
X227290Y64500D01*
X229830Y59420D01*
X224750Y61960D01*
X219670Y59420D01*
X214670Y49420D02*
X217210Y54500D01*
X214670Y59580D01*
X219750Y57040D01*
X224830Y59580D01*
X222290Y54500D01*
X224830Y49420D01*
X219750Y51960D01*
X214670Y49420D01*
X219670Y39420D02*
X222210Y44500D01*
X219670Y49580D01*
X224750Y47040D01*
X229830Y49580D01*
X227290Y44500D01*
X229830Y39420D01*
X224750Y41960D01*
X219670Y39420D01*
Y19420D02*
X222210Y24500D01*
X219670Y29580D01*
X224750Y27040D01*
X229830Y29580D01*
X227290Y24500D01*
X229830Y19420D01*
X224750Y21960D01*
X219670Y19420D01*
X209670Y319420D02*
X212210Y324500D01*
X209670Y329580D01*
X214750Y327040D01*
X219830Y329580D01*
X217290Y324500D01*
X219830Y319420D01*
X214750Y321960D01*
X209670Y319420D01*
Y99420D02*
X212210Y104500D01*
X209670Y109580D01*
X214750Y107040D01*
X219830Y109580D01*
X217290Y104500D01*
X219830Y99420D01*
X214750Y101960D01*
X209670Y99420D01*
X204670Y89420D02*
X207210Y94500D01*
X204670Y99580D01*
X209750Y97040D01*
X214830Y99580D01*
X212290Y94500D01*
X214830Y89420D01*
X209750Y91960D01*
X204670Y89420D01*
X209670Y79420D02*
X212210Y84500D01*
X209670Y89580D01*
X214750Y87040D01*
X219830Y89580D01*
X217290Y84500D01*
X219830Y79420D01*
X214750Y81960D01*
X209670Y79420D01*
X204670Y69420D02*
X207210Y74500D01*
X204670Y79580D01*
X209750Y77040D01*
X214830Y79580D01*
X212290Y74500D01*
X214830Y69420D01*
X209750Y71960D01*
X204670Y69420D01*
X209670Y59420D02*
X212210Y64500D01*
X209670Y69580D01*
X214750Y67040D01*
X219830Y69580D01*
X217290Y64500D01*
X219830Y59420D01*
X214750Y61960D01*
X209670Y59420D01*
X199670Y99420D02*
X202210Y104500D01*
X199670Y109580D01*
X204750Y107040D01*
X209830Y109580D01*
X207290Y104500D01*
X209830Y99420D01*
X204750Y101960D01*
X199670Y99420D01*
Y79420D02*
X202210Y84500D01*
X199670Y89580D01*
X204750Y87040D01*
X209830Y89580D01*
X207290Y84500D01*
X209830Y79420D01*
X204750Y81960D01*
X199670Y79420D01*
X194670Y69420D02*
X197210Y74500D01*
X194670Y79580D01*
X199750Y77040D01*
X204830Y79580D01*
X202290Y74500D01*
X204830Y69420D01*
X199750Y71960D01*
X194670Y69420D01*
X199670Y59420D02*
X202210Y64500D01*
X199670Y69580D01*
X204750Y67040D01*
X209830Y69580D01*
X207290Y64500D01*
X209830Y59420D01*
X204750Y61960D01*
X199670Y59420D01*
X189670Y159420D02*
X192210Y164500D01*
X189670Y169580D01*
X194750Y167040D01*
X199830Y169580D01*
X197290Y164500D01*
X199830Y159420D01*
X194750Y161960D01*
X189670Y159420D01*
X184670Y69420D02*
X187210Y74500D01*
X184670Y79580D01*
X189750Y77040D01*
X194830Y79580D01*
X192290Y74500D01*
X194830Y69420D01*
X189750Y71960D01*
X184670Y69420D01*
X189670Y59420D02*
X192210Y64500D01*
X189670Y69580D01*
X194750Y67040D01*
X199830Y69580D01*
X197290Y64500D01*
X199830Y59420D01*
X194750Y61960D01*
X189670Y59420D01*
X179670Y319420D02*
X182210Y324500D01*
X179670Y329580D01*
X184750Y327040D01*
X189830Y329580D01*
X187290Y324500D01*
X189830Y319420D01*
X184750Y321960D01*
X179670Y319420D01*
Y59420D02*
X182210Y64500D01*
X179670Y69580D01*
X184750Y67040D01*
X189830Y69580D01*
X187290Y64500D01*
X189830Y59420D01*
X184750Y61960D01*
X179670Y59420D01*
X174670Y49420D02*
X177210Y54500D01*
X174670Y59580D01*
X179750Y57040D01*
X184830Y59580D01*
X182290Y54500D01*
X184830Y49420D01*
X179750Y51960D01*
X174670Y49420D01*
X169670Y319420D02*
X172210Y324500D01*
X169670Y329580D01*
X174750Y327040D01*
X179830Y329580D01*
X177290Y324500D01*
X179830Y319420D01*
X174750Y321960D01*
X169670Y319420D01*
X164670Y309420D02*
X167210Y314500D01*
X164670Y319580D01*
X169750Y317040D01*
X174830Y319580D01*
X172290Y314500D01*
X174830Y309420D01*
X169750Y311960D01*
X164670Y309420D01*
Y269420D02*
X167210Y274500D01*
X164670Y279580D01*
X169750Y277040D01*
X174830Y279580D01*
X172290Y274500D01*
X174830Y269420D01*
X169750Y271960D01*
X164670Y269420D01*
Y229420D02*
X167210Y234500D01*
X164670Y239580D01*
X169750Y237040D01*
X174830Y239580D01*
X172290Y234500D01*
X174830Y229420D01*
X169750Y231960D01*
X164670Y229420D01*
X169670Y59420D02*
X172210Y64500D01*
X169670Y69580D01*
X174750Y67040D01*
X179830Y69580D01*
X177290Y64500D01*
X179830Y59420D01*
X174750Y61960D01*
X169670Y59420D01*
Y39420D02*
X172210Y44500D01*
X169670Y49580D01*
X174750Y47040D01*
X179830Y49580D01*
X177290Y44500D01*
X179830Y39420D01*
X174750Y41960D01*
X169670Y39420D01*
Y19420D02*
X172210Y24500D01*
X169670Y29580D01*
X174750Y27040D01*
X179830Y29580D01*
X177290Y24500D01*
X179830Y19420D01*
X174750Y21960D01*
X169670Y19420D01*
X154670Y229420D02*
X157210Y234500D01*
X154670Y239580D01*
X159750Y237040D01*
X164830Y239580D01*
X162290Y234500D01*
X164830Y229420D01*
X159750Y231960D01*
X154670Y229420D01*
X159670Y219420D02*
X162210Y224500D01*
X159670Y229580D01*
X164750Y227040D01*
X169830Y229580D01*
X167290Y224500D01*
X169830Y219420D01*
X164750Y221960D01*
X159670Y219420D01*
X144670Y229420D02*
X147210Y234500D01*
X144670Y239580D01*
X149750Y237040D01*
X154830Y239580D01*
X152290Y234500D01*
X154830Y229420D01*
X149750Y231960D01*
X144670Y229420D01*
X149670Y219420D02*
X152210Y224500D01*
X149670Y229580D01*
X154750Y227040D01*
X159830Y229580D01*
X157290Y224500D01*
X159830Y219420D01*
X154750Y221960D01*
X149670Y219420D01*
X139670D02*
X142210Y224500D01*
X139670Y229580D01*
X144750Y227040D01*
X149830Y229580D01*
X147290Y224500D01*
X149830Y219420D01*
X144750Y221960D01*
X139670Y219420D01*
X134670Y209420D02*
X137210Y214500D01*
X134670Y219580D01*
X139750Y217040D01*
X144830Y219580D01*
X142290Y214500D01*
X144830Y209420D01*
X139750Y211960D01*
X134670Y209420D01*
Y109420D02*
X137210Y114500D01*
X134670Y119580D01*
X139750Y117040D01*
X144830Y119580D01*
X142290Y114500D01*
X144830Y109420D01*
X139750Y111960D01*
X134670Y109420D01*
X129670Y119420D02*
X132210Y124500D01*
X129670Y129580D01*
X134750Y127040D01*
X139830Y129580D01*
X137290Y124500D01*
X139830Y119420D01*
X134750Y121960D01*
X129670Y119420D01*
X124670Y109420D02*
X127210Y114500D01*
X124670Y119580D01*
X129750Y117040D01*
X134830Y119580D01*
X132290Y114500D01*
X134830Y109420D01*
X129750Y111960D01*
X124670Y109420D01*
X129670Y99420D02*
X132210Y104500D01*
X129670Y109580D01*
X134750Y107040D01*
X139830Y109580D01*
X137290Y104500D01*
X139830Y99420D01*
X134750Y101960D01*
X129670Y99420D01*
X114670Y129420D02*
X117210Y134500D01*
X114670Y139580D01*
X119750Y137040D01*
X124830Y139580D01*
X122290Y134500D01*
X124830Y129420D01*
X119750Y131960D01*
X114670Y129420D01*
X119670Y119420D02*
X122210Y124500D01*
X119670Y129580D01*
X124750Y127040D01*
X129830Y129580D01*
X127290Y124500D01*
X129830Y119420D01*
X124750Y121960D01*
X119670Y119420D01*
X114670Y109420D02*
X117210Y114500D01*
X114670Y119580D01*
X119750Y117040D01*
X124830Y119580D01*
X122290Y114500D01*
X124830Y109420D01*
X119750Y111960D01*
X114670Y109420D01*
X119670Y99420D02*
X122210Y104500D01*
X119670Y109580D01*
X124750Y107040D01*
X129830Y109580D01*
X127290Y104500D01*
X129830Y99420D01*
X124750Y101960D01*
X119670Y99420D01*
X104670Y129420D02*
X107210Y134500D01*
X104670Y139580D01*
X109750Y137040D01*
X114830Y139580D01*
X112290Y134500D01*
X114830Y129420D01*
X109750Y131960D01*
X104670Y129420D01*
X109670Y119420D02*
X112210Y124500D01*
X109670Y129580D01*
X114750Y127040D01*
X119830Y129580D01*
X117290Y124500D01*
X119830Y119420D01*
X114750Y121960D01*
X109670Y119420D01*
X104670Y109420D02*
X107210Y114500D01*
X104670Y119580D01*
X109750Y117040D01*
X114830Y119580D01*
X112290Y114500D01*
X114830Y109420D01*
X109750Y111960D01*
X104670Y109420D01*
X109670Y99420D02*
X112210Y104500D01*
X109670Y109580D01*
X114750Y107040D01*
X119830Y109580D01*
X117290Y104500D01*
X119830Y99420D01*
X114750Y101960D01*
X109670Y99420D01*
X94670Y129420D02*
X97210Y134500D01*
X94670Y139580D01*
X99750Y137040D01*
X104830Y139580D01*
X102290Y134500D01*
X104830Y129420D01*
X99750Y131960D01*
X94670Y129420D01*
X99670Y119420D02*
X102210Y124500D01*
X99670Y129580D01*
X104750Y127040D01*
X109830Y129580D01*
X107290Y124500D01*
X109830Y119420D01*
X104750Y121960D01*
X99670Y119420D01*
X94670Y109420D02*
X97210Y114500D01*
X94670Y119580D01*
X99750Y117040D01*
X104830Y119580D01*
X102290Y114500D01*
X104830Y109420D01*
X99750Y111960D01*
X94670Y109420D01*
X99670Y99420D02*
X102210Y104500D01*
X99670Y109580D01*
X104750Y107040D01*
X109830Y109580D01*
X107290Y104500D01*
X109830Y99420D01*
X104750Y101960D01*
X99670Y99420D01*
X84670Y129420D02*
X87210Y134500D01*
X84670Y139580D01*
X89750Y137040D01*
X94830Y139580D01*
X92290Y134500D01*
X94830Y129420D01*
X89750Y131960D01*
X84670Y129420D01*
X89670Y119420D02*
X92210Y124500D01*
X89670Y129580D01*
X94750Y127040D01*
X99830Y129580D01*
X97290Y124500D01*
X99830Y119420D01*
X94750Y121960D01*
X89670Y119420D01*
X84670Y109420D02*
X87210Y114500D01*
X84670Y119580D01*
X89750Y117040D01*
X94830Y119580D01*
X92290Y114500D01*
X94830Y109420D01*
X89750Y111960D01*
X84670Y109420D01*
X89670Y99420D02*
X92210Y104500D01*
X89670Y109580D01*
X94750Y107040D01*
X99830Y109580D01*
X97290Y104500D01*
X99830Y99420D01*
X94750Y101960D01*
X89670Y99420D01*
X74670Y129420D02*
X77210Y134500D01*
X74670Y139580D01*
X79750Y137040D01*
X84830Y139580D01*
X82290Y134500D01*
X84830Y129420D01*
X79750Y131960D01*
X74670Y129420D01*
X79670Y119420D02*
X82210Y124500D01*
X79670Y129580D01*
X84750Y127040D01*
X89830Y129580D01*
X87290Y124500D01*
X89830Y119420D01*
X84750Y121960D01*
X79670Y119420D01*
X74670Y109420D02*
X77210Y114500D01*
X74670Y119580D01*
X79750Y117040D01*
X84830Y119580D01*
X82290Y114500D01*
X84830Y109420D01*
X79750Y111960D01*
X74670Y109420D01*
X79670Y99420D02*
X82210Y104500D01*
X79670Y109580D01*
X84750Y107040D01*
X89830Y109580D01*
X87290Y104500D01*
X89830Y99420D01*
X84750Y101960D01*
X79670Y99420D01*
X64670Y129420D02*
X67210Y134500D01*
X64670Y139580D01*
X69750Y137040D01*
X74830Y139580D01*
X72290Y134500D01*
X74830Y129420D01*
X69750Y131960D01*
X64670Y129420D01*
X69670Y119420D02*
X72210Y124500D01*
X69670Y129580D01*
X74750Y127040D01*
X79830Y129580D01*
X77290Y124500D01*
X79830Y119420D01*
X74750Y121960D01*
X69670Y119420D01*
Y99420D02*
X72210Y104500D01*
X69670Y109580D01*
X74750Y107040D01*
X79830Y109580D01*
X77290Y104500D01*
X79830Y99420D01*
X74750Y101960D01*
X69670Y99420D01*
X44670Y189420D02*
X47210Y194500D01*
X44670Y199580D01*
X49750Y197040D01*
X54830Y199580D01*
X52290Y194500D01*
X54830Y189420D01*
X49750Y191960D01*
X44670Y189420D01*
X4670Y209420D02*
X7210Y214500D01*
X4670Y219580D01*
X9750Y217040D01*
X14830Y219580D01*
X12290Y214500D01*
X14830Y209420D01*
X9750Y211960D01*
X4670Y209420D01*
X79920Y256420D02*
X82460Y261500D01*
X79920Y266580D01*
X85000Y264040D01*
X90080Y266580D01*
X87540Y261500D01*
X90080Y256420D01*
X85000Y258960D01*
X79920Y256420D01*
X94920Y240170D02*
X97460Y245250D01*
X94920Y250330D01*
X100000Y247790D01*
X105080Y250330D01*
X102540Y245250D01*
X105080Y240170D01*
X100000Y242710D01*
X94920Y240170D01*
X27170Y240920D02*
X29710Y246000D01*
X27170Y251080D01*
X32250Y248540D01*
X37330Y251080D01*
X34790Y246000D01*
X37330Y240920D01*
X32250Y243460D01*
X27170Y240920D01*
X99920Y238420D02*
X102460Y243500D01*
X99920Y248580D01*
X105000Y246040D01*
X110080Y248580D01*
X107540Y243500D01*
X110080Y238420D01*
X105000Y240960D01*
X99920Y238420D01*
X17670Y161670D02*
X20210Y166750D01*
X17670Y171830D01*
X22750Y169290D01*
X27830Y171830D01*
X25290Y166750D01*
X27830Y161670D01*
X22750Y164210D01*
X17670Y161670D01*
X309170Y164670D02*
X311710Y169750D01*
X309170Y174830D01*
X314250Y172290D01*
X319330Y174830D01*
X316790Y169750D01*
X319330Y164670D01*
X314250Y167210D01*
X309170Y164670D01*
X336750Y166186D02*
X339290Y168726D01*
X341830D01*
X339290Y171266D01*
X341830Y173806D01*
X339290D01*
X336750Y176346D01*
X334210Y173806D01*
X331670D01*
X334210Y171266D01*
X331670Y168726D01*
X334210D01*
X336750Y166186D01*
X345250Y214920D02*
X347790Y217460D01*
X350330D01*
X347790Y220000D01*
X350330Y222540D01*
X347790D01*
X345250Y225080D01*
X342710Y222540D01*
X340170D01*
X342710Y220000D01*
X340170Y217460D01*
X342710D01*
X345250Y214920D01*
X304670Y177670D02*
X307210Y182750D01*
X304670Y187830D01*
X309750Y185290D01*
X314830Y187830D01*
X312290Y182750D01*
X314830Y177670D01*
X309750Y180210D01*
X304670Y177670D01*
X345000Y148670D02*
X347540Y151210D01*
X350080D01*
X347540Y153750D01*
X350080Y156290D01*
X347540D01*
X345000Y158830D01*
X342460Y156290D01*
X339920D01*
X342460Y153750D01*
X339920Y151210D01*
X342460D01*
X345000Y148670D01*
X333750D02*
X336290Y151210D01*
X338830D01*
X336290Y153750D01*
X338830Y156290D01*
X336290D01*
X333750Y158830D01*
X331210Y156290D01*
X328670D01*
X331210Y153750D01*
X328670Y151210D01*
X331210D01*
X333750Y148670D01*
X312198Y206148D02*
X314738Y211228D01*
X312198Y216308D01*
X317278Y213768D01*
X322358Y216308D01*
X319818Y211228D01*
X322358Y206148D01*
X317278Y208688D01*
X312198Y206148D01*
X32364Y203986D02*
X34904Y206525D01*
X37444D01*
X34904Y209065D01*
X37444Y211605D01*
X34904D01*
X32364Y214146D01*
X29824Y211605D01*
X27284D01*
X29824Y209065D01*
X27284Y206525D01*
X29824D01*
X32364Y203986D01*
X268572Y204670D02*
X271112Y207210D01*
X273652D01*
X271112Y209750D01*
X273652Y212290D01*
X271112D01*
X268572Y214830D01*
X266032Y212290D01*
X263492D01*
X266032Y209750D01*
X263492Y207210D01*
X266032D01*
X268572Y204670D01*
X268423Y188566D02*
X270963Y191106D01*
X273503D01*
X270963Y193646D01*
X273503Y196186D01*
X270963D01*
X268423Y198726D01*
X265883Y196186D01*
X263343D01*
X265883Y193646D01*
X263343Y191106D01*
X265883D01*
X268423Y188566D01*
X278250Y292670D02*
X280790Y295210D01*
X283330D01*
X280790Y297750D01*
X283330Y300290D01*
X280790D01*
X278250Y302830D01*
X275710Y300290D01*
X273170D01*
X275710Y297750D01*
X273170Y295210D01*
X275710D01*
X278250Y292670D01*
X146072Y244170D02*
X148612Y246710D01*
X151152D01*
X148612Y249250D01*
X151152Y251790D01*
X148612D01*
X146072Y254330D01*
X143532Y251790D01*
X140992D01*
X143532Y249250D01*
X140992Y246710D01*
X143532D01*
X146072Y244170D01*
X133572D02*
X136112Y246710D01*
X138652D01*
X136112Y249250D01*
X138652Y251790D01*
X136112D01*
X133572Y254330D01*
X131032Y251790D01*
X128492D01*
X131032Y249250D01*
X128492Y246710D01*
X131032D01*
X133572Y244170D01*
X29228Y143708D02*
X31768Y146248D01*
X34308D01*
X31768Y148788D01*
X34308Y151328D01*
X31768D01*
X29228Y153868D01*
X26688Y151328D01*
X24148D01*
X26688Y148788D01*
X24148Y146248D01*
X26688D01*
X29228Y143708D01*
X254250Y292670D02*
X256790Y295210D01*
X259330D01*
X256790Y297750D01*
X259330Y300290D01*
X256790D01*
X254250Y302830D01*
X251710Y300290D01*
X249170D01*
X251710Y297750D01*
X249170Y295210D01*
X251710D01*
X254250Y292670D01*
X352000Y157670D02*
X354540Y160210D01*
X357080D01*
X354540Y162750D01*
X357080Y165290D01*
X354540D01*
X352000Y167830D01*
X349460Y165290D01*
X346920D01*
X349460Y162750D01*
X346920Y160210D01*
X349460D01*
X352000Y157670D01*
X218670Y142170D02*
X221210Y147250D01*
X218670Y152330D01*
X223750Y149790D01*
X228830Y152330D01*
X226290Y147250D01*
X228830Y142170D01*
X223750Y144710D01*
X218670Y142170D01*
X261420Y305420D02*
X263960Y310500D01*
X261420Y315580D01*
X266500Y313040D01*
X271580Y315580D01*
X269040Y310500D01*
X271580Y305420D01*
X266500Y307960D01*
X261420Y305420D01*
X23420Y134170D02*
X25960Y139250D01*
X23420Y144330D01*
X28500Y141790D01*
X33580Y144330D01*
X31040Y139250D01*
X33580Y134170D01*
X28500Y136710D01*
X23420Y134170D01*
X29670Y184420D02*
X32210Y189500D01*
X29670Y194580D01*
X34750Y192040D01*
X39830Y194580D01*
X37290Y189500D01*
X39830Y184420D01*
X34750Y186960D01*
X29670Y184420D01*
X4420Y199420D02*
X6960Y204500D01*
X4420Y209580D01*
X9500Y207040D01*
X14580Y209580D01*
X12040Y204500D01*
X14580Y199420D01*
X9500Y201960D01*
X4420Y199420D01*
X170Y241420D02*
X2710Y246500D01*
X170Y251580D01*
X5250Y249040D01*
X10330Y251580D01*
X7790Y246500D01*
X10330Y241420D01*
X5250Y243960D01*
X170Y241420D01*
X110420Y236920D02*
X112960Y242000D01*
X110420Y247080D01*
X115500Y244540D01*
X120580Y247080D01*
X118040Y242000D01*
X120580Y236920D01*
X115500Y239460D01*
X110420Y236920D01*
X120170Y231920D02*
X122710Y237000D01*
X120170Y242080D01*
X125250Y239540D01*
X130330Y242080D01*
X127790Y237000D01*
X130330Y231920D01*
X125250Y234460D01*
X120170Y231920D01*
X162360Y169170D02*
X164900Y174250D01*
X162360Y179330D01*
X167440Y176790D01*
X172520Y179330D01*
X169980Y174250D01*
X172520Y169170D01*
X167440Y171710D01*
X162360Y169170D01*
X167462Y152670D02*
X170002Y157750D01*
X167462Y162830D01*
X172542Y160290D01*
X177622Y162830D01*
X175082Y157750D01*
X177622Y152670D01*
X172542Y155210D01*
X167462Y152670D01*
X300823Y199396D02*
X303363Y204476D01*
X300823Y209556D01*
X305903Y207016D01*
X310983Y209556D01*
X308443Y204476D01*
X310983Y199396D01*
X305903Y201936D01*
X300823Y199396D01*
X369920Y284670D02*
X372460Y289750D01*
X369920Y294830D01*
X375000Y292290D01*
X380080Y294830D01*
X377540Y289750D01*
X380080Y284670D01*
X375000Y287210D01*
X369920Y284670D01*
X152420Y302920D02*
X154960Y308000D01*
X152420Y313080D01*
X157500Y310540D01*
X162580Y313080D01*
X160040Y308000D01*
X162580Y302920D01*
X157500Y305460D01*
X152420Y302920D01*
X81920Y290420D02*
X84460Y295500D01*
X81920Y300580D01*
X87000Y298040D01*
X92080Y300580D01*
X89540Y295500D01*
X92080Y290420D01*
X87000Y292960D01*
X81920Y290420D01*
X241670Y257420D02*
X244210Y262500D01*
X241670Y267580D01*
X246750Y265040D01*
X251830Y267580D01*
X249290Y262500D01*
X251830Y257420D01*
X246750Y259960D01*
X241670Y257420D01*
X273920Y256920D02*
X276460Y262000D01*
X273920Y267080D01*
X279000Y264540D01*
X284080Y267080D01*
X281540Y262000D01*
X284080Y256920D01*
X279000Y259460D01*
X273920Y256920D01*
X312920Y262670D02*
X315460Y267750D01*
X312920Y272830D01*
X318000Y270290D01*
X323080Y272830D01*
X320540Y267750D01*
X323080Y262670D01*
X318000Y265210D01*
X312920Y262670D01*
X298420Y73670D02*
X300960Y78750D01*
X298420Y83830D01*
X303500Y81290D01*
X308580Y83830D01*
X306040Y78750D01*
X308580Y73670D01*
X303500Y76210D01*
X298420Y73670D01*
X130920Y166420D02*
X133460Y171500D01*
X130920Y176580D01*
X136000Y174040D01*
X141080Y176580D01*
X138540Y171500D01*
X141080Y166420D01*
X136000Y168960D01*
X130920Y166420D01*
X112379Y161401D02*
X114919Y166481D01*
X112379Y171560D01*
X117459Y169021D01*
X122539Y171560D01*
X119999Y166481D01*
X122539Y161401D01*
X117459Y163941D01*
X112379Y161401D01*
X115420Y215170D02*
X117960Y220250D01*
X115420Y225330D01*
X120500Y222790D01*
X125580Y225330D01*
X123040Y220250D01*
X125580Y215170D01*
X120500Y217710D01*
X115420Y215170D01*
X137535Y206655D02*
X140075Y211735D01*
X137535Y216815D01*
X142615Y214275D01*
X147695Y216815D01*
X145155Y211735D01*
X147695Y206655D01*
X142615Y209195D01*
X137535Y206655D01*
X181170Y195420D02*
X183710Y200500D01*
X181170Y205580D01*
X186250Y203040D01*
X191330Y205580D01*
X188790Y200500D01*
X191330Y195420D01*
X186250Y197960D01*
X181170Y195420D01*
X215420Y187170D02*
X217960Y192250D01*
X215420Y197330D01*
X220500Y194790D01*
X225580Y197330D01*
X223040Y192250D01*
X225580Y187170D01*
X220500Y189710D01*
X215420Y187170D01*
X202420Y123670D02*
X204960Y128750D01*
X202420Y133830D01*
X207500Y131290D01*
X212580Y133830D01*
X210040Y128750D01*
X212580Y123670D01*
X207500Y126210D01*
X202420Y123670D01*
X64920Y71670D02*
X67460Y76750D01*
X64920Y81830D01*
X70000Y79290D01*
X75080Y81830D01*
X72540Y76750D01*
X75080Y71670D01*
X70000Y74210D01*
X64920Y71670D01*
Y67876D02*
X67460Y72956D01*
X64920Y78036D01*
X70000Y75496D01*
X75080Y78036D01*
X72540Y72956D01*
X75080Y67876D01*
X70000Y70416D01*
X64920Y67876D01*
Y64082D02*
X67460Y69162D01*
X64920Y74242D01*
X70000Y71702D01*
X75080Y74242D01*
X72540Y69162D01*
X75080Y64082D01*
X70000Y66622D01*
X64920Y64082D01*
X-3080Y129920D02*
X-540Y135000D01*
X-3080Y140080D01*
X2000Y137540D01*
X7080Y140080D01*
X4540Y135000D01*
X7080Y129920D01*
X2000Y132460D01*
X-3080Y129920D01*
X450D02*
X2990Y135000D01*
X450Y140080D01*
X5530Y137540D01*
X10610Y140080D01*
X8070Y135000D01*
X10610Y129920D01*
X5530Y132460D01*
X450Y129920D01*
X4244D02*
X6784Y135000D01*
X4244Y140080D01*
X9324Y137540D01*
X14404Y140080D01*
X11864Y135000D01*
X14404Y129920D01*
X9324Y132460D01*
X4244Y129920D01*
X8038D02*
X10578Y135000D01*
X8038Y140080D01*
X13118Y137540D01*
X18198Y140080D01*
X15658Y135000D01*
X18198Y129920D01*
X13118Y132460D01*
X8038Y129920D01*
X11832D02*
X14372Y135000D01*
X11832Y140080D01*
X16912Y137540D01*
X21992Y140080D01*
X19452Y135000D01*
X21992Y129920D01*
X16912Y132460D01*
X11832Y129920D01*
X15626D02*
X18166Y135000D01*
X15626Y140080D01*
X20706Y137540D01*
X25786Y140080D01*
X23246Y135000D01*
X25786Y129920D01*
X20706Y132460D01*
X15626Y129920D01*
X19420D02*
X21960Y135000D01*
X19420Y140080D01*
X24500Y137540D01*
X29580Y140080D01*
X27040Y135000D01*
X29580Y129920D01*
X24500Y132460D01*
X19420Y129920D01*
X23450D02*
X25990Y135000D01*
X23450Y140080D01*
X28530Y137540D01*
X33610Y140080D01*
X31070Y135000D01*
X33610Y129920D01*
X28530Y132460D01*
X23450Y129920D01*
X27244D02*
X29784Y135000D01*
X27244Y140080D01*
X32324Y137540D01*
X37404Y140080D01*
X34864Y135000D01*
X37404Y129920D01*
X32324Y132460D01*
X27244Y129920D01*
X31038D02*
X33578Y135000D01*
X31038Y140080D01*
X36118Y137540D01*
X41198Y140080D01*
X38658Y135000D01*
X41198Y129920D01*
X36118Y132460D01*
X31038Y129920D01*
X34832D02*
X37372Y135000D01*
X34832Y140080D01*
X39912Y137540D01*
X44992Y140080D01*
X42452Y135000D01*
X44992Y129920D01*
X39912Y132460D01*
X34832Y129920D01*
X38626D02*
X41166Y135000D01*
X38626Y140080D01*
X43706Y137540D01*
X48786Y140080D01*
X46246Y135000D01*
X48786Y129920D01*
X43706Y132460D01*
X38626Y129920D01*
X42420D02*
X44960Y135000D01*
X42420Y140080D01*
X47500Y137540D01*
X52580Y140080D01*
X50040Y135000D01*
X52580Y129920D01*
X47500Y132460D01*
X42420Y129920D01*
X46200D02*
X48740Y135000D01*
X46200Y140080D01*
X51280Y137540D01*
X56360Y140080D01*
X53820Y135000D01*
X56360Y129920D01*
X51280Y132460D01*
X46200Y129920D01*
X49994D02*
X52534Y135000D01*
X49994Y140080D01*
X55074Y137540D01*
X60154Y140080D01*
X57614Y135000D01*
X60154Y129920D01*
X55074Y132460D01*
X49994Y129920D01*
X53788D02*
X56328Y135000D01*
X53788Y140080D01*
X58868Y137540D01*
X63948Y140080D01*
X61408Y135000D01*
X63948Y129920D01*
X58868Y132460D01*
X53788Y129920D01*
X57582D02*
X60122Y135000D01*
X57582Y140080D01*
X62662Y137540D01*
X67742Y140080D01*
X65202Y135000D01*
X67742Y129920D01*
X62662Y132460D01*
X57582Y129920D01*
X61376D02*
X63916Y135000D01*
X61376Y140080D01*
X66456Y137540D01*
X71536Y140080D01*
X68996Y135000D01*
X71536Y129920D01*
X66456Y132460D01*
X61376Y129920D01*
X65170D02*
X67710Y135000D01*
X65170Y140080D01*
X70250Y137540D01*
X75330Y140080D01*
X72790Y135000D01*
X75330Y129920D01*
X70250Y132460D01*
X65170Y129920D01*
Y126390D02*
X67710Y131470D01*
X65170Y136550D01*
X70250Y134010D01*
X75330Y136550D01*
X72790Y131470D01*
X75330Y126390D01*
X70250Y128930D01*
X65170Y126390D01*
Y122596D02*
X67710Y127676D01*
X65170Y132756D01*
X70250Y130216D01*
X75330Y132756D01*
X72790Y127676D01*
X75330Y122596D01*
X70250Y125136D01*
X65170Y122596D01*
Y118802D02*
X67710Y123882D01*
X65170Y128962D01*
X70250Y126422D01*
X75330Y128962D01*
X72790Y123882D01*
X75330Y118802D01*
X70250Y121342D01*
X65170Y118802D01*
Y115008D02*
X67710Y120088D01*
X65170Y125168D01*
X70250Y122628D01*
X75330Y125168D01*
X72790Y120088D01*
X75330Y115008D01*
X70250Y117548D01*
X65170Y115008D01*
Y111214D02*
X67710Y116294D01*
X65170Y121374D01*
X70250Y118834D01*
X75330Y121374D01*
X72790Y116294D01*
X75330Y111214D01*
X70250Y113754D01*
X65170Y111214D01*
Y107420D02*
X67710Y112500D01*
X65170Y117580D01*
X70250Y115040D01*
X75330Y117580D01*
X72790Y112500D01*
X75330Y107420D01*
X70250Y109960D01*
X65170Y107420D01*
Y103140D02*
X67710Y108220D01*
X65170Y113300D01*
X70250Y110760D01*
X75330Y113300D01*
X72790Y108220D01*
X75330Y103140D01*
X70250Y105680D01*
X65170Y103140D01*
Y99346D02*
X67710Y104426D01*
X65170Y109506D01*
X70250Y106966D01*
X75330Y109506D01*
X72790Y104426D01*
X75330Y99346D01*
X70250Y101886D01*
X65170Y99346D01*
Y95552D02*
X67710Y100632D01*
X65170Y105712D01*
X70250Y103172D01*
X75330Y105712D01*
X72790Y100632D01*
X75330Y95552D01*
X70250Y98092D01*
X65170Y95552D01*
Y91758D02*
X67710Y96838D01*
X65170Y101918D01*
X70250Y99378D01*
X75330Y101918D01*
X72790Y96838D01*
X75330Y91758D01*
X70250Y94298D01*
X65170Y91758D01*
Y87964D02*
X67710Y93044D01*
X65170Y98124D01*
X70250Y95584D01*
X75330Y98124D01*
X72790Y93044D01*
X75330Y87964D01*
X70250Y90504D01*
X65170Y87964D01*
Y84170D02*
X67710Y89250D01*
X65170Y94330D01*
X70250Y91790D01*
X75330Y94330D01*
X72790Y89250D01*
X75330Y84170D01*
X70250Y86710D01*
X65170Y84170D01*
X180872Y111163D02*
X183412Y116243D01*
X180872Y121323D01*
X185952Y118783D01*
X191032Y121323D01*
X188492Y116243D01*
X191032Y111163D01*
X185952Y113703D01*
X180872Y111163D01*
X180290Y107414D02*
X182830Y112493D01*
X180290Y117573D01*
X185370Y115034D01*
X190450Y117573D01*
X187910Y112493D01*
X190450Y107414D01*
X185370Y109953D01*
X180290Y107414D01*
X180093Y96037D02*
X182633Y101117D01*
X180093Y106197D01*
X185173Y103657D01*
X190252Y106197D01*
X187712Y101117D01*
X190252Y96037D01*
X185173Y98577D01*
X180093Y96037D01*
X179014Y92399D02*
X181554Y97479D01*
X179014Y102559D01*
X184094Y100019D01*
X189174Y102559D01*
X186634Y97479D01*
X189174Y92399D01*
X184094Y94939D01*
X179014Y92399D01*
X176331Y89716D02*
X178871Y94796D01*
X176331Y99876D01*
X181411Y97336D01*
X186491Y99876D01*
X183951Y94796D01*
X186491Y89716D01*
X181411Y92256D01*
X176331Y89716D01*
X173648Y87034D02*
X176189Y92114D01*
X173648Y97194D01*
X178729Y94654D01*
X183808Y97194D01*
X181269Y92114D01*
X183808Y87034D01*
X178729Y89574D01*
X173648Y87034D01*
X170966Y84351D02*
X173506Y89431D01*
X170966Y94511D01*
X176046Y91971D01*
X181126Y94511D01*
X178586Y89431D01*
X181126Y84351D01*
X176046Y86891D01*
X170966Y84351D01*
X167260Y83537D02*
X169800Y88617D01*
X167260Y93697D01*
X172340Y91157D01*
X177420Y93697D01*
X174880Y88617D01*
X177420Y83537D01*
X172340Y86077D01*
X167260Y83537D01*
X163466D02*
X166006Y88617D01*
X163466Y93697D01*
X168546Y91157D01*
X173626Y93697D01*
X171086Y88617D01*
X173626Y83537D01*
X168546Y86077D01*
X163466Y83537D01*
X159672D02*
X162212Y88617D01*
X159672Y93697D01*
X164752Y91157D01*
X169832Y93697D01*
X167292Y88617D01*
X169832Y83537D01*
X164752Y86077D01*
X159672Y83537D01*
X155878D02*
X158418Y88617D01*
X155878Y93697D01*
X160958Y91157D01*
X166038Y93697D01*
X163498Y88617D01*
X166038Y83537D01*
X160958Y86077D01*
X155878Y83537D01*
X152084D02*
X154624Y88617D01*
X152084Y93697D01*
X157164Y91157D01*
X162244Y93697D01*
X159704Y88617D01*
X162244Y83537D01*
X157164Y86077D01*
X152084Y83537D01*
X148290D02*
X150830Y88617D01*
X148290Y93697D01*
X153370Y91157D01*
X158450Y93697D01*
X155910Y88617D01*
X158450Y83537D01*
X153370Y86077D01*
X148290Y83537D01*
X144496D02*
X147036Y88617D01*
X144496Y93697D01*
X149576Y91157D01*
X154656Y93697D01*
X152116Y88617D01*
X154656Y83537D01*
X149576Y86077D01*
X144496Y83537D01*
X140702D02*
X143242Y88617D01*
X140702Y93697D01*
X145782Y91157D01*
X150862Y93697D01*
X148322Y88617D01*
X150862Y83537D01*
X145782Y86077D01*
X140702Y83537D01*
X136908D02*
X139448Y88617D01*
X136908Y93697D01*
X141988Y91157D01*
X147068Y93697D01*
X144528Y88617D01*
X147068Y83537D01*
X141988Y86077D01*
X136908Y83537D01*
X133114D02*
X135654Y88617D01*
X133114Y93697D01*
X138194Y91157D01*
X143274Y93697D01*
X140734Y88617D01*
X143274Y83537D01*
X138194Y86077D01*
X133114Y83537D01*
X129320D02*
X131860Y88617D01*
X129320Y93697D01*
X134400Y91157D01*
X139480Y93697D01*
X136940Y88617D01*
X139480Y83537D01*
X134400Y86077D01*
X129320Y83537D01*
X131426Y72803D02*
X133966Y77882D01*
X131426Y82963D01*
X136506Y80422D01*
X141586Y82963D01*
X139046Y77882D01*
X141586Y72803D01*
X136506Y75342D01*
X131426Y72803D01*
X135220D02*
X137760Y77882D01*
X135220Y82963D01*
X140300Y80422D01*
X145380Y82963D01*
X142840Y77882D01*
X145380Y72803D01*
X140300Y75342D01*
X135220Y72803D01*
X139014D02*
X141554Y77882D01*
X139014Y82963D01*
X144094Y80422D01*
X149174Y82963D01*
X146634Y77882D01*
X149174Y72803D01*
X144094Y75342D01*
X139014Y72803D01*
X142808D02*
X145348Y77882D01*
X142808Y82963D01*
X147888Y80422D01*
X152968Y82963D01*
X150428Y77882D01*
X152968Y72803D01*
X147888Y75342D01*
X142808Y72803D01*
X146602D02*
X149142Y77882D01*
X146602Y82963D01*
X151682Y80422D01*
X156762Y82963D01*
X154222Y77882D01*
X156762Y72803D01*
X151682Y75342D01*
X146602Y72803D01*
X150396D02*
X152936Y77882D01*
X150396Y82963D01*
X155476Y80422D01*
X160556Y82963D01*
X158016Y77882D01*
X160556Y72803D01*
X155476Y75342D01*
X150396Y72803D01*
X154190D02*
X156730Y77882D01*
X154190Y82963D01*
X159270Y80422D01*
X164350Y82963D01*
X161810Y77882D01*
X164350Y72803D01*
X159270Y75342D01*
X154190Y72803D01*
X157984D02*
X160524Y77882D01*
X157984Y82963D01*
X163064Y80422D01*
X168144Y82963D01*
X165604Y77882D01*
X168144Y72803D01*
X163064Y75342D01*
X157984Y72803D01*
X161778D02*
X164318Y77882D01*
X161778Y82963D01*
X166858Y80422D01*
X171938Y82963D01*
X169398Y77882D01*
X171938Y72803D01*
X166858Y75342D01*
X161778Y72803D01*
X165572D02*
X168112Y77882D01*
X165572Y82963D01*
X170652Y80422D01*
X175732Y82963D01*
X173192Y77882D01*
X175732Y72803D01*
X170652Y75342D01*
X165572Y72803D01*
X169366D02*
X171905Y77882D01*
X169366Y82963D01*
X174445Y80422D01*
X179526Y82963D01*
X176985Y77882D01*
X179526Y72803D01*
X174445Y75342D01*
X169366Y72803D01*
X173158Y72908D02*
X175698Y77988D01*
X173158Y83068D01*
X178238Y80528D01*
X183318Y83068D01*
X180778Y77988D01*
X183318Y72908D01*
X178238Y75448D01*
X173158Y72908D01*
X176500Y74704D02*
X179040Y79784D01*
X176500Y84864D01*
X181580Y82324D01*
X186660Y84864D01*
X184120Y79784D01*
X186660Y74704D01*
X181580Y77244D01*
X176500Y74704D01*
X179183Y77386D02*
X181723Y82466D01*
X179183Y87547D01*
X184263Y85007D01*
X189343Y87547D01*
X186803Y82466D01*
X189343Y77386D01*
X184263Y79927D01*
X179183Y77386D01*
X181866Y80069D02*
X184405Y85149D01*
X181866Y90229D01*
X186945Y87689D01*
X192026Y90229D01*
X189485Y85149D01*
X192026Y80069D01*
X186945Y82609D01*
X181866Y80069D01*
X184548Y82752D02*
X187088Y87832D01*
X184548Y92912D01*
X189628Y90372D01*
X194708Y92912D01*
X192168Y87832D01*
X194708Y82752D01*
X189628Y85292D01*
X184548Y82752D01*
X187231Y85435D02*
X189771Y90515D01*
X187231Y95595D01*
X192311Y93055D01*
X197391Y95595D01*
X194851Y90515D01*
X197391Y85435D01*
X192311Y87975D01*
X187231Y85435D01*
X189817Y88211D02*
X192357Y93291D01*
X189817Y98371D01*
X194897Y95831D01*
X199977Y98371D01*
X197437Y93291D01*
X199977Y88211D01*
X194897Y90751D01*
X189817Y88211D01*
X190827Y91868D02*
X193367Y96948D01*
X190827Y102028D01*
X195907Y99488D01*
X200987Y102028D01*
X198447Y96948D01*
X200987Y91868D01*
X195907Y94408D01*
X190827Y91868D01*
Y95662D02*
X193367Y100742D01*
X190827Y105822D01*
X195907Y103282D01*
X200987Y105822D01*
X198447Y100742D01*
X200987Y95662D01*
X195907Y98202D01*
X190827Y95662D01*
Y99456D02*
X193367Y104536D01*
X190827Y109616D01*
X195907Y107076D01*
X200987Y109616D01*
X198447Y104536D01*
X200987Y99456D01*
X195907Y101996D01*
X190827Y99456D01*
Y103250D02*
X193367Y108330D01*
X190827Y113410D01*
X195907Y110870D01*
X200987Y113410D01*
X198447Y108330D01*
X200987Y103250D01*
X195907Y105790D01*
X190827Y103250D01*
X190812Y107044D02*
X193352Y112124D01*
X190812Y117204D01*
X195892Y114664D01*
X200972Y117204D01*
X198432Y112124D01*
X200972Y107044D01*
X195892Y109584D01*
X190812Y107044D01*
X190098Y110770D02*
X192638Y115850D01*
X190098Y120930D01*
X195178Y118390D01*
X200258Y120930D01*
X197718Y115850D01*
X200258Y110770D01*
X195178Y113310D01*
X190098Y110770D01*
X96662Y83537D02*
X99202Y88617D01*
X96662Y93697D01*
X101742Y91157D01*
X106822Y93697D01*
X104282Y88617D01*
X106822Y83537D01*
X101742Y86077D01*
X96662Y83537D01*
X92868D02*
X95408Y88617D01*
X92868Y93697D01*
X97948Y91157D01*
X103028Y93697D01*
X100488Y88617D01*
X103028Y83537D01*
X97948Y86077D01*
X92868Y83537D01*
X89102Y83077D02*
X91642Y88158D01*
X89102Y93237D01*
X94182Y90697D01*
X99262Y93237D01*
X96722Y88158D01*
X99262Y83077D01*
X94182Y85618D01*
X89102Y83077D01*
X85309Y83041D02*
X87849Y88121D01*
X85309Y93201D01*
X90389Y90661D01*
X95469Y93201D01*
X92929Y88121D01*
X95469Y83041D01*
X90389Y85581D01*
X85309Y83041D01*
X81547Y83537D02*
X84087Y88617D01*
X81547Y93697D01*
X86627Y91157D01*
X91707Y93697D01*
X89167Y88617D01*
X91707Y83537D01*
X86627Y86077D01*
X81547Y83537D01*
X73959D02*
X76499Y88617D01*
X73959Y93697D01*
X79039Y91157D01*
X84119Y93697D01*
X81579Y88617D01*
X84119Y83537D01*
X79039Y86077D01*
X73959Y83537D01*
X70198Y83040D02*
X72738Y88120D01*
X70198Y93200D01*
X75278Y90660D01*
X80358Y93200D01*
X77818Y88120D01*
X80358Y83040D01*
X75278Y85580D01*
X70198Y83040D01*
X69499Y73675D02*
X72039Y78755D01*
X69499Y83835D01*
X74579Y81295D01*
X79659Y83835D01*
X77119Y78755D01*
X79659Y73675D01*
X74579Y76215D01*
X69499Y73675D01*
X73191Y72803D02*
X75731Y77882D01*
X73191Y82963D01*
X78271Y80422D01*
X83351Y82963D01*
X80811Y77882D01*
X83351Y72803D01*
X78271Y75342D01*
X73191Y72803D01*
X76985D02*
X79525Y77882D01*
X76985Y82963D01*
X82065Y80422D01*
X87145Y82963D01*
X84605Y77882D01*
X87145Y72803D01*
X82065Y75342D01*
X76985Y72803D01*
X80779D02*
X83319Y77882D01*
X80779Y82963D01*
X85859Y80422D01*
X90939Y82963D01*
X88399Y77882D01*
X90939Y72803D01*
X85859Y75342D01*
X80779Y72803D01*
X84567Y73029D02*
X87107Y78109D01*
X84567Y83189D01*
X89647Y80649D01*
X94727Y83189D01*
X92187Y78109D01*
X94727Y73029D01*
X89647Y75570D01*
X84567Y73029D01*
X88304Y73681D02*
X90844Y78761D01*
X88304Y83841D01*
X93384Y81301D01*
X98464Y83841D01*
X95924Y78761D01*
X98464Y73681D01*
X93384Y76221D01*
X88304Y73681D01*
X91995Y72803D02*
X94535Y77882D01*
X91995Y82963D01*
X97075Y80422D01*
X102155Y82963D01*
X99615Y77882D01*
X102155Y72803D01*
X97075Y75342D01*
X91995Y72803D01*
X95789D02*
X98329Y77882D01*
X95789Y82963D01*
X100869Y80422D01*
X105949Y82963D01*
X103409Y77882D01*
X105949Y72803D01*
X100869Y75342D01*
X95789Y72803D01*
X200176Y154222D02*
X202716Y156762D01*
X205256D01*
X202716Y159302D01*
X205256Y161842D01*
X202716D01*
X200176Y164382D01*
X197636Y161842D01*
X195096D01*
X197636Y159302D01*
X195096Y156762D01*
X197636D01*
X200176Y154222D01*
X195208D02*
X197748Y156762D01*
X200288D01*
X197748Y159302D01*
X200288Y161842D01*
X197748D01*
X195208Y164382D01*
X192668Y161842D01*
X190128D01*
X192668Y159302D01*
X190128Y156762D01*
X192668D01*
X195208Y154222D01*
X195210Y161683D02*
X197750Y164223D01*
X200290D01*
X197750Y166763D01*
X200290Y169303D01*
X197750D01*
X195210Y171843D01*
X192670Y169303D01*
X190130D01*
X192670Y166763D01*
X190130Y164223D01*
X192670D01*
X195210Y161683D01*
X200178D02*
X202718Y164223D01*
X205258D01*
X202718Y166763D01*
X205258Y169303D01*
X202718D01*
X200178Y171843D01*
X197638Y169303D01*
X195098D01*
X197638Y166763D01*
X195098Y164223D01*
X197638D01*
X200178Y161683D01*
X234750Y86170D02*
X237290Y88710D01*
X239830D01*
X237290Y91250D01*
X239830Y93790D01*
X237290D01*
X234750Y96330D01*
X232210Y93790D01*
X229670D01*
X232210Y91250D01*
X229670Y88710D01*
X232210D01*
X234750Y86170D01*
X177240Y266420D02*
X179780Y268960D01*
X182320D01*
X179780Y271500D01*
X182320Y274040D01*
X179780D01*
X177240Y276580D01*
X174700Y274040D01*
X172160D01*
X174700Y271500D01*
X172160Y268960D01*
X174700D01*
X177240Y266420D01*
X169240D02*
X171780Y268960D01*
X174320D01*
X171780Y271500D01*
X174320Y274040D01*
X171780D01*
X169240Y276580D01*
X166700Y274040D01*
X164160D01*
X166700Y271500D01*
X164160Y268960D01*
X166700D01*
X169240Y266420D01*
X232250Y267670D02*
X234790Y270210D01*
X237330D01*
X234790Y272750D01*
X237330Y275290D01*
X234790D01*
X232250Y277830D01*
X229710Y275290D01*
X227170D01*
X229710Y272750D01*
X227170Y270210D01*
X229710D01*
X232250Y267670D01*
X224250D02*
X226790Y270210D01*
X229330D01*
X226790Y272750D01*
X229330Y275290D01*
X226790D01*
X224250Y277830D01*
X221710Y275290D01*
X219170D01*
X221710Y272750D01*
X219170Y270210D01*
X221710D01*
X224250Y267670D01*
X208670Y185867D02*
X211210Y190947D01*
X208670Y196027D01*
X213750Y193487D01*
X218830Y196027D01*
X216290Y190947D01*
X218830Y185867D01*
X213750Y188407D01*
X208670Y185867D01*
M02*
