G04*
G04 #@! TF.GenerationSoftware,Altium Limited,Altium Designer,24.5.2 (23)*
G04*
G04 Layer_Color=8421504*
%FSLAX44Y44*%
%MOMM*%
G71*
G04*
G04 #@! TF.SameCoordinates,592061D7-B9A1-4A66-9416-76F5012AC85A*
G04*
G04*
G04 #@! TF.FilePolarity,Positive*
G04*
G01*
G75*
%ADD21R,0.9000X0.4000*%
%ADD22R,0.8000X0.7500*%
%ADD23R,0.2700X0.3000*%
%ADD24R,0.3000X0.2700*%
G04:AMPARAMS|DCode=25|XSize=0.2339mm|YSize=0.2339mm|CornerRadius=0.117mm|HoleSize=0mm|Usage=FLASHONLY|Rotation=0.000|XOffset=0mm|YOffset=0mm|HoleType=Round|Shape=RoundedRectangle|*
%AMROUNDEDRECTD25*
21,1,0.2339,0.0000,0,0,0.0*
21,1,0.0000,0.2339,0,0,0.0*
1,1,0.2339,0.0000,0.0000*
1,1,0.2339,0.0000,0.0000*
1,1,0.2339,0.0000,0.0000*
1,1,0.2339,0.0000,0.0000*
%
%ADD25ROUNDEDRECTD25*%
%ADD26R,0.6500X0.8499*%
%ADD27R,1.2000X1.8000*%
%ADD28R,0.6000X1.5500*%
%ADD29R,1.2000X0.9500*%
%ADD30R,0.3500X0.2000*%
%ADD31R,0.7620X0.8128*%
%ADD32R,0.3000X0.8000*%
%ADD33R,0.9250X0.3000*%
%ADD34R,0.7112X0.2540*%
%ADD35R,0.3048X1.7018*%
%ADD36C,0.1930*%
%ADD37R,0.5000X0.3000*%
%ADD38R,2.0250X0.2750*%
%ADD39C,0.1700*%
%ADD40R,0.7500X0.8000*%
%ADD41R,1.1300X1.8200*%
%ADD42R,0.5000X0.6000*%
%ADD43R,0.6000X0.5000*%
%ADD44R,1.4000X0.7500*%
%ADD45R,0.8500X0.9500*%
D21*
X441000Y68000D02*
D03*
Y59000D02*
D03*
D22*
X209776Y36595D02*
D03*
Y23094D02*
D03*
X195806Y36595D02*
D03*
Y23094D02*
D03*
X183614Y36595D02*
D03*
Y23094D02*
D03*
X221968Y36595D02*
D03*
Y23094D02*
D03*
X416250Y52250D02*
D03*
Y65750D02*
D03*
X75750Y11750D02*
D03*
Y25250D02*
D03*
X44250Y26000D02*
D03*
Y12500D02*
D03*
D23*
X171860Y19684D02*
D03*
X166160D02*
D03*
X171860Y32892D02*
D03*
X166160D02*
D03*
X171860Y39242D02*
D03*
X166160D02*
D03*
X171860Y26288D02*
D03*
X166160D02*
D03*
X545600Y101000D02*
D03*
X539900D02*
D03*
X393950Y18250D02*
D03*
X388250D02*
D03*
X394500Y27250D02*
D03*
X388800D02*
D03*
X603850Y77250D02*
D03*
X598150D02*
D03*
X379633Y86250D02*
D03*
X373933Y86250D02*
D03*
X86850Y32500D02*
D03*
X81150D02*
D03*
X98900Y41500D02*
D03*
X104600D02*
D03*
X103601Y53001D02*
D03*
X97901Y53001D02*
D03*
X103400Y58750D02*
D03*
X109100D02*
D03*
X114901Y53001D02*
D03*
X120601Y53001D02*
D03*
D24*
X253718Y68001D02*
D03*
Y62300D02*
D03*
X246860Y68001D02*
D03*
Y62300D02*
D03*
X195092Y100531D02*
D03*
Y94831D02*
D03*
X188614Y100531D02*
D03*
Y94831D02*
D03*
X181756Y100277D02*
D03*
Y94577D02*
D03*
X175406Y100277D02*
D03*
Y94577D02*
D03*
X201442Y94873D02*
D03*
Y100573D02*
D03*
X550750Y72750D02*
D03*
Y67050D02*
D03*
X423000Y112100D02*
D03*
Y106400D02*
D03*
X414000Y112600D02*
D03*
Y106900D02*
D03*
X432250Y21500D02*
D03*
Y15800D02*
D03*
X522294Y113109D02*
D03*
Y107409D02*
D03*
X463791Y113109D02*
D03*
Y107409D02*
D03*
X405538Y113109D02*
D03*
Y107409D02*
D03*
X696750Y74150D02*
D03*
Y79850D02*
D03*
X677000Y74150D02*
D03*
Y79850D02*
D03*
X396500Y107350D02*
D03*
X390500D02*
D03*
X396500Y101650D02*
D03*
X390500D02*
D03*
X126250Y52850D02*
D03*
Y47150D02*
D03*
X34500Y91850D02*
D03*
Y86150D02*
D03*
X93000Y32350D02*
D03*
Y26650D02*
D03*
X109250Y47150D02*
D03*
Y52850D02*
D03*
X49500Y91100D02*
D03*
Y85400D02*
D03*
X93000Y91100D02*
D03*
Y85400D02*
D03*
D25*
X181749Y75000D02*
D03*
X185250D02*
D03*
X188750D02*
D03*
X192250D02*
D03*
X195750D02*
D03*
X199250D02*
D03*
X202750D02*
D03*
X181749Y71500D02*
D03*
X185250D02*
D03*
X188750D02*
D03*
X192250D02*
D03*
X195750D02*
D03*
X199250D02*
D03*
X202750D02*
D03*
X181749Y68000D02*
D03*
X185250D02*
D03*
X188750D02*
D03*
X192250D02*
D03*
X195750D02*
D03*
X199250D02*
D03*
X202750D02*
D03*
X181749Y64500D02*
D03*
X185250D02*
D03*
X188750D02*
D03*
X192250D02*
D03*
X195750D02*
D03*
X199250D02*
D03*
X202750D02*
D03*
X181749Y61000D02*
D03*
X185250D02*
D03*
X188750D02*
D03*
X192250D02*
D03*
X195750D02*
D03*
X199250D02*
D03*
X202750D02*
D03*
X181749Y57500D02*
D03*
X185250D02*
D03*
X188750D02*
D03*
X192250D02*
D03*
X195750D02*
D03*
X199250D02*
D03*
X202750D02*
D03*
D26*
X238346Y52321D02*
D03*
X221846D02*
D03*
Y67820D02*
D03*
X238346D02*
D03*
D27*
X533250Y34000D02*
D03*
X481250D02*
D03*
D28*
X517250Y72750D02*
D03*
X507250D02*
D03*
X497250D02*
D03*
D29*
X305000Y40750D02*
D03*
Y19250D02*
D03*
X263000Y40750D02*
D03*
Y19250D02*
D03*
D30*
X415000Y18000D02*
D03*
Y21500D02*
D03*
Y25000D02*
D03*
X423500Y18000D02*
D03*
Y21500D02*
D03*
Y25000D02*
D03*
X356500Y84750D02*
D03*
X348000Y91750D02*
D03*
X356500D02*
D03*
Y88250D02*
D03*
X348000Y84750D02*
D03*
Y88250D02*
D03*
D31*
X381485Y104500D02*
D03*
X367515D02*
D03*
X367265Y118000D02*
D03*
X381235D02*
D03*
D32*
X687000Y61750D02*
D03*
X692000D02*
D03*
X697000D02*
D03*
Y36250D02*
D03*
X692000D02*
D03*
X687000D02*
D03*
D33*
X704875Y59000D02*
D03*
Y54000D02*
D03*
Y49000D02*
D03*
Y44000D02*
D03*
Y39000D02*
D03*
X679125D02*
D03*
Y44000D02*
D03*
Y49000D02*
D03*
Y54000D02*
D03*
Y59000D02*
D03*
D34*
X574371Y66001D02*
D03*
Y61001D02*
D03*
Y56001D02*
D03*
Y51001D02*
D03*
X602312D02*
D03*
Y56001D02*
D03*
Y61001D02*
D03*
Y66001D02*
D03*
D35*
X588341Y58501D02*
D03*
D36*
X378500Y78500D02*
D03*
X374500Y74500D02*
D03*
Y78500D02*
D03*
X378500Y74500D02*
D03*
Y70500D02*
D03*
X374500D02*
D03*
X370500Y78500D02*
D03*
Y74500D02*
D03*
X366500D02*
D03*
X370500Y66500D02*
D03*
Y70500D02*
D03*
X378500Y62500D02*
D03*
Y66500D02*
D03*
X374500D02*
D03*
Y62500D02*
D03*
X370500D02*
D03*
X366500Y70500D02*
D03*
X366500Y78500D02*
D03*
X362500Y74500D02*
D03*
Y78500D02*
D03*
Y66500D02*
D03*
Y70500D02*
D03*
X366500Y62500D02*
D03*
Y66500D02*
D03*
X362500Y62500D02*
D03*
D37*
X451250Y63500D02*
D03*
Y69000D02*
D03*
Y58000D02*
D03*
X430750Y69000D02*
D03*
Y58000D02*
D03*
X430750Y63500D02*
D03*
D38*
X441000Y76250D02*
D03*
Y50750D02*
D03*
D39*
X50750Y77500D02*
D03*
X61250Y70500D02*
D03*
X64750D02*
D03*
X68250D02*
D03*
X71750D02*
D03*
X57750Y74000D02*
D03*
X54250Y70500D02*
D03*
X75250D02*
D03*
X78750D02*
D03*
X82250D02*
D03*
X85750D02*
D03*
X54250Y77500D02*
D03*
X61250D02*
D03*
X68250D02*
D03*
X75250D02*
D03*
X82250D02*
D03*
X89250D02*
D03*
X54250Y74000D02*
D03*
X61250D02*
D03*
X64750D02*
D03*
X68250D02*
D03*
X71750D02*
D03*
X75250D02*
D03*
X78750D02*
D03*
X82250D02*
D03*
X85750D02*
D03*
X89250D02*
D03*
X50750Y67000D02*
D03*
X54250D02*
D03*
X57750D02*
D03*
X82250D02*
D03*
X85750D02*
D03*
X89250D02*
D03*
X54250Y63500D02*
D03*
X57750D02*
D03*
X64750D02*
D03*
X68250D02*
D03*
X71750D02*
D03*
X75250D02*
D03*
X82250D02*
D03*
X85750D02*
D03*
X50750Y60000D02*
D03*
X54250D02*
D03*
X57750D02*
D03*
X64750D02*
D03*
X68250D02*
D03*
X71750D02*
D03*
X75250D02*
D03*
X82250D02*
D03*
X85750D02*
D03*
X89250D02*
D03*
X54250Y56500D02*
D03*
X57750D02*
D03*
X64750D02*
D03*
X68250D02*
D03*
X71750D02*
D03*
X75250D02*
D03*
X82250D02*
D03*
X85750D02*
D03*
X50750Y53000D02*
D03*
X54250D02*
D03*
X57750D02*
D03*
X78750Y56500D02*
D03*
X85750Y53000D02*
D03*
X89250D02*
D03*
X54250Y49500D02*
D03*
X57750D02*
D03*
X61250D02*
D03*
X64750D02*
D03*
X68250D02*
D03*
X71750D02*
D03*
X75250D02*
D03*
X78750D02*
D03*
X85750D02*
D03*
X50750Y46000D02*
D03*
X54250D02*
D03*
X57750D02*
D03*
X61250D02*
D03*
X64750D02*
D03*
X68250D02*
D03*
X71750D02*
D03*
X75250D02*
D03*
X78750D02*
D03*
X85750D02*
D03*
X89250D02*
D03*
X50750Y42500D02*
D03*
X54250D02*
D03*
X61250D02*
D03*
X68250D02*
D03*
X75250D02*
D03*
X82250D02*
D03*
X85750D02*
D03*
X89250D02*
D03*
X57750Y70500D02*
D03*
X50750Y74000D02*
D03*
D40*
X421750Y88000D02*
D03*
X404533Y54250D02*
D03*
Y65750D02*
D03*
X359033Y49250D02*
D03*
X337283Y61000D02*
D03*
X435250Y88000D02*
D03*
X391033Y54250D02*
D03*
X372533Y49250D02*
D03*
X350783Y61000D02*
D03*
X391033Y65750D02*
D03*
D41*
X344183Y31250D02*
D03*
X361883Y31250D02*
D03*
D42*
X53750Y14000D02*
D03*
Y24000D02*
D03*
X34750Y10250D02*
D03*
Y20250D02*
D03*
X61750Y24000D02*
D03*
Y14000D02*
D03*
X72500Y102500D02*
D03*
Y92500D02*
D03*
X85250Y10000D02*
D03*
X85250Y20000D02*
D03*
D43*
X64500Y5250D02*
D03*
X54500D02*
D03*
D44*
X21000Y62250D02*
D03*
Y76750D02*
D03*
D45*
X120052Y15948D02*
D03*
X108552D02*
D03*
X108552Y30448D02*
D03*
X120052Y30448D02*
D03*
M02*
