G04*
G04 #@! TF.GenerationSoftware,Altium Limited,Altium Designer,25.2.1 (25)*
G04*
G04 Layer_Color=2752767*
%FSLAX44Y44*%
%MOMM*%
G71*
G04*
G04 #@! TF.SameCoordinates,FED8839F-E969-4304-A6C3-1DC976675259*
G04*
G04*
G04 #@! TF.FilePolarity,Positive*
G04*
G01*
G75*
%ADD16C,0.1270*%
D16*
X89170Y201670D02*
X91710Y206750D01*
X89170Y211830D01*
X94250Y209290D01*
X99330Y211830D01*
X96790Y206750D01*
X99330Y201670D01*
X94250Y204210D01*
X89170Y201670D01*
X101420Y229420D02*
X103960Y234500D01*
X101420Y239580D01*
X106500Y237040D01*
X111580Y239580D01*
X109040Y234500D01*
X111580Y229420D01*
X106500Y231960D01*
X101420Y229420D01*
X342670Y237420D02*
X345210Y242500D01*
X342670Y247580D01*
X347750Y245040D01*
X352830Y247580D01*
X350290Y242500D01*
X352830Y237420D01*
X347750Y239960D01*
X342670Y237420D01*
X202920Y273920D02*
X205460Y279000D01*
X202920Y284080D01*
X208000Y281540D01*
X213080Y284080D01*
X210540Y279000D01*
X213080Y273920D01*
X208000Y276460D01*
X202920Y273920D01*
X276920Y155920D02*
X279460Y161000D01*
X276920Y166080D01*
X282000Y163540D01*
X287080Y166080D01*
X284540Y161000D01*
X287080Y155920D01*
X282000Y158460D01*
X276920Y155920D01*
X276420Y174170D02*
X278960Y179250D01*
X276420Y184330D01*
X281500Y181790D01*
X286580Y184330D01*
X284040Y179250D01*
X286580Y174170D01*
X281500Y176710D01*
X276420Y174170D01*
X78885Y208385D02*
X81425Y213465D01*
X78885Y218545D01*
X83965Y216005D01*
X89045Y218545D01*
X86505Y213465D01*
X89045Y208385D01*
X83965Y210925D01*
X78885Y208385D01*
X42170Y186670D02*
X44710Y191750D01*
X42170Y196830D01*
X47250Y194290D01*
X52330Y196830D01*
X49790Y191750D01*
X52330Y186670D01*
X47250Y189210D01*
X42170Y186670D01*
X258222Y125170D02*
X260762Y130250D01*
X258222Y135330D01*
X263302Y132790D01*
X268382Y135330D01*
X265842Y130250D01*
X268382Y125170D01*
X263302Y127710D01*
X258222Y125170D01*
X241618Y116473D02*
X244158Y121553D01*
X241618Y126633D01*
X246698Y124093D01*
X251778Y126633D01*
X249238Y121553D01*
X251778Y116473D01*
X246698Y119013D01*
X241618Y116473D01*
X271920Y106170D02*
X274460Y111250D01*
X271920Y116330D01*
X277000Y113790D01*
X282080Y116330D01*
X279540Y111250D01*
X282080Y106170D01*
X277000Y108710D01*
X271920Y106170D01*
X23411Y192589D02*
X25951Y197669D01*
X23411Y202749D01*
X28491Y200209D01*
X33571Y202749D01*
X31031Y197669D01*
X33571Y192589D01*
X28491Y195129D01*
X23411Y192589D01*
X24420Y185170D02*
X26960Y190250D01*
X24420Y195330D01*
X29500Y192790D01*
X34580Y195330D01*
X32040Y190250D01*
X34580Y185170D01*
X29500Y187710D01*
X24420Y185170D01*
X74920Y238670D02*
X77460Y243750D01*
X74920Y248830D01*
X80000Y246290D01*
X85080Y248830D01*
X82540Y243750D01*
X85080Y238670D01*
X80000Y241210D01*
X74920Y238670D01*
X60497Y239932D02*
X63037Y245012D01*
X60497Y250092D01*
X65577Y247552D01*
X70657Y250092D01*
X68117Y245012D01*
X70657Y239932D01*
X65577Y242472D01*
X60497Y239932D01*
X31920Y240920D02*
X34460Y246000D01*
X31920Y251080D01*
X37000Y248540D01*
X42080Y251080D01*
X39540Y246000D01*
X42080Y240920D01*
X37000Y243460D01*
X31920Y240920D01*
X66670Y240420D02*
X69210Y245500D01*
X66670Y250580D01*
X71750Y248040D01*
X76830Y250580D01*
X74290Y245500D01*
X76830Y240420D01*
X71750Y242960D01*
X66670Y240420D01*
X271933Y199125D02*
X274473Y204205D01*
X271933Y209285D01*
X277013Y206745D01*
X282093Y209285D01*
X279553Y204205D01*
X282093Y199125D01*
X277013Y201665D01*
X271933Y199125D01*
X306670Y114170D02*
X309210Y119250D01*
X306670Y124330D01*
X311750Y121790D01*
X316830Y124330D01*
X314290Y119250D01*
X316830Y114170D01*
X311750Y116710D01*
X306670Y114170D01*
X325420Y240170D02*
X327960Y245250D01*
X325420Y250330D01*
X330500Y247790D01*
X335580Y250330D01*
X333040Y245250D01*
X335580Y240170D01*
X330500Y242710D01*
X325420Y240170D01*
X75448Y248373D02*
X77988Y253453D01*
X75448Y258533D01*
X80528Y255993D01*
X85608Y258533D01*
X83068Y253453D01*
X85608Y248373D01*
X80528Y250913D01*
X75448Y248373D01*
X95670Y235670D02*
X98210Y240750D01*
X95670Y245830D01*
X100750Y243290D01*
X105830Y245830D01*
X103290Y240750D01*
X105830Y235670D01*
X100750Y238210D01*
X95670Y235670D01*
X315920Y206920D02*
X318460Y212000D01*
X315920Y217080D01*
X321000Y214540D01*
X326080Y217080D01*
X323540Y212000D01*
X326080Y206920D01*
X321000Y209460D01*
X315920Y206920D01*
X209230Y181575D02*
X211770Y186655D01*
X209230Y191735D01*
X214310Y189195D01*
X219390Y191735D01*
X216850Y186655D01*
X219390Y181575D01*
X214310Y184115D01*
X209230Y181575D01*
X108670Y228420D02*
X111210Y233500D01*
X108670Y238580D01*
X113750Y236040D01*
X118830Y238580D01*
X116290Y233500D01*
X118830Y228420D01*
X113750Y230960D01*
X108670Y228420D01*
X113315Y219723D02*
X115855Y224803D01*
X113315Y229883D01*
X118395Y227343D01*
X123475Y229883D01*
X120935Y224803D01*
X123475Y219723D01*
X118395Y222263D01*
X113315Y219723D01*
X185626Y170202D02*
X188166Y175282D01*
X185626Y180362D01*
X190706Y177822D01*
X195786Y180362D01*
X193246Y175282D01*
X195786Y170202D01*
X190706Y172742D01*
X185626Y170202D01*
X189110Y170170D02*
X191650Y175250D01*
X189110Y180330D01*
X194190Y177790D01*
X199270Y180330D01*
X196730Y175250D01*
X199270Y170170D01*
X194190Y172710D01*
X189110Y170170D01*
X159670Y142956D02*
X162210Y148036D01*
X159670Y153116D01*
X164750Y150576D01*
X169830Y153116D01*
X167290Y148036D01*
X169830Y142956D01*
X164750Y145496D01*
X159670Y142956D01*
X162670Y99355D02*
X165210Y104435D01*
X162670Y109515D01*
X167750Y106975D01*
X172830Y109515D01*
X170290Y104435D01*
X172830Y99355D01*
X167750Y101895D01*
X162670Y99355D01*
X148170Y126959D02*
X150710Y132039D01*
X148170Y137119D01*
X153250Y134579D01*
X158330Y137119D01*
X155790Y132039D01*
X158330Y126959D01*
X153250Y129499D01*
X148170Y126959D01*
X272170Y82670D02*
X274710Y87750D01*
X272170Y92830D01*
X277250Y90290D01*
X282330Y92830D01*
X279790Y87750D01*
X282330Y82670D01*
X277250Y85210D01*
X272170Y82670D01*
Y120170D02*
X274710Y125250D01*
X272170Y130330D01*
X277250Y127790D01*
X282330Y130330D01*
X279790Y125250D01*
X282330Y120170D01*
X277250Y122710D01*
X272170Y120170D01*
X272151Y133151D02*
X274691Y138231D01*
X272151Y143311D01*
X277231Y140771D01*
X282311Y143311D01*
X279771Y138231D01*
X282311Y133151D01*
X277231Y135691D01*
X272151Y133151D01*
X308920Y204420D02*
X311460Y209500D01*
X308920Y214580D01*
X314000Y212040D01*
X319080Y214580D01*
X316540Y209500D01*
X319080Y204420D01*
X314000Y206960D01*
X308920Y204420D01*
X281481Y223731D02*
X284021Y228811D01*
X281481Y233891D01*
X286561Y231351D01*
X291641Y233891D01*
X289101Y228811D01*
X291641Y223731D01*
X286561Y226271D01*
X281481Y223731D01*
X286879Y247920D02*
X289419Y253000D01*
X286879Y258080D01*
X291959Y255540D01*
X297039Y258080D01*
X294499Y253000D01*
X297039Y247920D01*
X291959Y250460D01*
X286879Y247920D01*
X7920Y249170D02*
X10460Y254250D01*
X7920Y259330D01*
X13000Y256790D01*
X18080Y259330D01*
X15540Y254250D01*
X18080Y249170D01*
X13000Y251710D01*
X7920Y249170D01*
X18670Y210920D02*
X21210Y216000D01*
X18670Y221080D01*
X23750Y218540D01*
X28830Y221080D01*
X26290Y216000D01*
X28830Y210920D01*
X23750Y213460D01*
X18670Y210920D01*
X36670Y221420D02*
X39210Y226500D01*
X36670Y231580D01*
X41750Y229040D01*
X46830Y231580D01*
X44290Y226500D01*
X46830Y221420D01*
X41750Y223960D01*
X36670Y221420D01*
X36180Y158023D02*
X38720Y163103D01*
X36180Y168183D01*
X41260Y165643D01*
X46340Y168183D01*
X43800Y163103D01*
X46340Y158023D01*
X41260Y160563D01*
X36180Y158023D01*
X56942Y201420D02*
X59482Y206500D01*
X56942Y211580D01*
X62022Y209040D01*
X67102Y211580D01*
X64562Y206500D01*
X67102Y201420D01*
X62022Y203960D01*
X56942Y201420D01*
X60455Y204885D02*
X62995Y209965D01*
X60455Y215045D01*
X65535Y212505D01*
X70615Y215045D01*
X68075Y209965D01*
X70615Y204885D01*
X65535Y207425D01*
X60455Y204885D01*
X60455Y201385D02*
X62995Y206465D01*
X60455Y211545D01*
X65535Y209005D01*
X70615Y211545D01*
X68075Y206465D01*
X70615Y201385D01*
X65535Y203925D01*
X60455Y201385D01*
X63955Y204885D02*
X66495Y209965D01*
X63955Y215045D01*
X69035Y212505D01*
X74115Y215045D01*
X71575Y209965D01*
X74115Y204885D01*
X69035Y207425D01*
X63955Y204885D01*
X56920Y204920D02*
X59460Y210000D01*
X56920Y215080D01*
X62000Y212540D01*
X67080Y215080D01*
X64540Y210000D01*
X67080Y204920D01*
X62000Y207460D01*
X56920Y204920D01*
X63955Y201385D02*
X66495Y206465D01*
X63955Y211545D01*
X69035Y209005D01*
X74115Y211545D01*
X71575Y206465D01*
X74115Y201385D01*
X69035Y203925D01*
X63955Y201385D01*
X83920Y199170D02*
X86460Y204250D01*
X83920Y209330D01*
X89000Y206790D01*
X94080Y209330D01*
X91540Y204250D01*
X94080Y199170D01*
X89000Y201710D01*
X83920Y199170D01*
M02*
