G04*
G04 #@! TF.GenerationSoftware,Altium Limited,Altium Designer,24.5.2 (23)*
G04*
G04 Layer_Color=32896*
%FSLAX44Y44*%
%MOMM*%
G71*
G04*
G04 #@! TF.SameCoordinates,341C2CF7-429B-42C7-B8C7-4B7D01239ABD*
G04*
G04*
G04 #@! TF.FilePolarity,Positive*
G04*
G01*
G75*
%ADD11C,0.1500*%
%ADD12C,0.2000*%
%ADD13C,0.1250*%
%ADD14C,0.1524*%
%ADD15C,0.1000*%
%ADD69C,0.2032*%
%ADD112C,0.1001*%
%ADD113C,0.2540*%
D11*
X155240Y297750D02*
G03*
X155240Y297750I-9500J0D01*
G01*
X210250Y298000D02*
G03*
X210250Y298000I-9500J0D01*
G01*
X289620Y161000D02*
G03*
X289620Y161000I-7620J0D01*
G01*
Y178500D02*
G03*
X289620Y178500I-7620J0D01*
G01*
X287750Y297750D02*
G03*
X287750Y297750I-9500J0D01*
G01*
X263750Y297750D02*
G03*
X263750Y297750I-9500J0D01*
G01*
X312000Y163000D02*
G03*
X312000Y163000I-9500J0D01*
G01*
X330300Y244111D02*
G03*
X330300Y244111I-500J0D01*
G01*
X312000Y297750D02*
G03*
X312000Y297750I-9500J0D01*
G01*
X386000Y231000D02*
G03*
X386000Y231000I-9500J0D01*
G01*
X162990Y260750D02*
X165240D01*
X181240D02*
X183490D01*
X162990Y282250D02*
X165240Y282250D01*
X181240Y282250D02*
X183490D01*
X218000Y262000D02*
X220250D01*
X236250D02*
X238500D01*
X218000Y283500D02*
X220250Y283500D01*
X236250Y283500D02*
X238500D01*
D12*
X172240Y251750D02*
X174240D01*
X172240Y245750D02*
X174240D01*
X202490Y270500D02*
Y272500D01*
X196490Y270500D02*
Y272500D01*
X227000Y252250D02*
X229000D01*
X227000Y246250D02*
X229000D01*
X257500Y271750D02*
Y273750D01*
X251500Y271750D02*
Y273750D01*
X291485Y239250D02*
X293485D01*
X291485Y245250D02*
X293485D01*
X313500Y251000D02*
X315500D01*
X313500Y257000D02*
X315500D01*
X352000Y236000D02*
X354000D01*
X352000Y230000D02*
X354000D01*
X352000Y254662D02*
X354000D01*
X352000Y248662D02*
X354000D01*
D13*
X320000Y188750D02*
G03*
X320000Y188750I-500J0D01*
G01*
X36150Y212800D02*
X39300D01*
Y217200D01*
X36150D02*
X39300D01*
X29500Y212800D02*
X32650D01*
X29500Y217200D02*
X32650D01*
X29500Y212800D02*
Y217200D01*
X63000Y180500D02*
X70500D01*
Y185000D01*
X63000Y180500D02*
Y185000D01*
X70500D01*
X63000Y175000D02*
X70500D01*
X63000Y170500D02*
Y175000D01*
X70500Y170500D02*
Y175000D01*
X63000Y170500D02*
X70500D01*
X63000Y292500D02*
X70500D01*
X63000Y288000D02*
Y292500D01*
X70500Y288000D02*
Y292500D01*
X63000Y288000D02*
X70500D01*
X63000Y276750D02*
X70500D01*
Y281250D01*
X63000Y276750D02*
Y281250D01*
X70500D01*
X327250Y207950D02*
X330400D01*
Y203550D02*
Y207950D01*
X327250Y203550D02*
X330400D01*
X320600Y207950D02*
X323750D01*
X320600Y203550D02*
X323750D01*
X320600D02*
Y207950D01*
X320600Y214550D02*
X323750D01*
X320600D02*
Y218950D01*
X323750D01*
X327250Y214550D02*
X330400D01*
X327250Y218950D02*
X330400D01*
Y214550D02*
Y218950D01*
X320600Y169800D02*
X323750D01*
X320600D02*
Y174200D01*
X323750D01*
X327250Y169800D02*
X330400D01*
X327250Y174200D02*
X330400D01*
Y169800D02*
Y174200D01*
X320500Y178250D02*
Y186750D01*
X332000Y178250D02*
Y186750D01*
X320600Y190550D02*
X323750D01*
X320600D02*
Y194950D01*
X323750D01*
X327250Y190550D02*
X330400D01*
X327250Y194950D02*
X330400D01*
Y190550D02*
Y194950D01*
X320600Y197050D02*
X323750D01*
X320600D02*
Y201450D01*
X323750D01*
X327250Y197050D02*
X330400D01*
X327250Y201450D02*
X330400D01*
Y197050D02*
Y201450D01*
X357500Y225450D02*
X360650D01*
Y221050D02*
Y225450D01*
X357500Y221050D02*
X360650D01*
X350850Y225450D02*
X354000D01*
X350850Y221050D02*
X354000D01*
X350850D02*
Y225450D01*
X333250Y269550D02*
X336400D01*
Y273950D01*
X333250D02*
X336400D01*
X326600Y269550D02*
X329750D01*
X326600Y273950D02*
X329750D01*
X326600Y269550D02*
Y273950D01*
X333000Y295050D02*
X336150D01*
Y299450D01*
X333000D02*
X336150D01*
X326350Y295050D02*
X329500D01*
X326350Y299450D02*
X329500D01*
X326350Y295050D02*
Y299450D01*
X333040Y150000D02*
Y148667D01*
Y149334D01*
X329041D01*
X329708Y150000D01*
D14*
X161490Y253750D02*
X170740D01*
X161490Y243750D02*
Y253750D01*
Y243750D02*
X170740D01*
X175740Y253750D02*
X184990D01*
X175740Y243750D02*
X184990D01*
Y253750D01*
X204490Y274000D02*
Y283250D01*
X194490D02*
X204490D01*
X194490Y274000D02*
Y283250D01*
X204490Y259750D02*
Y269000D01*
X194490Y259750D02*
Y269000D01*
Y259750D02*
X204490D01*
X216250Y254250D02*
X225500D01*
X216250Y244250D02*
Y254250D01*
Y244250D02*
X225500D01*
X230500Y254250D02*
X239750D01*
X230500Y244250D02*
X239750D01*
Y254250D01*
X259500Y275250D02*
Y284500D01*
X249500D02*
X259500D01*
X249500Y275250D02*
Y284500D01*
X259500Y261000D02*
Y270250D01*
X249500Y261000D02*
Y270250D01*
Y261000D02*
X259500D01*
X294985Y237250D02*
X304235D01*
Y247250D01*
X294985D02*
X304235D01*
X280735Y237250D02*
X289985D01*
X280735Y247250D02*
X289985D01*
X280735Y237250D02*
Y247250D01*
X317000Y249000D02*
X326250D01*
Y259000D01*
X317000D02*
X326250D01*
X302750Y249000D02*
X312000D01*
X302750Y259000D02*
X312000D01*
X302750Y249000D02*
Y259000D01*
X341250Y238000D02*
X350500D01*
X341250Y228000D02*
Y238000D01*
Y228000D02*
X350500D01*
X355500Y238000D02*
X364750D01*
X355500Y228000D02*
X364750D01*
Y238000D01*
X341250Y256662D02*
X350500D01*
X341250Y246662D02*
Y256662D01*
Y246662D02*
X350500D01*
X355500Y256662D02*
X364750D01*
X355500Y246662D02*
X364750D01*
Y256662D01*
X331749Y286999D02*
Y293499D01*
X324749D02*
X331749D01*
X324749Y286999D02*
Y293499D01*
X331749Y275499D02*
Y281999D01*
X324749Y275499D02*
Y281999D01*
Y275499D02*
X331749D01*
D15*
X70750Y187000D02*
G03*
X70750Y187000I-500J0D01*
G01*
X70750Y177000D02*
G03*
X70750Y177000I-500J0D01*
G01*
X70750Y294500D02*
G03*
X70750Y294500I-500J0D01*
G01*
Y283250D02*
G03*
X70750Y283250I-500J0D01*
G01*
X280240Y261070D02*
Y283930D01*
X294210D01*
X280240Y261070D02*
X294210Y261070D01*
X299290Y283930D02*
X313260D01*
Y261070D02*
Y283930D01*
X299290Y261070D02*
X313260Y261070D01*
X328500Y222811D02*
Y242811D01*
X308500Y222811D02*
X328500D01*
X308500Y242811D02*
X328500D01*
X308500Y222811D02*
Y242811D01*
D69*
X183238Y254499D02*
G03*
X183238Y254499I-1000J0D01*
G01*
X238248Y255749D02*
G03*
X238248Y255749I-1000J0D01*
G01*
D112*
X42320Y217290D02*
G03*
X42320Y216290I0J-500D01*
G01*
D02*
G03*
X42320Y217290I0J500D01*
G01*
D113*
X344140Y81500D02*
X369140D01*
Y144900D01*
X344140Y81500D02*
Y144900D01*
X369140D01*
X46750Y189000D02*
Y198000D01*
Y158000D02*
Y166550D01*
X4250Y170330D02*
Y185220D01*
X23280Y198000D02*
X46750D01*
X24620Y158000D02*
X46750D01*
X45750Y295500D02*
Y304500D01*
Y264500D02*
Y273050D01*
X3250Y276830D02*
Y291720D01*
X22280Y304500D02*
X45750D01*
X23620Y264500D02*
X45750D01*
X353750Y198000D02*
X375880D01*
X353750Y158000D02*
X377220D01*
X396250Y170780D02*
Y185670D01*
X353750Y189450D02*
Y198000D01*
Y158000D02*
Y167000D01*
X353500Y264500D02*
Y273500D01*
Y295950D02*
Y304500D01*
X396000Y277280D02*
Y292170D01*
X353500Y264500D02*
X376970D01*
X353500Y304500D02*
X375630D01*
M02*
