M48
;Layer_Color=9474304
;FILE_FORMAT=4:4
METRIC,LZ
;TYPE=PLATED
T01F00S00C0.1000
T02F00S00C0.1500
%
T01
X0005775Y000495
Y00053
X0006125Y0005265
X0006475
X0006825
X0007175Y0005265
X0007525Y000495
X0007875
X0007875Y000565
Y0006
Y000635
X0007875Y0006735
X0007525
X0007175
X0006825
X0006475
X0006125
X0006125Y000635
Y0006
Y000565
X0005775Y00067
Y000705
X000721Y000739
X000715Y0008675
X0005275Y00091
X0008225Y000705
Y00067
Y000565
X000815Y000385
X0009625Y00043938
T02
X0015816Y00048151
X00189868Y00047389
X0018963Y00043579
X00181732Y00038727
X0018525Y00061
X0018875
X0019225
X0019575
X0019925
Y000645
Y00068
Y000715
X0019575
X0019225
X0018875
X0018525
Y00068
Y000645
X00192678Y00089045
X00195002Y00094442
X00215961Y00095259
X00216046Y00088791
X00215461Y00083026
X00238346Y0006782
X00202838Y00019449
X0020233Y00014623
X00163976Y00085489
Y00090061
X00155848Y00089807
M30
