G04*
G04 #@! TF.GenerationSoftware,Altium Limited,Altium Designer,25.2.1 (25)*
G04*
G04 Layer_Color=128*
%FSLAX44Y44*%
%MOMM*%
G71*
G04*
G04 #@! TF.SameCoordinates,FED8839F-E969-4304-A6C3-1DC976675259*
G04*
G04*
G04 #@! TF.FilePolarity,Positive*
G04*
G01*
G75*
%ADD16C,0.1270*%
D16*
X93750Y206750D02*
X94750D01*
X94250Y206250D02*
Y207250D01*
X106000Y234500D02*
X107000D01*
X106500Y234000D02*
Y235000D01*
X347250Y242500D02*
X348250D01*
X347750Y242000D02*
Y243000D01*
X207500Y279000D02*
X208500D01*
X208000Y278500D02*
Y279500D01*
X281500Y161000D02*
X282500D01*
X282000Y160500D02*
Y161500D01*
X281000Y179250D02*
X282000D01*
X281500Y178750D02*
Y179750D01*
X83465Y213465D02*
X84465D01*
X83965Y212965D02*
Y213965D01*
X46750Y191750D02*
X47750D01*
X47250Y191250D02*
Y192250D01*
X262802Y130250D02*
X263802D01*
X263302Y129750D02*
Y130750D01*
X246198Y121553D02*
X247198D01*
X246698Y121053D02*
Y122053D01*
X276500Y111250D02*
X277500D01*
X277000Y110750D02*
Y111750D01*
X31948Y209159D02*
X32948D01*
X32448Y208659D02*
Y209659D01*
X27991Y197669D02*
X28991D01*
X28491Y197169D02*
Y198169D01*
X29000Y190250D02*
X30000D01*
X29500Y189750D02*
Y190750D01*
X79500Y243750D02*
X80500D01*
X80000Y243250D02*
Y244250D01*
X65077Y245012D02*
X66077D01*
X65577Y244512D02*
Y245512D01*
X36500Y246000D02*
X37500D01*
X37000Y245500D02*
Y246500D01*
X71250Y245500D02*
X72250D01*
X71750Y245000D02*
Y246000D01*
X276513Y204205D02*
X277513D01*
X277013Y203705D02*
Y204705D01*
X253750Y297750D02*
X254750D01*
X254250Y297250D02*
Y298250D01*
X311250Y119250D02*
X312250D01*
X311750Y118750D02*
Y119750D01*
X278252Y297750D02*
X279252D01*
X278752Y297250D02*
Y298250D01*
X330000Y245250D02*
X331000D01*
X330500Y244750D02*
Y245750D01*
X80028Y253453D02*
X81028D01*
X80528Y252953D02*
Y253953D01*
X100250Y240750D02*
X101250D01*
X100750Y240250D02*
Y241250D01*
X320500Y212000D02*
X321500D01*
X321000Y211500D02*
Y212500D01*
X213810Y186655D02*
X214810D01*
X214310Y186155D02*
Y187155D01*
X113250Y233500D02*
X114250D01*
X113750Y233000D02*
Y234000D01*
X117895Y224803D02*
X118895D01*
X118395Y224303D02*
Y225303D01*
X190206Y175282D02*
X191206D01*
X190706Y174782D02*
Y175782D01*
X193690Y175250D02*
X194690D01*
X194190Y174750D02*
Y175750D01*
X164250Y148036D02*
X165250D01*
X164750Y147536D02*
Y148536D01*
X167250Y104435D02*
X168250D01*
X167750Y103935D02*
Y104935D01*
X152750Y132039D02*
X153750D01*
X153250Y131539D02*
Y132539D01*
X276750Y87750D02*
X277750D01*
X277250Y87250D02*
Y88250D01*
X276750Y125250D02*
X277750D01*
X277250Y124750D02*
Y125750D01*
X276731Y138231D02*
X277731D01*
X277231Y137731D02*
Y138731D01*
X313500Y209500D02*
X314500D01*
X314000Y209000D02*
Y210000D01*
X286061Y228811D02*
X287061D01*
X286561Y228311D02*
Y229311D01*
X291459Y253000D02*
X292459D01*
X291959Y252500D02*
Y253500D01*
X12500Y254250D02*
X13500D01*
X13000Y253750D02*
Y254750D01*
X23250Y216000D02*
X24250D01*
X23750Y215500D02*
Y216500D01*
X41250Y226500D02*
X42250D01*
X41750Y226000D02*
Y227000D01*
X40760Y163103D02*
X41760D01*
X41260Y162603D02*
Y163603D01*
X61522Y206500D02*
X62522D01*
X62022Y206000D02*
Y207000D01*
X65035Y209965D02*
X66035D01*
X65535Y209465D02*
Y210465D01*
X65035Y206465D02*
X66035D01*
X65535Y205965D02*
Y206965D01*
X68535Y206465D02*
X69535D01*
X69035Y205965D02*
Y206965D01*
X61500Y210000D02*
X62500D01*
X62000Y209500D02*
Y210500D01*
X68535Y209965D02*
X69535D01*
X69035Y209465D02*
Y210465D01*
X88500Y204250D02*
X89500D01*
X89000Y203750D02*
Y204750D01*
M02*
