G04*
G04 #@! TF.GenerationSoftware,Altium Limited,Altium Designer,25.2.1 (25)*
G04*
G04 Layer_Color=128*
%FSLAX44Y44*%
%MOMM*%
G71*
G04*
G04 #@! TF.SameCoordinates,854DBFE2-DFE7-4A3D-8861-6C5ED611F316*
G04*
G04*
G04 #@! TF.FilePolarity,Positive*
G04*
G01*
G75*
%ADD20R,0.2700X0.3000*%
%ADD25R,0.6000X0.5000*%
%ADD28R,0.2000X0.3500*%
%ADD32R,0.7500X0.8000*%
%ADD80R,2.0300X0.7600*%
%ADD84R,0.8000X0.7500*%
%ADD85R,1.8000X1.2000*%
%ADD86R,1.5500X0.6000*%
%ADD87R,0.7501X0.7501*%
%ADD89R,1.1300X1.8200*%
%ADD90C,0.1930*%
%ADD91R,0.5000X0.6500*%
%ADD108C,0.2250*%
%ADD109R,0.4000X0.9000*%
%ADD110R,0.3000X0.5000*%
%ADD111R,0.2750X2.0250*%
D20*
X328350Y172000D02*
D03*
X322650D02*
D03*
X37250Y215000D02*
D03*
X31550D02*
D03*
X328350Y205750D02*
D03*
X322650D02*
D03*
X322650Y216750D02*
D03*
X328350D02*
D03*
X322650Y192750D02*
D03*
X328350D02*
D03*
X322650Y199250D02*
D03*
X328350D02*
D03*
X358600Y223250D02*
D03*
X352900D02*
D03*
X334350Y271750D02*
D03*
X328650D02*
D03*
X334100Y297250D02*
D03*
X328400D02*
D03*
D25*
X330500Y162250D02*
D03*
X320500D02*
D03*
D28*
X322750Y178250D02*
D03*
X326250D02*
D03*
X329750D02*
D03*
X322750Y186750D02*
D03*
X326250D02*
D03*
X329750D02*
D03*
D32*
X166490Y248750D02*
D03*
X179990D02*
D03*
X221250Y249250D02*
D03*
X234750D02*
D03*
X299235Y242250D02*
D03*
X285735D02*
D03*
X321250Y254000D02*
D03*
X307750D02*
D03*
X346250Y233000D02*
D03*
X359750D02*
D03*
X346250Y251662D02*
D03*
X359750D02*
D03*
D80*
X328690Y87800D02*
D03*
X298190D02*
D03*
X328690Y100500D02*
D03*
X298190D02*
D03*
X328690Y113200D02*
D03*
X298190D02*
D03*
X328690Y125900D02*
D03*
X298190D02*
D03*
X328690Y138600D02*
D03*
X298190D02*
D03*
D84*
X199490Y278250D02*
D03*
Y264750D02*
D03*
X254500Y279500D02*
D03*
Y266000D02*
D03*
D85*
X11250Y196000D02*
D03*
Y160000D02*
D03*
X10250Y302500D02*
D03*
Y266500D02*
D03*
X389250Y196000D02*
D03*
Y160000D02*
D03*
X389000Y266500D02*
D03*
Y302500D02*
D03*
D86*
X50000Y183000D02*
D03*
Y173000D02*
D03*
X49000Y289500D02*
D03*
Y279500D02*
D03*
X350500Y183000D02*
D03*
Y173000D02*
D03*
X350250Y279500D02*
D03*
Y289500D02*
D03*
D87*
X34700Y224799D02*
D03*
X23750D02*
D03*
X12800D02*
D03*
Y236701D02*
D03*
X23750D02*
D03*
X34700D02*
D03*
D89*
X287900Y272500D02*
D03*
X305600Y272500D02*
D03*
D90*
X326500Y224811D02*
D03*
X322500Y228811D02*
D03*
Y224811D02*
D03*
X326500Y228811D02*
D03*
Y232811D02*
D03*
X322500D02*
D03*
X318500Y224811D02*
D03*
Y228811D02*
D03*
X314500D02*
D03*
X318500Y236811D02*
D03*
Y232811D02*
D03*
X326500Y240811D02*
D03*
Y236811D02*
D03*
X322500D02*
D03*
Y240811D02*
D03*
X318500D02*
D03*
X314500Y232811D02*
D03*
X314500Y224811D02*
D03*
X310500Y228811D02*
D03*
Y224811D02*
D03*
Y236811D02*
D03*
Y232811D02*
D03*
X314500Y240811D02*
D03*
Y236811D02*
D03*
X310500Y240811D02*
D03*
D91*
X328250Y289250D02*
D03*
Y279750D02*
D03*
D108*
X64750Y182750D02*
D03*
X68750D02*
D03*
X68750Y172750D02*
D03*
X64750D02*
D03*
X68750Y290250D02*
D03*
X64750D02*
D03*
Y279000D02*
D03*
X68750D02*
D03*
D109*
X168738Y271503D02*
D03*
X177742Y271497D02*
D03*
X223750Y272754D02*
D03*
X232750Y272746D02*
D03*
D110*
X173240Y261250D02*
D03*
X167740D02*
D03*
X178740D02*
D03*
X167740Y281750D02*
D03*
X178740D02*
D03*
X173240Y281750D02*
D03*
X228250Y262500D02*
D03*
X222750D02*
D03*
X233750D02*
D03*
X222750Y283000D02*
D03*
X233750D02*
D03*
X228250Y283000D02*
D03*
D111*
X160490Y271500D02*
D03*
X185990D02*
D03*
X215500Y272750D02*
D03*
X241000D02*
D03*
M02*
